# Blender 5.0.0
# www.blender.org
mtllib final left pumpkin.mtl
o LEFT_PUMPKIN
v 1399.260010 -393.140900 1028.729980
v 1399.369995 -393.169922 1028.760010
v 1399.290039 -393.182922 1028.709961
v 1399.280029 -393.148895 1028.780029
v 1399.359985 -393.202911 1028.729980
v 1399.339966 -393.219910 1028.709961
v 1399.369995 -393.201904 1028.729980
v 1399.410034 -393.211914 1028.780029
v 1399.359985 -393.172913 1028.790039
v 1399.359985 -393.169922 1028.800049
v 1399.329956 -393.164917 1028.819946
v 1399.479980 -393.370911 1028.689941
v 1399.520020 -393.467896 1028.630005
v 1399.469971 -393.439911 1028.609985
v 1399.550049 -393.452911 1028.680054
v 1399.390015 -393.398895 1028.589966
v 1399.400024 -393.410919 1028.579956
v 1399.550049 -393.419922 1028.719971
v 1399.560059 -393.451904 1028.719971
v 1399.540039 -393.408905 1028.719971
v 1399.530029 -393.399902 1028.719971
v 1399.489990 -393.311920 1028.750000
v 1399.400024 -393.332916 1028.670044
v 1399.359985 -393.328918 1028.609985
v 1399.380005 -393.309906 1028.650024
v 1399.400024 -393.280914 1028.699951
v 1399.489990 -393.298920 1028.750000
v 1399.410034 -393.269897 1028.729980
v 1399.430054 -393.252899 1028.750000
v 1399.459961 -393.254913 1028.770020
v 1399.469971 -393.239899 1028.880005
v 1399.400024 -393.207916 1028.859985
v 1399.369995 -393.206909 1028.939941
v 1399.420044 -393.214905 1028.829956
v 1399.459961 -393.228912 1028.829956
v 1399.380005 -393.194916 1028.880005
v 1399.349976 -393.176910 1028.930054
v 1399.319946 -393.160919 1028.969971
v 1399.479980 -393.243896 1028.890015
v 1399.339966 -393.188904 1029.040039
v 1399.449951 -393.240906 1028.969971
v 1399.510010 -393.276917 1028.979980
v 1399.510010 -393.281921 1028.989990
v 1399.420044 -393.224915 1029.069946
v 1399.349976 -393.190918 1029.050049
v 1399.469971 -393.256897 1029.079956
v 1399.510010 -393.281921 1029.050049
v 1399.520020 -393.287903 1029.000000
v 1399.530029 -393.308899 1029.020020
v 1399.199951 -393.267914 1028.520020
v 1399.239990 -393.350922 1028.510010
v 1399.199951 -393.331909 1028.520020
v 1399.250000 -393.258911 1028.510010
v 1399.329956 -393.304901 1028.560059
v 1399.219971 -393.134918 1028.579956
v 1399.250000 -393.224915 1028.589966
v 1399.170044 -393.208923 1028.569946
v 1398.589966 -392.876923 1028.430054
v 1399.270020 -393.119904 1028.579956
v 1399.349976 -393.184906 1028.660034
v 1399.619995 -393.572906 1028.880005
v 1399.670044 -393.554901 1028.910034
v 1399.650024 -393.588898 1028.900024
v 1399.670044 -393.606903 1028.910034
v 1399.640015 -393.530914 1028.880005
v 1399.599976 -393.568909 1028.849976
v 1399.630005 -393.513916 1028.859985
v 1399.699951 -393.561920 1028.910034
v 1399.719971 -393.648895 1028.910034
v 1399.750000 -393.616913 1028.910034
v 1399.760010 -393.624908 1028.920044
v 1399.729980 -393.651917 1028.920044
v 1399.189941 -393.077911 1028.750000
v 1399.209961 -393.155914 1028.819946
v 1399.130005 -393.121918 1028.800049
v 1398.589966 -392.774902 1028.579956
v 1399.239990 -393.079895 1028.750000
v 1399.329956 -393.109894 1028.829956
v 1399.170044 -393.145905 1028.949951
v 1399.219971 -393.102905 1028.890015
v 1399.199951 -393.160919 1028.959961
v 1399.280029 -393.108917 1028.979980
v 1399.170044 -393.105896 1028.900024
v 1399.109985 -393.130920 1028.939941
v 1399.239990 -393.112915 1028.670044
v 1399.219971 -393.134918 1028.579956
v 1399.199951 -393.117920 1028.660034
v 1398.589966 -392.876923 1028.430054
v 1399.270020 -393.119904 1028.579956
v 1399.349976 -393.184906 1028.660034
v 1399.189941 -393.077911 1028.750000
v 1399.189941 -393.026917 1028.810059
v 1399.239990 -393.013916 1028.819946
v 1398.589966 -392.774902 1028.579956
v 1399.239990 -393.079895 1028.750000
v 1399.329956 -393.109894 1028.829956
v 1399.250000 -393.241913 1028.589966
v 1399.250000 -393.258911 1028.510010
v 1399.329956 -393.304901 1028.560059
v 1399.219971 -393.102905 1028.890015
v 1399.209961 -393.049896 1028.959961
v 1399.280029 -393.108917 1028.979980
v 1399.650024 -393.491913 1028.920044
v 1399.660034 -393.518921 1028.979980
v 1399.680054 -393.524902 1028.939941
v 1399.719971 -393.525909 1028.949951
v 1399.630005 -393.484894 1028.969971
v 1399.640015 -393.462921 1028.910034
v 1399.619995 -393.453918 1028.969971
v 1399.709961 -393.521912 1029.010010
v 1399.729980 -393.576904 1028.969971
v 1399.760010 -393.588898 1028.939941
v 1399.739990 -393.593903 1028.969971
v 1399.760010 -393.602905 1028.939941
v 1399.640015 -393.530914 1028.880005
v 1399.650024 -393.491913 1028.920044
v 1399.670044 -393.554901 1028.910034
v 1399.640015 -393.462921 1028.910034
v 1399.630005 -393.513916 1028.859985
v 1399.680054 -393.524902 1028.939941
v 1399.699951 -393.561920 1028.910034
v 1399.719971 -393.525909 1028.949951
v 1399.760010 -393.588898 1028.939941
v 1399.750000 -393.616913 1028.910034
v 1399.760010 -393.624908 1028.920044
v 1399.760010 -393.602905 1028.939941
v 1399.729980 -393.651917 1028.920044
v 1399.739990 -393.593903 1028.969971
v 1399.719971 -393.616913 1028.989990
v 1399.760010 -393.624908 1028.920044
v 1399.760010 -393.602905 1028.939941
v 1399.670044 -393.555908 1029.050049
v 1399.709961 -393.521912 1029.010010
v 1399.709961 -393.604919 1029.000000
v 1399.729980 -393.576904 1028.969971
v 1399.209961 -393.089905 1028.890015
v 1399.209961 -393.155914 1028.819946
v 1399.329956 -393.109894 1028.829956
v 1399.189941 -393.107910 1029.030029
v 1399.199951 -393.160919 1028.959961
v 1399.280029 -393.108917 1028.979980
v 1399.239990 -393.350922 1028.510010
v 1399.239990 -393.333923 1028.589966
v 1399.329956 -393.304901 1028.560059
v 1399.250000 -393.224915 1028.589966
v 1399.229980 -393.217896 1028.680054
v 1399.349976 -393.184906 1028.660034
v 1399.150024 -393.109894 1029.000000
v 1399.189941 -393.107910 1029.030029
v 1399.150024 -393.069916 1028.949951
v 1399.209961 -393.049896 1028.959961
v 1399.280029 -393.108917 1028.979980
v 1399.189941 -393.026917 1028.810059
v 1399.140015 -393.071899 1028.869995
v 1399.209961 -393.089905 1028.890015
v 1398.589966 -392.774902 1028.579956
v 1399.239990 -393.013916 1028.819946
v 1399.329956 -393.109894 1028.829956
v 1399.630005 -393.484894 1028.969971
v 1399.599976 -393.512909 1029.010010
v 1399.660034 -393.518921 1028.979980
v 1399.579956 -393.489899 1029.020020
v 1399.619995 -393.453918 1028.969971
v 1399.640015 -393.541901 1029.010010
v 1399.670044 -393.555908 1029.050049
v 1399.709961 -393.521912 1029.010010
v 1399.709961 -393.604919 1029.000000
v 1399.729980 -393.576904 1028.969971
v 1399.739990 -393.593903 1028.969971
v 1399.719971 -393.616913 1028.989990
v 1399.229980 -393.217896 1028.680054
v 1399.199951 -393.117920 1028.660034
v 1399.150024 -393.190918 1028.650024
v 1398.589966 -392.876923 1028.430054
v 1399.239990 -393.112915 1028.670044
v 1399.349976 -393.184906 1028.660034
v 1399.209961 -393.319916 1028.579956
v 1399.239990 -393.333923 1028.589966
v 1399.250000 -393.241913 1028.589966
v 1399.329956 -393.304901 1028.560059
v 1399.199951 -393.255920 1028.579956
v 1399.150024 -393.305908 1028.569946
v 1399.640015 -393.541901 1029.010010
v 1399.670044 -393.606903 1028.910034
v 1399.709961 -393.604919 1029.000000
v 1399.670044 -393.555908 1029.050049
v 1399.719971 -393.616913 1028.989990
v 1399.729980 -393.651917 1028.920044
v 1399.719971 -393.648895 1028.910034
v 1399.650024 -393.588898 1028.900024
v 1399.619995 -393.572906 1028.880005
v 1399.599976 -393.512909 1029.010010
v 1399.599976 -393.568909 1028.849976
v 1399.579956 -393.489899 1029.020020
v 1399.130005 -393.121918 1028.800049
v 1399.209961 -393.089905 1028.890015
v 1399.140015 -393.071899 1028.869995
v 1398.589966 -392.774902 1028.579956
v 1399.209961 -393.155914 1028.819946
v 1399.170044 -393.145905 1028.949951
v 1399.189941 -393.107910 1029.030029
v 1399.150024 -393.109894 1029.000000
v 1399.109985 -393.130920 1028.939941
v 1399.199951 -393.160919 1028.959961
v 1399.209961 -393.319916 1028.579956
v 1399.239990 -393.350922 1028.510010
v 1399.239990 -393.333923 1028.589966
v 1399.199951 -393.331909 1028.520020
v 1399.150024 -393.305908 1028.569946
v 1399.150024 -393.190918 1028.650024
v 1399.250000 -393.224915 1028.589966
v 1399.229980 -393.217896 1028.680054
v 1399.170044 -393.208923 1028.569946
v 1398.589966 -392.876923 1028.430054
v 1399.150024 -393.109894 1029.000000
v 1399.150024 -393.069916 1028.949951
v 1399.109985 -393.130920 1028.939941
v 1399.199951 -393.267914 1028.520020
v 1399.199951 -393.331909 1028.520020
v 1399.150024 -393.305908 1028.569946
v 1399.239990 -393.112915 1028.670044
v 1399.219971 -393.134918 1028.579956
v 1399.270020 -393.119904 1028.579956
v 1399.189941 -393.077911 1028.750000
v 1399.189941 -393.026917 1028.810059
v 1399.239990 -393.013916 1028.819946
v 1399.250000 -393.241913 1028.589966
v 1399.199951 -393.267914 1028.520020
v 1399.199951 -393.255920 1028.579956
v 1399.150024 -393.305908 1028.569946
v 1399.250000 -393.258911 1028.510010
v 1399.219971 -393.102905 1028.890015
v 1399.150024 -393.069916 1028.949951
v 1399.209961 -393.049896 1028.959961
v 1399.170044 -393.105896 1028.900024
v 1399.109985 -393.130920 1028.939941
v 1399.359985 -393.374908 1028.469971
v 1399.219971 -393.422913 1028.560059
v 1399.260010 -393.325897 1028.500000
v 1399.290039 -393.485901 1028.540039
v 1399.400024 -393.403900 1028.520020
v 1399.339966 -393.502899 1028.579956
v 1399.449951 -393.579895 1028.569946
v 1399.530029 -393.468903 1028.510010
v 1399.569946 -393.494904 1028.579956
v 1399.489990 -393.584900 1028.630005
v 1399.619995 -393.526917 1028.660034
v 1399.550049 -393.596893 1028.699951
v 1399.420044 -393.224915 1029.069946
v 1399.349976 -393.191895 1029.050049
v 1399.369995 -393.154907 1029.040039
v 1399.449951 -393.188904 1029.060059
v 1399.500000 -393.219910 1029.069946
v 1399.469971 -393.256897 1029.079956
v 1399.310059 -393.101898 1028.760010
v 1399.280029 -393.148895 1028.780029
v 1399.329956 -393.164917 1028.819946
v 1399.359985 -393.117920 1028.800049
v 1399.359985 -393.172913 1028.790039
v 1399.390015 -393.125916 1028.780029
v 1399.439941 -393.164917 1028.760010
v 1399.410034 -393.211914 1028.780029
v 1399.430054 -393.252899 1028.750000
v 1399.449951 -393.215912 1028.739990
v 1399.459961 -393.254913 1028.770020
v 1399.489990 -393.217896 1028.760010
v 1399.510010 -393.261902 1028.739990
v 1399.589966 -393.414917 1028.709961
v 1399.489990 -393.298920 1028.750000
v 1399.560059 -393.451904 1028.719971
v 1399.520020 -393.274902 1028.729980
v 1399.550049 -393.419922 1028.719971
v 1399.489990 -393.311920 1028.750000
v 1399.579956 -393.382904 1028.699951
v 1399.560059 -393.362915 1028.699951
v 1399.540039 -393.408905 1028.719971
v 1399.530029 -393.399902 1028.719971
v 1399.569946 -393.371918 1028.699951
v 1399.609985 -393.262909 1028.819946
v 1399.619995 -393.425903 1028.760010
v 1399.579956 -393.377899 1028.709961
v 1399.650024 -393.334900 1028.859985
v 1399.670044 -393.435913 1028.910034
v 1399.560059 -393.362915 1028.699951
v 1399.569946 -393.371918 1028.699951
v 1399.520020 -393.274902 1028.729980
v 1399.530029 -393.210907 1028.790039
v 1399.510010 -393.261902 1028.739990
v 1399.489990 -393.217896 1028.760010
v 1399.439941 -393.171906 1028.770020
v 1399.449951 -393.215912 1028.739990
v 1399.439941 -393.232910 1028.709961
v 1399.439941 -393.164917 1028.760010
v 1399.400024 -393.154907 1028.709961
v 1399.400024 -393.155914 1028.709961
v 1399.420044 -393.243896 1028.680054
v 1399.390015 -393.260895 1028.619995
v 1399.400024 -393.272919 1028.630005
v 1399.369995 -393.172913 1028.689941
v 1399.239990 -393.206909 1028.609985
v 1399.319946 -393.136902 1028.689941
v 1399.290039 -393.093903 1028.709961
v 1399.219971 -393.071899 1028.689941
v 1399.219971 -393.092896 1028.849976
v 1399.359985 -393.117920 1028.800049
v 1399.310059 -393.101898 1028.760010
v 1399.290039 -393.093903 1028.709961
v 1399.219971 -393.071899 1028.689941
v 1399.359985 -393.123901 1028.910034
v 1399.390015 -393.123901 1028.780029
v 1399.400024 -393.157898 1028.869995
v 1399.369995 -393.139923 1028.920044
v 1399.420044 -393.171906 1028.839966
v 1399.390015 -393.125916 1028.780029
v 1399.439941 -393.164917 1028.760010
v 1399.439941 -393.171906 1028.770020
v 1399.449951 -393.177917 1028.819946
v 1399.479980 -393.192902 1028.810059
v 1399.530029 -393.210907 1028.790039
v 1399.500000 -393.203918 1028.859985
v 1399.500000 -393.206909 1028.880005
v 1399.609985 -393.262909 1028.819946
v 1399.530029 -393.239899 1028.969971
v 1399.550049 -393.251923 1028.979980
v 1399.540039 -393.245911 1028.979980
v 1399.589966 -393.321899 1028.989990
v 1399.650024 -393.334900 1028.859985
v 1399.670044 -393.435913 1028.910034
v 1399.260010 -393.325897 1028.500000
v 1399.239990 -393.206909 1028.609985
v 1399.390015 -393.260895 1028.619995
v 1399.359985 -393.374908 1028.469971
v 1399.390015 -393.291901 1028.599976
v 1399.400024 -393.272919 1028.630005
v 1399.410034 -393.361908 1028.569946
v 1399.400024 -393.403900 1028.520020
v 1399.420044 -393.374908 1028.569946
v 1399.500000 -393.402924 1028.599976
v 1399.530029 -393.468903 1028.510010
v 1399.540039 -393.430908 1028.619995
v 1399.569946 -393.494904 1028.579956
v 1399.569946 -393.415894 1028.670044
v 1399.619995 -393.526917 1028.660034
v 1399.589966 -393.414917 1028.709961
v 1399.619995 -393.425903 1028.760010
v 1399.650024 -393.550903 1028.790039
v 1399.640015 -393.483917 1028.849976
v 1399.579956 -393.377899 1028.709961
v 1399.579956 -393.382904 1028.699951
v 1399.569946 -393.371918 1028.699951
v 1399.199951 -393.086914 1029.010010
v 1399.359985 -393.123901 1028.910034
v 1399.219971 -393.092896 1028.849976
v 1399.290039 -393.088898 1029.089966
v 1399.349976 -393.124908 1028.949951
v 1399.369995 -393.139923 1028.920044
v 1399.369995 -393.151917 1029.020020
v 1399.349976 -393.140900 1029.089966
v 1399.369995 -393.154907 1029.040039
v 1399.449951 -393.188904 1029.060059
v 1399.459961 -393.160919 1029.170044
v 1399.500000 -393.219910 1029.069946
v 1399.510010 -393.230896 1029.150024
v 1399.540039 -393.244904 1029.030029
v 1399.569946 -393.308899 1029.130005
v 1399.560059 -393.271912 1029.010010
v 1399.589966 -393.321899 1028.989990
v 1399.619995 -393.419922 1029.069946
v 1399.619995 -393.420898 1028.979980
v 1399.550049 -393.251923 1028.979980
v 1399.550049 -393.250916 1028.989990
v 1399.540039 -393.245911 1028.979980
v 1399.569946 -393.308899 1029.130005
v 1399.500000 -393.387909 1029.150024
v 1399.619995 -393.419922 1029.069946
v 1399.569946 -393.460907 1029.079956
v 1399.619995 -393.544922 1028.959961
v 1399.619995 -393.526917 1028.660034
v 1399.550049 -393.596893 1028.699951
v 1399.650024 -393.550903 1028.790039
v 1399.599976 -393.586914 1028.810059
v 1399.619995 -393.544922 1028.959961
v 1399.349976 -393.191895 1029.050049
v 1399.369995 -393.154907 1029.040039
v 1399.339966 -393.188904 1029.040039
v 1399.369995 -393.151917 1029.020020
v 1399.319946 -393.161896 1028.969971
v 1399.349976 -393.124908 1028.949951
v 1399.349976 -393.176910 1028.930054
v 1399.369995 -393.139923 1028.920044
v 1399.380005 -393.194916 1028.880005
v 1399.400024 -393.157898 1028.869995
v 1399.400024 -393.207916 1028.859985
v 1399.420044 -393.171906 1028.839966
v 1399.420044 -393.214905 1028.829956
v 1399.449951 -393.177917 1028.819946
v 1399.619995 -393.425903 1028.760010
v 1399.670044 -393.435913 1028.910034
v 1399.640015 -393.483917 1028.849976
v 1399.619995 -393.544922 1028.959961
v 1399.589966 -393.321899 1028.989990
v 1399.670044 -393.435913 1028.910034
v 1399.619995 -393.420898 1028.979980
v 1399.619995 -393.544922 1028.959961
v 1399.650024 -393.550903 1028.790039
v 1399.640015 -393.483917 1028.849976
v 1399.619995 -393.544922 1028.959961
v 1399.619995 -393.419922 1029.069946
v 1399.619995 -393.420898 1028.979980
v 1399.619995 -393.544922 1028.959961
v 1399.319946 -393.136902 1028.689941
v 1399.290039 -393.182922 1028.709961
v 1399.260010 -393.140900 1028.729980
v 1399.290039 -393.093903 1028.709961
v 1399.310059 -393.101898 1028.760010
v 1399.280029 -393.148895 1028.780029
v 1399.380005 -393.309906 1028.650024
v 1399.359985 -393.328918 1028.609985
v 1399.390015 -393.291901 1028.599976
v 1399.410034 -393.361908 1028.569946
v 1399.400024 -393.272919 1028.630005
v 1399.390015 -393.398895 1028.589966
v 1399.400024 -393.280914 1028.699951
v 1399.420044 -393.374908 1028.569946
v 1399.420044 -393.243896 1028.680054
v 1399.400024 -393.411896 1028.579956
v 1399.410034 -393.269897 1028.729980
v 1399.439941 -393.232910 1028.709961
v 1399.430054 -393.252899 1028.750000
v 1399.449951 -393.215912 1028.739990
v 1399.430054 -393.332916 1029.170044
v 1399.510010 -393.230896 1029.150024
v 1399.380005 -393.284912 1029.199951
v 1399.459961 -393.160919 1029.170044
v 1399.569946 -393.308899 1029.130005
v 1399.349976 -393.140900 1029.089966
v 1399.500000 -393.387909 1029.150024
v 1399.290039 -393.250916 1029.119995
v 1399.229980 -393.211914 1029.119995
v 1399.290039 -393.088898 1029.089966
v 1399.160034 -393.194916 1029.050049
v 1399.199951 -393.086914 1029.010010
v 1399.530029 -393.308899 1029.020020
v 1399.560059 -393.271912 1029.010010
v 1399.520020 -393.287903 1029.000000
v 1399.550049 -393.250916 1028.989990
v 1399.510010 -393.282898 1028.989990
v 1399.420044 -393.214905 1028.829956
v 1399.540039 -393.245911 1028.979980
v 1399.449951 -393.177917 1028.819946
v 1399.510010 -393.276917 1028.979980
v 1399.459961 -393.229919 1028.829956
v 1399.530029 -393.239899 1028.969971
v 1399.479980 -393.192902 1028.810059
v 1399.479980 -393.243896 1028.890015
v 1399.500000 -393.203918 1028.859985
v 1399.500000 -393.206909 1028.880005
v 1399.469971 -393.239899 1028.880005
v 1399.369995 -393.201904 1028.729980
v 1399.439941 -393.164917 1028.760010
v 1399.400024 -393.154907 1028.709961
v 1399.410034 -393.211914 1028.780029
v 1399.369995 -393.172913 1028.689941
v 1399.339966 -393.219910 1028.709961
v 1399.319946 -393.136902 1028.689941
v 1399.290039 -393.182922 1028.709961
v 1399.420044 -393.374908 1028.569946
v 1399.400024 -393.411896 1028.579956
v 1399.469971 -393.439911 1028.609985
v 1399.500000 -393.402924 1028.599976
v 1399.540039 -393.430908 1028.619995
v 1399.520020 -393.467896 1028.630005
v 1399.239990 -393.206909 1028.609985
v 1399.219971 -393.092896 1028.849976
v 1399.219971 -393.071899 1028.689941
v 1399.290039 -393.250916 1029.119995
v 1399.339966 -393.502899 1028.579956
v 1399.569946 -393.460907 1029.079956
v 1399.500000 -393.387909 1029.150024
v 1399.430054 -393.332916 1029.170044
v 1399.380005 -393.284912 1029.199951
v 1399.599976 -393.586914 1028.810059
v 1399.619995 -393.544922 1028.959961
v 1399.550049 -393.596893 1028.699951
v 1399.489990 -393.584900 1028.630005
v 1399.449951 -393.579895 1028.569946
v 1399.160034 -393.194916 1029.050049
v 1399.229980 -393.211914 1029.119995
v 1399.219971 -393.422913 1028.560059
v 1399.290039 -393.485901 1028.540039
v 1399.160034 -393.194916 1029.050049
v 1399.239990 -393.206909 1028.609985
v 1399.219971 -393.422913 1028.560059
v 1399.260010 -393.325897 1028.500000
v 1399.219971 -393.092896 1028.849976
v 1399.199951 -393.086914 1029.010010
v 1399.500000 -393.219910 1029.069946
v 1399.469971 -393.256897 1029.079956
v 1399.510010 -393.281921 1029.050049
v 1399.540039 -393.244904 1029.030029
v 1399.530029 -393.308899 1029.020020
v 1399.560059 -393.271912 1029.010010
v 1399.459961 -393.229919 1028.829956
v 1399.479980 -393.192902 1028.810059
v 1399.500000 -393.203918 1028.859985
v 1399.469971 -393.239899 1028.880005
v 1399.369995 -393.201904 1028.729980
v 1399.400024 -393.154907 1028.709961
v 1399.400024 -393.155914 1028.709961
v 1399.359985 -393.202911 1028.729980
v 1399.369995 -393.172913 1028.689941
v 1399.339966 -393.219910 1028.709961
v 1399.329956 -393.164917 1028.819946
v 1399.359985 -393.117920 1028.800049
v 1399.359985 -393.169922 1028.800049
v 1399.390015 -393.123901 1028.780029
v 1399.359985 -393.172913 1028.790039
v 1399.390015 -393.125916 1028.780029
v 1399.540039 -393.430908 1028.619995
v 1399.520020 -393.467896 1028.630005
v 1399.459961 -393.254913 1028.770020
v 1399.550049 -393.452911 1028.680054
v 1399.489990 -393.217896 1028.760010
v 1399.569946 -393.415894 1028.670044
v 1399.510010 -393.261902 1028.739990
v 1399.589966 -393.414917 1028.709961
v 1399.489990 -393.298920 1028.750000
v 1399.560059 -393.451904 1028.719971
v 1399.180054 -393.570923 1028.560059
v 1399.329956 -393.228912 1028.750000
v 1399.420044 -393.289917 1028.780029
v 1399.270020 -393.631897 1028.599976
v 1399.319946 -393.191895 1028.819946
v 1399.410034 -393.252899 1028.859985
v 1399.219971 -393.695923 1028.630005
v 1399.130005 -393.635895 1028.589966
v 1399.180054 -393.570923 1028.560059
v 1399.270020 -393.631897 1028.599976
v 1399.040039 -393.705902 1029.030029
v 1398.949951 -393.645905 1028.989990
v 1399.160034 -393.432922 1029.170044
v 1399.069946 -393.371918 1029.130005
v 1399.209961 -393.345917 1029.209961
v 1399.119995 -393.285919 1029.170044
v 1399.319946 -393.191895 1028.819946
v 1399.410034 -393.252899 1028.859985
v 1399.130005 -393.600922 1028.650024
v 1398.959961 -393.674896 1028.920044
v 1399.050049 -393.735901 1028.959961
v 1399.040039 -393.705902 1029.030029
v 1399.219971 -393.660919 1028.680054
v 1399.170044 -393.548920 1028.630005
v 1399.260010 -393.609894 1028.660034
v 1398.949951 -393.645905 1028.989990
v 1399.050049 -393.735901 1028.959961
v 1399.040039 -393.705902 1029.030029
v 1399.000000 -393.752899 1029.050049
v 1399.010010 -393.789917 1028.969971
v 1399.150024 -393.410919 1029.239990
v 1399.219971 -393.695923 1028.630005
v 1399.160034 -393.432922 1029.170044
v 1399.219971 -393.660919 1028.680054
v 1399.270020 -393.631897 1028.599976
v 1399.260010 -393.609894 1028.660034
v 1399.209961 -393.380920 1029.150024
v 1399.209961 -393.345917 1029.209961
v 1399.369995 -393.306915 1028.869995
v 1399.410034 -393.252899 1028.859985
v 1399.380005 -393.335907 1028.810059
v 1399.260010 -393.609894 1028.660034
v 1399.270020 -393.631897 1028.599976
v 1399.420044 -393.289917 1028.780029
v 1399.369995 -393.306915 1028.869995
v 1399.410034 -393.252899 1028.859985
v 1399.060059 -393.349915 1029.199951
v 1398.910034 -393.691895 1029.010010
v 1399.000000 -393.752899 1029.050049
v 1398.920044 -393.728912 1028.939941
v 1399.150024 -393.410919 1029.239990
v 1399.010010 -393.789917 1028.969971
v 1399.209961 -393.345917 1029.209961
v 1399.119995 -393.285919 1029.170044
v 1399.380005 -393.335907 1028.810059
v 1399.290039 -393.275909 1028.770020
v 1399.260010 -393.609894 1028.660034
v 1399.170044 -393.548920 1028.630005
v 1398.920044 -393.728912 1028.939941
v 1399.010010 -393.789917 1028.969971
v 1399.219971 -393.695923 1028.630005
v 1399.130005 -393.635895 1028.589966
v 1399.160034 -393.432922 1029.170044
v 1399.069946 -393.371918 1029.130005
v 1399.209961 -393.380920 1029.150024
v 1399.119995 -393.320923 1029.109985
v 1399.369995 -393.306915 1028.869995
v 1399.280029 -393.245911 1028.839966
v 1399.380005 -393.335907 1028.810059
v 1399.280029 -393.245911 1028.839966
v 1399.290039 -393.275909 1028.770020
v 1399.369995 -393.306915 1028.869995
v 1398.920044 -393.728912 1028.939941
v 1399.130005 -393.600922 1028.650024
v 1399.130005 -393.635895 1028.589966
v 1399.180054 -393.570923 1028.560059
v 1399.170044 -393.548920 1028.630005
v 1398.959961 -393.674896 1028.920044
v 1398.910034 -393.691895 1029.010010
v 1398.949951 -393.645905 1028.989990
v 1399.069946 -393.371918 1029.130005
v 1399.060059 -393.349915 1029.199951
v 1399.119995 -393.320923 1029.109985
v 1399.119995 -393.285919 1029.170044
v 1399.319946 -393.191895 1028.819946
v 1399.280029 -393.245911 1028.839966
v 1399.170044 -393.548920 1028.630005
v 1399.290039 -393.275909 1028.770020
v 1399.329956 -393.228912 1028.750000
v 1399.180054 -393.570923 1028.560059
v 1399.280029 -393.245911 1028.839966
v 1399.319946 -393.191895 1028.819946
vn 0.3235 0.8601 -0.3945
vn 0.5571 0.7689 -0.3138
vn 0.3219 0.5731 -0.7536
vn 0.2513 0.9659 0.0628
vn 0.4250 0.5431 -0.7241
vn 0.3219 0.5730 -0.7537
vn 0.7467 0.3851 -0.5423
vn 0.7697 0.6048 -0.2042
vn 0.6684 0.7234 0.1729
vn 0.3547 0.9302 0.0946
vn 0.5341 0.5655 -0.6284
vn 0.6134 0.5663 -0.5505
vn 0.5427 0.6056 -0.5820
vn 0.6818 0.5173 -0.5172
vn 0.5508 0.5980 -0.5823
vn 0.4730 0.6386 -0.6070
vn 0.7079 0.4955 -0.5033
vn 0.8679 0.3392 -0.3629
vn 0.6134 0.5505 -0.5662
vn 0.6048 0.4791 -0.6361
vn 0.4875 0.5425 -0.6841
vn 0.6150 0.5125 -0.5992
vn 0.7603 0.4311 -0.4859
vn 0.7619 0.4084 -0.5027
vn 0.7612 0.3688 -0.5335
vn 0.4564 0.5587 -0.6925
vn 0.5121 0.5279 -0.6776
vn 0.3714 0.9244 0.0869
vn 0.4323 0.8959 0.1022
vn 0.5435 0.8349 0.0866
vn 0.3713 0.9244 0.0869
vn 0.6803 0.7119 0.1740
vn 0.6928 0.7085 0.1339
vn 0.7028 0.7028 0.1106
vn 0.4098 0.9064 0.1025
vn 0.4876 0.8730 0.0078
vn 0.4654 0.8834 0.0552
vn 0.5197 0.8425 0.1418
vn 0.5449 0.8371 0.0474
vn 0.4816 0.8764 -0.0000
vn 0.4089 0.9120 -0.0315
vn 0.5509 0.8342 0.0236
vn 0.6143 0.7876 0.0473
vn 0.6446 0.7625 0.0550
vn 0.8045 0.5836 0.1104
vn -0.3231 0.0315 -0.9458
vn -0.0393 0.0157 -0.9991
vn -0.5028 0.0157 -0.8643
vn 0.3138 -0.0157 -0.9494
vn 0.5267 -0.0393 -0.8491
vn 0.1732 -0.0394 -0.9841
vn 0.2915 -0.0788 -0.9533
vn 0.1975 -0.0316 -0.9798
vn 0.2202 -0.0236 -0.9752
vn 0.4871 -0.1257 -0.8643
vn 0.6276 -0.1647 -0.7609
vn 0.6627 -0.2997 -0.6863
vn 0.3396 -0.1264 -0.9320
vn 0.3626 -0.1340 -0.9223
vn 0.0948 0.0079 -0.9955
vn 0.6907 -0.3139 -0.6515
vn 0.7655 -0.3551 -0.5366
vn 0.0707 0.0235 -0.9972
vn 0.3144 -0.2358 -0.9196
vn 0.2588 -0.1804 -0.9489
vn 0.6134 -0.5505 -0.5663
vn -0.1260 -0.6693 -0.7323
vn -0.0079 -0.6871 -0.7266
vn -0.1338 -0.6767 -0.7240
vn -0.1415 -0.6841 -0.7155
vn 0.2045 -0.7077 -0.6763
vn 0.3623 -0.7010 -0.6143
vn -0.0944 -0.7712 -0.6296
vn 0.3467 -0.7643 -0.5437
vn 0.0395 -0.7810 -0.6232
vn 0.5491 -0.7060 -0.4472
vn -0.1101 -0.7629 -0.6371
vn -0.0709 -0.7797 -0.6222
vn 0.1652 0.9837 -0.0709
vn 0.0946 0.9853 -0.1419
vn 0.2281 0.9674 -0.1101
vn 0.3946 0.9155 -0.0789
vn 0.1653 0.9837 -0.0708
vn 0.5813 0.8091 0.0864
vn 0.3233 0.9462 -0.0157
vn 0.2128 0.7329 -0.6462
vn 0.3293 0.7057 -0.6273
vn 0.4954 0.6449 -0.5820
vn 0.4391 0.6508 -0.6194
vn 0.3226 0.6925 -0.6453
vn 0.6873 0.5057 -0.5214
vn 0.2200 0.9586 -0.1807
vn 0.5989 0.7881 -0.1419
vn 0.3373 0.9255 -0.1726
vn 0.2911 0.7710 -0.5664
vn 0.3626 0.7568 -0.5439
vn 0.6293 0.6608 -0.4091
vn 0.8429 0.5120 0.1654
vn 0.4874 0.8726 0.0315
vn 0.4813 0.8760 0.0316
vn 0.6220 0.7715 0.1338
vn 0.8130 0.5604 0.1579
vn 0.8979 0.3938 0.1969
vn 0.4898 0.8689 0.0711
vn 0.8418 0.4327 0.3226
vn 0.8397 0.4316 0.3296
vn 0.7889 0.4576 0.4102
vn 0.7889 0.4575 0.4102
vn 0.8507 0.2599 -0.4568
vn 0.8832 0.2129 -0.4179
vn 0.5981 0.4958 -0.6296
vn 0.9355 0.1258 -0.3302
vn 0.5431 0.5274 -0.6534
vn 0.3929 0.5972 -0.6993
vn 0.4186 0.5845 -0.6951
vn 0.6540 0.4412 -0.6145
vn 0.8026 0.3069 -0.5115
vn 0.9444 0.0945 -0.3148
vn 0.9445 0.0944 -0.3148
vn 0.7231 -0.5188 0.4559
vn 0.7232 -0.5188 0.4559
vn 0.7015 0.1261 0.7014
vn 0.4734 0.4497 0.7574
vn 0.3393 0.5682 0.7497
vn 0.7196 0.0949 0.6879
vn -0.1098 -0.7297 0.6748
vn -0.2354 -0.7142 0.6592
vn 0.1816 -0.7262 0.6631
vn -0.0788 -0.7966 0.5994
vn -0.1416 -0.7948 0.5902
vn 0.3468 -0.7015 0.6226
vn -0.0079 -0.9771 0.2128
vn 0.3938 -0.8979 0.1969
vn -0.1260 -0.9690 0.2127
vn 0.0158 -0.9938 0.1104
vn 0.2841 -0.9470 0.1499
vn -0.1498 -0.9856 0.0789
vn -0.6362 0.6284 0.4477
vn -0.2127 0.7721 0.5988
vn -0.4788 0.7144 0.5103
vn 0.1413 0.7382 0.6596
vn 0.3698 0.6608 0.6531
vn -0.0708 0.7473 0.6608
vn -0.0078 0.7452 0.6668
vn 0.0236 0.7069 0.7069
vn 0.0473 0.7409 0.6699
vn 0.2605 0.6080 0.7500
vn 0.4409 0.4960 0.7480
vn 0.5668 0.3621 0.7400
vn 0.5510 0.3857 0.7400
vn 0.0870 0.7353 0.6721
vn 0.6451 0.2674 0.7158
vn 0.6450 0.2674 0.7158
vn 0.1089 0.7218 0.6835
vn 0.3394 0.5682 0.7497
vn 0.7014 0.1261 0.7015
vn 0.5571 0.3138 0.7689
vn 0.7195 0.0949 0.6879
vn -0.1499 0.0710 0.9862
vn -0.2675 0.0865 0.9597
vn -0.2985 0.0864 0.9505
vn -0.3313 0.0947 0.9388
vn 0.0393 0.0550 0.9977
vn 0.1732 0.0394 0.9841
vn -0.2590 -0.0235 0.9656
vn -0.1337 -0.0236 0.9907
vn 0.1882 -0.0549 0.9806
vn 0.4080 -0.0706 0.9102
vn -0.2830 -0.0157 0.9590
vn -0.2368 -0.0316 0.9710
vn -0.6125 -0.7382 0.2827
vn -0.6126 -0.7382 0.2827
vn -0.5099 -0.6276 0.5883
vn -0.1099 -0.7298 0.6748
vn -0.4874 -0.6368 0.5974
vn -0.6006 -0.5848 0.5453
vn -0.2355 -0.7141 0.6592
vn -0.3552 -0.7814 0.5130
vn -0.0789 -0.7966 0.5994
vn -0.3621 -0.7792 0.5116
vn -0.3218 -0.7926 0.5179
vn -0.1416 -0.7948 0.5901
vn -0.3232 -0.9221 0.2128
vn -0.1261 -0.9689 0.2127
vn -0.3307 -0.9213 0.2048
vn -0.2913 -0.9290 0.2283
vn -0.4181 -0.9072 0.0473
vn 0.0157 -0.9938 0.1104
vn -0.1498 -0.9856 0.0788
vn -0.3859 -0.9213 0.0473
vn -0.4966 -0.8671 0.0394
vn -0.6362 0.6283 0.4477
vn -0.4789 0.7144 0.5102
vn -0.7814 0.5130 0.3552
vn -0.5029 0.0157 -0.8642
vn -0.6668 -0.0000 -0.7452
vn -0.3232 0.0315 -0.9458
vn 0.0946 0.9854 -0.1419
vn 0.3233 0.9462 -0.0158
vn 0.2127 0.7329 -0.6462
vn -0.3942 0.9067 -0.1498
vn -0.4173 0.8976 -0.1417
vn -0.6563 0.7511 -0.0712
vn 0.3372 0.9255 -0.1726
vn 0.2911 0.7710 -0.5665
vn -0.3561 0.6568 -0.6647
vn 0.3626 0.7567 -0.5439
vn -0.3386 0.6693 -0.6614
vn -0.5975 0.4874 -0.6368
vn -0.0554 -0.4748 -0.8784
vn -0.4247 -0.2674 -0.8650
vn -0.4246 -0.2674 -0.8650
vn -0.0079 -0.4970 -0.8677
vn 0.0551 -0.4963 -0.8664
vn 0.0237 -0.4815 -0.8761
vn 0.1567 -0.5800 -0.7994
vn 0.1263 -0.5683 -0.8131
vn 0.5042 -0.7011 -0.5042
vn 0.5057 -0.7586 -0.4109
vn 0.5117 -0.7637 -0.3937
vn 0.0315 -0.3861 -0.9219
vn 0.3790 -0.5527 -0.7422
vn 0.3952 -0.5612 -0.7272
vn -0.3466 -0.1261 -0.9295
vn -0.3075 -0.1577 -0.9384
vn 0.5507 -0.6058 -0.5743
vn 0.5662 -0.6134 -0.5505
vn -0.0000 -0.3632 -0.9317
vn -0.2278 -0.2121 -0.9503
vn -0.3846 -0.0942 -0.9183
vn -0.5178 0.0235 -0.8552
vn -0.5028 0.0079 -0.8644
vn 0.6770 -0.6219 -0.3936
vn 0.5841 -0.6157 -0.5289
vn -0.1106 -0.3000 -0.9475
vn -0.0947 -0.3077 -0.9468
vn -0.5449 0.0474 -0.8371
vn -0.5591 0.0554 -0.8272
vn -0.2600 -0.1969 -0.9453
vn -0.7239 0.2440 -0.6453
vn -0.8316 0.4472 -0.3295
vn -0.2600 -0.1970 -0.9453
vn -0.4175 -0.0709 -0.9059
vn -0.3637 -0.1107 -0.9249
vn 0.7331 0.3626 -0.5754
vn 0.8990 0.1025 -0.4258
vn 0.7240 0.3699 -0.5823
vn 0.9383 -0.2365 -0.2523
vn 0.5967 0.4789 -0.6438
vn 0.5967 0.4790 -0.6438
vn 0.5685 0.4974 -0.6553
vn 0.5285 0.5206 -0.6705
vn 0.6230 0.4731 -0.6229
vn 0.7094 0.4178 -0.5676
vn 0.7499 0.3868 -0.5367
vn 0.7498 0.3868 -0.5368
vn 0.6757 0.4322 -0.5971
vn 0.7499 0.3867 -0.5367
vn 0.5594 0.4885 -0.6697
vn 0.7499 0.3868 -0.5368
vn 0.3077 0.5759 -0.7574
vn 0.2134 0.9723 0.0949
vn 0.2134 0.9723 0.0948
vn 0.2135 0.9723 0.0949
vn 0.4740 0.8690 0.1422
vn 0.5917 0.7889 0.1657
vn 0.6765 0.7158 0.1731
vn 0.6360 0.7538 0.1649
vn 0.5437 0.8272 0.1418
vn 0.3711 0.9238 0.0947
vn 0.4472 0.8866 0.1177
vn 0.3711 0.9237 0.0947
vn 0.4806 0.8666 0.1339
vn 0.6462 0.7329 0.2127
vn 0.5139 0.8460 0.1423
vn 0.6435 0.7377 0.2040
vn 0.8185 0.4643 0.3384
vn 0.8163 0.4631 0.3453
vn 0.8597 0.1183 0.4969
vn 0.2516 0.7076 -0.6604
vn 0.2516 0.7075 -0.6604
vn 0.5427 0.5899 -0.5978
vn 0.5208 0.5997 -0.6076
vn 0.7570 0.4336 -0.4888
vn 0.7570 0.4336 -0.4889
vn 0.6803 0.5300 -0.5063
vn 0.5992 0.6150 -0.5125
vn 0.3937 0.7637 -0.5117
vn 0.5417 0.7066 -0.4553
vn 0.5806 0.6904 -0.4315
vn 0.7009 0.6143 -0.3623
vn 0.7643 0.5279 -0.3703
vn 0.8262 0.4249 -0.3699
vn 0.9000 0.3237 -0.2921
vn 0.8538 0.3681 -0.3682
vn 0.9226 0.2918 -0.2524
vn 0.9838 0.1732 -0.0473
vn 0.9913 0.1259 0.0393
vn 0.7486 0.4728 -0.4649
vn 0.7866 0.4405 -0.4326
vn 0.6135 0.5662 -0.5505
vn 0.1894 0.9787 -0.0789
vn 0.4721 0.8812 0.0236
vn 0.4566 0.8895 0.0157
vn 0.6910 0.7145 0.1099
vn 0.6234 0.7812 0.0316
vn 0.5506 0.8338 -0.0393
vn 0.3615 0.9115 -0.1964
vn 0.5120 0.8429 -0.1655
vn 0.5514 0.8192 -0.1575
vn 0.6781 0.7254 -0.1182
vn 0.7336 0.6784 -0.0394
vn 0.7838 0.6192 0.0470
vn 0.8585 0.5041 0.0945
vn 0.8058 0.5846 0.0948
vn 0.8857 0.4546 0.0940
vn 0.9708 0.2289 0.0710
vn 0.9895 0.1336 0.0549
vn 0.6938 0.7174 0.0630
vn 0.7324 0.6772 0.0708
vn 0.3713 -0.1501 0.9163
vn 0.4802 -0.4173 0.7715
vn 0.3626 -0.1340 0.9222
vn 0.4872 -0.4400 0.7543
vn 0.5181 -0.5808 0.6279
vn 0.5117 -0.7637 -0.3936
vn 0.5724 -0.8154 -0.0862
vn 0.5736 -0.8173 -0.0550
vn 0.5672 -0.8113 0.1418
vn 0.6706 -0.6232 -0.4024
vn 0.3791 -0.5527 -0.7422
vn 0.6706 -0.6233 -0.4023
vn 0.8184 -0.5745 -0.0157
vn 0.8408 -0.4872 0.2358
vn 0.7575 -0.2920 0.5839
vn 0.7575 -0.2919 0.5839
vn 0.7321 -0.2598 0.6297
vn 0.7203 -0.2427 0.6498
vn 0.6922 -0.2045 0.6922
vn 0.5450 -0.0474 0.8371
vn 0.4339 0.0552 0.8993
vn 0.9383 -0.2366 -0.2523
vn 0.9417 -0.2216 -0.2532
vn 0.8826 -0.4570 -0.1103
vn 0.8642 0.1257 0.4871
vn 0.8113 -0.1418 0.5671
vn 0.9838 0.1731 -0.0472
vn 0.9913 0.1258 0.0394
vn 0.9816 0.0314 0.1884
vn 0.9895 0.1335 0.0550
vn 0.9709 0.2289 0.0710
vn 0.9989 -0.0393 0.0236
vn 0.8328 -0.4557 0.3143
vn 0.3944 0.0867 0.9149
vn 0.4175 0.0709 0.9059
vn 0.8377 -0.4662 0.2845
vn 0.5663 -0.6134 -0.5505
vn 0.5507 -0.6057 -0.5743
vn 0.8185 -0.5745 -0.0079
vn 0.8286 -0.4262 0.3630
vn 0.5360 -0.0394 0.8433
vn 0.5359 -0.0394 0.8433
vn 0.8036 -0.5909 -0.0709
vn 0.2200 0.2199 0.9504
vn 0.8014 -0.5893 -0.1022
vn 0.2041 0.2356 0.9502
vn 0.7795 -0.6063 -0.1575
vn 0.3466 -0.0315 0.9375
vn 0.3535 -0.0314 0.9349
vn -0.0315 0.2517 0.9673
vn -0.0631 0.2679 0.9614
vn 0.3626 -0.1340 0.9223
vn -0.1338 0.3462 0.9286
vn 0.3712 -0.1500 0.9163
vn -0.1652 0.3540 0.9205
vn -0.1967 0.3382 0.9203
vn -0.2435 0.3534 0.9032
vn -0.5828 0.4489 0.6773
vn -0.8021 0.5897 0.0943
vn -0.4311 0.5722 0.6976
vn -0.8364 0.4735 -0.2761
vn -0.4311 0.5722 0.6977
vn -0.5208 0.5997 0.6076
vn -0.2914 0.5197 0.8031
vn 0.4338 0.0553 0.8993
vn -0.5740 0.6133 0.5426
vn -0.2835 0.5118 0.8110
vn -0.6530 0.6215 0.4328
vn -0.6530 0.6216 0.4327
vn -0.6770 0.6219 0.3936
vn -0.6854 0.6223 0.3781
vn -0.6530 0.6215 0.4327
vn -0.5427 0.6056 0.5820
vn -0.6440 0.6204 0.4477
vn -0.1736 0.4655 0.8679
vn -0.4178 0.5676 0.7094
vn 0.3943 0.0868 0.9149
vn -0.1577 0.4573 0.8752
vn 0.2199 0.2199 0.9504
vn -0.5042 0.5987 0.6224
vn -0.4726 0.5908 0.6539
vn -0.9760 0.1416 -0.1652
vn -0.9760 0.1416 -0.1653
vn -0.9760 0.1417 -0.1653
vn -0.5441 -0.7806 0.3075
vn -0.5441 -0.7807 0.3075
vn -0.5441 -0.7806 0.3076
vn -0.3466 -0.1260 -0.9295
vn -0.6226 0.1261 -0.7723
vn -0.3076 -0.1577 -0.9384
vn -0.8364 0.4735 -0.2762
vn -0.8020 0.5898 0.0943
vn -0.2834 0.5118 0.8110
vn -0.2913 0.5197 0.8032
vn -0.7362 0.6188 0.2741
vn -0.6440 0.6203 0.4477
vn -0.7362 0.6188 0.2742
vn -0.1735 0.4655 0.8679
vn -0.2278 -0.2120 -0.9503
vn -0.6268 0.1332 -0.7677
vn -0.6267 0.1332 -0.7678
vn -0.5028 0.0079 -0.8643
vn -0.7326 0.6223 0.2757
vn -0.5042 0.5987 0.6223
vn -0.4727 0.5908 0.6538
vn -0.5593 0.0552 -0.8271
vn -0.1105 -0.3000 -0.9475
vn -0.0947 -0.3077 -0.9467
vn -0.7249 0.2425 -0.6448
vn -0.5449 0.0474 -0.8372
vn -0.8316 0.4471 -0.3295
vn 0.3239 -0.1106 -0.9396
vn 0.6047 0.5183 -0.6047
vn 0.3238 -0.1105 -0.9397
vn 0.5287 0.8444 0.0868
vn 0.5287 0.8443 0.0868
vn 0.3237 -0.1106 -0.9397
vn -0.1499 -0.6709 -0.7262
vn 0.1500 0.6710 0.7262
vn 0.1500 0.6709 0.7262
vn 0.6090 0.5154 -0.6029
vn -0.3237 0.1106 0.9397
vn -0.3237 0.1105 0.9397
vn 0.7844 -0.5255 0.3294
vn 0.7844 -0.5256 0.3295
vn 0.7844 -0.5256 0.3294
vn 0.7844 -0.5255 0.3295
vn -0.3238 0.1106 0.9397
vn -0.5997 -0.5208 0.6076
vn -0.5287 -0.8444 -0.0868
vn 0.1499 0.6709 0.7262
vn -0.5998 -0.5207 0.6075
vn -0.3238 0.1105 0.9397
vn -0.5287 -0.8443 -0.0868
vn -0.1500 -0.6709 -0.7262
vn -0.1500 -0.6710 -0.7262
vn 0.3238 -0.1106 -0.9397
vn -0.5249 -0.8469 -0.0852
vn -0.7844 0.5255 -0.3294
vn -0.7844 0.5255 -0.3295
vn -0.7844 0.5256 -0.3294
vn -0.7844 0.5256 -0.3295
vt -0.015599 1.083590
vt -0.015599 1.190040
vt -0.053166 1.119440
vt 0.021969 1.119180
vt -0.053986 1.195620
vt -0.079133 1.179470
vt -0.049891 1.198440
vt -0.015599 1.250080
vt 0.018693 1.198440
vt 0.022788 1.195620
vt 0.047935 1.179340
vt -0.170366 1.364020
vt -0.265719 1.425030
vt -0.269969 1.366720
vt -0.218004 1.457810
vt -0.264517 1.272730
vt -0.276087 1.284020
vt -0.171436 1.453810
vt -0.183646 1.482460
vt -0.165812 1.441090
vt -0.161183 1.430560
vt -0.095851 1.360660
vt -0.165093 1.275910
vt -0.213883 1.221510
vt -0.173497 1.234630
vt -0.117910 1.252310
vt -0.085157 1.349400
vt -0.088296 1.267510
vt -0.060890 1.280910
vt -0.045576 1.315460
vt 0.053960 1.349410
vt 0.057098 1.267510
vt 0.133895 1.275910
vt 0.029693 1.280930
vt 0.014378 1.315480
vt 0.086712 1.252360
vt 0.142299 1.234630
vt 0.182686 1.221480
vt 0.064653 1.360660
vt 0.233319 1.272730
vt 0.139169 1.364020
vt 0.129986 1.430550
vt 0.134614 1.441090
vt 0.238771 1.366720
vt 0.244889 1.284010
vt 0.234522 1.425050
vt 0.186806 1.457810
vt 0.140239 1.453810
vt 0.152448 1.482370
vt 30.022301 -47.034698
vt 29.945499 -47.062000
vt 29.987700 -47.080299
vt 29.984900 -46.988499
vt 29.890301 -46.991699
vt 30.055500 -46.936699
vt 29.981001 -46.987000
vt 30.055500 -47.016602
vt 30.734699 -47.090099
vt 30.023800 -46.896099
vt 29.903099 -46.917900
vt 29.412300 -47.102100
vt 29.375200 -47.066299
vt 29.373400 -47.102100
vt 29.343399 -47.102100
vt 29.416700 -47.058102
vt 29.437599 -47.102100
vt 29.443399 -47.045502
vt 29.343500 -47.052700
vt 29.282600 -47.102100
vt 29.274500 -47.060699
vt 29.261801 -47.067101
vt 29.268200 -47.102100
vt 30.055500 -46.964100
vt 29.975000 -47.026699
vt 30.055500 -47.043999
vt 30.738199 -47.056301
vt 30.013500 -46.932598
vt 29.900700 -46.925800
vt 29.969101 -47.083500
vt 29.968700 -47.000900
vt 29.929300 -47.074402
vt 30.003799 -47.037899
vt 30.025999 -47.103901
vt 29.959999 -47.016499
vt 29.867100 -47.055500
vt 29.954700 -47.055500
vt 29.901300 -47.734699
vt 29.906401 -46.903099
vt 29.870600 -47.023800
vt 30.127701 -47.055500
vt 30.051399 -47.055500
vt 30.080400 -47.738201
vt 30.134501 -47.021000
vt 30.043699 -47.013500
vt 30.099701 -46.900700
vt 29.834999 -46.968700
vt 29.767799 -46.890301
vt 29.752001 -46.984901
vt 30.165001 -46.968700
vt 30.247999 -46.984901
vt 30.232201 -46.890301
vt 29.987200 -46.418701
vt 30.027100 -46.373199
vt 29.985800 -46.375099
vt 29.995199 -46.337502
vt 30.038300 -46.417099
vt 29.986099 -46.445999
vt 30.053200 -46.444000
vt 30.047300 -46.328999
vt 29.986099 -46.290501
vt 29.949301 -46.276100
vt 29.979000 -46.274399
vt 29.949900 -46.263100
vt 29.938101 -46.416698
vt 29.946100 -46.375198
vt 29.921700 -46.443401
vt 29.945200 -46.343498
vt 29.914301 -46.274502
vt 29.922300 -46.261799
vt 30.087700 -47.102100
vt 30.021000 -47.065399
vt 30.007601 -47.102100
vt 30.077700 -47.067101
vt 30.050100 -47.053600
vt 29.996799 -47.102100
vt 29.952700 -47.046501
vt 29.929100 -47.102100
vt 30.013901 -47.058498
vt 29.832899 -46.994801
vt 29.923700 -47.026699
vt 29.900299 -46.925800
vt 29.712200 -47.062000
vt 29.795099 -47.074402
vt 29.767799 -46.991699
vt 30.287800 -47.062000
vt 30.232201 -46.991699
vt 30.204901 -47.074402
vt 30.165501 -46.987000
vt 30.093599 -46.917900
vt 30.076099 -47.022598
vt 30.012300 -47.080299
vt 30.054501 -47.062000
vt 29.977699 -47.034698
vt 30.015100 -46.988499
vt 30.109699 -46.991699
vt 29.944500 -46.939701
vt 29.944500 -47.019699
vt 30.017500 -46.994801
vt 29.261801 -47.056301
vt 29.979000 -46.900700
vt 30.099300 -46.925800
vt 30.582899 -47.053299
vt 30.587200 -47.102100
vt 30.626801 -47.062302
vt 30.561701 -47.102100
vt 30.556000 -47.039200
vt 30.629400 -47.102100
vt 30.677099 -47.102100
vt 30.671000 -47.046501
vt 30.714701 -47.102100
vt 30.725599 -47.065399
vt 30.709499 -47.058498
vt 30.729700 -47.102100
vt 30.026300 -47.022598
vt 29.944500 -46.962799
vt 29.944500 -47.042702
vt 29.265301 -47.090099
vt 29.983500 -46.931702
vt 30.096901 -46.917900
vt 30.030899 -47.083500
vt 30.070700 -47.074402
vt 30.031300 -47.000900
vt 29.996201 -47.037899
vt 29.974001 -47.103901
vt 29.954100 -46.370602
vt 30.073400 -46.343399
vt 29.996799 -46.285301
vt 29.929100 -46.322899
vt 30.007601 -46.270302
vt 30.087700 -46.268200
vt 30.098400 -46.282600
vt 30.068701 -46.373402
vt 30.080099 -46.412300
vt 29.938400 -46.412800
vt 30.102301 -46.437599
vt 29.916300 -46.438301
vt 29.914499 -47.055500
vt 29.832899 -46.982498
vt 29.838200 -47.055500
vt 29.919600 -47.738201
vt 29.923700 -46.974998
vt 29.792700 -46.969101
vt 29.712200 -46.945499
vt 29.736099 -46.987701
vt 29.792200 -47.026001
vt 29.795099 -46.929199
vt 30.207300 -46.969101
vt 30.287800 -46.945499
vt 30.204901 -46.929199
vt 30.263901 -46.987701
vt 30.207800 -47.026001
vt 30.079500 -47.055500
vt 30.165501 -46.980999
vt 30.076099 -46.973701
vt 30.167200 -47.055500
vt 30.098700 -47.734699
vt 30.263901 -47.080299
vt 30.235100 -47.034698
vt 30.207800 -47.103901
vt 29.736099 -47.080299
vt 29.792200 -47.103901
vt 29.764900 -47.034698
vt 29.867100 -46.936699
vt 29.959999 -46.931702
vt 29.870600 -46.896099
vt 30.051399 -46.964100
vt 30.127701 -46.939701
vt 30.134501 -46.900700
vt 29.834999 -47.000900
vt 29.821501 -47.037899
vt 29.752001 -46.988499
vt 30.165001 -47.000900
vt 30.247999 -46.988499
vt 30.178499 -47.037899
vt 18.128599 1.002230
vt 18.185801 0.857673
vt 18.222000 0.971075
vt 18.099701 0.865206
vt 18.058901 0.997240
vt 18.037701 0.870629
vt 17.917601 0.881137
vt 17.931200 1.030380
vt 17.862400 1.014440
vt 17.860399 0.886145
vt 17.779699 0.999469
vt 17.787500 0.892518
vt 17.958799 0.986927
vt 18.041500 0.970360
vt 18.045601 1.017330
vt 17.962900 1.033900
vt 17.904600 1.035220
vt 17.900499 0.988250
vt 18.206301 1.037870
vt 18.211599 1.097420
vt 18.146200 1.044520
vt 18.151400 1.104070
vt 18.080700 1.127130
vt 18.127100 1.064230
vt 18.132299 1.123770
vt 18.075399 1.067580
vt 18.044600 1.059390
vt 18.048700 1.106360
vt 18.010099 1.073200
vt 18.014200 1.120170
vt 17.969000 1.103760
vt 17.976101 1.059980
vt 17.980200 1.106950
vt 17.871700 1.020140
vt 17.847200 1.050960
vt 17.843100 1.003990
vt 17.964899 1.056790
vt 17.875799 1.067110
vt 17.899099 1.071440
vt 17.884399 1.022100
vt 17.895000 1.024470
vt 17.888500 1.069070
vt 18.000000 1.126460
vt 17.876301 1.199250
vt 17.850500 1.123630
vt 18.000000 1.211050
vt 18.000000 1.294290
vt 17.854401 1.100920
vt 17.849800 1.111460
vt 17.919701 1.031020
vt 18.000000 1.027400
vt 17.930401 1.019770
vt 17.969999 0.985832
vt 18.000000 0.929915
vt 17.954700 0.951279
vt 17.927299 0.937872
vt 18.000000 0.919347
vt 17.965700 0.867707
vt 17.961599 0.864889
vt 17.897699 0.922677
vt 17.837601 0.882920
vt 17.842100 0.904995
vt 17.936501 0.848740
vt 17.864401 0.738141
vt 17.962400 0.788702
vt 18.000000 0.752856
vt 18.000000 0.673710
vt 18.135700 0.738141
vt 18.063499 0.848608
vt 18.037600 0.788441
vt 18.162399 0.882920
vt 18.038401 0.864889
vt 18.102301 0.922723
vt 18.157900 0.904995
vt 18.072701 0.937872
vt 18.034300 0.867703
vt 18.045300 0.951294
vt 18.030001 0.985848
vt 18.069599 1.019780
vt 18.080299 1.031020
vt 18.145599 1.100920
vt 18.149500 1.123630
vt 18.150200 1.111460
vt 18.123699 1.199250
vt 17.716600 0.777987
vt 17.660801 0.871424
vt 17.801701 0.891873
vt 17.751101 0.943096
vt 17.687700 0.941069
vt 17.739500 0.954384
vt 17.745600 1.037080
vt 17.634300 1.068810
vt 17.749901 1.095390
vt 17.687700 1.137610
vt 17.797600 1.128180
vt 17.741699 1.220270
vt 17.832001 1.152820
vt 17.844299 1.299850
vt 17.925400 1.273010
vt 17.844200 1.124180
vt 18.283400 0.777987
vt 18.339199 0.871424
vt 18.198299 0.891847
vt 18.248899 0.943096
vt 18.312300 0.941069
vt 18.260500 0.954374
vt 18.254400 1.037080
vt 18.365700 1.068810
vt 18.250099 1.095420
vt 18.312300 1.137610
vt 18.202400 1.128180
vt 18.258301 1.220270
vt 18.167999 1.152730
vt 18.155701 1.299850
vt 18.074600 1.273010
vt 18.155800 1.124180
vt 17.752701 0.892518
vt 17.844299 0.964234
vt 17.741699 0.999469
vt 17.850901 0.898511
vt 18.000000 0.902474
vt 18.247299 0.892518
vt 18.258301 0.999469
vt 18.155701 0.964234
vt 18.149099 0.898511
vt 17.751101 0.972257
vt 17.739500 1.017330
vt 17.739500 0.970360
vt 17.751101 1.019230
vt 17.801701 1.002190
vt 17.801701 1.049160
vt 17.842100 1.013520
vt 17.842100 1.060490
vt 17.897699 1.033330
vt 17.897699 1.080300
vt 17.927299 1.043240
vt 17.927299 1.090210
vt 17.954700 1.059220
vt 17.954700 1.106190
vt 18.123699 1.043980
vt 18.000000 1.027820
vt 18.074600 0.989832
vt 17.876301 1.043980
vt 17.925400 0.989832
vt 18.000000 1.045500
vt 18.037600 1.034900
vt 18.037600 1.094440
vt 18.000000 1.105050
vt 17.962400 1.097420
vt 17.962400 1.037870
vt 18.157900 1.013520
vt 18.198299 1.001890
vt 18.198299 1.048860
vt 18.248899 1.019230
vt 18.157900 1.060490
vt 18.248899 0.972257
vt 18.102301 1.033870
vt 18.260500 1.017220
vt 18.102301 1.080840
vt 18.260500 0.970250
vt 18.072701 1.043240
vt 18.072701 1.090210
vt 18.045300 1.059390
vt 18.045300 1.106360
vt 18.139601 0.886145
vt 18.137600 1.014440
vt 18.082399 0.881137
vt 18.068800 1.030380
vt 18.220301 0.999469
vt 17.941099 0.997240
vt 18.212500 0.892518
vt 17.962299 0.870629
vt 17.900299 0.865206
vt 17.871401 1.002230
vt 17.814199 0.857673
vt 17.778000 0.971075
vt 18.152700 1.051990
vt 18.128300 1.020140
vt 18.156799 1.005020
vt 18.124201 1.067110
vt 18.115601 1.022100
vt 18.111500 1.069070
vt 18.105000 1.024500
vt 17.990000 1.073030
vt 17.951300 1.106190
vt 17.955400 1.059220
vt 18.100901 1.071470
vt 17.985800 1.120000
vt 18.035101 1.056790
vt 18.031000 1.103760
vt 18.023899 1.059880
vt 18.019800 1.106840
vt 17.872900 1.064180
vt 17.919300 1.127130
vt 17.867701 1.123730
vt 17.924601 1.067580
vt 17.788700 1.094440
vt 17.854000 1.043010
vt 17.848700 1.102560
vt 17.793900 1.034900
vt 18.041201 0.986927
vt 17.954399 1.017220
vt 17.958500 0.970250
vt 18.037100 1.033900
vt 18.095400 1.035550
vt 18.099501 0.988577
vt 18.135599 0.738141
vt 17.864300 0.738141
vt 17.701000 0.962296
vt 18.299000 0.962296
vt 17.850901 1.281000
vt 17.752701 1.212500
vt 17.701000 1.139650
vt 17.649900 1.082410
vt 18.149099 1.281000
vt 18.000000 1.326290
vt 18.247299 1.212500
vt 18.299000 1.139650
vt 18.350100 1.082410
vt 17.728701 0.814208
vt 17.675200 0.900321
vt 18.271299 0.814208
vt 18.324800 0.900321
vt 18.271299 0.857673
vt 17.864401 1.018430
vt 17.728701 0.857673
vt 17.716600 0.971075
vt 18.135700 1.018430
vt 18.283400 0.971075
vt 18.250099 1.035220
vt 18.202400 1.004460
vt 18.250099 0.988250
vt 18.202400 1.051430
vt 18.167999 1.005020
vt 18.167999 1.051990
vt 18.030001 1.120000
vt 18.030001 1.073030
vt 18.069599 1.106840
vt 18.069599 1.059880
vt 17.961599 1.122610
vt 17.965700 1.064180
vt 17.965700 1.123730
vt 17.961599 1.063070
vt 17.936501 1.102560
vt 17.936501 1.043010
vt 18.063499 1.044520
vt 18.063499 1.104070
vt 18.038401 1.063070
vt 18.038401 1.122610
vt 18.034300 1.064230
vt 18.034300 1.123770
vt 17.797600 1.004460
vt 17.749901 1.035550
vt 17.749901 0.988577
vt 17.797600 1.051430
vt 17.930401 1.106950
vt 17.969999 1.073200
vt 17.969999 1.120170
vt 17.832001 1.050960
vt 17.930401 1.059980
vt 17.832001 1.003990
vt 16.057600 -47.208199
vt 16.057600 -46.791801
vt 15.942400 -46.791801
vt 15.942400 -47.208199
vt 16.057600 -46.730000
vt 15.942400 -46.730000
vt 15.942400 -47.270000
vt 16.057600 -47.270000
vt 16.057600 -47.166599
vt 15.942400 -46.833401
vt 15.942400 -47.166599
vt 16.057600 -46.833401
vt 15.791800 -47.057598
vt 16.208200 -47.057598
vt 16.208200 -46.942402
vt 15.791800 -46.942402
vt 15.833400 -47.057598
vt 16.166599 -47.057598
vt 16.166599 -46.942402
vt 16.216000 -46.942402
vt 15.833400 -46.942402
vt 15.784000 -47.057598
vt 15.784000 -46.942402
vt 16.216000 -47.057598
vt 15.833400 -47.216000
vt 15.784000 -47.166599
vt 15.730000 -47.208199
vt 15.791800 -47.270000
vt 15.730000 -46.791801
vt 16.208200 -47.270000
vt 15.784000 -46.833401
vt 16.166599 -47.216000
vt 16.270000 -47.208199
vt 16.216000 -47.166599
vt 15.833400 -46.784000
vt 15.791800 -46.730000
vt 16.166599 -46.784000
vt 16.208200 -46.730000
vt 16.216000 -46.833401
vt 16.270000 -46.791801
s 1
usemtl Meshpart1Mtl
f 1/1/1 2/2/2 3/3/3
f 4/4/4 2/2/2 1/1/1
f 3/3/3 5/5/5 6/6/6
f 5/5/5 3/3/3 2/2/2
f 5/5/5 2/2/2 7/7/7
f 7/7/7 2/2/2 8/8/8
f 2/2/2 9/9/9 8/8/8
f 2/2/2 10/10/10 9/9/9
f 2/2/2 4/4/4 10/10/10
f 10/10/10 4/4/4 11/11/4
s 2
f 12/12/11 13/13/12 14/14/13
f 13/13/12 12/12/11 15/15/14
f 16/16/15 14/14/13 17/17/16
f 14/14/13 16/16/15 12/12/11
f 18/18/17 19/19/18 15/15/14
f 15/15/14 20/20/19 18/18/17
f 15/15/14 12/12/11 20/20/19
f 20/20/19 12/12/11 21/21/20
f 12/12/11 22/22/21 21/21/20
f 12/12/11 16/16/15 23/23/22
f 23/23/22 22/22/21 12/12/11
f 23/23/22 16/16/15 24/24/23
f 23/23/22 24/24/23 25/25/24
f 25/25/24 26/26/25 23/23/22
f 22/22/21 23/23/22 27/27/26
f 28/28/27 23/23/22 26/26/25
f 27/27/26 23/23/22 28/28/27
f 29/29/26 27/27/26 28/28/27
f 27/27/26 29/29/26 30/30/26
s 3
f 31/31/28 32/32/29 33/33/30
f 32/32/29 31/31/28 34/34/31
f 34/34/31 31/31/28 35/35/31
f 33/33/30 32/32/29 36/36/32
f 36/36/32 37/37/33 33/33/30
f 38/38/34 33/33/30 37/37/33
f 31/31/28 33/33/30 39/39/35
f 33/33/30 38/38/34 40/40/36
f 39/39/35 33/33/30 41/41/37
f 33/33/30 40/40/36 41/41/37
f 42/42/38 39/39/35 41/41/37
f 41/41/37 43/43/39 42/42/38
f 40/40/36 44/44/40 41/41/37
f 44/44/40 40/40/36 45/45/41
f 46/46/42 41/41/37 44/44/40
f 47/47/43 41/41/37 46/46/42
f 47/47/43 43/43/39 41/41/37
f 43/43/39 47/47/43 48/48/44
f 47/47/43 49/49/45 48/48/44
s 4
usemtl Meshpart2Mtl
f 50/50/46 51/51/47 52/52/48
f 51/51/47 50/50/46 53/53/49
f 53/53/49 54/54/50 51/51/47
s 5
f 55/55/51 56/56/52 57/57/53
f 57/57/53 58/58/54 55/55/51
f 59/59/55 56/56/52 55/55/51
f 59/59/55 60/60/56 56/56/52
s 6
f 61/61/57 62/62/58 63/63/59
f 62/62/58 64/64/60 63/63/59
f 62/62/58 61/61/57 65/65/61
f 66/66/62 65/65/61 61/61/57
f 66/66/62 67/67/62 65/65/61
f 64/64/60 62/62/58 68/68/63
f 68/68/63 69/69/64 64/64/60
f 69/69/64 68/68/63 70/70/65
f 71/71/66 69/69/64 70/70/65
f 69/69/64 71/71/66 72/72/66
s 7
f 73/73/67 74/74/68 75/75/69
f 73/73/67 75/75/69 76/76/70
f 74/74/68 73/73/67 77/77/71
f 74/74/68 77/77/71 78/78/72
s 8
f 79/79/73 80/80/74 81/81/75
f 81/81/75 80/80/74 82/54/76
f 80/80/74 79/79/73 83/82/77
f 83/82/77 79/79/73 84/83/78
s 9
f 85/84/79 86/85/80 87/86/81
f 86/85/80 88/87/82 87/86/81
s 10
f 85/84/83 90/88/84 89/89/85
s 11
f 92/90/86 91/91/87 94/92/88
s 12
f 91/91/87 93/93/89 95/94/90
f 95/94/90 93/93/89 96/95/91
s 13
f 97/96/92 99/97/93 98/98/94
s 14
f 100/99/95 101/100/96 102/101/97
s 15
f 103/102/98 104/103/99 105/104/100
f 104/103/99 106/105/101 105/104/100
f 104/103/99 103/102/98 107/106/102
f 108/107/103 107/106/102 103/102/98
f 108/107/103 109/108/103 107/106/102
f 106/105/101 104/103/99 110/109/104
f 111/110/105 106/105/101 110/109/104
f 106/105/101 111/110/105 112/111/106
f 112/111/106 111/110/105 113/112/107
f 112/111/106 113/112/107 114/113/108
s 16
f 115/114/109 116/102/110 117/115/111
f 115/114/109 118/107/112 116/102/110
f 118/107/112 115/114/109 119/116/112
f 116/102/110 120/104/113 117/115/111
f 120/104/113 121/117/114 117/115/111
f 121/117/114 120/104/113 122/105/115
f 123/111/116 121/117/114 122/105/115
f 121/117/114 123/111/116 124/118/117
f 123/111/116 125/119/118 124/118/117
f 125/119/118 123/111/116 126/113/119
s 17
f 127/120/120 128/121/121 129/122/121
f 128/121/121 127/120/120 130/123/121
f 128/121/121 130/123/121 131/124/120
s 18
f 134/125/122 133/126/123 132/127/124
f 133/126/123 134/125/122 135/128/125
s 19
f 136/129/126 137/130/127 138/131/128
s 20
f 139/132/129 140/133/130 141/134/131
s 21
f 142/135/132 144/136/133 143/137/134
s 22
f 145/138/135 147/139/136 146/140/137
s 23
f 148/141/138 149/142/139 150/143/140
f 149/142/139 151/144/141 150/143/140
f 151/144/141 149/142/139 152/145/142
s 24
f 153/146/143 154/147/144 155/148/145
f 154/147/144 153/146/143 156/149/146
f 155/148/145 157/150/147 153/146/143
f 157/150/147 155/148/145 158/151/148
s 25
f 159/152/149 160/153/150 161/154/151
f 159/152/149 162/155/152 160/153/150
f 162/155/152 159/152/149 163/156/153
f 160/153/150 164/157/154 161/154/151
f 165/158/155 161/154/151 164/157/154
f 161/154/151 165/158/155 166/159/123
s 26
f 167/160/156 169/161/157 168/162/158
f 169/161/157 167/160/156 170/163/157
s 27
f 171/164/159 172/165/160 173/166/161
f 172/165/160 174/167/162 173/166/161
f 172/165/160 171/164/159 175/168/163
f 171/164/159 176/169/164 175/168/163
s 28
f 177/170/165 178/171/166 179/172/167
f 178/171/166 180/145/168 179/172/167
f 179/172/167 181/173/169 177/170/165
f 181/173/169 182/174/170 177/170/165
s 29
f 183/175/171 184/176/171 185/177/171
f 183/175/171 185/177/171 186/178/171
f 184/176/171 187/179/171 185/177/171
f 187/179/171 184/176/171 188/180/171
f 188/180/171 184/176/171 189/181/171
f 184/176/171 183/175/171 190/182/171
f 183/175/171 191/183/171 190/182/171
f 191/183/171 183/175/171 192/184/171
f 192/184/171 193/185/171 191/183/171
f 194/186/172 193/185/171 192/184/171
s 30
f 195/187/173 196/188/174 197/189/175
f 195/187/173 197/189/175 198/190/176
f 196/188/174 195/187/173 199/191/177
s 31
f 200/192/178 201/193/179 202/194/180
f 200/192/178 202/194/180 203/195/181
f 201/193/179 200/192/178 204/196/182
s 32
f 205/197/183 206/198/132 207/199/184
f 206/198/132 205/197/183 208/200/185
f 205/197/183 209/201/186 208/200/185
s 33
f 210/202/187 211/203/188 212/204/189
f 211/203/188 210/202/187 213/205/190
f 210/202/187 214/206/191 213/205/190
s 34
f 215/207/192 216/208/193 217/209/194
s 35
f 219/210/195 220/211/196 218/212/197
s 36
f 222/213/198 221/214/83 223/215/199
s 37
f 224/216/87 225/217/200 226/218/89
s 38
f 227/219/92 228/212/201 229/220/202
f 228/212/201 230/211/203 229/220/202
f 228/212/201 227/219/92 231/221/204
s 39
f 232/222/205 233/208/206 234/223/207
f 233/208/206 232/222/205 235/224/208
f 233/208/206 235/224/208 236/209/209
s 40
usemtl Meshpart3Mtl
f 237/225/210 238/226/211 239/227/212
f 238/226/211 237/225/210 240/228/213
f 240/228/213 237/225/210 241/229/214
f 240/228/213 241/229/214 242/230/215
f 242/230/215 241/229/214 243/231/216
f 241/229/214 244/232/217 243/231/216
f 245/233/218 243/231/216 244/232/217
f 243/231/216 245/233/218 246/234/218
f 245/233/218 247/235/219 246/234/218
f 246/234/218 247/235/219 248/236/220
s 41
f 249/237/221 250/238/222 251/239/223
f 251/239/223 252/240/221 249/237/221
f 253/241/224 249/237/221 252/240/221
f 249/237/221 253/241/224 254/242/225
s 42
f 256/243/226 255/244/227 257/245/228
f 255/244/227 258/246/229 257/245/228
s 43
f 261/247/230 259/248/231 260/249/232
f 259/248/231 261/247/230 262/250/230
s 44
f 263/251/233 264/252/234 265/253/235
f 264/252/234 266/254/236 265/253/235
s 45
f 271/255/231 269/256/237 267/257/238
f 272/258/239 268/259/240 270/260/241
f 269/256/237 271/255/231 273/261/231
f 268/259/240 272/258/239 274/262/242
f 275/263/243 273/261/231 271/255/231
f 276/264/242 274/262/242 272/258/239
f 273/261/231 275/263/243 277/265/244
f 274/262/242 276/264/242 278/266/239
f 278/266/239 277/265/244 275/263/243
f 277/265/244 278/266/239 276/264/242
s 46
f 279/267/245 280/268/246 281/269/247
f 280/268/246 279/267/245 282/270/246
f 283/271/248 280/268/246 282/270/246
f 281/269/247 284/272/249 279/267/245
f 284/272/249 281/269/247 285/273/250
f 279/267/245 284/272/249 286/274/251
f 287/275/252 279/267/245 286/274/251
f 287/275/252 286/274/251 288/276/26
f 287/275/252 288/276/26 289/277/26
f 289/277/26 290/278/253 287/275/252
f 290/278/253 289/277/26 291/279/26
f 292/280/254 290/278/253 291/279/26
f 292/280/254 293/281/255 290/278/253
f 293/281/255 292/280/254 294/282/256
f 294/282/256 292/280/254 295/283/257
f 295/283/257 292/280/254 296/284/258
f 296/284/258 297/285/259 295/283/257
f 297/285/259 296/284/258 298/286/260
f 295/283/257 297/285/259 299/287/261
f 300/288/261 299/287/261 297/285/259
f 299/287/261 300/288/261 301/289/261
f 301/289/261 300/288/261 302/290/261
f 300/288/261 303/291/261 302/290/261
s 47
f 304/292/262 305/293/263 306/294/262
f 307/290/264 304/292/262 306/294/262
f 304/292/262 307/290/264 308/291/262
f 305/293/263 304/292/262 309/295/265
f 309/295/265 310/296/266 305/293/263
f 309/295/265 311/297/267 310/296/266
f 311/297/267 309/295/265 312/298/267
f 313/299/268 310/296/266 311/297/267
f 310/296/266 313/299/268 314/300/267
f 313/299/268 315/281/267 314/300/267
f 315/281/267 313/299/268 316/278/269
f 316/278/269 313/299/268 317/301/270
f 318/302/270 316/278/269 317/301/270
f 316/278/269 318/302/270 319/275/271
f 319/275/271 318/302/270 320/303/272
f 319/275/271 320/303/272 321/304/273
f 321/304/273 322/267/274 319/275/271
f 323/305/275 322/267/274 321/304/273
f 322/267/274 323/305/275 324/306/276
f 324/306/276 323/305/275 325/307/275
f 324/306/276 326/308/277 322/267/274
f 322/267/274 326/308/277 327/270/278
f 326/308/277 328/271/279 327/270/278
s 48
f 329/309/280 330/288/281 331/285/282
f 331/285/282 332/310/283 329/309/280
f 332/310/283 331/285/282 333/311/284
f 334/286/285 333/311/284 331/285/282
f 335/312/286 332/310/283 333/311/284
f 332/310/283 335/312/286 336/313/287
f 336/313/287 335/312/286 337/314/288
f 338/315/289 336/313/287 337/314/288
f 336/313/287 338/315/289 339/316/290
f 340/317/291 339/316/290 338/315/289
f 339/316/290 340/317/291 341/318/292
f 340/317/291 342/319/293 341/318/292
f 342/319/293 343/320/294 341/318/292
f 343/320/294 342/319/293 344/321/295
f 343/320/294 344/321/295 345/268/296
f 345/268/296 346/322/297 343/320/294
f 346/322/297 345/268/296 347/323/298
f 344/321/295 348/269/299 345/268/296
f 348/269/299 344/321/295 349/324/300
f 349/324/300 350/273/301 348/269/299
s 49
f 351/325/302 352/295/303 353/292/302
f 352/295/303 351/325/302 354/326/304
f 352/295/303 354/326/304 355/327/305
f 352/295/303 355/327/305 356/298/305
f 355/327/305 354/326/304 357/328/306
f 354/326/304 358/329/307 357/328/306
f 357/328/306 358/329/307 359/330/308
f 359/330/308 358/329/307 360/331/309
f 358/329/307 361/332/310 360/331/309
f 360/331/309 361/332/310 362/333/311
f 363/334/312 362/333/311 361/332/310
f 362/333/311 363/334/312 364/335/313
f 364/335/313 363/334/312 365/336/314
f 366/337/315 364/335/313 365/336/314
f 366/337/315 365/336/314 367/308/316
f 368/338/317 367/308/316 365/336/314
f 367/308/316 368/338/317 369/339/318
f 367/308/316 370/306/319 366/337/315
f 371/340/320 366/337/315 370/306/319
f 372/307/42 371/340/320 370/306/319
s 50
f 374/341/321 375/342/322 373/343/323
f 375/342/322 374/341/321 376/344/324
f 375/342/322 376/344/324 377/345/325
s 51
f 379/346/326 378/347/219 380/348/327
f 381/349/328 379/346/326 380/348/327
f 381/349/328 380/348/327 382/345/329
s 52
f 385/350/330 384/351/223 383/352/331
f 384/351/223 385/350/330 386/353/332
f 387/354/333 386/353/332 385/350/330
f 386/353/332 387/354/333 388/355/334
f 389/356/335 388/355/334 387/354/333
f 388/355/334 389/356/335 390/357/336
f 391/358/337 390/357/336 389/356/335
f 390/357/336 391/358/337 392/359/338
f 393/360/339 392/359/338 391/358/337
f 392/359/338 393/360/339 394/361/339
f 395/362/340 394/361/339 393/360/339
f 394/361/339 395/362/340 396/363/341
s 53
f 397/364/246 398/365/342 399/366/343
f 399/366/343 398/365/342 400/345/344
s 54
f 402/365/279 401/367/277 403/368/345
f 402/365/279 403/368/345 404/345/346
s 55
f 405/348/347 406/366/348 407/345/349
s 56
f 409/368/350 408/342/351 410/345/352
s 57
f 413/369/353 412/370/354 411/371/355
f 413/369/353 411/371/355 414/372/356
f 415/373/357 413/369/353 414/372/356
f 413/369/353 415/373/357 416/374/358
s 58
f 417/375/359 418/376/335 419/377/360
f 418/376/335 420/378/361 419/377/360
f 417/375/359 419/377/360 421/379/359
f 418/376/335 422/380/362 420/378/361
f 423/381/363 417/375/359 421/379/359
f 422/380/362 424/382/364 420/378/361
f 423/381/363 421/379/359 425/383/365
f 426/384/366 424/382/364 422/380/362
f 427/385/367 423/381/363 425/383/365
f 427/385/367 425/383/365 428/386/367
f 429/387/233 427/385/367 428/386/367
f 429/387/233 428/386/367 430/388/234
s 59
f 431/389/368 432/390/369 433/391/370
f 434/392/371 433/391/370 432/390/369
f 431/389/368 435/393/372 432/390/369
f 436/394/373 433/391/370 434/392/371
f 435/393/372 431/389/368 437/395/374
f 433/391/370 436/394/373 438/396/375
f 436/394/373 439/397/376 438/396/375
f 439/397/376 436/394/373 440/398/377
f 440/398/377 441/399/378 439/397/376
f 441/399/378 440/398/377 442/400/378
s 60
f 444/401/379 445/402/380 443/403/381
f 446/404/382 445/402/380 444/401/379
f 446/404/382 447/405/380 445/402/380
f 447/405/380 446/404/382 449/406/380
f 449/406/380 451/407/383 447/405/380
s 61
f 452/408/384 450/409/385 448/410/340
s 60
f 451/407/383 449/406/380 453/411/386
s 61
f 450/409/385 452/408/384 454/412/387
s 60
f 453/411/386 455/413/388 451/407/383
f 455/413/388 453/411/386 457/414/389
f 457/414/389 458/415/390 455/413/388
f 458/415/390 457/414/389 456/416/391
s 62
f 459/417/392 460/418/393 461/419/394
f 460/418/393 459/417/392 462/420/393
s 63
f 465/421/355 464/422/395 463/423/396
f 464/422/395 465/421/355 466/424/397
s 64
f 469/425/398 467/426/399 468/427/366
f 467/426/399 469/425/398 470/428/398
f 469/425/398 471/429/400 470/428/398
f 471/429/400 469/425/398 472/430/401
s 65
f 473/431/402 474/432/403 475/291/404
s 66
f 476/433/405 477/434/405 478/435/405
f 479/436/405 476/433/405 478/435/405
f 476/433/405 479/436/405 480/437/405
f 480/437/405 481/438/405 476/433/405
f 478/435/405 482/439/406 483/440/405
f 478/435/405 477/434/405 482/439/406
f 482/439/406 477/434/405 484/441/405
f 484/441/405 477/434/405 485/442/405
f 477/434/405 486/443/406 485/442/405
f 477/434/405 476/433/405 487/444/405
f 476/433/405 488/445/405 487/444/405
f 477/434/405 487/444/405 489/446/405
f 489/446/405 490/447/407 477/434/405
s 67
f 491/448/404 492/449/404 493/450/404
f 493/450/404 492/449/404 494/451/404
f 495/452/404 492/449/404 491/448/404
f 491/448/404 496/453/404 495/452/404
s 68
f 497/454/408 499/455/409 498/456/410
f 500/457/409 499/455/409 497/454/408
f 500/457/409 501/458/411 499/455/409
f 502/459/412 501/458/411 500/457/409
s 69
f 504/460/413 503/461/414 505/462/391
f 505/462/391 503/461/414 506/463/390
s 70
f 509/464/415 507/465/392 508/466/416
f 507/465/392 509/464/415 510/467/417
f 511/468/396 510/467/417 509/464/415
f 510/467/417 511/468/396 512/469/418
s 71
f 513/470/228 514/471/419 515/472/420
f 516/473/421 515/472/420 514/471/419
f 516/473/421 517/474/231 515/472/420
f 518/475/422 517/474/231 516/473/421
s 72
f 522/476/423 519/477/424 520/478/425
f 519/477/424 522/476/423 524/479/423
s 73
f 525/480/426 521/481/427 523/482/428
s 72
f 524/479/423 522/476/423 526/483/429
s 73
f 521/481/427 525/480/426 527/484/430
s 72
f 526/483/429 522/476/423 528/485/431
s 74
usemtl Meshpart4Mtl
f 529/486/432 530/487/433 531/488/433
f 529/486/432 531/488/433 532/489/434
f 531/488/433 530/487/433 533/490/435
f 533/490/435 534/491/436 531/488/433
s 75
f 537/486/437 535/492/438 536/493/438
f 535/492/438 537/486/437 538/489/437
s 76
f 540/494/433 541/495/434 539/496/433
f 541/495/434 540/494/433 542/497/434
s 77
f 545/498/435 544/499/439 543/500/440
f 545/498/435 543/500/440 546/501/436
s 78
f 547/502/440 548/503/435 549/504/435
f 548/503/435 550/505/441 549/504/435
f 547/502/440 549/504/435 551/506/440
f 547/502/440 551/506/440 552/507/442
f 552/507/442 551/506/440 553/508/443
f 554/509/433 550/505/441 548/503/435
s 79
f 555/510/444 556/511/445 557/512/444
f 557/512/444 558/513/444 555/510/444
f 556/511/445 559/514/444 557/512/444
f 560/515/444 555/510/444 558/513/444
f 559/514/444 556/511/445 561/516/444
f 555/510/444 560/515/444 562/517/444
f 563/518/444 562/517/444 560/515/444
f 562/517/444 563/518/444 564/519/444
f 565/520/446 559/514/444 561/516/444
f 559/514/444 565/520/446 566/521/447
f 567/522/447 566/521/447 565/520/446
f 566/521/447 567/522/447 568/523/444
s 80
f 569/524/444 570/519/444 571/518/444
f 571/518/444 572/525/446 569/524/444
f 572/525/446 573/522/447 569/524/444
f 573/522/447 572/525/446 574/523/447
s 81
f 575/488/448 576/489/449 577/486/449
f 577/486/449 576/489/449 578/492/450
f 575/488/448 577/486/449 579/487/442
f 578/492/450 580/493/450 577/486/449
f 581/490/451 575/488/448 579/487/442
f 575/488/448 581/490/451 582/491/451
s 82
f 584/495/452 585/494/453 583/497/449
f 585/494/453 584/495/452 586/496/443
s 83
f 587/498/454 589/500/455 588/501/450
f 587/498/454 590/499/456 589/500/455
s 84
f 592/507/457 593/506/456 591/508/437
f 594/502/455 593/506/456 592/507/457
f 594/502/455 595/504/450 593/506/456
f 594/502/455 596/503/454 595/504/450
s 85
f 597/505/449 598/503/458 599/509/449
f 598/503/458 597/505/449 600/504/454
s 86
f 601/515/459 602/510/459 603/513/459
f 602/510/459 604/512/459 603/513/459
f 604/512/459 602/510/459 605/511/459
f 602/510/459 601/515/459 606/517/460
f 607/518/460 606/517/460 601/515/459
f 606/517/460 607/518/460 608/519/459
f 607/518/460 609/524/461 608/519/459
f 609/524/461 607/518/460 610/525/459
f 611/522/461 609/524/461 610/525/459
f 610/525/459 612/523/461 611/522/461
f 613/521/459 611/522/461 612/523/461
f 611/522/461 613/521/459 614/520/459
s 87
f 615/511/460 616/516/462 617/514/459
f 617/514/459 618/512/459 615/511/460
f 619/520/460 617/514/459 616/516/462
f 617/514/459 619/520/460 620/521/460
