# This file is brought to you by Roblox Corporation
# Generated by Roblox Studio

mtllib left arm boxing.mtl

g Meshpart1

v 1376.76 -389.57 1028.73 
v 1376.81 -389.501 1028.85 
v 1376.73 -389.716 1028.7 
v 1376.69 -389.772 1028.79 
v 1376.59 -389.449 1028.77 
v 1376.62 -389.557 1028.62 
v 1376.54 -389.577 1028.56 
v 1376.71 -389.627 1028.63 
v 1376.62 -389.664 1028.55 
v 1376.65 -389.764 1028.61 
v 1376.56 -389.793 1028.54 
v 1376.53 -389.688 1028.49 
v 1376.47 -389.589 1028.52 
v 1375.88 -389.325 1028.49 
v 1375.97 -389.199 1028.47 
v 1376.41 -388.946 1028.54 
v 1376.46 -388.971 1028.55 
v 1376.55 -389.029 1028.59 
v 1376.5 -389 1028.57 
v 1376.6 -389.067 1028.61 
v 1376.47 -389.222 1028.47 
v 1376.42 -389.194 1028.45 
v 1376.38 -389.167 1028.43 
v 1376.33 -389.439 1028.47 
v 1376.28 -389.412 1028.44 
v 1376.52 -389.263 1028.5 
v 1376.66 -389.119 1028.64 
v 1376.36 -389.473 1028.57 
v 1376.2 -389.636 1028.5 
v 1376.56 -389.326 1028.54 
v 1376.72 -389.176 1028.68 
v 1376.79 -389.228 1028.72 
v 1376.61 -389.402 1028.58 
v 1376.86 -389.277 1028.77 
v 1376.67 -389.463 1028.63 
v 1376.41 -389.488 1028.65 
v 1376.44 -389.579 1028.7 
v 1376.5 -389.651 1028.74 
v 1376.74 -389.509 1028.68 
v 1376.57 -389.697 1028.79 
v 1376.64 -389.726 1028.83 
v 1376.7 -389.748 1028.87 
v 1376.8 -389.547 1028.73 
v 1376.85 -389.582 1028.78 
v 1376.96 -389.377 1028.85 
v 1376.91 -389.327 1028.81 
v 1376.35 -388.926 1028.53 
v 1376.29 -388.913 1028.53 
v 1376.24 -388.907 1028.53 
v 1376.33 -389.138 1028.42 
v 1376.27 -389.112 1028.41 
v 1376.22 -389.089 1028.42 
v 1376.24 -389.384 1028.42 
v 1376.19 -389.353 1028.41 
v 1376.14 -389.319 1028.41 
v 1376.14 -389.606 1028.47 
v 1376.05 -389.542 1028.44 
v 1376.1 -389.576 1028.45 
v 1376.01 -389.5 1028.43 
v 1375.97 -389.456 1028.44 
v 1376.07 -389.75 1028.63 
v 1376.02 -389.717 1028.61 
v 1375.97 -389.684 1028.58 
v 1375.93 -389.647 1028.57 
v 1375.89 -389.601 1028.56 
v 1375.85 -389.55 1028.56 
v 1375.83 -389.5 1028.56 
v 1375.93 -389.413 1028.45 
v 1376.09 -389.285 1028.41 
v 1376.17 -389.073 1028.43 
v 1376.05 -389.255 1028.42 
v 1375.9 -389.371 1028.46 
v 1376.12 -389.06 1028.45 
v 1376.01 -389.227 1028.44 
v 1376.07 -389.05 1028.48 
v 1376.24 -389.664 1028.54 
v 1376.35 -389.555 1028.68 
v 1376.12 -389.776 1028.67 
v 1376.16 -389.787 1028.7 
v 1376.31 -389.715 1028.66 
v 1376.28 -389.693 1028.6 
v 1376.38 -389.607 1028.75 
v 1376.39 -389.652 1028.82 
v 1376.55 -389.849 1028.65 
v 1376.48 -389.865 1028.62 
v 1376.49 -389.811 1028.51 
v 1376.46 -389.707 1028.46 
v 1376.41 -389.552 1028.61 
v 1376.41 -389.611 1028.5 
v 1376.37 -389.64 1028.51 
v 1376.42 -389.867 1028.6 
v 1376.42 -389.817 1028.5 
v 1376.37 -389.853 1028.6 
v 1376.4 -389.723 1028.46 
v 1376.36 -389.813 1028.52 
v 1376.35 -389.738 1028.48 
v 1376.7 -389.453 1028.78 
v 1376.67 -389.512 1028.69 
v 1376.56 -389.571 1028.96 
v 1376.55 -389.634 1028.9 
v 1376.54 -389.501 1028.85 
v 1376.52 -389.556 1028.81 
v 1376.59 -389.449 1028.77 
v 1376.52 -389.683 1028.85 
v 1376.56 -389.504 1028.72 
v 1376.49 -389.595 1028.77 
v 1376.49 -389.708 1028.82 
v 1376.52 -389.54 1028.67 
v 1376.45 -389.607 1028.74 
v 1376.47 -389.549 1028.63 
v 1376.41 -389.611 1028.73 
v 1376.62 -389.557 1028.62 
v 1376.47 -389.589 1028.52 
v 1376.04 -388.855 1028.74 
v 1375.99 -388.954 1028.62 
v 1375.98 -388.899 1028.74 
v 1375.93 -388.898 1028.86 
v 1375.73 -389.195 1029.06 
v 1375.83 -389.074 1029.11 
v 1375.81 -389.063 1029.06 
v 1375.73 -389.224 1029.11 
v 1375.69 -389.302 1028.97 
v 1375.73 -389.165 1029 
v 1375.7 -389.251 1028.93 
v 1375.8 -389.057 1029 
v 1375.89 -388.936 1028.99 
v 1375.74 -389.136 1028.92 
v 1375.86 -388.964 1028.91 
v 1375.79 -389.057 1028.93 
v 1375.9 -388.943 1028.81 
v 1375.85 -388.995 1028.83 
v 1375.92 -388.955 1028.73 
v 1375.87 -389.02 1028.73 
v 1375.94 -388.979 1028.66 
v 1375.8 -389.065 1028.84 
v 1375.76 -389.121 1028.84 
v 1375.82 -389.084 1028.74 
v 1375.72 -389.197 1028.87 
v 1375.79 -389.132 1028.74 
v 1375.75 -389.162 1028.82 
v 1375.85 -389.11 1028.64 
v 1375.9 -389.039 1028.64 
v 1375.77 -389.178 1028.74 
v 1375.74 -389.241 1028.75 
v 1375.79 -389.198 1028.67 
v 1375.82 -389.165 1028.65 
v 1375.79 -389.253 1028.63 
v 1375.73 -389.313 1028.76 
v 1375.89 -389.139 1028.56 
v 1375.84 -389.215 1028.58 
v 1375.79 -389.326 1028.6 
v 1375.72 -389.377 1028.78 
v 1375.73 -389.432 1028.79 
v 1375.8 -389.392 1028.58 
v 1375.88 -389.325 1028.49 
v 1375.85 -389.273 1028.52 
v 1375.97 -389.199 1028.47 
v 1375.93 -389.17 1028.51 
v 1376.01 -389.044 1028.51 
v 1375.95 -389.043 1028.57 
v 1376.25 -389.353 1029.24 
v 1376.28 -389.426 1028.94 
v 1376.29 -389.488 1028.95 
v 1376.41 -389.488 1028.65 
v 1376.32 -388.805 1028.8 
v 1376.11 -388.795 1029.02 
v 1376.35 -388.926 1028.53 
v 1376.21 -388.801 1028.77 
v 1376.24 -388.907 1028.53 
v 1376.27 -389.112 1028.41 
v 1376.01 -389.5 1028.43 
v 1375.89 -389.601 1028.56 
v 1375.78 -389.582 1028.84 
v 1375.7 -389.388 1029.05 
v 1375.75 -389.252 1029.15 
v 1375.98 -388.911 1029.13 
v 1375.85 -389.087 1029.16 
v 1376.06 -388.805 1028.99 
v 1375.95 -388.913 1029.09 
v 1375.69 -389.347 1029.01 
v 1375.74 -389.483 1028.81 
v 1375.83 -389.5 1028.56 
v 1375.81 -389.449 1028.57 
v 1375.93 -389.413 1028.45 
v 1376.17 -389.073 1028.43 
v 1375.9 -389.371 1028.46 
v 1376.18 -388.908 1028.54 
v 1376.12 -389.06 1028.45 
v 1376.01 -389.227 1028.44 
v 1376.16 -388.81 1028.76 
v 1376.13 -388.914 1028.56 
v 1376.07 -389.05 1028.48 
v 1376.02 -388.823 1028.95 
v 1376.1 -388.827 1028.75 
v 1376.06 -388.928 1028.58 
v 1375.92 -388.919 1029.04 
v 1375.97 -388.853 1028.91 
v 1376.41 -389.552 1028.61 
v 1376.38 -389.574 1028.61 
v 1376.41 -389.611 1028.5 
v 1376.37 -389.64 1028.51 
v 1376.38 -389.628 1028.72 
v 1376.35 -389.609 1028.61 
v 1376.35 -389.655 1028.72 
v 1376.32 -389.686 1028.7 
v 1376.33 -389.756 1028.73 
v 1376.37 -389.853 1028.6 
v 1376.4 -389.723 1028.46 
v 1376.33 -389.673 1028.52 
v 1376.35 -389.738 1028.48 
v 1376.32 -389.794 1028.55 
v 1376.31 -389.748 1028.52 
v 1376.31 -389.649 1028.61 
v 1376.3 -389.711 1028.56 
v 1376.29 -389.759 1028.6 
v 1376.29 -389.686 1028.61 
v 1376.29 -389.719 1028.66 
v 1376.76 -389.57 1028.73 
v 1376.7 -389.453 1028.78 
v 1376.81 -389.501 1028.85 
v 1376.67 -389.512 1028.69 
v 1376.59 -389.449 1028.77 
v 1376.56 -389.504 1028.72 
v 1376.52 -389.54 1028.67 
v 1376.47 -389.549 1028.63 
v 1376.62 -389.557 1028.62 
v 1376.54 -389.577 1028.56 
v 1376.71 -389.627 1028.63 
v 1376.62 -389.664 1028.55 
v 1376.47 -389.589 1028.52 
v 1376.3 -388.836 1029.14 
v 1376.26 -388.813 1029.11 
v 1376.35 -388.865 1029.16 
v 1376.39 -388.894 1029.18 
v 1376.47 -388.873 1028.86 
v 1376.42 -388.845 1028.84 
v 1376.2 -388.798 1029.09 
v 1376.37 -388.821 1028.82 
v 1376.41 -388.946 1028.54 
v 1376.44 -388.933 1029.2 
v 1376.46 -388.971 1028.55 
v 1376.51 -388.903 1028.88 
v 1376.56 -388.939 1028.9 
v 1376.55 -389.029 1028.59 
v 1376.5 -389 1028.57 
v 1376.6 -389.067 1028.61 
v 1376.66 -389.119 1028.64 
v 1376.63 -388.985 1028.93 
v 1376.72 -389.176 1028.68 
v 1376.5 -388.986 1029.22 
v 1376.57 -389.046 1029.24 
v 1376.7 -389.036 1028.96 
v 1376.65 -389.103 1029.27 
v 1376.28 -389.426 1028.94 
v 1376.72 -389.159 1029.28 
v 1376.78 -389.087 1028.99 
v 1376.79 -389.228 1028.72 
v 1376.85 -389.139 1029.02 
v 1376.86 -389.277 1028.77 
v 1376.79 -389.215 1029.3 
v 1376.96 -389.377 1028.85 
v 1376.84 -389.273 1029.3 
v 1376.9 -389.196 1029.05 
v 1376.95 -389.255 1029.07 
v 1376.91 -389.327 1028.81 
v 1376.15 -388.793 1029.05 
v 1376.32 -388.805 1028.8 
v 1376.26 -388.799 1028.79 
v 1376.11 -388.795 1029.02 
v 1376.35 -388.926 1028.53 
v 1376.29 -388.913 1028.53 
v 1376.21 -388.801 1028.77 
v 1376.24 -388.907 1028.53 
v 1375.98 -388.911 1029.13 
v 1376.06 -388.805 1028.99 
v 1376.18 -388.908 1028.54 
v 1376.16 -388.81 1028.76 
v 1376.1 -388.827 1028.75 
v 1376.06 -388.928 1028.58 
v 1375.97 -388.853 1028.91 
v 1376.35 -389.555 1028.68 
v 1376.21 -389.432 1029.22 
v 1376.32 -389.456 1028.95 
v 1376.26 -389.503 1029.21 
v 1376.38 -389.607 1028.75 
v 1376.36 -389.522 1028.98 
v 1376.39 -389.652 1028.82 
v 1376.3 -389.57 1029.17 
v 1376.38 -389.589 1029 
v 1376.3 -389.622 1029.13 
v 1376.41 -389.552 1028.61 
v 1376.76 -389.615 1029.02 
v 1376.65 -389.615 1029.02 
v 1376.56 -389.571 1028.96 
v 1376.55 -389.634 1028.9 
v 1376.54 -389.501 1028.85 
v 1376.6 -389.754 1028.85 
v 1376.52 -389.556 1028.81 
v 1376.59 -389.449 1028.77 
v 1376.52 -389.683 1028.85 
v 1376.49 -389.595 1028.77 
v 1376.56 -389.793 1028.79 
v 1376.49 -389.708 1028.82 
v 1376.51 -389.815 1028.75 
v 1376.52 -389.54 1028.67 
v 1376.45 -389.607 1028.74 
v 1376.47 -389.549 1028.63 
v 1376.45 -389.72 1028.8 
v 1376.41 -389.611 1028.73 
v 1376.46 -389.828 1028.73 
v 1375.73 -389.195 1029.06 
v 1375.83 -389.074 1029.11 
v 1375.73 -389.224 1029.11 
v 1376.15 -388.973 1029.27 
v 1376 -389.182 1029.3 
v 1376.05 -389.21 1029.32 
v 1376.2 -389 1029.29 
v 1376.11 -388.947 1029.25 
v 1376.1 -389.24 1029.33 
v 1376.3 -388.836 1029.14 
v 1375.98 -389.445 1029.33 
v 1376.26 -388.813 1029.11 
v 1376.35 -388.865 1029.16 
v 1376.25 -389.029 1029.31 
v 1376.39 -388.894 1029.18 
v 1376.2 -388.798 1029.09 
v 1376.44 -388.933 1029.2 
v 1376.3 -389.074 1029.32 
v 1376.18 -389.31 1029.28 
v 1376.5 -388.986 1029.22 
v 1376.35 -389.143 1029.34 
v 1376.57 -389.046 1029.24 
v 1376.4 -389.224 1029.36 
v 1376.65 -389.103 1029.27 
v 1376.25 -389.353 1029.24 
v 1376.48 -389.291 1029.38 
v 1376.29 -389.45 1029.26 
v 1376.36 -389.526 1029.29 
v 1376.55 -389.346 1029.39 
v 1376.72 -389.159 1029.28 
v 1376.79 -389.215 1029.3 
v 1376.43 -389.578 1029.3 
v 1376.51 -389.615 1029.31 
v 1376.58 -389.645 1029.32 
v 1376.62 -389.394 1029.4 
v 1376.69 -389.44 1029.4 
v 1376.84 -389.273 1029.3 
v 1375.96 -389.154 1029.28 
v 1376.06 -388.928 1029.21 
v 1375.83 -389.351 1029.27 
v 1376.15 -388.793 1029.05 
v 1375.92 -389.127 1029.24 
v 1376.02 -388.916 1029.18 
v 1376.11 -388.795 1029.02 
v 1375.77 -389.514 1029.15 
v 1375.74 -389.473 1029.12 
v 1375.81 -389.549 1029.17 
v 1375.71 -389.429 1029.08 
v 1375.86 -389.583 1029.19 
v 1375.87 -389.383 1029.29 
v 1375.8 -389.316 1029.23 
v 1375.92 -389.413 1029.31 
v 1375.92 -389.619 1029.21 
v 1375.77 -389.282 1029.19 
v 1375.88 -389.104 1029.2 
v 1375.7 -389.388 1029.05 
v 1375.75 -389.252 1029.15 
v 1375.98 -388.911 1029.13 
v 1375.85 -389.087 1029.16 
v 1375.95 -388.913 1029.09 
v 1375.97 -388.853 1028.91 
v 1375.98 -389.65 1029.22 
v 1376.03 -389.669 1029.21 
v 1376.04 -389.484 1029.33 
v 1376.21 -389.432 1029.22 
v 1376.09 -389.529 1029.31 
v 1376.26 -389.503 1029.21 
v 1376.15 -389.573 1029.28 
v 1376.3 -389.622 1029.13 
v 1376.41 -389.552 1028.61 
v 1376.38 -389.628 1028.72 
v 1376.41 -389.732 1028.78 
v 1376.35 -389.655 1028.72 
v 1376.41 -389.833 1028.71 
v 1376.38 -389.746 1028.77 
v 1376.35 -389.826 1028.69 
v 1376.32 -389.686 1028.7 
v 1376.33 -389.756 1028.73 
v 1376.37 -389.853 1028.6 
v 1376.35 -389.738 1028.48 
v 1376.29 -389.719 1028.66 
v 1376.31 -389.761 1028.69 
v 1376.76 -389.57 1028.73 
v 1376.81 -389.501 1028.85 
v 1376.78 -389.648 1028.82 
v 1376.82 -389.567 1028.95 
v 1376.73 -389.7 1028.9 
v 1376.76 -389.615 1029.02 
v 1376.73 -389.716 1028.7 
v 1376.63 -389.692 1028.93 
v 1376.56 -389.571 1028.96 
v 1376.6 -389.754 1028.85 
v 1376.69 -389.772 1028.79 
v 1376.56 -389.793 1028.79 
v 1376.62 -389.82 1028.71 
v 1376.71 -389.627 1028.63 
v 1376.65 -389.764 1028.61 
v 1376.56 -389.793 1028.54 
v 1376.1 -389.24 1029.33 
v 1375.98 -389.445 1029.33 
v 1376.3 -389.074 1029.32 
v 1376.18 -389.31 1029.28 
v 1376.33 -389.439 1028.47 
v 1376.52 -389.263 1028.5 
v 1376.36 -389.473 1028.57 
v 1376.2 -389.636 1028.5 
v 1376.28 -389.426 1028.94 
v 1376.24 -389.664 1028.54 
v 1376.35 -389.555 1028.68 
v 1376.16 -389.787 1028.7 
v 1376.03 -389.669 1029.21 
v 1376.04 -389.484 1029.33 
v 1376.21 -389.432 1029.22 
v 1376.26 -389.503 1029.21 
v 1376.15 -389.573 1029.28 
v 1376.06 -389.771 1028.96 
v 1376.08 -389.681 1029.19 
v 1376.2 -389.616 1029.23 
v 1376.1 -389.766 1028.97 
v 1376.13 -389.691 1029.16 
v 1376.2 -389.784 1028.74 
v 1376.31 -389.715 1028.66 
v 1376.38 -389.607 1028.75 
v 1376.33 -389.728 1028.74 
v 1376.39 -389.652 1028.82 
v 1376.22 -389.773 1028.8 
v 1376.31 -389.723 1028.85 
v 1376.3 -389.57 1029.17 
v 1376.38 -389.589 1029 
v 1376.37 -389.678 1028.88 
v 1376.35 -389.648 1029.01 
v 1376.28 -389.697 1029 
v 1376.3 -389.622 1029.13 
v 1376.24 -389.658 1029.14 
v 1376.25 -389.753 1028.86 
v 1376.2 -389.733 1028.99 
v 1376.15 -389.754 1028.98 
v 1376.18 -389.697 1029.11 
v 1376.55 -389.849 1028.65 
v 1376.76 -389.615 1029.02 
v 1376.63 -389.692 1028.93 
v 1376.65 -389.615 1029.02 
v 1376.56 -389.571 1028.96 
v 1376.55 -389.634 1028.9 
v 1376.6 -389.754 1028.85 
v 1376.69 -389.772 1028.79 
v 1376.52 -389.683 1028.85 
v 1376.56 -389.793 1028.79 
v 1376.62 -389.82 1028.71 
v 1376.51 -389.815 1028.75 
v 1376.46 -389.828 1028.73 
v 1375.73 -389.195 1029.06 
v 1375.73 -389.313 1028.76 
v 1375.73 -389.432 1028.79 
v 1375.8 -389.392 1028.58 
v 1376.18 -389.31 1029.28 
v 1376.52 -389.263 1028.5 
v 1376.36 -389.473 1028.57 
v 1376.25 -389.353 1029.24 
v 1376.29 -389.45 1029.26 
v 1376.28 -389.426 1028.94 
v 1376.29 -389.488 1028.95 
v 1376.32 -389.59 1028.98 
v 1376.36 -389.526 1029.29 
v 1376.41 -389.488 1028.65 
v 1376.44 -389.579 1028.7 
v 1376.5 -389.651 1028.74 
v 1376.37 -389.667 1029.02 
v 1376.57 -389.697 1028.79 
v 1376.43 -389.578 1029.3 
v 1376.45 -389.716 1029.05 
v 1376.64 -389.726 1028.83 
v 1376.51 -389.615 1029.31 
v 1376.52 -389.746 1029.07 
v 1376.7 -389.748 1028.87 
v 1376.6 -389.766 1029.1 
v 1376.58 -389.645 1029.32 
v 1376.1 -389.576 1028.45 
v 1376.07 -389.75 1028.63 
v 1376.02 -389.717 1028.61 
v 1375.97 -389.684 1028.58 
v 1375.93 -389.647 1028.57 
v 1375.86 -389.664 1028.88 
v 1375.91 -389.698 1028.9 
v 1375.89 -389.601 1028.56 
v 1375.82 -389.627 1028.86 
v 1375.85 -389.55 1028.56 
v 1375.78 -389.582 1028.84 
v 1375.77 -389.514 1029.15 
v 1375.74 -389.473 1029.12 
v 1375.81 -389.549 1029.17 
v 1375.71 -389.429 1029.08 
v 1375.75 -389.532 1028.82 
v 1375.86 -389.583 1029.19 
v 1375.92 -389.619 1029.21 
v 1375.7 -389.388 1029.05 
v 1375.69 -389.347 1029.01 
v 1375.74 -389.483 1028.81 
v 1375.83 -389.5 1028.56 
v 1375.81 -389.449 1028.57 
v 1376.24 -389.664 1028.54 
v 1376.12 -389.776 1028.67 
v 1376.16 -389.787 1028.7 
v 1375.96 -389.735 1028.92 
v 1376.02 -389.762 1028.94 
v 1375.98 -389.65 1029.22 
v 1376.03 -389.669 1029.21 
v 1376.04 -389.484 1029.33 
v 1376.21 -389.432 1029.22 
v 1376.06 -389.771 1028.96 
v 1376.08 -389.681 1029.19 
v 1376.1 -389.766 1028.97 
v 1376.13 -389.691 1029.16 
v 1376.2 -389.784 1028.74 
v 1376.31 -389.715 1028.66 
v 1376.39 -389.652 1028.82 
v 1376.22 -389.773 1028.8 
v 1376.3 -389.622 1029.13 
v 1376.25 -389.753 1028.86 
v 1376.18 -389.697 1029.11 
v 1376.55 -389.849 1028.65 
v 1376.48 -389.865 1028.62 
v 1376.41 -389.833 1028.71 
v 1376.38 -389.746 1028.77 
v 1376.42 -389.867 1028.6 
v 1376.35 -389.826 1028.69 
v 1376.33 -389.756 1028.73 
v 1376.42 -389.817 1028.5 
v 1376.37 -389.853 1028.6 
v 1376.36 -389.813 1028.52 
v 1376.33 -389.827 1028.6 
v 1376.35 -389.738 1028.48 
v 1376.32 -389.794 1028.55 
v 1376.31 -389.748 1028.52 
v 1376.3 -389.711 1028.56 
v 1376.29 -389.759 1028.6 
v 1376.29 -389.719 1028.66 
v 1376.31 -389.802 1028.65 
v 1376.31 -389.761 1028.69 

vn 0.834646 0.212598 -0.511811 
vn 0.913386 0.125984 -0.393701 
vn 0.84252 -0.448819 -0.299213 
vn 0.511811 -0.834646 0.212598 
vn -0.456693 0.740157 -0.488189 
vn 0.283465 0.740157 -0.606299 
vn 0.251969 0.755906 -0.606299 
vn 0.748031 0.15748 -0.645669 
vn 0.606299 0.110236 -0.787402 
vn 0.692913 -0.527559 -0.496063 
vn 0.519685 -0.574803 -0.629921 
vn 0.425197 0.0787402 -0.897638 
vn 0.0787402 0.724409 -0.685039 
vn -0.629921 0.125984 -0.771654 
vn -0.472441 0.283465 -0.834646 
vn 0.409449 0.661417 -0.629921 
vn 0.543307 0.598425 -0.590551 
vn 0.637795 0.535433 -0.551181 
vn 0.590551 0.566929 -0.566929 
vn 0.700787 0.472441 -0.535433 
vn 0.551181 -0.0472441 -0.826772 
vn 0.425197 0.0551181 -0.905512 
vn 0.362205 0.102362 -0.929134 
vn 0.496063 -0.393701 -0.779528 
vn 0.283465 -0.251969 -0.929134 
vn 0.622047 -0.204724 -0.755906 
vn 0.716535 0.417323 -0.559055 
vn 0.622047 -0.535433 -0.566929 
vn 0.267717 -0.614173 -0.740157 
vn 0.464567 -0.283465 -0.84252 
vn 0.685039 0.401575 -0.606299 
vn 0.669291 0.393701 -0.622047 
vn 0.283465 -0.275591 -0.92126 
vn 0.716535 0.354331 -0.606299 
vn 0.346457 -0.299213 -0.889764 
vn -0.409449 -0.677165 -0.614173 
vn -0.456693 -0.598425 -0.653543 
vn -0.275591 -0.748031 -0.606299 
vn 0.417323 -0.330709 -0.850394 
vn -0.110236 -0.826772 -0.551181 
vn -0.015748 -0.858268 -0.503937 
vn 0.023622 -0.874016 -0.488189 
vn 0.464567 -0.362205 -0.811024 
vn 0.488189 -0.370079 -0.787402 
vn 0.80315 0.259843 -0.543307 
vn 0.779528 0.291339 -0.559055 
vn 0.251969 0.716535 -0.653543 
vn 0.102362 0.748031 -0.653543 
vn -0.0393701 0.76378 -0.645669 
vn 0.244094 0.181102 -0.952756 
vn 0.0944882 0.259843 -0.96063 
vn -0.0314961 0.322835 -0.944882 
vn 0.19685 -0.188976 -0.96063 
vn 0.0866142 -0.110236 -0.992126 
vn -0.0472441 -0.015748 -1 
vn 0.0708661 -0.543307 -0.834646 
vn -0.149606 -0.385827 -0.913386 
vn -0.023622 -0.480315 -0.874016 
vn -0.283465 -0.275591 -0.92126 
vn -0.385827 -0.165354 -0.905512 
vn -0.244094 -0.874016 -0.417323 
vn -0.322835 -0.834646 -0.440945 
vn -0.409449 -0.787402 -0.472441 
vn -0.527559 -0.677165 -0.511811 
vn -0.637795 -0.551181 -0.535433 
vn -0.724409 -0.425197 -0.551181 
vn -0.779528 -0.291339 -0.551181 
vn -0.480315 -0.0629921 -0.874016 
vn -0.165354 0.0629921 -0.984252 
vn -0.15748 0.370079 -0.913386 
vn -0.275591 0.141732 -0.952756 
vn -0.559055 0.0314961 -0.826772 
vn -0.275591 0.417323 -0.866142 
vn -0.370079 0.204724 -0.905512 
vn -0.385827 0.456693 -0.80315 
vn 0.496063 -0.645669 -0.574803 
vn 0.976378 0.0708661 -0.212598 
vn -0.102362 -0.929134 -0.354331 
vn 0.0866142 -0.968504 -0.23622 
vn 0.685039 -0.622047 -0.377953 
vn 0.614173 -0.622047 -0.488189 
vn 0.976378 0.0472441 -0.228346 
vn 0.952756 -0.299213 -0.015748 
vn 0.322835 -0.944882 -0.0314961 
vn 0.173228 -0.984252 -0.0866142 
vn 0.291339 -0.637795 -0.708661 
vn 0.149606 0.023622 -0.992126 
vn -0.283465 0.96063 -0.0314961 
vn -0.251969 0.622047 -0.740157 
vn -0.519685 0.527559 -0.669291 
vn -0.0708661 -0.992126 -0.102362 
vn -0.0314961 -0.685039 -0.724409 
vn -0.393701 -0.913386 -0.102362 
vn -0.212598 -0.0472441 -0.976378 
vn -0.401575 -0.669291 -0.622047 
vn -0.559055 -0.102362 -0.818898 
vn 0.401575 0.661417 -0.637795 
vn 0.299213 0.708661 -0.637795 
vn -0.818898 -0.275591 0.503937 
vn -0.811024 -0.244094 0.535433 
vn -0.96063 0.267717 0.0629921 
vn -0.929134 0.330709 0.15748 
vn -0.456693 0.740157 -0.488189 
vn -0.700787 -0.212598 0.677165 
vn -0.480315 0.795276 -0.362205 
vn -0.76378 0.488189 0.417323 
vn -0.535433 -0.125984 0.834646 
vn -0.322835 0.937008 -0.11811 
vn -0.472441 0.645669 0.606299 
vn -0.141732 0.992126 0.015748 
vn -0.409449 0.669291 0.622047 
vn 0.283465 0.740157 -0.606299 
vn 0.0787402 0.724409 -0.685039 
vn -0.440945 0.84252 -0.307087 
vn -0.574803 0.661417 -0.488189 
vn -0.574803 0.755906 -0.322835 
vn -0.661417 0.732283 -0.15748 
vn -0.897638 0.362205 0.251969 
vn -0.724409 0.519685 0.448819 
vn -0.779528 0.543307 0.314961 
vn -0.874016 0.307087 0.377953 
vn -1 0.0787402 0.015748 
vn -0.905512 0.417323 0.102362 
vn -0.976378 0.19685 -0.0787402 
vn -0.811024 0.566929 0.149606 
vn -0.732283 0.677165 0.110236 
vn -0.88189 0.464567 -0.0472441 
vn -0.771654 0.637795 -0.0472441 
vn -0.826772 0.566929 -0.023622 
vn -0.716535 0.653543 -0.228346 
vn -0.779528 0.590551 -0.19685 
vn -0.685039 0.645669 -0.330709 
vn -0.76378 0.559055 -0.330709 
vn -0.669291 0.614173 -0.425197 
vn -0.811024 0.551181 -0.188976 
vn -0.850394 0.488189 -0.19685 
vn -0.787402 0.519685 -0.330709 
vn -0.937008 0.299213 -0.165354 
vn -0.818898 0.472441 -0.322835 
vn -0.897638 0.370079 -0.23622 
vn -0.740157 0.488189 -0.456693 
vn -0.716535 0.535433 -0.456693 
vn -0.88189 0.346457 -0.314961 
vn -0.929134 0.220472 -0.299213 
vn -0.858268 0.338583 -0.393701 
vn -0.787402 0.425197 -0.448819 
vn -0.866142 0.244094 -0.433071 
vn -0.96063 0.0866142 -0.275591 
vn -0.677165 0.433071 -0.598425 
vn -0.748031 0.346457 -0.566929 
vn -0.874016 0.110236 -0.480315 
vn -0.968504 -0.0708661 -0.244094 
vn -0.96063 -0.204724 -0.204724 
vn -0.858268 -0.0393701 -0.511811 
vn -0.629921 0.125984 -0.771654 
vn -0.692913 0.244094 -0.677165 
vn -0.472441 0.283465 -0.834646 
vn -0.574803 0.362205 -0.732283 
vn -0.511811 0.488189 -0.708661 
vn -0.629921 0.511811 -0.590551 
vn -0.724409 -0.409449 0.559055 
vn 0.448819 -0.834646 0.314961 
vn -0.858268 -0.503937 -0.110236 
vn -0.409449 -0.677165 -0.614173 
vn 0.228346 0.96063 -0.15748 
vn -0.251969 0.952756 0.173228 
vn 0.251969 0.716535 -0.653543 
vn -0.0472441 0.968504 -0.23622 
vn -0.0393701 0.76378 -0.645669 
vn 0.0944882 0.259843 -0.96063 
vn -0.283465 -0.275591 -0.92126 
vn -0.637795 -0.551181 -0.535433 
vn -0.818898 -0.566929 -0.0866142 
vn -0.976378 -0.125984 0.181102 
vn -0.84252 0.244094 0.488189 
vn -0.527559 0.692913 0.488189 
vn -0.669291 0.488189 0.559055 
vn -0.362205 0.929134 0.102362 
vn -0.606299 0.700787 0.377953 
vn -0.992126 -0.023622 0.0944882 
vn -0.929134 -0.322835 -0.173228 
vn -0.779528 -0.291339 -0.551181 
vn -0.826772 -0.173228 -0.535433 
vn -0.480315 -0.0629921 -0.874016 
vn -0.15748 0.370079 -0.913386 
vn -0.559055 0.0314961 -0.826772 
vn -0.165354 0.76378 -0.629921 
vn -0.275591 0.417323 -0.866142 
vn -0.370079 0.204724 -0.905512 
vn -0.173228 0.952756 -0.259843 
vn -0.299213 0.748031 -0.598425 
vn -0.385827 0.456693 -0.80315 
vn -0.464567 0.889764 0.023622 
vn -0.299213 0.913386 -0.291339 
vn -0.440945 0.708661 -0.551181 
vn -0.669291 0.692913 0.259843 
vn -0.566929 0.818898 -0.0708661 
vn -0.283465 0.96063 -0.0314961 
vn -0.582677 0.811024 -0.0629921 
vn -0.251969 0.622047 -0.740157 
vn -0.519685 0.527559 -0.669291 
vn -0.551181 0.566929 0.606299 
vn -0.724409 0.685039 -0.015748 
vn -0.653543 0.472441 0.590551 
vn -0.795276 0.370079 0.488189 
vn -0.685039 -0.212598 0.692913 
vn -0.393701 -0.913386 -0.102362 
vn -0.212598 -0.0472441 -0.976378 
vn -0.724409 0.425197 -0.535433 
vn -0.559055 -0.102362 -0.818898 
vn -0.787402 -0.503937 -0.362205 
vn -0.826772 -0.173228 -0.543307 
vn -0.811024 0.590551 0 
vn -0.944882 0.125984 -0.314961 
vn -0.968504 -0.244094 -0.0551181 
vn -0.952756 0.307087 -0.015748 
vn -0.968504 0.0866142 0.244094 
vn 0.834646 0.212598 -0.511811 
vn 0.401575 0.661417 -0.637795 
vn 0.913386 0.125984 -0.393701 
vn 0.299213 0.708661 -0.637795 
vn -0.456693 0.740157 -0.488189 
vn -0.480315 0.795276 -0.362205 
vn -0.322835 0.937008 -0.11811 
vn -0.141732 0.992126 0.015748 
vn 0.283465 0.740157 -0.606299 
vn 0.251969 0.755906 -0.606299 
vn 0.748031 0.15748 -0.645669 
vn 0.606299 0.110236 -0.787402 
vn 0.0787402 0.724409 -0.685039 
vn 0.259843 0.84252 0.472441 
vn 0.133858 0.897638 0.417323 
vn 0.314961 0.811024 0.496063 
vn 0.354331 0.779528 0.511811 
vn 0.551181 0.834646 -0.0472441 
vn 0.503937 0.858268 -0.0629921 
vn -0.00787402 0.944882 0.338583 
vn 0.385827 0.92126 -0.110236 
vn 0.409449 0.661417 -0.629921 
vn 0.409449 0.716535 0.559055 
vn 0.543307 0.598425 -0.590551 
vn 0.582677 0.811024 -0.0314961 
vn 0.622047 0.787402 -0.015748 
vn 0.637795 0.535433 -0.551181 
vn 0.590551 0.566929 -0.566929 
vn 0.700787 0.472441 -0.535433 
vn 0.716535 0.417323 -0.559055 
vn 0.637795 0.771654 -0.00787402 
vn 0.685039 0.401575 -0.606299 
vn 0.409449 0.685039 0.606299 
vn 0.362205 0.685039 0.629921 
vn 0.614173 0.787402 -0.015748 
vn 0.338583 0.685039 0.645669 
vn 0.448819 -0.834646 0.314961 
vn 0.377953 0.645669 0.661417 
vn 0.606299 0.795276 -0.023622 
vn 0.669291 0.393701 -0.622047 
vn 0.661417 0.748031 0.00787402 
vn 0.716535 0.354331 -0.606299 
vn 0.448819 0.574803 0.685039 
vn 0.80315 0.259843 -0.543307 
vn 0.472441 0.543307 0.692913 
vn 0.740157 0.669291 0.0472441 
vn 0.771654 0.629921 0.0629921 
vn 0.779528 0.291339 -0.559055 
vn -0.133858 0.96063 0.259843 
vn 0.228346 0.96063 -0.15748 
vn 0.0944882 0.976378 -0.19685 
vn -0.251969 0.952756 0.173228 
vn 0.251969 0.716535 -0.653543 
vn 0.102362 0.748031 -0.653543 
vn -0.0472441 0.968504 -0.23622 
vn -0.0393701 0.76378 -0.645669 
vn -0.527559 0.692913 0.488189 
vn -0.362205 0.929134 0.102362 
vn -0.165354 0.76378 -0.629921 
vn -0.173228 0.952756 -0.259843 
vn -0.299213 0.913386 -0.291339 
vn -0.440945 0.708661 -0.551181 
vn -0.566929 0.818898 -0.0708661 
vn 0.976378 0.0708661 -0.212598 
vn 0.755906 0.259843 0.598425 
vn 0.889764 0.440945 0.133858 
vn 0.748031 0.244094 0.614173 
vn 0.976378 0.0472441 -0.228346 
vn 0.905512 0.401575 0.149606 
vn 0.952756 -0.299213 -0.015748 
vn 0.795276 -0.15748 0.582677 
vn 0.96063 -0.0314961 0.259843 
vn 0.685039 -0.559055 0.464567 
vn -0.283465 0.96063 -0.0314961 
vn 0.464567 -0.771654 0.433071 
vn -0.251969 -0.716535 0.653543 
vn -0.818898 -0.275591 0.503937 
vn -0.811024 -0.244094 0.535433 
vn -0.96063 0.267717 0.0629921 
vn -0.15748 -0.755906 0.629921 
vn -0.929134 0.330709 0.15748 
vn -0.456693 0.740157 -0.488189 
vn -0.700787 -0.212598 0.677165 
vn -0.76378 0.488189 0.417323 
vn -0.11811 -0.787402 0.606299 
vn -0.535433 -0.125984 0.834646 
vn -0.0787402 -0.787402 0.606299 
vn -0.322835 0.937008 -0.11811 
vn -0.472441 0.645669 0.606299 
vn -0.141732 0.992126 0.015748 
vn -0.385827 -0.0629921 0.92126 
vn -0.409449 0.669291 0.622047 
vn -0.0866142 -0.795276 0.598425 
vn -0.897638 0.362205 0.251969 
vn -0.724409 0.519685 0.448819 
vn -0.874016 0.307087 0.377953 
vn -0.110236 0.511811 0.850394 
vn -0.299213 0.244094 0.92126 
vn -0.212598 0.181102 0.96063 
vn -0.0472441 0.464567 0.88189 
vn -0.220472 0.574803 0.787402 
vn 0.023622 0.015748 1 
vn 0.259843 0.84252 0.472441 
vn -0.188976 -0.228346 0.952756 
vn 0.133858 0.897638 0.417323 
vn 0.314961 0.811024 0.496063 
vn 0.0866142 0.354331 0.929134 
vn 0.354331 0.779528 0.511811 
vn -0.00787402 0.944882 0.338583 
vn 0.409449 0.716535 0.559055 
vn 0.165354 0.188976 0.968504 
vn 0.220472 -0.188976 0.96063 
vn 0.409449 0.685039 0.606299 
vn -0.023622 0.141732 0.992126 
vn 0.362205 0.685039 0.629921 
vn -0.212598 0.15748 0.968504 
vn 0.338583 0.685039 0.645669 
vn -0.724409 -0.409449 0.559055 
vn -0.149606 0.125984 0.976378 
vn -0.771654 -0.330709 0.543307 
vn -0.606299 -0.464567 0.645669 
vn -0.0708661 0.0944882 0.992126 
vn 0.377953 0.645669 0.661417 
vn 0.448819 0.574803 0.685039 
vn -0.440945 -0.535433 0.716535 
vn -0.346457 -0.574803 0.740157 
vn -0.307087 -0.590551 0.748031 
vn -0.00787402 0.0551181 1 
vn 0.015748 0.0393701 1 
vn 0.472441 0.543307 0.692913 
vn -0.409449 0.314961 0.858268 
vn -0.338583 0.637795 0.692913 
vn -0.606299 0.00787402 0.795276 
vn -0.133858 0.96063 0.259843 
vn -0.511811 0.385827 0.76378 
vn -0.440945 0.669291 0.590551 
vn -0.251969 0.952756 0.173228 
vn -0.771654 -0.464567 0.425197 
vn -0.874016 -0.346457 0.346457 
vn -0.661417 -0.559055 0.496063 
vn -0.937008 -0.23622 0.259843 
vn -0.582677 -0.614173 0.535433 
vn -0.488189 -0.0787402 0.866142 
vn -0.708661 0.0944882 0.700787 
vn -0.385827 -0.141732 0.913386 
vn -0.503937 -0.653543 0.566929 
vn -0.787402 0.173228 0.598425 
vn -0.598425 0.440945 0.669291 
vn -0.976378 -0.125984 0.181102 
vn -0.84252 0.244094 0.488189 
vn -0.527559 0.692913 0.488189 
vn -0.669291 0.488189 0.559055 
vn -0.606299 0.700787 0.377953 
vn -0.566929 0.818898 -0.0708661 
vn -0.354331 -0.708661 0.606299 
vn -0.141732 -0.771654 0.622047 
vn 0.0866142 -0.299213 0.952756 
vn 0.755906 0.259843 0.598425 
vn 0.244094 -0.299213 0.92126 
vn 0.748031 0.244094 0.614173 
vn 0.354331 -0.330709 0.874016 
vn 0.685039 -0.559055 0.464567 
vn -0.283465 0.96063 -0.0314961 
vn -0.551181 0.566929 0.606299 
vn -0.354331 -0.0944882 0.929134 
vn -0.653543 0.472441 0.590551 
vn -0.23622 -0.80315 0.551181 
vn -0.472441 -0.165354 0.866142 
vn -0.496063 -0.755906 0.433071 
vn -0.795276 0.370079 0.488189 
vn -0.685039 -0.212598 0.692913 
vn -0.393701 -0.913386 -0.102362 
vn -0.559055 -0.102362 -0.818898 
vn -0.968504 0.0866142 0.244094 
vn -0.874016 -0.251969 0.417323 
vn 0.834646 0.212598 -0.511811 
vn 0.913386 0.125984 -0.393701 
vn 0.913386 -0.385827 -0.110236 
vn 0.905512 -0.433071 0.015748 
vn 0.496063 -0.779528 0.377953 
vn 0.464567 -0.771654 0.433071 
vn 0.84252 -0.448819 -0.299213 
vn -0.251969 -0.716535 0.653543 
vn -0.818898 -0.275591 0.503937 
vn -0.15748 -0.755906 0.629921 
vn 0.511811 -0.834646 0.212598 
vn -0.11811 -0.787402 0.606299 
vn 0.425197 -0.905512 0.0551181 
vn 0.748031 0.15748 -0.645669 
vn 0.692913 -0.527559 -0.496063 
vn 0.519685 -0.574803 -0.629921 
vn 0.023622 0.015748 1 
vn -0.188976 -0.228346 0.952756 
vn 0.165354 0.188976 0.968504 
vn 0.220472 -0.188976 0.96063 
vn 0.496063 -0.393701 -0.779528 
vn 0.622047 -0.204724 -0.755906 
vn 0.622047 -0.535433 -0.566929 
vn 0.267717 -0.614173 -0.740157 
vn 0.448819 -0.834646 0.314961 
vn 0.496063 -0.645669 -0.574803 
vn 0.976378 0.0708661 -0.212598 
vn 0.0866142 -0.968504 -0.23622 
vn -0.141732 -0.771654 0.622047 
vn 0.0866142 -0.299213 0.952756 
vn 0.755906 0.259843 0.598425 
vn 0.748031 0.244094 0.614173 
vn 0.354331 -0.330709 0.874016 
vn -0.141732 -0.976378 0.188976 
vn 0.0629921 -0.818898 0.566929 
vn 0.440945 -0.559055 0.708661 
vn 0.0629921 -0.968504 0.23622 
vn 0.212598 -0.858268 0.472441 
vn 0.23622 -0.968504 -0.0708661 
vn 0.685039 -0.622047 -0.377953 
vn 0.976378 0.0472441 -0.228346 
vn 0.653543 -0.748031 -0.11811 
vn 0.952756 -0.299213 -0.015748 
vn 0.314961 -0.944882 0.0787402 
vn 0.535433 -0.826772 0.149606 
vn 0.795276 -0.15748 0.582677 
vn 0.96063 -0.0314961 0.259843 
vn 0.76378 -0.622047 0.188976 
vn 0.748031 -0.574803 0.330709 
vn 0.464567 -0.826772 0.314961 
vn 0.685039 -0.559055 0.464567 
vn 0.448819 -0.755906 0.472441 
vn 0.354331 -0.913386 0.204724 
vn 0.314961 -0.905512 0.291339 
vn 0.188976 -0.944882 0.267717 
vn 0.307087 -0.874016 0.385827 
vn 0.322835 -0.944882 -0.0314961 
vn 0.464567 -0.771654 0.433071 
vn -0.251969 -0.716535 0.653543 
vn -0.251969 -0.716535 0.653543 
vn -0.818898 -0.275591 0.503937 
vn -0.811024 -0.244094 0.535433 
vn -0.15748 -0.755906 0.629921 
vn 0.511811 -0.834646 0.212598 
vn -0.700787 -0.212598 0.677165 
vn -0.11811 -0.787402 0.606299 
vn 0.425197 -0.905512 0.0551181 
vn -0.0787402 -0.787402 0.606299 
vn -0.0866142 -0.795276 0.598425 
vn -0.897638 0.362205 0.251969 
vn -0.96063 0.0866142 -0.275591 
vn -0.96063 -0.204724 -0.204724 
vn -0.858268 -0.0393701 -0.511811 
vn 0.220472 -0.188976 0.96063 
vn 0.622047 -0.204724 -0.755906 
vn 0.622047 -0.535433 -0.566929 
vn -0.724409 -0.409449 0.559055 
vn -0.771654 -0.330709 0.543307 
vn 0.448819 -0.834646 0.314961 
vn -0.858268 -0.503937 -0.110236 
vn -0.834646 -0.535433 -0.102362 
vn -0.606299 -0.464567 0.645669 
vn -0.409449 -0.677165 -0.614173 
vn -0.456693 -0.598425 -0.653543 
vn -0.275591 -0.748031 -0.606299 
vn -0.653543 -0.755906 0 
vn -0.110236 -0.826772 -0.551181 
vn -0.440945 -0.535433 0.716535 
vn -0.472441 -0.88189 0.0787402 
vn -0.015748 -0.858268 -0.503937 
vn -0.346457 -0.574803 0.740157 
vn -0.354331 -0.929134 0.11811 
vn 0.023622 -0.874016 -0.488189 
vn -0.307087 -0.944882 0.133858 
vn -0.307087 -0.590551 0.748031 
vn -0.023622 -0.480315 -0.874016 
vn -0.244094 -0.874016 -0.417323 
vn -0.322835 -0.834646 -0.440945 
vn -0.409449 -0.787402 -0.472441 
vn -0.527559 -0.677165 -0.511811 
vn -0.614173 -0.787402 0.015748 
vn -0.559055 -0.826772 0.0393701 
vn -0.637795 -0.551181 -0.535433 
vn -0.724409 -0.692913 -0.0314961 
vn -0.724409 -0.425197 -0.551181 
vn -0.818898 -0.566929 -0.0866142 
vn -0.771654 -0.464567 0.425197 
vn -0.874016 -0.346457 0.346457 
vn -0.661417 -0.559055 0.496063 
vn -0.937008 -0.23622 0.259843 
vn -0.88189 -0.448819 -0.133858 
vn -0.582677 -0.614173 0.535433 
vn -0.503937 -0.653543 0.566929 
vn -0.976378 -0.125984 0.181102 
vn -0.992126 -0.023622 0.0944882 
vn -0.929134 -0.322835 -0.173228 
vn -0.779528 -0.291339 -0.551181 
vn -0.826772 -0.173228 -0.535433 
vn 0.496063 -0.645669 -0.574803 
vn -0.102362 -0.929134 -0.354331 
vn 0.0866142 -0.968504 -0.23622 
vn -0.503937 -0.858268 0.0629921 
vn -0.370079 -0.92126 0.11811 
vn -0.354331 -0.708661 0.606299 
vn -0.141732 -0.771654 0.622047 
vn 0.0866142 -0.299213 0.952756 
vn 0.755906 0.259843 0.598425 
vn -0.141732 -0.976378 0.188976 
vn 0.0629921 -0.818898 0.566929 
vn 0.0629921 -0.968504 0.23622 
vn 0.212598 -0.858268 0.472441 
vn 0.23622 -0.968504 -0.0708661 
vn 0.685039 -0.622047 -0.377953 
vn 0.952756 -0.299213 -0.015748 
vn 0.314961 -0.944882 0.0787402 
vn 0.685039 -0.559055 0.464567 
vn 0.354331 -0.913386 0.204724 
vn 0.307087 -0.874016 0.385827 
vn 0.322835 -0.944882 -0.0314961 
vn 0.173228 -0.984252 -0.0866142 
vn -0.23622 -0.80315 0.551181 
vn -0.472441 -0.165354 0.866142 
vn -0.0708661 -0.992126 -0.102362 
vn -0.496063 -0.755906 0.433071 
vn -0.685039 -0.212598 0.692913 
vn -0.0314961 -0.685039 -0.724409 
vn -0.393701 -0.913386 -0.102362 
vn -0.401575 -0.669291 -0.622047 
vn -0.708661 -0.700787 -0.0866142 
vn -0.559055 -0.102362 -0.818898 
vn -0.787402 -0.503937 -0.362205 
vn -0.826772 -0.173228 -0.543307 
vn -0.944882 0.125984 -0.314961 
vn -0.968504 -0.244094 -0.0551181 
vn -0.968504 0.0866142 0.244094 
vn -0.811024 -0.551181 0.19685 
vn -0.874016 -0.251969 0.417323 

vt 1.90115 -27.4394 
vt 1.82476 -27.4736 
vt 2.04051 -27.4784 
vt 2.11354 -27.5051 
vt 1.90361 -27.2499 
vt 1.96939 -27.2788 
vt 2.02581 -27.2115 
vt 1.97757 -27.3894 
vt 2.05282 -27.3151 
vt 2.12135 -27.4095 
vt 2.19288 -27.335 
vt 2.12074 -27.2385 
vt 2.0769 -27.1459 
vt 2.19244 -26.5348 
vt 2.03582 -26.5348 
vt 1.58111 -26.7676 
vt 1.57446 -26.8249 
vt 1.57201 -26.939 
vt 1.57282 -26.8813 
vt 1.576 -27.0055 
vt 1.77088 -26.9396 
vt 1.77343 -26.8815 
vt 1.77599 -26.8249 
vt 2.02821 -26.9434 
vt 2.0326 -26.8827 
vt 1.78009 -27.0065 
vt 1.58794 -27.087 
vt 2.04199 -27.0207 
vt 2.26789 -26.9506 
vt 1.80927 -27.0873 
vt 1.59952 -27.1801 
vt 1.60331 -27.2781 
vt 1.8445 -27.1801 
vt 1.60678 -27.372 
vt 1.86003 -27.2781 
vt 2.03353 -27.0891 
vt 2.08948 -27.1801 
vt 2.11675 -27.2781 
vt 1.86156 -27.372 
vt 2.11634 -27.372 
vt 2.10406 -27.4548 
vt 2.08693 -27.5307 
vt 1.86121 -27.4548 
vt 1.86116 -27.5307 
vt 1.6354 -27.5307 
vt 1.61837 -27.4548 
vt 1.59723 -26.7095 
vt 1.62037 -26.6559 
vt 1.64727 -26.6111 
vt 1.78004 -26.7676 
vt 1.78931 -26.7095 
vt 1.80262 -26.6559 
vt 2.03541 -26.8251 
vt 2.03582 -26.7676 
vt 2.03582 -26.7095 
vt 2.27226 -26.8855 
vt 2.27027 -26.7676 
vt 2.27375 -26.8254 
vt 2.261 -26.7095 
vt 2.2477 -26.6559 
vt 2.43804 -26.9578 
vt 2.44036 -26.8883 
vt 2.44013 -26.8258 
vt 2.43368 -26.7676 
vt 2.41756 -26.7095 
vt 2.39442 -26.6559 
vt 2.36751 -26.6111 
vt 2.23223 -26.6111 
vt 2.03582 -26.6559 
vt 1.81809 -26.6111 
vt 2.03582 -26.6111 
vt 2.21423 -26.572 
vt 1.83609 -26.572 
vt 2.03582 -26.572 
vt 1.85787 -26.5348 
vt 2.26571 -27.0178 
vt 2.11904 -27.0936 
vt 2.43147 -27.0226 
vt 2.41843 -27.0716 
vt 2.2736 -27.1384 
vt 2.27002 -27.0821 
vt 2.14723 -27.167 
vt 2.18332 -27.2172 
vt 2.24911 -27.3901 
vt 2.29801 -27.3366 
vt 2.24852 -27.2742 
vt 2.17629 -27.1826 
vt 2.08042 -27.115 
vt 2.12481 -27.1094 
vt 2.17377 -27.092 
vt 2.33324 -27.2864 
vt 2.29038 -27.2246 
vt 2.35362 -27.2332 
vt 2.22376 -27.1442 
vt 2.32027 -27.1809 
vt 2.26649 -27.1177 
vt 1.78075 -26.8409 
vt 1.69833 -26.9069 
vt 1.95871 -27.0245 
vt 1.89519 -27.0835 
vt 1.88142 -26.9782 
vt 1.8328 -27.0322 
vt 1.80653 -26.9036 
vt 1.84447 -27.1348 
vt 1.75043 -26.9606 
vt 1.79554 -27.0775 
vt 1.8157 -27.1735 
vt 1.70619 -27.0101 
vt 1.77751 -27.1088 
vt 1.68235 -27.0475 
vt 1.77279 -27.1346 
vt 1.63001 -26.9694 
vt 1.56485 -27.0769 
vt 2.04315 -26.7221 
vt 1.91422 -26.8265 
vt 2.04315 -26.7938 
vt 2.17209 -26.8265 
vt 2.34427 -27.1924 
vt 2.39828 -27.0358 
vt 2.35736 -27.0358 
vt 2.38348 -27.2142 
vt 2.25263 -27.2983 
vt 2.29356 -27.1643 
vt 2.21735 -27.2493 
vt 2.30445 -27.0358 
vt 2.29356 -26.886 
vt 2.2271 -27.13 
vt 2.2271 -26.9206 
vt 2.23479 -27.0358 
vt 2.12745 -26.8789 
vt 2.14371 -26.9491 
vt 2.04315 -26.8733 
vt 2.04315 -26.9575 
vt 1.95886 -26.8789 
vt 2.14685 -27.0358 
vt 2.14371 -27.1025 
vt 2.04315 -27.0358 
vt 2.17209 -27.1899 
vt 2.04315 -27.0935 
vt 2.12745 -27.1454 
vt 1.93946 -27.0358 
vt 1.9426 -26.9491 
vt 2.04315 -27.1448 
vt 2.04315 -27.2089 
vt 1.95886 -27.1454 
vt 1.9426 -27.1025 
vt 1.91422 -27.1899 
vt 2.04315 -27.2785 
vt 1.85152 -27.0358 
vt 1.85921 -27.13 
vt 1.86896 -27.2493 
vt 2.04315 -27.3349 
vt 2.04315 -27.3784 
vt 1.83368 -27.2983 
vt 1.74204 -27.1924 
vt 1.79275 -27.1643 
vt 1.72895 -27.0358 
vt 1.78186 -27.0358 
vt 1.79275 -26.886 
vt 1.85921 -26.9206 
vt 2.35639 -27.0335 
vt 2.04315 -27.0638 
vt 2.04315 -27.1133 
vt 1.72992 -27.0335 
vt 2.04315 -26.5286 
vt 2.30244 -26.6473 
vt 1.74784 -26.5972 
vt 2.04315 -26.5862 
vt 1.78387 -26.6473 
vt 1.61864 -26.7893 
vt 1.61864 -27.261 
vt 1.74784 -27.4176 
vt 2.04315 -27.472 
vt 2.30244 -27.3675 
vt 2.41588 -27.2322 
vt 2.41588 -26.8181 
vt 2.43208 -27.0358 
vt 2.2799 -26.6786 
vt 2.38348 -26.8361 
vt 2.2799 -27.3362 
vt 2.04315 -27.4144 
vt 1.78387 -27.3675 
vt 1.80641 -27.3362 
vt 1.67043 -27.2322 
vt 1.67043 -26.8181 
vt 1.70283 -27.2142 
vt 1.80641 -26.6786 
vt 1.70283 -26.8361 
vt 1.68803 -27.0358 
vt 2.04315 -26.6221 
vt 1.83368 -26.7165 
vt 1.74204 -26.8579 
vt 2.25263 -26.7165 
vt 2.04315 -26.6657 
vt 1.86896 -26.7655 
vt 2.34427 -26.8579 
vt 2.21735 -26.7655 
vt 1.67397 -27.0804 
vt 1.67348 -27.1181 
vt 1.55964 -27.1248 
vt 1.56859 -27.1738 
vt 1.77216 -27.1651 
vt 1.6761 -27.1636 
vt 1.76708 -27.2033 
vt 1.7496 -27.2475 
vt 1.76589 -27.2979 
vt 1.60884 -27.3536 
vt 1.50032 -27.2238 
vt 1.58962 -27.226 
vt 1.53214 -27.2665 
vt 1.58983 -27.3311 
vt 1.57165 -27.294 
vt 1.67733 -27.2159 
vt 1.61879 -27.2756 
vt 1.65326 -27.3186 
vt 1.67336 -27.2587 
vt 1.71285 -27.2882 
vt 2.3004 -27.4394 
vt 2.21925 -27.3443 
vt 2.18771 -27.4736 
vt 2.30167 -27.3203 
vt 2.19347 -27.2499 
vt 2.24957 -27.241 
vt 2.29381 -27.2148 
vt 2.31765 -27.1634 
vt 2.36999 -27.2788 
vt 2.41352 -27.2115 
vt 2.39629 -27.3894 
vt 2.46216 -27.3151 
vt 2.43515 -27.1459 
vt 1.6452 -26.8249 
vt 1.64992 -26.7676 
vt 1.64447 -26.8813 
vt 1.64458 -26.939 
vt 1.95685 -26.8813 
vt 1.95685 -26.8249 
vt 1.66153 -26.7095 
vt 1.95685 -26.7676 
vt 2.26377 -26.7676 
vt 1.64612 -27.0055 
vt 2.26849 -26.8249 
vt 1.95685 -26.939 
vt 1.95685 -27.0054 
vt 2.26911 -26.939 
vt 2.26922 -26.8813 
vt 2.26757 -27.0055 
vt 2.26331 -27.087 
vt 1.95685 -27.087 
vt 2.25593 -27.1801 
vt 1.65038 -27.087 
vt 1.65776 -27.1801 
vt 1.95685 -27.1801 
vt 1.66838 -27.2781 
vt 1.95685 -27.0518 
vt 1.68233 -27.372 
vt 1.95685 -27.2781 
vt 2.24531 -27.2781 
vt 1.95685 -27.372 
vt 2.23136 -27.372 
vt 1.69934 -27.4548 
vt 2.19566 -27.5307 
vt 1.71803 -27.5307 
vt 1.95685 -27.4548 
vt 1.95685 -27.5307 
vt 2.21435 -27.4548 
vt 1.67819 -26.6559 
vt 1.95685 -26.7095 
vt 1.95685 -26.6559 
vt 1.69756 -26.6111 
vt 2.25216 -26.7095 
vt 2.2355 -26.6559 
vt 1.95685 -26.6111 
vt 2.21613 -26.6111 
vt 1.58412 -26.6111 
vt 1.7201 -26.572 
vt 2.19359 -26.572 
vt 1.95685 -26.572 
vt 1.95685 -26.5348 
vt 2.13104 -26.5007 
vt 1.78265 -26.5007 
vt 2.24132 -27.0936 
vt 1.67237 -27.0936 
vt 1.95685 -27.1005 
vt 1.71635 -27.167 
vt 2.19734 -27.167 
vt 1.95685 -27.1778 
vt 2.14611 -27.2172 
vt 1.76758 -27.2172 
vt 1.95685 -27.2314 
vt 1.82695 -27.2328 
vt 2.32603 -27.115 
vt 2.04752 -27.5542 
vt 1.9882 -27.4719 
vt 1.9755 -27.3548 
vt 1.9165 -27.3565 
vt 2.0218 -27.2627 
vt 1.85136 -27.4498 
vt 1.96777 -27.2633 
vt 2.09639 -27.2499 
vt 1.86515 -27.3479 
vt 1.92248 -27.2503 
vt 1.79568 -27.4149 
vt 1.82651 -27.323 
vt 1.74945 -27.3721 
vt 1.9899 -27.2148 
vt 1.89123 -27.2169 
vt 1.95251 -27.1634 
vt 1.79537 -27.2924 
vt 1.86542 -27.183 
vt 1.71115 -27.332 
vt 1.80756 -26.5348 
vt 1.96418 -26.572 
vt 1.78577 -26.572 
vt 2.22401 -26.8249 
vt 1.96459 -26.8251 
vt 1.9674 -26.8827 
vt 2.22657 -26.8815 
vt 2.21996 -26.7676 
vt 1.97179 -26.9434 
vt 2.42554 -26.8249 
vt 1.73211 -26.9506 
vt 2.41889 -26.7676 
vt 2.42718 -26.8813 
vt 2.22912 -26.9396 
vt 2.42799 -26.939 
vt 2.40277 -26.7095 
vt 2.424 -27.0055 
vt 2.21991 -27.0065 
vt 1.95801 -27.0207 
vt 2.41206 -27.087 
vt 2.19073 -27.0873 
vt 2.40048 -27.1801 
vt 2.1555 -27.1801 
vt 2.39669 -27.2781 
vt 1.96647 -27.0891 
vt 2.13997 -27.2781 
vt 1.91052 -27.1801 
vt 1.88325 -27.2781 
vt 2.13844 -27.372 
vt 2.39322 -27.372 
vt 2.38163 -27.4548 
vt 1.88366 -27.372 
vt 1.89594 -27.4548 
vt 1.91307 -27.5307 
vt 2.13879 -27.4548 
vt 2.13884 -27.5307 
vt 2.3646 -27.5307 
vt 1.96418 -26.7676 
vt 2.21069 -26.7095 
vt 1.72973 -26.7676 
vt 2.37963 -26.6559 
vt 1.96418 -26.7095 
vt 2.19738 -26.6559 
vt 2.35273 -26.6111 
vt 1.56632 -26.7676 
vt 1.58244 -26.7095 
vt 1.55987 -26.8258 
vt 1.60558 -26.6559 
vt 1.55964 -26.8883 
vt 1.72625 -26.8254 
vt 1.739 -26.7095 
vt 1.72774 -26.8855 
vt 1.56196 -26.9578 
vt 1.7523 -26.6559 
vt 1.96418 -26.6559 
vt 1.63249 -26.6111 
vt 1.76777 -26.6111 
vt 2.18191 -26.6111 
vt 1.96418 -26.6111 
vt 2.16391 -26.572 
vt 2.23454 -26.5007 
vt 1.56853 -27.0226 
vt 1.58157 -27.0716 
vt 1.73429 -27.0178 
vt 1.88096 -27.0936 
vt 1.72998 -27.0821 
vt 1.85277 -27.167 
vt 1.7264 -27.1384 
vt 1.77922 -27.2328 
vt 1.91958 -27.115 
vt 1.83486 -27.1671 
vt 1.76505 -27.2666 
vt 1.79671 -27.1566 
vt 1.68011 -27.2892 
vt 1.73331 -27.2382 
vt 1.65822 -27.2376 
vt 1.75246 -27.1377 
vt 1.7021 -27.2005 
vt 1.64638 -27.2332 
vt 1.73351 -27.1177 
vt 1.71179 -27.1234 
vt 1.68457 -27.1684 
vt 2.3004 -26.9012 
vt 2.18771 -26.8248 
vt 2.24047 -26.9576 
vt 2.10976 -26.8745 
vt 2.16057 -27.0345 
vt 2.03421 -26.9525 
vt 2.35263 -27.0405 
vt 2.106 -27.083 
vt 2.04129 -27.0245 
vt 2.1871 -27.1486 
vt 2.26855 -27.1135 
vt 2.2404 -27.2043 
vt 2.3437 -27.1865 
vt 2.39629 -26.9776 
vt 2.43142 -27.1214 
vt 2.47719 -27.1929 
vt 1.49702 -27.0282 
vt 1.51736 -27.2679 
vt 1.51962 -26.7801 
vt 1.58169 -27.042 
vt 2.41667 -27.0282 
vt 2.39407 -26.7801 
vt 2.332 -27.042 
vt 2.39634 -27.2679 
vt 1.95685 -27.0638 
vt 2.37426 -27.2657 
vt 2.24132 -27.119 
vt 2.2286 -27.4184 
vt 1.6851 -27.4184 
vt 1.53943 -27.2657 
vt 1.67237 -27.119 
vt 1.71635 -27.1472 
vt 1.62732 -27.2736 
vt 1.95685 -27.4735 
vt 1.71803 -27.4 
vt 1.69784 -27.2802 
vt 1.95685 -27.4474 
vt 1.76779 -27.3769 
vt 2.19566 -27.4 
vt 2.28637 -27.2736 
vt 2.19734 -27.1472 
vt 2.21585 -27.2802 
vt 2.14611 -27.1833 
vt 2.1459 -27.3769 
vt 2.10929 -27.2868 
vt 1.76758 -27.1833 
vt 1.95685 -27.1478 
vt 2.08674 -27.2208 
vt 1.95685 -27.2113 
vt 1.95685 -27.2892 
vt 1.82695 -27.2208 
vt 1.80441 -27.2868 
vt 2.08674 -27.3504 
vt 1.95685 -27.3622 
vt 1.95685 -27.4126 
vt 1.82695 -27.3504 
vt 2.38718 -27.2491 
vt 1.96579 -27.5542 
vt 1.894 -27.4665 
vt 1.99091 -27.4719 
vt 1.95871 -27.3548 
vt 1.89519 -27.3565 
vt 1.8129 -27.4498 
vt 1.73145 -27.5051 
vt 1.84447 -27.3479 
vt 1.7596 -27.4149 
vt 1.6563 -27.4513 
vt 1.73075 -27.3721 
vt 1.71851 -27.332 
vt 2.34427 -26.5348 
vt 2.04315 -26.5007 
vt 2.04315 -26.572 
vt 1.83368 -26.5348 
vt 2.41831 -27.0207 
vt 1.60593 -27.0065 
vt 1.668 -27.0207 
vt 2.35639 -27.0891 
vt 2.34224 -27.1801 
vt 2.04315 -27.0518 
vt 2.04315 -27.092 
vt 2.04315 -27.1801 
vt 2.33162 -27.2781 
vt 1.72992 -27.0891 
vt 1.74407 -27.1801 
vt 1.75469 -27.2781 
vt 2.04315 -27.2781 
vt 1.76864 -27.372 
vt 2.31767 -27.372 
vt 2.04315 -27.372 
vt 1.78565 -27.4548 
vt 2.30066 -27.4548 
vt 2.04315 -27.4548 
vt 1.80434 -27.5307 
vt 2.04315 -27.5307 
vt 2.28197 -27.5307 
vt 1.59545 -26.8254 
vt 1.73922 -26.9578 
vt 1.7333 -26.8883 
vt 1.73182 -26.8258 
vt 1.73623 -26.7676 
vt 2.04315 -26.8259 
vt 2.04315 -26.8893 
vt 1.74784 -26.7095 
vt 2.04315 -26.7676 
vt 1.7645 -26.6559 
vt 2.04315 -26.7095 
vt 2.35008 -26.7676 
vt 2.33847 -26.7095 
vt 2.35449 -26.8258 
vt 2.32181 -26.6559 
vt 2.04315 -26.6559 
vt 2.35301 -26.8883 
vt 2.34709 -26.9578 
vt 2.30244 -26.6111 
vt 2.2799 -26.572 
vt 2.04315 -26.6111 
vt 1.78387 -26.6111 
vt 1.80641 -26.572 
vt 1.62574 -27.0178 
vt 1.75105 -27.0226 
vt 1.77141 -27.0716 
vt 2.04315 -26.9605 
vt 2.04315 -27.0245 
vt 2.33526 -27.0226 
vt 2.3149 -27.0716 
vt 2.46057 -27.0178 
vt 2.32763 -27.0936 
vt 2.04315 -27.0677 
vt 2.28197 -27.1097 
vt 2.04315 -27.0989 
vt 2.23221 -27.1442 
vt 1.80434 -27.1097 
vt 1.71363 -27.1384 
vt 1.85389 -27.2172 
vt 1.8541 -27.1442 
vt 2.17305 -27.2328 
vt 1.91326 -27.172 
vt 2.17305 -27.172 
vt 1.61282 -27.3901 
vt 1.59543 -27.3366 
vt 1.71243 -27.2892 
vt 1.78902 -27.2382 
vt 1.5966 -27.2864 
vt 1.70267 -27.2376 
vt 1.76589 -27.2005 
vt 1.51394 -27.2246 
vt 1.60884 -27.2332 
vt 1.54268 -27.1809 
vt 1.62447 -27.1898 
vt 1.53214 -27.1177 
vt 1.58983 -27.1475 
vt 1.57165 -27.1098 
vt 1.61879 -27.0889 
vt 1.65326 -27.127 
vt 1.71285 -27.1234 
vt 1.6839 -27.182 
vt 1.73224 -27.1684 

usemtl Meshpart1Mtl

f 1/1/1 3/3/3 8/8/8 
f 10/10/10 8/8/8 3/3/3 
f 8/8/8 10/10/10 9/9/9 
f 11/11/11 9/9/9 10/10/10 
f 12/12/12 7/7/7 9/9/9 
f 9/9/9 11/11/11 12/12/12 
f 7/7/7 12/12/12 13/13/13 
f 21/21/21 19/19/19 18/18/18 
f 20/20/20 21/21/21 18/18/18 
f 22/22/22 17/17/17 19/19/19 
f 22/22/22 19/19/19 21/21/21 
f 17/17/17 22/22/22 23/23/23 
f 23/23/23 16/16/16 17/17/17 
f 24/24/24 22/22/22 21/21/21 
f 25/25/25 23/23/23 22/22/22 
f 25/25/25 22/22/22 24/24/24 
f 21/21/21 20/20/20 26/26/26 
f 26/26/26 24/24/24 21/21/21 
f 27/27/27 26/26/26 20/20/20 
f 29/29/29 25/25/25 24/24/24 
f 26/26/26 27/27/27 30/30/30 
f 30/30/30 28/28/28 26/26/26 
f 31/31/31 30/30/30 27/27/27 
f 32/32/32 33/33/33 31/31/31 
f 30/30/30 31/31/31 33/33/33 
f 33/33/33 32/32/32 35/35/35 
f 34/34/34 35/35/35 32/32/32 
f 33/33/33 36/36/36 30/30/30 
f 35/35/35 37/37/37 33/33/33 
f 36/36/36 33/33/33 37/37/37 
f 28/28/28 30/30/30 36/36/36 
f 37/37/37 35/35/35 38/38/38 
f 39/39/39 38/38/38 35/35/35 
f 35/35/35 34/34/34 39/39/39 
f 38/38/38 39/39/39 40/40/40 
f 40/40/40 39/39/39 41/41/41 
f 41/41/41 43/43/43 42/42/42 
f 41/41/41 39/39/39 43/43/43 
f 42/42/42 43/43/43 44/44/44 
f 43/43/43 45/45/45 44/44/44 
f 45/45/45 43/43/43 46/46/46 
f 39/39/39 46/46/46 43/43/43 
f 46/46/46 39/39/39 34/34/34 
f 50/50/50 47/47/47 16/16/16 
f 16/16/16 23/23/23 50/50/50 
f 47/47/47 51/51/51 48/48/48 
f 51/51/51 47/47/47 50/50/50 
f 48/48/48 52/52/52 49/49/49 
f 52/52/52 48/48/48 51/51/51 
f 53/53/53 50/50/50 23/23/23 
f 23/23/23 25/25/25 53/53/53 
f 54/54/54 51/51/51 50/50/50 
f 50/50/50 53/53/53 54/54/54 
f 55/55/55 52/52/52 51/51/51 
f 51/51/51 54/54/54 55/55/55 
f 56/56/56 53/53/53 25/25/25 
f 56/56/56 25/25/25 29/29/29 
f 53/53/53 57/57/57 54/54/54 
f 53/53/53 56/56/56 58/58/58 
f 57/57/57 53/53/53 58/58/58 
f 54/54/54 59/59/59 55/55/55 
f 59/59/59 54/54/54 57/57/57 
f 60/60/60 55/55/55 59/59/59 
f 61/61/61 56/56/56 29/29/29 
f 62/62/62 58/58/58 56/56/56 
f 62/62/62 56/56/56 61/61/61 
f 58/58/58 62/62/62 63/63/63 
f 58/58/58 64/64/64 57/57/57 
f 64/64/64 58/58/58 63/63/63 
f 65/65/65 57/57/57 64/64/64 
f 57/57/57 65/65/65 59/59/59 
f 66/66/66 59/59/59 65/65/65 
f 59/59/59 66/66/66 60/60/60 
f 67/67/67 60/60/60 66/66/66 
f 60/60/60 67/67/67 68/68/68 
f 68/68/68 69/69/69 60/60/60 
f 55/55/55 60/60/60 69/69/69 
f 69/69/69 52/52/52 55/55/55 
f 52/52/52 69/69/69 70/70/70 
f 70/70/70 49/49/49 52/52/52 
f 69/69/69 68/68/68 71/71/71 
f 71/71/71 70/70/70 69/69/69 
f 72/72/72 71/71/71 68/68/68 
f 70/70/70 71/71/71 73/73/73 
f 71/71/71 72/72/72 74/74/74 
f 74/74/74 73/73/73 71/71/71 
f 29/29/29 28/28/28 76/76/76 
f 78/78/78 29/29/29 76/76/76 
f 61/61/61 29/29/29 78/78/78 
f 78/78/78 76/76/76 79/79/79 
f 80/80/80 79/79/79 81/81/81 
f 79/79/79 76/76/76 81/81/81 
f 76/76/76 77/77/77 81/81/81 
f 82/82/82 81/81/81 77/77/77 
f 81/81/81 82/82/82 80/80/80 
f 85/85/85 11/11/11 84/84/84 
f 86/86/86 12/12/12 11/11/11 
f 11/11/11 85/85/85 86/86/86 
f 12/12/12 86/86/86 87/87/87 
f 87/87/87 13/13/13 12/12/12 
f 13/13/13 87/87/87 89/89/89 
f 89/89/89 87/87/87 90/90/90 
f 91/91/91 86/86/86 85/85/85 
f 86/86/86 91/91/91 92/92/92 
f 92/92/92 87/87/87 86/86/86 
f 87/87/87 92/92/92 94/94/94 
f 87/87/87 94/94/94 90/90/90 
f 95/95/95 94/94/94 92/92/92 
f 94/94/94 95/95/95 96/96/96 
f 101/101/101 100/100/100 99/99/99 
f 100/100/100 101/101/101 102/102/102 
f 103/103/103 102/102/102 101/101/101 
f 102/102/102 103/103/103 105/105/105 
f 105/105/105 106/106/106 102/102/102 
f 105/105/105 97/97/97 98/98/98 
f 106/106/106 105/105/105 108/108/108 
f 98/98/98 108/108/108 105/105/105 
f 110/110/110 106/106/106 108/108/108 
f 106/106/106 110/110/110 109/109/109 
f 112/112/112 108/108/108 98/98/98 
f 114/114/114 115/115/115 116/116/116 
f 117/117/117 114/114/114 116/116/116 
f 118/118/118 119/119/119 120/120/120 
f 121/121/121 119/119/119 118/118/118 
f 122/122/122 121/121/121 118/118/118 
f 118/118/118 120/120/120 123/123/123 
f 118/118/118 124/124/124 122/122/122 
f 124/124/124 118/118/118 123/123/123 
f 123/123/123 120/120/120 125/125/125 
f 120/120/120 126/126/126 125/125/125 
f 127/127/127 123/123/123 125/125/125 
f 127/127/127 124/124/124 123/123/123 
f 128/128/128 125/125/125 126/126/126 
f 126/126/126 117/117/117 128/128/128 
f 127/127/127 125/125/125 129/129/129 
f 125/125/125 128/128/128 129/129/129 
f 130/130/130 128/128/128 117/117/117 
f 116/116/116 130/130/130 117/117/117 
f 131/131/131 129/129/129 128/128/128 
f 128/128/128 130/130/130 131/131/131 
f 130/130/130 116/116/116 132/132/132 
f 130/130/130 133/133/133 131/131/131 
f 133/133/133 130/130/130 132/132/132 
f 116/116/116 134/134/134 132/132/132 
f 134/134/134 133/133/133 132/132/132 
f 134/134/134 116/116/116 115/115/115 
f 129/129/129 131/131/131 135/135/135 
f 133/133/133 135/135/135 131/131/131 
f 136/136/136 129/129/129 135/135/135 
f 136/136/136 127/127/127 129/129/129 
f 135/135/135 133/133/133 137/137/137 
f 136/136/136 138/138/138 127/127/127 
f 124/124/124 127/127/127 138/138/138 
f 135/135/135 139/139/139 136/136/136 
f 139/139/139 135/135/135 137/137/137 
f 138/138/138 136/136/136 140/140/140 
f 139/139/139 140/140/140 136/136/136 
f 133/133/133 141/141/141 137/137/137 
f 141/141/141 139/139/139 137/137/137 
f 141/141/141 133/133/133 142/142/142 
f 133/133/133 134/134/134 142/142/142 
f 140/140/140 139/139/139 143/143/143 
f 140/140/140 144/144/144 138/138/138 
f 144/144/144 140/140/140 143/143/143 
f 139/139/139 145/145/145 143/143/143 
f 144/144/144 143/143/143 145/145/145 
f 139/139/139 141/141/141 146/146/146 
f 145/145/145 139/139/139 146/146/146 
f 147/147/147 144/144/144 145/145/145 
f 146/146/146 147/147/147 145/145/145 
f 148/148/148 138/138/138 144/144/144 
f 148/148/148 144/144/144 147/147/147 
f 138/138/138 148/148/148 124/124/124 
f 149/149/149 146/146/146 141/141/141 
f 142/142/142 149/149/149 141/141/141 
f 147/147/147 146/146/146 150/150/150 
f 146/146/146 149/149/149 150/150/150 
f 151/151/151 148/148/148 147/147/147 
f 150/150/150 151/151/151 147/147/147 
f 152/152/152 124/124/124 148/148/148 
f 148/148/148 151/151/151 152/152/152 
f 124/124/124 152/152/152 122/122/122 
f 153/153/153 122/122/122 152/152/152 
f 152/152/152 154/154/154 153/153/153 
f 154/154/154 152/152/152 151/151/151 
f 151/151/151 155/155/155 154/154/154 
f 155/155/155 151/151/151 156/156/156 
f 151/151/151 150/150/150 156/156/156 
f 156/156/156 157/157/157 155/155/155 
f 150/150/150 158/158/158 156/156/156 
f 157/157/157 156/156/156 158/158/158 
f 158/158/158 150/150/150 149/149/149 
f 159/159/159 157/157/157 158/158/158 
f 160/160/160 158/158/158 149/149/149 
f 159/159/159 158/158/158 160/160/160 
f 149/149/149 142/142/142 160/160/160 
f 159/159/159 160/160/160 115/115/115 
f 160/160/160 142/142/142 134/134/134 
f 115/115/115 160/160/160 134/134/134 
f 163/163/163 161/161/161 162/162/162 
f 162/162/162 164/164/164 163/163/163 
f 178/178/178 176/176/176 166/166/166 
f 176/176/176 178/178/178 179/179/179 
f 175/175/175 180/180/180 174/174/174 
f 180/180/180 175/175/175 121/121/121 
f 121/121/121 122/122/122 180/180/180 
f 122/122/122 153/153/153 180/180/180 
f 183/183/183 184/184/184 182/182/182 
f 184/184/184 183/183/183 186/186/186 
f 154/154/154 186/186/186 183/183/183 
f 183/183/183 153/153/153 154/154/154 
f 169/169/169 185/185/185 187/187/187 
f 188/188/188 187/187/187 185/185/185 
f 155/155/155 189/189/189 186/186/186 
f 186/186/186 154/154/154 155/155/155 
f 187/187/187 188/188/188 191/191/191 
f 191/191/191 190/190/190 187/187/187 
f 188/188/188 189/189/189 192/192/192 
f 192/192/192 191/191/191 188/188/188 
f 192/192/192 189/189/189 157/157/157 
f 189/189/189 155/155/155 157/157/157 
f 190/190/190 193/193/193 178/178/178 
f 193/193/193 179/179/179 178/178/178 
f 190/190/190 191/191/191 194/194/194 
f 193/193/193 190/190/190 194/194/194 
f 191/191/191 192/192/192 195/195/195 
f 195/195/195 194/194/194 191/191/191 
f 159/159/159 195/195/195 192/192/192 
f 192/192/192 157/157/157 159/159/159 
f 179/179/179 193/193/193 196/196/196 
f 196/196/196 119/119/119 179/179/179 
f 194/194/194 197/197/197 193/193/193 
f 197/197/197 196/196/196 193/193/193 
f 194/194/194 195/195/195 114/114/114 
f 197/197/197 194/194/194 114/114/114 
f 115/115/115 114/114/114 195/195/195 
f 195/195/195 159/159/159 115/115/115 
f 114/114/114 117/117/117 197/197/197 
f 196/196/196 197/197/197 126/126/126 
f 117/117/117 126/126/126 197/197/197 
f 126/126/126 120/120/120 196/196/196 
f 119/119/119 196/196/196 120/120/120 
f 113/113/113 199/199/199 198/198/198 
f 199/199/199 111/111/111 198/198/198 
f 199/199/199 113/113/113 200/200/200 
f 201/201/201 199/199/199 200/200/200 
f 111/111/111 199/199/199 202/202/202 
f 203/203/203 202/202/202 199/199/199 
f 199/199/199 201/201/201 203/203/203 
f 202/202/202 203/203/203 204/204/204 
f 209/209/209 201/201/201 208/208/208 
f 209/209/209 203/203/203 201/201/201 
f 209/209/209 208/208/208 210/210/210 
f 212/212/212 209/209/209 210/210/210 
f 203/203/203 209/209/209 213/213/213 
f 213/213/213 204/204/204 203/203/203 
f 209/209/209 212/212/212 214/214/214 
f 214/214/214 213/213/213 209/209/209 
f 204/204/204 213/213/213 205/205/205 
f 214/214/214 211/211/211 215/215/215 
f 213/213/213 214/214/214 216/216/216 
f 216/216/216 205/205/205 213/213/213 
f 215/215/215 216/216/216 214/214/214 
f 205/205/205 216/216/216 217/217/217 
f 216/216/216 215/215/215 217/217/217 
f 218/218/218 219/219/219 220/220/220 
f 219/219/219 218/218/218 221/221/221 
f 219/219/219 223/223/223 222/222/222 
f 224/224/224 227/227/227 225/225/225 
f 227/227/227 224/224/224 226/226/226 
f 221/221/221 228/228/228 226/226/226 
f 228/228/228 221/221/221 218/218/218 
f 229/229/229 226/226/226 228/228/228 
f 226/226/226 229/229/229 227/227/227 
f 230/230/230 225/225/225 227/227/227 
f 235/235/235 231/231/231 233/233/233 
f 234/234/234 235/235/235 233/233/233 
f 236/236/236 232/232/232 231/231/231 
f 231/231/231 235/235/235 236/236/236 
f 232/232/232 236/236/236 238/238/238 
f 232/232/232 238/238/238 237/237/237 
f 236/236/236 239/239/239 238/238/238 
f 235/235/235 241/241/241 236/236/236 
f 236/236/236 241/241/241 239/239/239 
f 235/235/235 234/234/234 242/242/242 
f 240/240/240 242/242/242 234/234/234 
f 242/242/242 240/240/240 243/243/243 
f 244/244/244 235/235/235 242/242/242 
f 235/235/235 244/244/244 245/245/245 
f 235/235/235 245/245/245 241/241/241 
f 242/242/242 246/246/246 244/244/244 
f 246/246/246 242/242/242 243/243/243 
f 243/243/243 247/247/247 246/246/246 
f 247/247/247 243/243/243 248/248/248 
f 248/248/248 249/249/249 247/247/247 
f 243/243/243 250/250/250 248/248/248 
f 250/250/250 243/243/243 240/240/240 
f 251/251/251 248/248/248 250/250/250 
f 248/248/248 251/251/251 252/252/252 
f 249/249/249 248/248/248 252/252/252 
f 253/253/253 252/252/252 251/251/251 
f 255/255/255 256/256/256 253/253/253 
f 252/252/252 253/253/253 256/256/256 
f 257/257/257 252/252/252 256/256/256 
f 252/252/252 257/257/257 249/249/249 
f 256/256/256 255/255/255 258/258/258 
f 256/256/256 259/259/259 257/257/257 
f 259/259/259 256/256/256 258/258/258 
f 260/260/260 258/258/258 255/255/255 
f 262/262/262 263/263/263 260/260/260 
f 263/263/263 262/262/262 264/264/264 
f 261/261/261 263/263/263 264/264/264 
f 258/258/258 260/260/260 263/263/263 
f 263/263/263 261/261/261 265/265/265 
f 265/265/265 258/258/258 263/263/263 
f 258/258/258 265/265/265 259/259/259 
f 237/237/237 267/267/267 266/266/266 
f 267/267/267 237/237/237 238/238/238 
f 268/268/268 266/266/266 267/267/267 
f 266/266/266 268/268/268 269/269/269 
f 238/238/238 270/270/270 267/267/267 
f 270/270/270 238/238/238 239/239/239 
f 267/267/267 271/271/271 268/268/268 
f 271/271/271 267/267/267 270/270/270 
f 272/272/272 269/269/269 268/268/268 
f 273/273/273 268/268/268 271/271/271 
f 268/268/268 273/273/273 272/272/272 
f 269/269/269 272/272/272 275/275/275 
f 276/276/276 272/272/272 273/273/273 
f 272/272/272 276/276/276 277/277/277 
f 277/277/277 275/275/275 272/272/272 
f 254/254/254 282/282/282 283/283/283 
f 281/281/281 254/254/254 283/283/283 
f 284/284/284 283/283/283 282/282/282 
f 283/283/283 285/285/285 281/281/281 
f 285/285/285 283/283/283 286/286/286 
f 283/283/283 284/284/284 286/286/286 
f 286/286/286 287/287/287 285/285/285 
f 288/288/288 286/286/286 284/284/284 
f 287/287/287 286/286/286 289/289/289 
f 286/286/286 288/288/288 289/289/289 
f 225/225/225 230/230/230 291/291/291 
f 295/295/295 298/298/298 301/301/301 
f 301/301/301 300/300/300 295/295/295 
f 303/303/303 302/302/302 300/300/300 
f 301/301/301 303/303/303 300/300/300 
f 303/303/303 304/304/304 302/302/302 
f 306/306/306 303/303/303 301/301/301 
f 308/308/308 304/304/304 303/303/303 
f 306/306/306 308/308/308 303/303/303 
f 309/309/309 308/308/308 306/306/306 
f 306/306/306 307/307/307 309/309/309 
f 308/308/308 310/310/310 304/304/304 
f 314/314/314 315/315/315 316/316/316 
f 316/316/316 317/317/317 314/314/314 
f 315/315/315 314/314/314 318/318/318 
f 319/319/319 317/317/317 316/316/316 
f 320/320/320 314/314/314 317/317/317 
f 316/316/316 321/321/321 319/319/319 
f 314/314/314 320/320/320 322/322/322 
f 322/322/322 318/318/318 314/314/314 
f 317/317/317 323/323/323 320/320/320 
f 317/317/317 319/319/319 324/324/324 
f 324/324/324 323/323/323 317/317/317 
f 323/323/323 324/324/324 325/325/325 
f 326/326/326 318/318/318 322/322/322 
f 324/324/324 327/327/327 325/325/325 
f 328/328/328 327/327/327 324/324/324 
f 319/319/319 328/328/328 324/324/324 
f 328/328/328 330/330/330 327/327/327 
f 331/331/331 330/330/330 328/328/328 
f 331/331/331 332/332/332 330/330/330 
f 328/328/328 329/329/329 331/331/331 
f 333/333/333 332/332/332 331/331/331 
f 333/333/333 334/334/334 332/332/332 
f 331/331/331 335/335/335 333/333/333 
f 331/331/331 329/329/329 335/335/335 
f 336/336/336 334/334/334 333/333/333 
f 337/337/337 333/333/333 335/335/335 
f 337/337/337 336/336/336 333/333/333 
f 338/338/338 336/336/336 337/337/337 
f 338/338/338 339/339/339 336/336/336 
f 336/336/336 340/340/340 334/334/334 
f 339/339/339 340/340/340 336/336/336 
f 339/339/339 341/341/341 340/340/340 
f 339/339/339 338/338/338 342/342/342 
f 343/343/343 339/339/339 342/342/342 
f 344/344/344 345/345/345 343/343/343 
f 339/339/339 343/343/343 345/345/345 
f 345/345/345 344/344/344 346/346/346 
f 341/341/341 339/339/339 345/345/345 
f 347/347/347 345/345/345 346/346/346 
f 345/345/345 347/347/347 341/341/341 
f 318/318/318 348/348/348 315/315/315 
f 349/349/349 348/348/348 318/318/318 
f 318/318/318 326/326/326 349/349/349 
f 350/350/350 315/315/315 348/348/348 
f 351/351/351 349/349/349 326/326/326 
f 348/348/348 349/349/349 352/352/352 
f 349/349/349 351/351/351 353/353/353 
f 353/353/353 352/352/352 349/349/349 
f 354/354/354 353/353/353 351/351/351 
f 360/360/360 355/355/355 357/357/357 
f 360/360/360 357/357/357 359/359/359 
f 355/355/355 360/360/360 350/350/350 
f 355/355/355 350/350/350 356/356/356 
f 315/315/315 350/350/350 360/360/360 
f 356/356/356 350/350/350 361/361/361 
f 356/356/356 361/361/361 358/358/358 
f 350/350/350 348/348/348 361/361/361 
f 361/361/361 348/348/348 352/352/352 
f 315/315/315 360/360/360 362/362/362 
f 359/359/359 362/362/362 360/360/360 
f 362/362/362 316/316/316 315/315/315 
f 321/321/321 316/316/316 362/362/362 
f 363/363/363 362/362/362 359/359/359 
f 362/362/362 363/363/363 321/321/321 
f 361/361/361 352/352/352 364/364/364 
f 358/358/358 361/361/361 364/364/364 
f 364/364/364 352/352/352 365/365/365 
f 352/352/352 353/353/353 365/365/365 
f 358/358/358 364/364/364 366/366/366 
f 364/364/364 365/365/365 367/367/367 
f 366/366/366 364/364/364 367/367/367 
f 368/368/368 365/365/365 353/353/353 
f 353/353/353 354/354/354 368/368/368 
f 367/367/367 365/365/365 369/369/369 
f 365/365/365 368/368/368 369/369/369 
f 370/370/370 369/369/369 368/368/368 
f 367/367/367 369/369/369 313/313/313 
f 313/313/313 369/369/369 312/312/312 
f 369/369/369 370/370/370 312/312/312 
f 372/372/372 321/321/321 363/363/363 
f 321/321/321 372/372/372 374/374/374 
f 373/373/373 374/374/374 372/372/372 
f 329/329/329 321/321/321 374/374/374 
f 376/376/376 375/375/375 374/374/374 
f 374/374/374 373/373/373 376/376/376 
f 375/375/375 376/376/376 377/377/377 
f 373/373/373 378/378/378 376/376/376 
f 378/378/378 377/377/377 376/376/376 
f 380/380/380 309/309/309 307/307/307 
f 382/382/382 309/309/309 381/381/381 
f 309/309/309 382/382/382 308/308/308 
f 382/382/382 310/310/310 308/308/308 
f 383/383/383 382/382/382 381/381/381 
f 310/310/310 382/382/382 384/384/384 
f 382/382/382 383/383/383 385/385/385 
f 385/385/385 384/384/384 382/382/382 
f 387/387/387 385/385/385 383/383/383 
f 385/385/385 387/387/387 388/388/388 
f 392/392/392 387/387/387 391/391/391 
f 388/388/388 387/387/387 392/392/392 
f 394/394/394 395/395/395 393/393/393 
f 396/396/396 395/395/395 394/394/394 
f 396/396/396 397/397/397 395/395/395 
f 398/398/398 397/397/397 396/396/396 
f 395/395/395 399/399/399 393/393/393 
f 398/398/398 400/400/400 397/397/397 
f 402/402/402 397/397/397 400/400/400 
f 397/397/397 403/403/403 395/395/395 
f 397/397/397 402/402/402 403/403/403 
f 395/395/395 403/403/403 399/399/399 
f 404/404/404 403/403/403 402/402/402 
f 403/403/403 404/404/404 405/405/405 
f 405/405/405 399/399/399 403/403/403 
f 399/399/399 405/405/405 407/407/407 
f 408/408/408 407/407/407 405/405/405 
f 412/412/412 411/411/411 409/409/409 
f 410/410/410 412/412/412 409/409/409 
f 413/413/413 414/414/414 415/415/415 
f 415/415/415 416/416/416 413/413/413 
f 419/419/419 418/418/418 415/415/415 
f 417/417/417 419/419/419 415/415/415 
f 412/412/412 422/422/422 423/423/423 
f 423/423/423 417/417/417 412/412/412 
f 425/425/425 421/421/421 427/427/427 
f 427/427/427 428/428/428 425/425/425 
f 428/428/428 424/424/424 425/425/425 
f 428/428/428 427/427/427 430/430/430 
f 420/420/420 432/432/432 431/431/431 
f 434/434/434 431/431/431 432/432/432 
f 432/432/432 433/433/433 434/434/434 
f 435/435/435 434/434/434 433/433/433 
f 431/431/431 434/434/434 436/436/436 
f 434/434/434 435/435/435 437/437/437 
f 437/437/437 436/436/436 434/434/434 
f 424/424/424 428/428/428 438/438/438 
f 435/435/435 440/440/440 437/437/437 
f 435/435/435 439/439/439 440/440/440 
f 440/440/440 439/439/439 441/441/441 
f 440/440/440 442/442/442 437/437/437 
f 442/442/442 440/440/440 441/441/441 
f 439/439/439 443/443/443 441/441/441 
f 443/443/443 439/439/439 438/438/438 
f 443/443/443 442/442/442 441/441/441 
f 438/438/438 444/444/444 443/443/443 
f 444/444/444 438/438/438 428/428/428 
f 442/442/442 443/443/443 444/444/444 
f 430/430/430 444/444/444 428/428/428 
f 442/442/442 445/445/445 437/437/437 
f 436/436/436 437/437/437 445/445/445 
f 445/445/445 442/442/442 446/446/446 
f 445/445/445 447/447/447 436/436/436 
f 447/447/447 445/445/445 446/446/446 
f 429/429/429 436/436/436 447/447/447 
f 447/447/447 430/430/430 429/429/429 
f 448/448/448 442/442/442 444/444/444 
f 442/442/442 448/448/448 446/446/446 
f 444/444/444 430/430/430 448/448/448 
f 446/446/446 448/448/448 447/447/447 
f 430/430/430 447/447/447 448/448/448 
f 408/408/408 405/405/405 449/449/449 
f 451/451/451 450/450/450 452/452/452 
f 451/451/451 452/452/452 453/453/453 
f 454/454/454 451/451/451 453/453/453 
f 454/454/454 455/455/455 451/451/451 
f 455/455/455 454/454/454 457/457/457 
f 455/455/455 457/457/457 458/458/458 
f 460/460/460 459/459/459 458/458/458 
f 466/466/466 471/471/471 469/469/469 
f 469/469/469 472/472/472 470/470/470 
f 473/473/473 470/470/470 472/472/472 
f 470/470/470 473/473/473 474/474/474 
f 476/476/476 472/472/472 475/475/475 
f 472/472/472 476/476/476 473/473/473 
f 475/475/475 471/471/471 468/468/468 
f 477/477/477 473/473/473 476/476/476 
f 473/473/473 477/477/477 478/478/478 
f 478/478/478 474/474/474 473/473/473 
f 479/479/479 478/478/478 477/477/477 
f 474/474/474 478/478/478 480/480/480 
f 478/478/478 479/479/479 481/481/481 
f 481/481/481 480/480/480 478/478/478 
f 482/482/482 481/481/481 479/479/479 
f 480/480/480 481/481/481 483/483/483 
f 481/481/481 482/482/482 484/484/484 
f 484/484/484 483/483/483 481/481/481 
f 485/485/485 484/484/484 482/482/482 
f 484/484/484 485/485/485 486/486/486 
f 486/486/486 487/487/487 484/484/484 
f 483/483/483 484/484/484 487/487/487 
f 493/493/493 491/491/491 490/490/490 
f 493/493/493 492/492/492 491/491/491 
f 489/489/489 494/494/494 490/490/490 
f 493/493/493 490/490/490 494/494/494 
f 496/496/496 495/495/495 492/492/492 
f 492/492/492 493/493/493 496/496/496 
f 495/495/495 496/496/496 498/498/498 
f 498/498/498 497/497/497 495/495/495 
f 499/499/499 496/496/496 493/493/493 
f 496/496/496 500/500/500 498/498/498 
f 500/500/500 496/496/496 499/499/499 
f 499/499/499 493/493/493 501/501/501 
f 502/502/502 498/498/498 500/500/500 
f 497/497/497 498/498/498 503/503/503 
f 498/498/498 502/502/502 503/503/503 
f 493/493/493 504/504/504 501/501/501 
f 504/504/504 493/493/493 494/494/494 
f 504/504/504 494/494/494 505/505/505 
f 506/506/506 503/503/503 502/502/502 
f 507/507/507 508/508/508 506/506/506 
f 503/503/503 506/506/506 508/508/508 
f 508/508/508 507/507/507 464/464/464 
f 509/509/509 503/503/503 508/508/508 
f 503/503/503 509/509/509 497/497/497 
f 508/508/508 510/510/510 509/509/509 
f 510/510/510 508/508/508 464/464/464 
f 512/512/512 514/514/514 489/489/489 
f 494/494/494 489/489/489 514/514/514 
f 514/514/514 505/505/505 494/494/494 
f 514/514/514 512/512/512 515/515/515 
f 513/513/513 515/515/515 512/512/512 
f 505/505/505 514/514/514 516/516/516 
f 515/515/515 516/516/516 514/514/514 
f 516/516/516 515/515/515 517/517/517 
f 520/520/520 517/517/517 515/515/515 
f 517/517/517 520/520/520 521/521/521 
f 515/515/515 513/513/513 520/520/520 
f 522/522/522 521/521/521 520/520/520 
f 521/521/521 522/522/522 523/523/523 
f 524/524/524 520/520/520 513/513/513 
f 520/520/520 524/524/524 522/522/522 
f 527/527/527 522/522/522 524/524/524 
f 459/459/459 460/460/460 531/531/531 
f 461/461/461 531/531/531 460/460/460 
f 531/531/531 461/461/461 532/532/532 
f 533/533/533 532/532/532 461/461/461 
f 532/532/532 533/533/533 535/535/535 
f 536/536/536 533/533/533 534/534/534 
f 536/536/536 535/535/535 533/533/533 
f 536/536/536 534/534/534 537/537/537 
f 539/539/539 538/538/538 535/535/535 
f 535/535/535 536/536/536 539/539/539 
f 538/538/538 539/539/539 540/540/540 
f 536/536/536 541/541/541 539/539/539 
f 541/541/541 540/540/540 539/539/539 
f 540/540/540 541/541/541 543/543/543 
f 543/543/543 542/542/542 540/540/540 
f 542/542/542 543/543/543 544/544/544 
f 543/543/543 545/545/545 544/544/544 
f 541/541/541 546/546/546 543/543/543 
f 546/546/546 541/541/541 548/548/548 
f 548/548/548 547/547/547 546/546/546 
f 541/541/541 536/536/536 548/548/548 
f 547/547/547 548/548/548 549/549/549 
f 536/536/536 549/549/549 548/548/548 
f 549/549/549 536/536/536 537/537/537 

g Meshpart2

v 1376.77 -389.823 1028.86 
v 1376.69 -389.761 1028.84 
v 1376.93 -389.638 1028.75 
v 1376.85 -389.583 1028.74 
v 1376.85 -389.86 1028.91 
v 1377.01 -389.685 1028.81 
v 1376.97 -389.362 1028.82 
v 1377.12 -389.467 1028.89 
v 1377.05 -389.408 1028.84 
v 1376.67 -389.424 1029.43 
v 1376.95 -389.23 1029.07 
v 1376.57 -389.778 1029.1 
v 1376.83 -389.247 1029.32 
v 1376.56 -389.645 1029.34 
v 1376.85 -389.583 1028.74 
v 1376.69 -389.761 1028.84 
v 1376.97 -389.362 1028.82 
v 1376.97 -389.362 1028.82 
v 1377.12 -389.467 1028.89 
v 1377.05 -389.408 1028.84 
v 1377.04 -389.27 1029.1 
v 1376.95 -389.23 1029.07 
v 1377.1 -389.337 1029.13 
v 1376.83 -389.247 1029.32 
v 1376.99 -389.354 1029.39 
v 1376.91 -389.288 1029.37 
v 1376.56 -389.645 1029.34 
v 1376.72 -389.747 1029.4 
v 1376.63 -389.703 1029.39 
v 1376.83 -389.247 1029.32 
v 1376.99 -389.354 1029.39 
v 1376.91 -389.288 1029.37 
v 1376.74 -389.473 1029.48 
v 1376.67 -389.424 1029.43 
v 1376.83 -389.529 1029.49 
v 1376.83 -389.529 1029.49 
v 1377.1 -389.337 1029.13 
v 1376.99 -389.354 1029.39 
v 1376.73 -389.877 1029.16 
v 1376.72 -389.747 1029.4 
v 1377.01 -389.685 1028.81 
v 1377.12 -389.467 1028.89 
v 1376.85 -389.86 1028.91 
v 1376.77 -389.823 1028.86 
v 1376.64 -389.841 1029.13 
v 1376.69 -389.761 1028.84 
v 1376.57 -389.778 1029.1 
v 1376.56 -389.645 1029.34 
v 1376.85 -389.86 1028.91 
v 1376.73 -389.877 1029.16 
v 1376.72 -389.747 1029.4 
v 1376.63 -389.703 1029.39 

vn -0.220472 -0.755906 -0.614173 
vn -0.362205 -0.661417 -0.661417 
vn 0.267717 -0.228346 -0.937008 
vn 0.125984 -0.133858 -0.984252 
vn -0.0787402 -0.84252 -0.535433 
vn 0.409449 -0.322835 -0.850394 
vn 0.456693 0.527559 -0.716535 
vn 0.732283 0.338583 -0.590551 
vn 0.606299 0.433071 -0.669291 
vn -0.787402 0.527559 -0.330709 
vn -0.787402 0.527559 -0.330709 
vn -0.787402 0.527559 -0.330709 
vn -0.787402 0.527559 -0.330709 
vn -0.787402 0.527559 -0.330709 
vn -0.787402 0.527559 -0.330709 
vn -0.787402 0.527559 -0.330709 
vn -0.787402 0.527559 -0.330709 
vn 0.456693 0.527559 -0.716535 
vn 0.732283 0.338583 -0.590551 
vn 0.606299 0.433071 -0.669291 
vn 0.582677 0.811024 -0.0314961 
vn 0.448819 0.889764 -0.0866142 
vn 0.708661 0.708661 0.023622 
vn 0.11811 0.818898 0.559055 
vn 0.401575 0.622047 0.669291 
vn 0.259843 0.732283 0.629921 
vn -0.700787 -0.370079 0.614173 
vn -0.409449 -0.551181 0.724409 
vn -0.566929 -0.464567 0.685039 
vn 0.11811 0.818898 0.559055 
vn 0.401575 0.622047 0.669291 
vn 0.259843 0.732283 0.629921 
vn -0.228346 0.204724 0.952756 
vn -0.370079 0.299213 0.88189 
vn -0.0787402 0.102362 0.992126 
vn 0.787402 -0.527559 0.330709 
vn 0.787402 -0.527559 0.330709 
vn 0.787402 -0.527559 0.330709 
vn 0.787402 -0.527559 0.330709 
vn 0.787402 -0.527559 0.330709 
vn 0.787402 -0.527559 0.330709 
vn 0.787402 -0.527559 0.330709 
vn 0.787402 -0.527559 0.330709 
vn -0.220472 -0.755906 -0.614173 
vn -0.551181 -0.834646 0.0472441 
vn -0.362205 -0.661417 -0.661417 
vn -0.669291 -0.740157 -0.00787402 
vn -0.700787 -0.370079 0.614173 
vn -0.0787402 -0.84252 -0.535433 
vn -0.409449 -0.905512 0.102362 
vn -0.409449 -0.551181 0.724409 
vn -0.566929 -0.464567 0.685039 

vt 34.2526 -15 
vt 34.2423 -14.9016 
vt 34 -15 
vt 34 -14.9016 
vt 34.2387 -15.0984 
vt 34 -15.0984 
vt 33.7577 -14.9016 
vt 33.7613 -15.0984 
vt 33.7474 -15 
vt 34.3662 -15 
vt 34 -14.6668 
vt 34 -15.3332 
vt 34.2664 -14.7577 
vt 34.2664 -15.2423 
vt 33.6338 -15 
vt 33.7336 -15.2423 
vt 33.7336 -14.7577 
vt 34.2664 -14.9016 
vt 34.2623 -15.0984 
vt 34.2776 -15 
vt 34 -15 
vt 34 -14.9016 
vt 34 -15.0984 
vt 33.7336 -14.9016 
vt 33.7377 -15.0984 
vt 33.7224 -15 
vt 33.7577 -14.9016 
vt 33.7613 -15.0984 
vt 33.7474 -15 
vt 34.2423 -14.9016 
vt 34.2387 -15.0984 
vt 34.2526 -15 
vt 34 -15 
vt 34 -14.9016 
vt 34 -15.0984 
vt 33.6393 -15 
vt 34 -14.6719 
vt 33.7377 -14.7613 
vt 34 -15.3281 
vt 33.7377 -15.2387 
vt 34.3607 -15 
vt 34.2623 -14.7613 
vt 34.2623 -15.2387 
vt 33.7224 -15 
vt 34 -15 
vt 33.7336 -14.9016 
vt 34 -14.9016 
vt 34.2664 -14.9016 
vt 33.7377 -15.0984 
vt 34 -15.0984 
vt 34.2623 -15.0984 
vt 34.2776 -15 

usemtl Meshpart2Mtl

f 551/551/551 552/552/552 550/550/550 
f 552/552/552 551/551/551 553/553/553 
f 550/550/550 552/552/552 554/554/554 
f 554/554/554 552/552/552 555/555/555 
f 553/553/553 556/556/556 552/552/552 
f 552/552/552 557/557/557 555/555/555 
f 552/552/552 556/556/556 558/558/558 
f 557/557/557 552/552/552 558/558/558 
f 559/559/559 560/560/560 561/561/561 
f 560/560/560 559/559/559 562/562/562 
f 559/559/559 561/561/561 563/563/563 
f 560/560/560 564/564/564 561/561/561 
f 561/561/561 564/564/564 565/565/565 
f 564/564/564 560/560/560 566/566/566 
f 567/567/567 570/570/570 569/569/569 
f 570/570/570 568/568/568 569/569/569 
f 570/570/570 567/567/567 571/571/571 
f 568/568/568 570/570/570 572/572/572 
f 573/573/573 570/570/570 571/571/571 
f 570/570/570 574/574/574 572/572/572 
f 570/570/570 573/573/573 575/575/575 
f 574/574/574 570/570/570 575/575/575 
f 579/579/579 582/582/582 581/581/581 
f 582/582/582 580/580/580 581/581/581 
f 582/582/582 579/579/579 583/583/583 
f 576/576/576 582/582/582 583/583/583 
f 578/578/578 582/582/582 576/576/576 
f 577/577/577 582/582/582 578/578/578 
f 580/580/580 582/582/582 584/584/584 
f 582/582/582 577/577/577 584/584/584 
f 585/585/585 586/586/586 587/587/587 
f 586/586/586 585/585/585 588/588/588 
f 588/588/588 585/585/585 589/589/589 
f 590/590/590 586/586/586 588/588/588 
f 586/586/586 590/590/590 591/591/591 
f 590/590/590 588/588/588 592/592/592 
f 593/593/593 594/594/594 595/595/595 
f 596/596/596 595/595/595 594/594/594 
f 594/594/594 597/597/597 596/596/596 
f 598/598/598 594/594/594 593/593/593 
f 594/594/594 598/598/598 599/599/599 
f 599/599/599 600/600/600 594/594/594 
f 601/601/601 594/594/594 600/600/600 
f 597/597/597 594/594/594 601/601/601 

