# Blender 5.0.0
# www.blender.org
mtllib left arm boxng.mtl
g left_arm_boxing_left_arm_boxing
v 1376.760010 -389.569916 1028.729980
v 1376.729980 -389.715912 1028.699951
v 1376.540039 -389.576904 1028.560059
v 1376.709961 -389.626923 1028.630005
v 1376.619995 -389.663910 1028.550049
v 1376.650024 -389.763916 1028.609985
v 1376.560059 -389.792908 1028.540039
v 1376.530029 -389.687897 1028.489990
v 1376.469971 -389.588898 1028.520020
v 1376.410034 -388.945923 1028.540039
v 1376.459961 -388.970917 1028.550049
v 1376.550049 -389.028900 1028.589966
v 1376.500000 -388.999908 1028.569946
v 1376.599976 -389.066895 1028.609985
v 1376.469971 -389.221893 1028.469971
v 1376.420044 -389.193909 1028.449951
v 1376.380005 -389.166901 1028.430054
v 1376.329956 -389.438904 1028.469971
v 1376.280029 -389.411896 1028.439941
v 1376.520020 -389.262909 1028.500000
v 1376.660034 -389.118896 1028.640015
v 1376.359985 -389.472900 1028.569946
v 1376.199951 -389.635895 1028.500000
v 1376.560059 -389.325897 1028.540039
v 1376.719971 -389.175903 1028.680054
v 1376.790039 -389.227905 1028.719971
v 1376.609985 -389.401917 1028.579956
v 1376.859985 -389.276917 1028.770020
v 1376.670044 -389.462921 1028.630005
v 1376.410034 -389.487915 1028.650024
v 1376.439941 -389.578918 1028.699951
v 1376.500000 -389.650909 1028.739990
v 1376.739990 -389.508911 1028.680054
v 1376.569946 -389.696899 1028.790039
v 1376.640015 -389.725922 1028.829956
v 1376.699951 -389.747894 1028.869995
v 1376.800049 -389.546906 1028.729980
v 1376.849976 -389.581909 1028.780029
v 1376.959961 -389.376923 1028.849976
v 1376.910034 -389.326904 1028.810059
v 1376.349976 -388.925903 1028.530029
v 1376.290039 -388.912903 1028.530029
v 1376.239990 -388.906921 1028.530029
v 1376.329956 -389.137909 1028.420044
v 1376.270020 -389.111908 1028.410034
v 1376.219971 -389.088898 1028.420044
v 1376.239990 -389.383911 1028.420044
v 1376.189941 -389.352905 1028.410034
v 1376.140015 -389.318909 1028.410034
v 1376.140015 -389.605896 1028.469971
v 1376.050049 -389.541901 1028.439941
v 1376.099976 -389.575897 1028.449951
v 1376.010010 -389.499908 1028.430054
v 1375.969971 -389.455902 1028.439941
v 1376.069946 -389.749908 1028.630005
v 1376.020020 -389.716919 1028.609985
v 1375.969971 -389.683899 1028.579956
v 1375.930054 -389.646912 1028.569946
v 1375.890015 -389.600922 1028.560059
v 1375.849976 -389.549896 1028.560059
v 1375.829956 -389.499908 1028.560059
v 1375.930054 -389.412903 1028.449951
v 1376.089966 -389.284912 1028.410034
v 1376.170044 -389.072906 1028.430054
v 1376.050049 -389.254913 1028.420044
v 1375.900024 -389.370911 1028.459961
v 1376.119995 -389.059906 1028.449951
v 1376.010010 -389.226898 1028.439941
v 1376.239990 -389.663910 1028.540039
v 1376.349976 -389.554901 1028.680054
v 1376.119995 -389.775909 1028.670044
v 1376.160034 -389.786896 1028.699951
v 1376.310059 -389.714905 1028.660034
v 1376.280029 -389.692902 1028.599976
v 1376.380005 -389.606903 1028.750000
v 1376.550049 -389.848907 1028.650024
v 1376.479980 -389.864899 1028.619995
v 1376.489990 -389.810913 1028.510010
v 1376.459961 -389.706909 1028.459961
v 1376.410034 -389.610901 1028.500000
v 1376.369995 -389.639923 1028.510010
v 1376.420044 -389.866913 1028.599976
v 1376.420044 -389.816895 1028.500000
v 1376.400024 -389.722900 1028.459961
v 1376.359985 -389.812897 1028.520020
v 1376.349976 -389.737915 1028.479980
v 1376.699951 -389.452911 1028.780029
v 1376.670044 -389.511902 1028.689941
v 1376.560059 -389.570923 1028.959961
v 1376.550049 -389.633911 1028.900024
v 1376.540039 -389.500916 1028.849976
v 1376.520020 -389.555908 1028.810059
v 1376.589966 -389.448914 1028.770020
v 1376.560059 -389.503906 1028.719971
v 1376.489990 -389.594910 1028.770020
v 1376.520020 -389.539917 1028.670044
v 1376.449951 -389.606903 1028.739990
v 1376.469971 -389.548920 1028.630005
v 1376.410034 -389.610901 1028.729980
v 1376.619995 -389.556915 1028.619995
v 1376.469971 -389.588898 1028.520020
v 1376.040039 -388.854919 1028.739990
v 1375.989990 -388.953918 1028.619995
v 1375.979980 -388.898895 1028.739990
v 1375.930054 -388.897919 1028.859985
v 1375.729980 -389.194916 1029.060059
v 1375.829956 -389.073914 1029.109985
v 1375.810059 -389.062897 1029.060059
v 1375.729980 -389.223907 1029.109985
v 1375.689941 -389.301910 1028.969971
v 1375.729980 -389.164917 1029.000000
v 1375.699951 -389.250916 1028.930054
v 1375.800049 -389.056915 1029.000000
v 1375.890015 -388.935913 1028.989990
v 1375.739990 -389.135895 1028.920044
v 1375.859985 -388.963898 1028.910034
v 1375.790039 -389.056915 1028.930054
v 1375.900024 -388.942902 1028.810059
v 1375.849976 -388.994904 1028.829956
v 1375.920044 -388.954895 1028.729980
v 1375.869995 -389.019897 1028.729980
v 1375.939941 -388.978912 1028.660034
v 1375.800049 -389.064911 1028.839966
v 1375.760010 -389.120911 1028.839966
v 1375.819946 -389.083923 1028.739990
v 1375.719971 -389.196899 1028.869995
v 1375.790039 -389.131897 1028.739990
v 1375.750000 -389.161896 1028.819946
v 1375.849976 -389.109894 1028.640015
v 1375.900024 -389.038910 1028.640015
v 1375.770020 -389.177917 1028.739990
v 1375.739990 -389.240906 1028.750000
v 1375.790039 -389.197906 1028.670044
v 1375.819946 -389.164917 1028.650024
v 1375.790039 -389.252899 1028.630005
v 1375.729980 -389.312897 1028.760010
v 1375.890015 -389.138916 1028.560059
v 1375.839966 -389.214905 1028.579956
v 1375.790039 -389.325897 1028.599976
v 1375.719971 -389.376923 1028.780029
v 1375.729980 -389.431915 1028.790039
v 1375.800049 -389.391907 1028.579956
v 1375.880005 -389.324921 1028.489990
v 1375.849976 -389.272919 1028.520020
v 1375.969971 -389.198914 1028.469971
v 1375.930054 -389.169922 1028.510010
v 1376.010010 -389.043915 1028.510010
v 1375.949951 -389.042908 1028.569946
v 1376.250000 -389.352905 1029.239990
v 1376.280029 -389.425903 1028.939941
v 1376.290039 -389.487915 1028.949951
v 1376.410034 -389.487915 1028.650024
v 1376.109985 -388.794922 1029.020020
v 1376.239990 -388.906921 1028.530029
v 1375.699951 -389.387909 1029.050049
v 1375.750000 -389.251923 1029.150024
v 1375.979980 -388.910919 1029.130005
v 1376.060059 -388.804901 1028.989990
v 1375.949951 -388.912903 1029.089966
v 1375.689941 -389.346893 1029.010010
v 1375.829956 -389.499908 1028.560059
v 1375.810059 -389.448914 1028.569946
v 1375.930054 -389.412903 1028.449951
v 1376.170044 -389.072906 1028.430054
v 1375.900024 -389.370911 1028.459961
v 1376.180054 -388.907898 1028.540039
v 1376.119995 -389.059906 1028.449951
v 1376.010010 -389.226898 1028.439941
v 1376.160034 -388.809906 1028.760010
v 1376.130005 -388.913910 1028.560059
v 1376.069946 -389.049896 1028.479980
v 1376.020020 -388.822906 1028.949951
v 1376.099976 -388.826904 1028.750000
v 1376.060059 -388.927917 1028.579956
v 1375.920044 -388.918915 1029.040039
v 1375.969971 -388.852905 1028.910034
v 1376.410034 -389.551910 1028.609985
v 1376.380005 -389.573914 1028.609985
v 1376.410034 -389.610901 1028.500000
v 1376.369995 -389.639923 1028.510010
v 1376.380005 -389.627899 1028.719971
v 1376.349976 -389.608917 1028.609985
v 1376.349976 -389.654907 1028.719971
v 1376.319946 -389.685913 1028.699951
v 1376.400024 -389.722900 1028.459961
v 1376.329956 -389.672913 1028.520020
v 1376.349976 -389.737915 1028.479980
v 1376.319946 -389.793915 1028.550049
v 1376.310059 -389.747894 1028.520020
v 1376.310059 -389.648895 1028.609985
v 1376.300049 -389.710907 1028.560059
v 1376.290039 -389.758911 1028.599976
v 1376.290039 -389.685913 1028.609985
v 1376.290039 -389.718903 1028.660034
v 1376.760010 -389.569916 1028.729980
v 1376.699951 -389.452911 1028.780029
v 1376.810059 -389.500916 1028.849976
v 1376.670044 -389.511902 1028.689941
v 1376.589966 -389.448914 1028.770020
v 1376.560059 -389.503906 1028.719971
v 1376.520020 -389.539917 1028.670044
v 1376.469971 -389.548920 1028.630005
v 1376.619995 -389.556915 1028.619995
v 1376.540039 -389.576904 1028.560059
v 1376.709961 -389.626923 1028.630005
v 1376.619995 -389.663910 1028.550049
v 1376.469971 -389.588898 1028.520020
v 1376.300049 -388.835907 1029.140015
v 1376.260010 -388.812897 1029.109985
v 1376.349976 -388.864899 1029.160034
v 1376.390015 -388.893921 1029.180054
v 1376.469971 -388.872894 1028.859985
v 1376.420044 -388.844910 1028.839966
v 1376.199951 -388.797913 1029.089966
v 1376.369995 -388.820923 1028.819946
v 1376.410034 -388.945923 1028.540039
v 1376.439941 -388.932922 1029.199951
v 1376.459961 -388.970917 1028.550049
v 1376.510010 -388.902924 1028.880005
v 1376.560059 -388.938904 1028.900024
v 1376.550049 -389.028900 1028.589966
v 1376.500000 -388.999908 1028.569946
v 1376.599976 -389.066895 1028.609985
v 1376.660034 -389.118896 1028.640015
v 1376.630005 -388.984894 1028.930054
v 1376.719971 -389.175903 1028.680054
v 1376.500000 -388.985901 1029.219971
v 1376.569946 -389.045898 1029.239990
v 1376.699951 -389.035919 1028.959961
v 1376.650024 -389.102905 1029.270020
v 1376.280029 -389.425903 1028.939941
v 1376.719971 -389.158905 1029.280029
v 1376.780029 -389.086914 1028.989990
v 1376.790039 -389.227905 1028.719971
v 1376.849976 -389.138916 1029.020020
v 1376.859985 -389.276917 1028.770020
v 1376.790039 -389.214905 1029.300049
v 1376.959961 -389.376923 1028.849976
v 1376.839966 -389.272919 1029.300049
v 1376.900024 -389.195923 1029.050049
v 1376.949951 -389.254913 1029.069946
v 1376.910034 -389.326904 1028.810059
v 1376.150024 -388.792908 1029.050049
v 1376.319946 -388.804901 1028.800049
v 1376.260010 -388.798920 1028.790039
v 1376.109985 -388.794922 1029.020020
v 1376.349976 -388.925903 1028.530029
v 1376.290039 -388.912903 1028.530029
v 1376.209961 -388.800903 1028.770020
v 1376.239990 -388.906921 1028.530029
v 1376.060059 -388.804901 1028.989990
v 1376.180054 -388.907898 1028.540039
v 1376.160034 -388.809906 1028.760010
v 1376.349976 -389.554901 1028.680054
v 1376.209961 -389.431915 1029.219971
v 1376.319946 -389.455902 1028.949951
v 1376.260010 -389.502899 1029.209961
v 1376.380005 -389.606903 1028.750000
v 1376.359985 -389.521912 1028.979980
v 1376.390015 -389.651917 1028.819946
v 1376.300049 -389.569916 1029.170044
v 1376.380005 -389.588898 1029.000000
v 1376.410034 -389.551910 1028.609985
v 1376.550049 -389.633911 1028.900024
v 1376.520020 -389.555908 1028.810059
v 1376.520020 -389.682922 1028.849976
v 1376.489990 -389.594910 1028.770020
v 1376.560059 -389.792908 1028.790039
v 1376.489990 -389.707916 1028.819946
v 1376.510010 -389.814911 1028.750000
v 1376.449951 -389.606903 1028.739990
v 1376.469971 -389.548920 1028.630005
v 1376.449951 -389.719910 1028.800049
v 1376.410034 -389.610901 1028.729980
v 1376.459961 -389.827911 1028.729980
v 1375.829956 -389.073914 1029.109985
v 1375.729980 -389.223907 1029.109985
v 1376.150024 -388.972900 1029.270020
v 1376.000000 -389.181915 1029.300049
v 1376.050049 -389.209900 1029.319946
v 1376.199951 -388.999908 1029.290039
v 1376.109985 -388.946899 1029.250000
v 1376.099976 -389.239899 1029.329956
v 1376.300049 -388.835907 1029.140015
v 1375.979980 -389.444916 1029.329956
v 1376.260010 -388.812897 1029.109985
v 1376.349976 -388.864899 1029.160034
v 1376.250000 -389.028900 1029.310059
v 1376.390015 -388.893921 1029.180054
v 1376.199951 -388.797913 1029.089966
v 1376.439941 -388.932922 1029.199951
v 1376.300049 -389.073914 1029.319946
v 1376.180054 -389.309906 1029.280029
v 1376.500000 -388.985901 1029.219971
v 1376.349976 -389.142914 1029.339966
v 1376.569946 -389.045898 1029.239990
v 1376.400024 -389.223907 1029.359985
v 1376.650024 -389.102905 1029.270020
v 1376.250000 -389.352905 1029.239990
v 1376.479980 -389.290894 1029.380005
v 1376.290039 -389.449921 1029.260010
v 1376.359985 -389.525909 1029.290039
v 1376.550049 -389.345917 1029.390015
v 1376.719971 -389.158905 1029.280029
v 1376.790039 -389.214905 1029.300049
v 1376.430054 -389.577911 1029.300049
v 1376.510010 -389.614899 1029.310059
v 1376.579956 -389.644897 1029.319946
v 1376.619995 -389.393921 1029.400024
v 1376.689941 -389.439911 1029.400024
v 1376.839966 -389.272919 1029.300049
v 1375.959961 -389.153900 1029.280029
v 1376.060059 -388.927917 1029.209961
v 1375.829956 -389.350922 1029.270020
v 1376.150024 -388.792908 1029.050049
v 1375.920044 -389.126923 1029.239990
v 1376.020020 -388.915894 1029.180054
v 1376.109985 -388.794922 1029.020020
v 1375.770020 -389.513916 1029.150024
v 1375.739990 -389.472900 1029.119995
v 1375.810059 -389.548920 1029.170044
v 1375.709961 -389.428894 1029.079956
v 1375.859985 -389.582916 1029.189941
v 1375.869995 -389.382904 1029.290039
v 1375.800049 -389.315918 1029.229980
v 1375.920044 -389.412903 1029.310059
v 1375.920044 -389.618896 1029.209961
v 1375.770020 -389.281921 1029.189941
v 1375.880005 -389.103912 1029.199951
v 1375.699951 -389.387909 1029.050049
v 1375.750000 -389.251923 1029.150024
v 1375.979980 -388.910919 1029.130005
v 1375.849976 -389.086914 1029.160034
v 1375.949951 -388.912903 1029.089966
v 1375.979980 -389.649902 1029.219971
v 1376.030029 -389.668915 1029.209961
v 1376.040039 -389.483917 1029.329956
v 1376.209961 -389.431915 1029.219971
v 1376.089966 -389.528900 1029.310059
v 1376.260010 -389.502899 1029.209961
v 1376.150024 -389.572906 1029.280029
v 1376.410034 -389.551910 1028.609985
v 1376.380005 -389.627899 1028.719971
v 1376.410034 -389.731903 1028.780029
v 1376.349976 -389.654907 1028.719971
v 1376.410034 -389.832916 1028.709961
v 1376.380005 -389.745911 1028.770020
v 1376.319946 -389.685913 1028.699951
v 1376.329956 -389.755920 1028.729980
v 1376.290039 -389.718903 1028.660034
v 1376.310059 -389.760895 1028.689941
v 1376.760010 -389.569916 1028.729980
v 1376.810059 -389.500916 1028.849976
v 1376.780029 -389.647919 1028.819946
v 1376.819946 -389.566895 1028.949951
v 1376.729980 -389.699921 1028.900024
v 1376.760010 -389.614899 1029.020020
v 1376.729980 -389.715912 1028.699951
v 1376.630005 -389.691895 1028.930054
v 1376.599976 -389.753906 1028.849976
v 1376.689941 -389.771912 1028.790039
v 1376.560059 -389.792908 1028.790039
v 1376.619995 -389.819916 1028.709961
v 1376.650024 -389.763916 1028.609985
v 1376.560059 -389.792908 1028.540039
v 1376.099976 -389.239899 1029.329956
v 1375.979980 -389.444916 1029.329956
v 1376.300049 -389.073914 1029.319946
v 1376.180054 -389.309906 1029.280029
v 1376.329956 -389.438904 1028.469971
v 1376.520020 -389.262909 1028.500000
v 1376.359985 -389.472900 1028.569946
v 1376.199951 -389.635895 1028.500000
v 1376.280029 -389.425903 1028.939941
v 1376.239990 -389.663910 1028.540039
v 1376.349976 -389.554901 1028.680054
v 1376.160034 -389.786896 1028.699951
v 1376.030029 -389.668915 1029.209961
v 1376.040039 -389.483917 1029.329956
v 1376.209961 -389.431915 1029.219971
v 1376.260010 -389.502899 1029.209961
v 1376.150024 -389.572906 1029.280029
v 1376.079956 -389.680908 1029.189941
v 1376.199951 -389.615906 1029.229980
v 1376.099976 -389.765900 1028.969971
v 1376.130005 -389.690918 1029.160034
v 1376.199951 -389.783905 1028.739990
v 1376.310059 -389.714905 1028.660034
v 1376.380005 -389.606903 1028.750000
v 1376.329956 -389.727905 1028.739990
v 1376.390015 -389.651917 1028.819946
v 1376.219971 -389.772919 1028.800049
v 1376.310059 -389.722900 1028.849976
v 1376.300049 -389.569916 1029.170044
v 1376.380005 -389.588898 1029.000000
v 1376.369995 -389.677917 1028.880005
v 1376.349976 -389.647919 1029.010010
v 1376.280029 -389.696899 1029.000000
v 1376.300049 -389.621918 1029.130005
v 1376.239990 -389.657898 1029.140015
v 1376.250000 -389.752899 1028.859985
v 1376.199951 -389.732910 1028.989990
v 1376.150024 -389.753906 1028.979980
v 1376.180054 -389.696899 1029.109985
v 1376.550049 -389.848907 1028.650024
v 1376.760010 -389.614899 1029.020020
v 1376.630005 -389.691895 1028.930054
v 1376.650024 -389.614899 1029.020020
v 1376.560059 -389.570923 1028.959961
v 1376.550049 -389.633911 1028.900024
v 1376.599976 -389.753906 1028.849976
v 1376.520020 -389.682922 1028.849976
v 1376.560059 -389.792908 1028.790039
v 1376.619995 -389.819916 1028.709961
v 1376.510010 -389.814911 1028.750000
v 1376.459961 -389.827911 1028.729980
v 1375.729980 -389.431915 1028.790039
v 1376.180054 -389.309906 1029.280029
v 1376.359985 -389.472900 1028.569946
v 1376.250000 -389.352905 1029.239990
v 1376.290039 -389.449921 1029.260010
v 1376.280029 -389.425903 1028.939941
v 1376.290039 -389.487915 1028.949951
v 1376.319946 -389.589905 1028.979980
v 1376.359985 -389.525909 1029.290039
v 1376.410034 -389.487915 1028.650024
v 1376.439941 -389.578918 1028.699951
v 1376.500000 -389.650909 1028.739990
v 1376.369995 -389.666901 1029.020020
v 1376.569946 -389.696899 1028.790039
v 1376.430054 -389.577911 1029.300049
v 1376.449951 -389.715912 1029.050049
v 1376.640015 -389.725922 1028.829956
v 1376.510010 -389.614899 1029.310059
v 1376.520020 -389.745911 1029.069946
v 1376.699951 -389.747894 1028.869995
v 1376.599976 -389.765900 1029.099976
v 1376.579956 -389.644897 1029.319946
v 1376.069946 -389.749908 1028.630005
v 1376.020020 -389.716919 1028.609985
v 1375.969971 -389.683899 1028.579956
v 1375.930054 -389.646912 1028.569946
v 1375.859985 -389.663910 1028.880005
v 1375.910034 -389.697906 1028.900024
v 1375.890015 -389.600922 1028.560059
v 1375.819946 -389.626923 1028.859985
v 1375.849976 -389.549896 1028.560059
v 1375.780029 -389.581909 1028.839966
v 1375.770020 -389.513916 1029.150024
v 1375.739990 -389.472900 1029.119995
v 1375.810059 -389.548920 1029.170044
v 1375.709961 -389.428894 1029.079956
v 1375.750000 -389.531921 1028.819946
v 1375.859985 -389.582916 1029.189941
v 1375.920044 -389.618896 1029.209961
v 1375.699951 -389.387909 1029.050049
v 1375.689941 -389.346893 1029.010010
v 1375.739990 -389.482910 1028.810059
v 1375.829956 -389.499908 1028.560059
v 1375.810059 -389.448914 1028.569946
v 1376.119995 -389.775909 1028.670044
v 1376.160034 -389.786896 1028.699951
v 1375.959961 -389.734894 1028.920044
v 1376.020020 -389.761902 1028.939941
v 1375.979980 -389.649902 1029.219971
v 1376.030029 -389.668915 1029.209961
v 1376.060059 -389.770905 1028.959961
v 1376.079956 -389.680908 1029.189941
v 1376.099976 -389.765900 1028.969971
v 1376.130005 -389.690918 1029.160034
v 1376.199951 -389.783905 1028.739990
v 1376.219971 -389.772919 1028.800049
v 1376.550049 -389.848907 1028.650024
v 1376.479980 -389.864899 1028.619995
v 1376.410034 -389.832916 1028.709961
v 1376.380005 -389.745911 1028.770020
v 1376.420044 -389.866913 1028.599976
v 1376.349976 -389.825897 1028.689941
v 1376.329956 -389.755920 1028.729980
v 1376.420044 -389.816895 1028.500000
v 1376.369995 -389.852905 1028.599976
v 1376.359985 -389.812897 1028.520020
v 1376.329956 -389.826904 1028.599976
v 1376.349976 -389.737915 1028.479980
v 1376.319946 -389.793915 1028.550049
v 1376.310059 -389.747894 1028.520020
v 1376.300049 -389.710907 1028.560059
v 1376.290039 -389.758911 1028.599976
v 1376.290039 -389.718903 1028.660034
v 1376.310059 -389.801910 1028.650024
v 1376.310059 -389.760895 1028.689941
v 1376.770020 -389.822906 1028.859985
v 1376.689941 -389.760895 1028.839966
v 1376.930054 -389.637909 1028.750000
v 1376.849976 -389.582916 1028.739990
v 1376.849976 -389.859894 1028.910034
v 1377.010010 -389.684906 1028.810059
v 1376.969971 -389.361908 1028.819946
v 1377.119995 -389.466919 1028.890015
v 1377.050049 -389.407898 1028.839966
v 1376.670044 -389.423920 1029.430054
v 1376.949951 -389.229919 1029.069946
v 1376.569946 -389.777924 1029.099976
v 1376.829956 -389.246918 1029.319946
v 1376.560059 -389.644897 1029.339966
v 1376.849976 -389.582916 1028.739990
v 1376.689941 -389.760895 1028.839966
v 1376.969971 -389.361908 1028.819946
v 1376.969971 -389.361908 1028.819946
v 1377.119995 -389.466919 1028.890015
v 1377.050049 -389.407898 1028.839966
v 1377.040039 -389.269897 1029.099976
v 1376.949951 -389.229919 1029.069946
v 1377.099976 -389.336914 1029.130005
v 1376.829956 -389.246918 1029.319946
v 1376.989990 -389.353912 1029.390015
v 1376.910034 -389.287903 1029.369995
v 1376.560059 -389.644897 1029.339966
v 1376.719971 -389.746918 1029.400024
v 1376.630005 -389.702911 1029.390015
v 1376.829956 -389.246918 1029.319946
v 1376.989990 -389.353912 1029.390015
v 1376.910034 -389.287903 1029.369995
v 1376.739990 -389.472900 1029.479980
v 1376.670044 -389.423920 1029.430054
v 1376.829956 -389.528900 1029.489990
v 1376.829956 -389.528900 1029.489990
v 1377.099976 -389.336914 1029.130005
v 1376.989990 -389.353912 1029.390015
v 1376.729980 -389.876923 1029.160034
v 1376.719971 -389.746918 1029.400024
v 1377.010010 -389.684906 1028.810059
v 1377.119995 -389.466919 1028.890015
v 1376.849976 -389.859894 1028.910034
v 1376.770020 -389.822906 1028.859985
v 1376.640015 -389.840912 1029.130005
v 1376.689941 -389.760895 1028.839966
v 1376.569946 -389.777924 1029.099976
v 1376.560059 -389.644897 1029.339966
v 1376.849976 -389.859894 1028.910034
v 1376.729980 -389.876923 1029.160034
v 1376.719971 -389.746918 1029.400024
v 1376.630005 -389.702911 1029.390015
vn 0.8331 0.2122 -0.5109
vn 0.8422 -0.4486 -0.2991
vn 0.7476 0.1574 -0.6453
vn 0.6913 -0.5264 -0.4950
vn 0.6064 0.1102 -0.7875
vn 0.5204 -0.5756 -0.6308
vn 0.4267 0.0790 -0.9009
vn 0.2517 0.7549 -0.6056
vn 0.0787 0.7243 -0.6850
vn 0.5540 -0.0475 -0.8311
vn 0.5931 0.5693 -0.5693
vn 0.6386 0.5362 -0.5520
vn 0.7004 0.4722 -0.5352
vn 0.4244 0.0550 -0.9038
vn 0.5427 0.5978 -0.5900
vn 0.3613 0.1021 -0.9268
vn 0.4091 0.6607 -0.6294
vn 0.4939 -0.3919 -0.7762
vn 0.2825 -0.2511 -0.9258
vn 0.6220 -0.2047 -0.7558
vn 0.7165 0.4173 -0.5590
vn 0.2682 -0.6152 -0.7414
vn 0.4632 -0.2826 -0.8400
vn 0.6236 -0.5368 -0.5684
vn 0.6857 0.4019 -0.6069
vn 0.6727 0.3957 -0.6252
vn 0.2828 -0.2749 -0.9190
vn 0.3462 -0.2990 -0.8892
vn 0.7142 0.3532 -0.6043
vn -0.4088 -0.6760 -0.6131
vn -0.4581 -0.6003 -0.6556
vn -0.2751 -0.7469 -0.6054
vn 0.4160 -0.3296 -0.8475
vn -0.1102 -0.8270 -0.5513
vn -0.0158 -0.8622 -0.5063
vn 0.4635 -0.3613 -0.8091
vn 0.0236 -0.8728 -0.4875
vn 0.4893 -0.3710 -0.7893
vn 0.8000 0.2589 -0.5412
vn 0.7775 0.2906 -0.5577
vn 0.2441 0.1811 -0.9527
vn 0.2515 0.7151 -0.6523
vn 0.0945 0.2599 -0.9610
vn 0.1025 0.7491 -0.6545
vn -0.0315 0.3232 -0.9458
vn -0.0393 0.7631 -0.6451
vn 0.1971 -0.1892 -0.9619
vn 0.0864 -0.1100 -0.9902
vn -0.0472 -0.0157 -0.9988
vn 0.0710 -0.5442 -0.8360
vn -0.1492 -0.3848 -0.9109
vn -0.0237 -0.4815 -0.8761
vn -0.2827 -0.2749 -0.9190
vn -0.3866 -0.1657 -0.9073
vn -0.2444 -0.8750 -0.4178
vn -0.3236 -0.8366 -0.4421
vn -0.4072 -0.7832 -0.4699
vn -0.5279 -0.6775 -0.5122
vn -0.6386 -0.5519 -0.5362
vn -0.7210 -0.4232 -0.5486
vn -0.7809 -0.2919 -0.5522
vn -0.4806 -0.0630 -0.8747
vn -0.1653 0.0630 -0.9842
vn -0.1578 0.3708 -0.9152
vn -0.2751 0.1415 -0.9510
vn -0.5598 0.0315 -0.8280
vn -0.2756 0.4172 -0.8660
vn -0.3703 0.2048 -0.9061
vn 0.6236 -0.5367 -0.5683
vn 0.4977 -0.6478 -0.5767
vn -0.1024 -0.9294 -0.3545
vn 0.0866 -0.9679 -0.2361
vn 0.6854 -0.6223 -0.3782
vn 0.6134 -0.6213 -0.4876
vn 0.9747 0.0707 -0.2122
vn 0.9726 0.0470 -0.2275
vn 0.1727 -0.9812 -0.0864
vn 0.3232 -0.9458 -0.0315
vn 0.2922 -0.6398 -0.7109
vn 0.1491 0.0236 -0.9885
vn -0.2522 0.6226 -0.7408
vn -0.5206 0.5285 -0.6705
vn -0.0709 -0.9922 -0.1024
vn -0.0316 -0.6867 -0.7262
vn -0.2125 -0.0473 -0.9760
vn -0.4023 -0.6706 -0.6233
vn -0.5609 -0.1027 -0.8215
vn -0.9614 0.2679 0.0630
vn -0.8094 -0.2436 0.5343
vn -0.8187 -0.2755 0.5038
vn -0.9303 0.3312 0.1577
vn -0.4579 0.7421 -0.4895
vn -0.4817 0.7975 -0.3632
vn -0.7654 0.4892 0.4182
vn 0.4005 0.6596 -0.6360
vn 0.2994 0.7092 -0.6383
vn -0.3235 0.9388 -0.1183
vn -0.1414 0.9898 0.0157
vn -0.4706 0.6433 0.6039
vn 0.2841 0.7417 -0.6076
vn -0.4413 0.8431 -0.3073
vn -0.5730 0.6594 -0.4867
vn -0.5731 0.7536 -0.3219
vn -0.6619 0.7328 -0.1576
vn -0.8974 0.3621 0.2519
vn -0.7258 0.5207 0.4496
vn -0.7787 0.5427 0.3146
vn -0.8736 0.3069 0.3777
vn -0.9968 0.0785 0.0157
vn -0.9034 0.4164 0.1021
vn -0.9772 0.1970 -0.0788
vn -0.8104 0.5665 0.1495
vn -0.7298 0.6748 0.1099
vn -0.8838 0.4656 -0.0474
vn -0.7699 0.6364 -0.0471
vn -0.8245 0.5654 -0.0236
vn -0.7192 0.6560 -0.2292
vn -0.7814 0.5920 -0.1974
vn -0.6866 0.6471 -0.3315
vn -0.7618 0.5576 -0.3298
vn -0.6673 0.6123 -0.4239
vn -0.8121 0.5519 -0.1892
vn -0.8503 0.4881 -0.1968
vn -0.7876 0.5198 -0.3308
vn -0.9394 0.3000 -0.1658
vn -0.8197 0.4729 -0.3232
vn -0.8983 0.3704 -0.2364
vn -0.7421 0.4895 -0.4579
vn -0.7134 0.5331 -0.4547
vn -0.8832 0.3470 -0.3154
vn -0.9285 0.2203 -0.2990
vn -0.8556 0.3375 -0.3925
vn -0.7865 0.4247 -0.4483
vn -0.8673 0.2444 -0.4336
vn -0.9576 0.0863 -0.2747
vn -0.6757 0.4322 -0.5972
vn -0.7477 0.3463 -0.5666
vn -0.8711 0.1098 -0.4787
vn -0.9672 -0.0708 -0.2438
vn -0.9575 -0.2040 -0.2041
vn -0.8582 -0.0394 -0.5118
vn -0.6274 0.1255 -0.7685
vn -0.6935 0.2443 -0.6778
vn -0.4724 0.2835 -0.8346
vn -0.5754 0.3626 -0.7331
vn -0.5112 0.4876 -0.7078
vn -0.6276 0.5099 -0.5883
vn -0.8571 -0.5032 -0.1101
vn -0.7226 -0.4084 0.5577
vn 0.4494 -0.8358 0.3154
vn -0.4087 -0.6760 -0.6131
vn -0.3613 0.9268 0.1021
vn -0.5284 0.6940 0.4890
vn -0.2518 0.9522 0.1732
vn -0.6058 0.7003 0.3776
vn -0.8393 0.2431 0.4863
vn -0.9952 -0.0237 0.0948
vn -0.9754 -0.1258 0.1809
vn -0.8267 -0.1732 -0.5354
vn -0.4807 -0.0631 -0.8746
vn -0.5599 0.0315 -0.8279
vn -0.0394 0.7631 -0.6451
vn -0.1648 0.7609 -0.6276
vn -0.2756 0.4173 -0.8660
vn -0.3703 0.2049 -0.9060
vn -0.2982 0.7454 -0.5963
vn -0.1728 0.9503 -0.2592
vn -0.3854 0.4561 -0.8022
vn -0.4627 0.8862 0.0235
vn -0.2979 0.9094 -0.2901
vn -0.4408 0.7085 -0.5511
vn -0.6708 0.6945 0.2604
vn -0.5678 0.8201 -0.0710
vn 0.0787 0.7243 -0.6849
vn -0.5823 0.8105 -0.0629
vn -0.2829 0.9586 -0.0314
vn -0.4090 0.6684 0.6212
vn -0.5207 0.5285 -0.6705
vn -0.5532 0.5690 0.6085
vn -0.7265 0.6870 -0.0158
vn -0.6538 0.4727 0.5908
vn -0.7272 0.4268 -0.5375
vn -0.2125 -0.0472 -0.9760
vn -0.5608 -0.1027 -0.8215
vn -0.8232 -0.1725 -0.5410
vn -0.8084 0.5886 -0.0000
vn -0.9412 0.1255 -0.3138
vn -0.7922 0.3687 0.4863
vn -0.7854 -0.5026 -0.3613
vn -0.9682 -0.2440 -0.0551
vn -0.9517 0.3067 -0.0158
vn -0.9661 0.0864 0.2435
vn 0.8331 0.2122 -0.5108
vn 0.9110 0.1256 -0.3927
vn 0.2995 0.7092 -0.6383
vn 0.4004 0.6596 -0.6360
vn -0.3234 0.9388 -0.1184
vn 0.2516 0.7550 -0.6055
vn 0.6064 0.1103 -0.7875
vn 0.5504 0.8335 -0.0472
vn 0.2598 0.8423 0.4723
vn 0.3145 0.8098 0.4953
vn 0.3552 0.7814 0.5130
vn 0.5053 0.8606 -0.0632
vn 0.1340 0.8986 0.4178
vn 0.3840 0.9168 -0.1097
vn -0.0078 0.9414 0.3373
vn 0.4090 0.6608 -0.6293
vn 0.5427 0.5978 -0.5899
vn 0.5832 0.8117 -0.0315
vn 0.4108 0.7188 0.5608
vn 0.6198 0.7846 -0.0157
vn 0.6386 0.5362 -0.5519
vn 0.5931 0.5694 -0.5693
vn 0.6370 0.7708 -0.0079
vn 0.4085 0.6835 0.6049
vn 0.3627 0.6860 0.6308
vn 0.6149 0.7884 -0.0158
vn 0.3385 0.6848 0.6454
vn 0.3785 0.6466 0.6623
vn 0.6061 0.7950 -0.0236
vn 0.6727 0.3958 -0.6252
vn 0.6624 0.7491 0.0079
vn 0.4486 0.5745 0.6846
vn 0.4728 0.5437 0.6934
vn 0.7409 0.6699 0.0473
vn 0.7731 0.6311 0.0631
vn 0.8001 0.2589 -0.5412
vn 0.7775 0.2907 -0.5576
vn 0.2284 0.9607 -0.1575
vn -0.1333 0.9567 0.2587
vn 0.0944 0.9759 -0.1967
vn -0.2518 0.9522 0.1731
vn 0.2514 0.7151 -0.6522
vn 0.1025 0.7491 -0.6544
vn -0.0473 0.9704 -0.2367
vn -0.3613 0.9269 0.1021
vn -0.1647 0.7609 -0.6276
vn 0.4494 -0.8358 0.3153
vn 0.7570 0.2602 0.5993
vn 0.8880 0.4401 0.1335
vn 0.9747 0.0708 -0.2122
vn 0.7494 0.2445 0.6153
vn 0.9726 0.0471 -0.2275
vn 0.9039 0.4009 0.1493
vn 0.9539 -0.2996 -0.0157
vn 0.7966 -0.1577 0.5836
vn 0.9648 -0.0316 0.2610
vn -0.2829 0.9586 -0.0315
vn -0.9303 0.3311 0.1577
vn -0.7026 -0.2131 0.6789
vn -0.5356 -0.1261 0.8350
vn -0.1181 -0.7868 0.6058
vn -0.0790 -0.7898 0.6082
vn -0.4706 0.6432 0.6040
vn -0.3855 -0.0629 0.9206
vn -0.4089 0.6684 0.6213
vn -0.0867 -0.7960 0.5990
vn -0.1104 0.5125 0.8516
vn -0.2995 0.2443 0.9223
vn -0.2125 0.1810 0.9602
vn -0.0474 0.4656 0.8838
vn -0.2206 0.5751 0.7878
vn 0.0236 0.0158 0.9996
vn 0.2597 0.8423 0.4723
vn -0.1894 -0.2289 0.9549
vn 0.3144 0.8098 0.4953
vn 0.0868 0.3550 0.9308
vn 0.3552 0.7814 0.5131
vn -0.0078 0.9413 0.3374
vn 0.4108 0.7188 0.5609
vn 0.1652 0.1889 0.9680
vn 0.4085 0.6835 0.6050
vn -0.0236 0.1414 0.9897
vn 0.2197 -0.1883 0.9572
vn -0.2118 0.1568 0.9647
vn 0.3384 0.6847 0.6454
vn -0.7226 -0.4085 0.5577
vn -0.1502 0.1265 0.9805
vn -0.7716 -0.3307 0.5433
vn -0.6062 -0.4645 0.6456
vn -0.0709 0.0946 0.9930
vn 0.3785 0.6466 0.6624
vn 0.4486 0.5745 0.6847
vn -0.4421 -0.5369 0.7185
vn -0.3468 -0.5753 0.7408
vn -0.3067 -0.5898 0.7471
vn -0.0079 0.0550 0.9985
vn 0.0157 0.0393 0.9991
vn -0.4087 0.3144 0.8568
vn -0.3383 0.6373 0.6924
vn -0.6063 0.0079 0.7952
vn -0.1334 0.9567 0.2588
vn -0.5133 0.3869 0.7660
vn -0.4429 0.6723 0.5932
vn -0.2518 0.9521 0.1732
vn -0.4895 -0.0790 0.8684
vn -0.7747 -0.4664 0.4269
vn -0.6627 -0.5601 0.4971
vn -0.5817 -0.6131 0.5346
vn -0.8723 -0.3457 0.3458
vn -0.7079 0.0944 0.7000
vn -0.9364 -0.2360 0.2597
vn -0.3852 -0.1415 0.9119
vn -0.5033 -0.6527 0.5663
vn -0.7842 0.1725 0.5960
vn -0.5983 0.4408 0.6691
vn -0.9754 -0.1258 0.1810
vn -0.8393 0.2432 0.4863
vn -0.6697 0.4884 0.5594
vn -0.6058 0.7002 0.3777
vn -0.8735 0.3070 0.3778
vn -0.7258 0.5206 0.4497
vn -0.3551 -0.7103 0.6077
vn 0.0864 -0.2985 0.9505
vn -0.1416 -0.7707 0.6213
vn 0.2444 -0.2995 0.9223
vn 0.3545 -0.3309 0.8745
vn -0.3547 -0.0946 0.9302
vn -0.5532 0.5689 0.6085
vn -0.6538 0.4726 0.5909
vn -0.2357 -0.8013 0.5499
vn -0.4722 -0.1653 0.8658
vn -0.7922 0.3686 0.4863
vn -0.6869 -0.2131 0.6948
vn -0.8733 -0.2517 0.4170
vn -0.9660 0.0864 0.2435
vn 0.9155 -0.3867 -0.1105
vn 0.9020 -0.4314 0.0157
vn 0.4969 -0.7809 0.3786
vn 0.4649 -0.7721 0.4333
vn 0.8422 -0.4487 -0.2991
vn -0.2514 -0.7151 0.6522
vn -0.1580 -0.7586 0.6321
vn 0.5109 -0.8331 0.2122
vn -0.1180 -0.7868 0.6058
vn 0.4244 -0.9038 0.0550
vn 0.6914 -0.5264 -0.4949
vn 0.1653 0.1888 0.9680
vn 0.0236 0.0157 0.9996
vn -0.1894 -0.2288 0.9549
vn 0.4939 -0.3920 -0.7761
vn 0.6219 -0.2047 -0.7558
vn 0.6236 -0.5368 -0.5683
vn 0.2681 -0.6152 -0.7414
vn 0.6235 -0.5368 -0.5683
vn 0.4495 -0.8358 0.3154
vn 0.2196 -0.1883 0.9572
vn 0.4495 -0.8357 0.3154
vn 0.3545 -0.3310 0.8745
vn -0.1415 -0.7707 0.6213
vn 0.0631 -0.8205 0.5681
vn 0.4389 -0.5565 0.7054
vn 0.7494 0.2446 0.6153
vn 0.2121 -0.8561 0.4713
vn 0.6854 -0.6224 -0.3781
vn 0.2364 -0.9691 -0.0709
vn 0.6533 -0.7478 -0.1181
vn 0.9539 -0.2996 -0.0158
vn 0.3153 -0.9457 0.0788
vn 0.5374 -0.8298 0.1502
vn 0.7966 -0.1578 0.5836
vn 0.7615 -0.6202 0.1884
vn 0.9648 -0.0317 0.2610
vn 0.7483 -0.5750 0.3308
vn 0.4649 -0.8274 0.3152
vn 0.6858 -0.5597 0.4651
vn 0.4497 -0.7574 0.4734
vn 0.3540 -0.9126 0.2045
vn 0.3144 -0.9037 0.2908
vn 0.1890 -0.9448 0.2677
vn 0.0631 -0.9696 0.2365
vn 0.3060 -0.8709 0.3845
vn 0.3232 -0.9458 -0.0316
vn -0.2515 -0.7151 0.6522
vn 0.4648 -0.7721 0.4334
vn -0.8187 -0.2756 0.5038
vn -0.8094 -0.2436 0.5344
vn -0.7026 -0.2132 0.6789
vn -0.0790 -0.7899 0.6082
vn -0.7227 -0.4084 0.5577
vn -0.7717 -0.3307 0.5433
vn -0.8372 -0.5371 -0.1027
vn -0.6062 -0.4645 0.6455
vn -0.2752 -0.7469 -0.6053
vn -0.6540 -0.7565 -0.0000
vn -0.1103 -0.8270 -0.5513
vn -0.4708 -0.8787 0.0785
vn -0.0159 -0.8623 -0.5062
vn -0.3538 -0.9278 0.1179
vn -0.3063 -0.9425 0.1335
vn -0.3067 -0.5898 0.7470
vn -0.6150 -0.7884 0.0158
vn -0.3236 -0.8366 -0.4419
vn -0.5279 -0.6776 -0.5121
vn -0.2444 -0.8751 -0.4178
vn -0.5597 -0.8278 0.0394
vn -0.7223 -0.6909 -0.0314
vn -0.6387 -0.5520 -0.5361
vn -0.8191 -0.5671 -0.0866
vn -0.7211 -0.4232 -0.5486
vn -0.8723 -0.3458 0.3457
vn -0.6627 -0.5602 0.4970
vn -0.9364 -0.2361 0.2597
vn -0.8832 -0.4495 -0.1341
vn -0.5817 -0.6131 0.5345
vn -0.5033 -0.6527 0.5662
vn -0.9754 -0.1259 0.1809
vn -0.9952 -0.0237 0.0947
vn -0.9303 -0.3232 -0.1734
vn -0.9575 -0.2041 -0.2040
vn -0.7810 -0.2919 -0.5522
vn -0.8267 -0.1732 -0.5353
vn -0.5053 -0.8606 0.0632
vn -0.3702 -0.9214 0.1181
vn 0.0865 -0.9679 -0.2360
vn -0.3552 -0.7103 0.6077
vn -0.1416 -0.7707 0.6212
vn -0.1411 -0.9720 0.1881
vn 0.0631 -0.8206 0.5681
vn 0.2120 -0.8561 0.4712
vn 0.2363 -0.9691 -0.0709
vn 0.3152 -0.9457 0.0788
vn -0.0867 -0.7961 0.5990
vn 0.1727 -0.9812 -0.0863
vn -0.4948 -0.7540 0.4320
vn -0.6869 -0.2132 0.6948
vn -0.3937 -0.9135 -0.1024
vn -0.0316 -0.6868 -0.7262
vn -0.4024 -0.6706 -0.6232
vn -0.7084 -0.7005 -0.0866
vn -0.8232 -0.1725 -0.5409
vn -0.8109 -0.5511 0.1968
vn -0.9661 0.0864 0.2434
vn -0.8733 -0.2518 0.4170
vn -0.3611 -0.6594 -0.6594
vn 0.2675 -0.2281 -0.9362
vn -0.2207 -0.7570 -0.6150
vn 0.1258 -0.1337 -0.9830
vn -0.0786 -0.8414 -0.5347
vn 0.4105 -0.3236 -0.8525
vn 0.4566 0.5275 -0.7164
vn 0.7324 0.3386 -0.5907
vn 0.6054 0.4324 -0.6683
vn -0.7844 0.5256 -0.3294
vn -0.7844 0.5255 -0.3294
vn -0.7844 0.5255 -0.3295
vn 0.6054 0.4324 -0.6682
vn 0.7324 0.3387 -0.5907
vn 0.4487 0.8895 -0.0866
vn 0.7069 0.7069 0.0236
vn 0.1183 0.8201 0.5599
vn 0.4024 0.6233 0.6706
vn 0.2598 0.7321 0.6297
vn -0.2281 0.2045 0.9519
vn 0.4023 0.6232 0.6706
vn -0.3693 0.2986 0.8800
vn -0.6990 -0.3691 0.6126
vn -0.5651 -0.4630 0.6829
vn -0.4102 -0.5522 0.7258
vn -0.0787 0.1023 0.9916
vn 0.7844 -0.5255 0.3294
vn 0.7844 -0.5255 0.3295
vn 0.7844 -0.5256 0.3294
vn -0.2208 -0.7570 -0.6150
vn -0.5505 -0.8335 0.0472
vn -0.6707 -0.7417 -0.0079
vn -0.6989 -0.3691 0.6126
vn -0.4098 -0.9064 0.1025
vn -0.4102 -0.5523 0.7258
vn -0.5651 -0.4631 0.6828
vt 1.901150 -27.439400
vt 2.040510 -27.478399
vt 1.977570 -27.389400
vt 2.121350 -27.409500
vt 2.052820 -27.315100
vt 2.192880 -27.334999
vt 2.120740 -27.238501
vt 2.025810 -27.211500
vt 2.076900 -27.145901
vt 1.770880 -26.939600
vt 1.572820 -26.881300
vt 1.572010 -26.938999
vt 1.576000 -27.005501
vt 1.773430 -26.881500
vt 1.574460 -26.824900
vt 1.775990 -26.824900
vt 1.581110 -26.767599
vt 2.028210 -26.943399
vt 2.032600 -26.882700
vt 1.780090 -27.006500
vt 1.587940 -27.087000
vt 2.267890 -26.950600
vt 1.809270 -27.087299
vt 2.041990 -27.020700
vt 1.599520 -27.180099
vt 1.603310 -27.278099
vt 1.844500 -27.180099
vt 1.860030 -27.278099
vt 1.606780 -27.372000
vt 2.033530 -27.089100
vt 2.089480 -27.180099
vt 2.116750 -27.278099
vt 1.861560 -27.372000
vt 2.116340 -27.372000
vt 2.104060 -27.454800
vt 1.861210 -27.454800
vt 2.086930 -27.530701
vt 1.861160 -27.530701
vt 1.635400 -27.530701
vt 1.618370 -27.454800
vt 1.780040 -26.767599
vt 1.597230 -26.709499
vt 1.789310 -26.709499
vt 1.620370 -26.655899
vt 1.802620 -26.655899
vt 1.647270 -26.611099
vt 2.035410 -26.825100
vt 2.035820 -26.767599
vt 2.035820 -26.709499
vt 2.272260 -26.885500
vt 2.270270 -26.767599
vt 2.273750 -26.825399
vt 2.261000 -26.709499
vt 2.247700 -26.655899
vt 2.438040 -26.957800
vt 2.440360 -26.888300
vt 2.440130 -26.825800
vt 2.433680 -26.767599
vt 2.417560 -26.709499
vt 2.394420 -26.655899
vt 2.367510 -26.611099
vt 2.232230 -26.611099
vt 2.035820 -26.655899
vt 1.818090 -26.611099
vt 2.035820 -26.611099
vt 2.214230 -26.572001
vt 1.836090 -26.572001
vt 2.035820 -26.572001
vt 2.265710 -27.017799
vt 2.431470 -27.022600
vt 2.418430 -27.071600
vt 2.273600 -27.138399
vt 2.270020 -27.082100
vt 2.119040 -27.093599
vt 2.147230 -27.167000
vt 2.298010 -27.336599
vt 2.249110 -27.390100
vt 2.248520 -27.274200
vt 2.176290 -27.182600
vt 2.124810 -27.109400
vt 2.173770 -27.091999
vt 2.333240 -27.286400
vt 2.290380 -27.224600
vt 2.223760 -27.144199
vt 2.320270 -27.180901
vt 2.266490 -27.117701
vt 1.881420 -26.978201
vt 1.895190 -27.083500
vt 1.958710 -27.024500
vt 1.832800 -27.032200
vt 1.806530 -26.903601
vt 1.750430 -26.960600
vt 1.795540 -27.077499
vt 1.780750 -26.840900
vt 1.698330 -26.906900
vt 1.706190 -27.010099
vt 1.682350 -27.047501
vt 1.777510 -27.108801
vt 1.630010 -26.969400
vt 2.043150 -26.722099
vt 1.914220 -26.826500
vt 2.043150 -26.793800
vt 2.172090 -26.826500
vt 2.344270 -27.192400
vt 2.398280 -27.035801
vt 2.357360 -27.035801
vt 2.383480 -27.214199
vt 2.252630 -27.298300
vt 2.293560 -27.164301
vt 2.217350 -27.249300
vt 2.304450 -27.035801
vt 2.293560 -26.886000
vt 2.227100 -27.129999
vt 2.227100 -26.920601
vt 2.234790 -27.035801
vt 2.127450 -26.878901
vt 2.143710 -26.949100
vt 2.043150 -26.873301
vt 2.043150 -26.957500
vt 1.958860 -26.878901
vt 2.146850 -27.035801
vt 2.143710 -27.102501
vt 2.043150 -27.035801
vt 2.172090 -27.189899
vt 2.043150 -27.093500
vt 2.127450 -27.145399
vt 1.939460 -27.035801
vt 1.942600 -26.949100
vt 2.043150 -27.144800
vt 2.043150 -27.208900
vt 1.958860 -27.145399
vt 1.942600 -27.102501
vt 1.914220 -27.189899
vt 2.043150 -27.278500
vt 1.851520 -27.035801
vt 1.859210 -27.129999
vt 1.868960 -27.249300
vt 2.043150 -27.334900
vt 2.043150 -27.378401
vt 1.833680 -27.298300
vt 1.742040 -27.192400
vt 1.792750 -27.164301
vt 1.728950 -27.035801
vt 1.781860 -27.035801
vt 1.792750 -26.886000
vt 1.859210 -26.920601
vt 2.043150 -27.113300
vt 2.356390 -27.033501
vt 2.043150 -27.063801
vt 1.729920 -27.033501
vt 2.279900 -26.678600
vt 2.415880 -26.818100
vt 2.302440 -26.647301
vt 2.383480 -26.836100
vt 2.415880 -27.232201
vt 2.279900 -27.336201
vt 2.302440 -27.367500
vt 1.806410 -27.336201
vt 1.670430 -27.232201
vt 1.783870 -27.367500
vt 1.702830 -27.214199
vt 1.783870 -26.647301
vt 1.670430 -26.818100
vt 1.806410 -26.678600
vt 1.702830 -26.836100
vt 1.688030 -27.035801
vt 1.833680 -26.716499
vt 2.043150 -26.622101
vt 1.742040 -26.857901
vt 2.252630 -26.716499
vt 2.043150 -26.665701
vt 1.868960 -26.765499
vt 2.344270 -26.857901
vt 2.217350 -26.765499
vt 1.564850 -27.076900
vt 1.673480 -27.118099
vt 1.673970 -27.080400
vt 1.772790 -27.134600
vt 1.559640 -27.124800
vt 1.568590 -27.173800
vt 1.772160 -27.165100
vt 1.676100 -27.163601
vt 1.767080 -27.203300
vt 1.589620 -27.226000
vt 1.500320 -27.223801
vt 1.532140 -27.266500
vt 1.571650 -27.294001
vt 1.677330 -27.215900
vt 1.618790 -27.275600
vt 1.749600 -27.247499
vt 1.589830 -27.331100
vt 1.653260 -27.318600
vt 1.673360 -27.258699
vt 1.712850 -27.288200
vt 2.300400 -27.439400
vt 2.219250 -27.344299
vt 2.187710 -27.473600
vt 2.301670 -27.320299
vt 2.249570 -27.240999
vt 2.193470 -27.249901
vt 2.293810 -27.214800
vt 2.413520 -27.211500
vt 2.317650 -27.163401
vt 2.369990 -27.278799
vt 2.396290 -27.389400
vt 2.462160 -27.315100
vt 2.435150 -27.145901
vt 1.956850 -26.881300
vt 1.645200 -26.824900
vt 1.644470 -26.881300
vt 1.644580 -26.938999
vt 1.956850 -26.824900
vt 1.649920 -26.767599
vt 1.956850 -26.767599
vt 1.661530 -26.709499
vt 2.263770 -26.767599
vt 2.268490 -26.824900
vt 1.956850 -26.938999
vt 1.646120 -27.005501
vt 1.956850 -27.005400
vt 2.269110 -26.938999
vt 2.269220 -26.881300
vt 2.267570 -27.005501
vt 2.263310 -27.087000
vt 1.956850 -27.087000
vt 2.255930 -27.180099
vt 1.650380 -27.087000
vt 1.657760 -27.180099
vt 1.956850 -27.180099
vt 1.668380 -27.278099
vt 1.682330 -27.372000
vt 1.956850 -27.278099
vt 2.245310 -27.278099
vt 1.956850 -27.372000
vt 2.231360 -27.372000
vt 1.699340 -27.454800
vt 1.718030 -27.530701
vt 1.956850 -27.454800
vt 1.956850 -27.530701
vt 2.195660 -27.530701
vt 2.214350 -27.454800
vt 1.956850 -26.709499
vt 1.678190 -26.655899
vt 1.956850 -26.655899
vt 1.697560 -26.611099
vt 2.252160 -26.709499
vt 2.235500 -26.655899
vt 1.956850 -26.611099
vt 2.216130 -26.611099
vt 1.720100 -26.572001
vt 2.193590 -26.572001
vt 1.956850 -26.572001
vt 1.956850 -27.051800
vt 1.672370 -27.093599
vt 1.956850 -27.100500
vt 2.241320 -27.093599
vt 1.716350 -27.167000
vt 2.197340 -27.167000
vt 1.956850 -27.177799
vt 2.146110 -27.217199
vt 1.767580 -27.217199
vt 1.956850 -27.231400
vt 2.326030 -27.115000
vt 1.916500 -27.356501
vt 1.967770 -27.263300
vt 1.922480 -27.250299
vt 1.865150 -27.347900
vt 1.826510 -27.323000
vt 1.795680 -27.414900
vt 1.749450 -27.372101
vt 1.891230 -27.216900
vt 1.795370 -27.292400
vt 1.865420 -27.183001
vt 1.952510 -27.163401
vt 1.711150 -27.332001
vt 2.224010 -26.824900
vt 1.964590 -26.825100
vt 1.967400 -26.882700
vt 2.226570 -26.881500
vt 2.219960 -26.767599
vt 1.971790 -26.943399
vt 2.425540 -26.824900
vt 1.732110 -26.950600
vt 2.418890 -26.767599
vt 2.427180 -26.881300
vt 2.229120 -26.939600
vt 2.427990 -26.938999
vt 2.402770 -26.709499
vt 2.424000 -27.005501
vt 2.219910 -27.006500
vt 2.412060 -27.087000
vt 2.190730 -27.087299
vt 2.400480 -27.180099
vt 1.958010 -27.020700
vt 2.155500 -27.180099
vt 2.396690 -27.278099
vt 1.966470 -27.089100
vt 2.139970 -27.278099
vt 1.910520 -27.180099
vt 1.883250 -27.278099
vt 2.138440 -27.372000
vt 2.393220 -27.372000
vt 2.381630 -27.454800
vt 1.883660 -27.372000
vt 1.895940 -27.454800
vt 1.913070 -27.530701
vt 2.138790 -27.454800
vt 2.138840 -27.530701
vt 2.364600 -27.530701
vt 1.964180 -26.767599
vt 2.210690 -26.709499
vt 1.729730 -26.767599
vt 2.379630 -26.655899
vt 1.964180 -26.709499
vt 2.197380 -26.655899
vt 2.352730 -26.611099
vt 1.726250 -26.825399
vt 1.566320 -26.767599
vt 1.559870 -26.825800
vt 1.559640 -26.888300
vt 1.582440 -26.709499
vt 1.739000 -26.709499
vt 1.605580 -26.655899
vt 1.727740 -26.885500
vt 1.561960 -26.957800
vt 1.752300 -26.655899
vt 1.964180 -26.655899
vt 1.632490 -26.611099
vt 1.767770 -26.611099
vt 2.181910 -26.611099
vt 1.964180 -26.611099
vt 2.163910 -26.572001
vt 1.785770 -26.572001
vt 1.964180 -26.572001
vt 1.568530 -27.022600
vt 1.734290 -27.017799
vt 1.581570 -27.071600
vt 1.729980 -27.082100
vt 1.880960 -27.093599
vt 1.852770 -27.167000
vt 1.726400 -27.138399
vt 1.919580 -27.115000
vt 1.765050 -27.266600
vt 1.834860 -27.167101
vt 1.796710 -27.156601
vt 1.680110 -27.289200
vt 1.733310 -27.238199
vt 1.752460 -27.137699
vt 1.702100 -27.200500
vt 1.684570 -27.168400
vt 1.711790 -27.123400
vt 2.187710 -26.824800
vt 2.240470 -26.957600
vt 2.300400 -26.901199
vt 2.109760 -26.874500
vt 2.160570 -27.034500
vt 2.034210 -26.952499
vt 2.352630 -27.040501
vt 2.106000 -27.083000
vt 2.187100 -27.148600
vt 2.268550 -27.113501
vt 2.240400 -27.204300
vt 2.343700 -27.186501
vt 2.431420 -27.121401
vt 2.477190 -27.192900
vt 1.581690 -27.042000
vt 1.519620 -26.780100
vt 1.497020 -27.028200
vt 1.517360 -27.267900
vt 2.416670 -27.028200
vt 2.394070 -26.780100
vt 2.332000 -27.042000
vt 2.396340 -27.267900
vt 2.241320 -27.118999
vt 2.374260 -27.265699
vt 1.956850 -27.063801
vt 1.539430 -27.265699
vt 1.672370 -27.118999
vt 1.627320 -27.273600
vt 1.685100 -27.418400
vt 1.718030 -27.400000
vt 1.697840 -27.280199
vt 1.716350 -27.147200
vt 1.767790 -27.376900
vt 2.228600 -27.418400
vt 2.286370 -27.273600
vt 2.195660 -27.400000
vt 2.215850 -27.280199
vt 2.197340 -27.147200
vt 2.146110 -27.183300
vt 2.145900 -27.376900
vt 2.109290 -27.286800
vt 1.767580 -27.183300
vt 2.086740 -27.220800
vt 1.956850 -27.147800
vt 1.956850 -27.211300
vt 1.956850 -27.289200
vt 1.826950 -27.220800
vt 1.804410 -27.286800
vt 2.086740 -27.350401
vt 1.956850 -27.362200
vt 1.956850 -27.412600
vt 1.956850 -27.447399
vt 1.826950 -27.350401
vt 2.387180 -27.249100
vt 1.894000 -27.466499
vt 1.965790 -27.554199
vt 1.990910 -27.471901
vt 1.958710 -27.354799
vt 1.895190 -27.356501
vt 1.812900 -27.449800
vt 1.844470 -27.347900
vt 1.759600 -27.414900
vt 1.730750 -27.372101
vt 1.656300 -27.451300
vt 2.418310 -27.020700
vt 2.043150 -27.051800
vt 2.356390 -27.089100
vt 2.043150 -27.091999
vt 2.342240 -27.180099
vt 2.043150 -27.180099
vt 2.331620 -27.278099
vt 1.744070 -27.180099
vt 1.729920 -27.089100
vt 1.668000 -27.020700
vt 1.754690 -27.278099
vt 2.043150 -27.278099
vt 1.768640 -27.372000
vt 2.317670 -27.372000
vt 2.043150 -27.372000
vt 1.785650 -27.454800
vt 2.300660 -27.454800
vt 2.043150 -27.454800
vt 1.804340 -27.530701
vt 2.043150 -27.530701
vt 2.281970 -27.530701
vt 2.043150 -26.825899
vt 1.731820 -26.825800
vt 1.733300 -26.888300
vt 1.736230 -26.767599
vt 1.739220 -26.957800
vt 2.043150 -26.889299
vt 2.043150 -26.767599
vt 1.747840 -26.709499
vt 2.043150 -26.709499
vt 1.764500 -26.655899
vt 2.350080 -26.767599
vt 2.338470 -26.709499
vt 2.354490 -26.825800
vt 2.321810 -26.655899
vt 2.043150 -26.655899
vt 2.353010 -26.888300
vt 2.347090 -26.957800
vt 2.302440 -26.611099
vt 2.279900 -26.572001
vt 2.043150 -26.611099
vt 2.043150 -26.572001
vt 1.783870 -26.611099
vt 1.806410 -26.572001
vt 1.751050 -27.022600
vt 2.043150 -26.960501
vt 2.043150 -27.024500
vt 1.771410 -27.071600
vt 2.335260 -27.022600
vt 2.314900 -27.071600
vt 2.043150 -27.067699
vt 2.281970 -27.109699
vt 2.043150 -27.098900
vt 2.232210 -27.144199
vt 1.804340 -27.109699
vt 1.854100 -27.144199
vt 1.612820 -27.390100
vt 1.718510 -27.332001
vt 1.595430 -27.336599
vt 1.712430 -27.289200
vt 1.596600 -27.286400
vt 1.702670 -27.237600
vt 1.789020 -27.238199
vt 1.765890 -27.200500
vt 1.608840 -27.233200
vt 1.513940 -27.224600
vt 1.542680 -27.180901
vt 1.624470 -27.189800
vt 1.589830 -27.147499
vt 1.532140 -27.117701
vt 1.571650 -27.109800
vt 1.618790 -27.088900
vt 1.653260 -27.127001
vt 1.683900 -27.181999
vt 1.712850 -27.123400
vt 1.732240 -27.168400
vt 34.242298 -14.901600
vt 34.000000 -15.000000
vt 34.252602 -15.000000
vt 34.000000 -14.901600
vt 34.238701 -15.098400
vt 34.000000 -15.098400
vt 33.757702 -14.901600
vt 33.761299 -15.098400
vt 33.747398 -15.000000
vt 34.366199 -15.000000
vt 34.000000 -14.666800
vt 34.000000 -15.333200
vt 34.266399 -14.757700
vt 34.266399 -15.242300
vt 33.633801 -15.000000
vt 33.733601 -15.242300
vt 33.733601 -14.757700
vt 34.266399 -14.901600
vt 34.277599 -15.000000
vt 34.262299 -15.098400
vt 33.733601 -14.901600
vt 33.737701 -15.098400
vt 33.722401 -15.000000
vt 33.639301 -15.000000
vt 34.000000 -14.671900
vt 33.737701 -14.761300
vt 34.000000 -15.328100
vt 33.737701 -15.238700
vt 34.360699 -15.000000
vt 34.262299 -14.761300
vt 34.262299 -15.238700
s 1
usemtl Meshpart1Mtl.001
f 1/1/1 2/2/2 4/3/3
f 6/4/4 4/3/3 2/2/2
f 4/3/3 6/4/4 5/5/5
f 7/6/6 5/5/5 6/4/4
f 8/7/7 3/8/8 5/5/5
f 5/5/5 7/6/6 8/7/7
f 3/8/8 8/7/7 9/9/9
s 2
f 15/10/10 13/11/11 12/12/12
f 14/13/13 15/10/10 12/12/12
f 16/14/14 11/15/15 13/11/11
f 16/14/14 13/11/11 15/10/10
f 11/15/15 16/14/14 17/16/16
f 17/16/16 10/17/17 11/15/15
f 18/18/18 16/14/14 15/10/10
f 19/19/19 17/16/16 16/14/14
f 19/19/19 16/14/14 18/18/18
f 15/10/10 14/13/13 20/20/20
f 20/20/20 18/18/18 15/10/10
f 21/21/21 20/20/20 14/13/13
f 23/22/22 19/19/19 18/18/18
f 20/20/20 21/21/21 24/23/23
f 24/23/23 22/24/24 20/20/20
f 25/25/25 24/23/23 21/21/21
f 26/26/26 27/27/27 25/25/25
f 24/23/23 25/25/25 27/27/27
f 27/27/27 26/26/26 29/28/28
f 28/29/29 29/28/28 26/26/26
f 27/27/27 30/30/30 24/23/23
f 29/28/28 31/31/31 27/27/27
f 30/30/30 27/27/27 31/31/31
f 22/24/24 24/23/23 30/30/30
f 31/31/31 29/28/28 32/32/32
f 33/33/33 32/32/32 29/28/28
f 29/28/28 28/29/29 33/33/33
f 32/32/32 33/33/33 34/34/34
f 34/34/34 33/33/33 35/35/35
f 35/35/35 37/36/36 36/37/37
f 35/35/35 33/33/33 37/36/36
f 36/37/37 37/36/36 38/38/38
f 37/36/36 39/39/39 38/38/38
f 39/39/39 37/36/36 40/40/40
f 33/33/33 40/40/40 37/36/36
f 40/40/40 33/33/33 28/29/29
f 44/41/41 41/42/42 10/17/17
f 10/17/17 17/16/16 44/41/41
f 41/42/42 45/43/43 42/44/44
f 45/43/43 41/42/42 44/41/41
f 42/44/44 46/45/45 43/46/46
f 46/45/45 42/44/44 45/43/43
f 47/47/47 44/41/41 17/16/16
f 17/16/16 19/19/19 47/47/47
f 48/48/48 45/43/43 44/41/41
f 44/41/41 47/47/47 48/48/48
f 49/49/49 46/45/45 45/43/43
f 45/43/43 48/48/48 49/49/49
f 50/50/50 47/47/47 19/19/19
f 50/50/50 19/19/19 23/22/22
f 47/47/47 51/51/51 48/48/48
f 47/47/47 50/50/50 52/52/52
f 51/51/51 47/47/47 52/52/52
f 48/48/48 53/53/53 49/49/49
f 53/53/53 48/48/48 51/51/51
f 54/54/54 49/49/49 53/53/53
f 55/55/55 50/50/50 23/22/22
f 56/56/56 52/52/52 50/50/50
f 56/56/56 50/50/50 55/55/55
f 52/52/52 56/56/56 57/57/57
f 52/52/52 58/58/58 51/51/51
f 58/58/58 52/52/52 57/57/57
f 59/59/59 51/51/51 58/58/58
f 51/51/51 59/59/59 53/53/53
f 60/60/60 53/53/53 59/59/59
f 53/53/53 60/60/60 54/54/54
f 61/61/61 54/54/54 60/60/60
f 54/54/54 61/61/61 62/62/62
f 62/62/62 63/63/63 54/54/54
f 49/49/49 54/54/54 63/63/63
f 63/63/63 46/45/45 49/49/49
f 46/45/45 63/63/63 64/64/64
f 64/64/64 43/46/46 46/45/45
f 63/63/63 62/62/62 65/65/65
f 65/65/65 64/64/64 63/63/63
f 66/66/66 65/65/65 62/62/62
f 64/64/64 65/65/65 67/67/67
f 65/65/65 66/66/66 68/68/68
f 68/68/68 67/67/67 65/65/65
f 23/22/22 22/24/69 69/69/70
f 71/70/71 23/22/22 69/69/70
f 55/55/55 23/22/22 71/70/71
f 71/70/71 69/69/70 72/71/72
f 73/72/73 72/71/72 74/73/74
f 72/71/72 69/69/70 74/73/74
f 69/69/70 70/74/75 74/73/74
f 75/75/76 74/73/74 70/74/75
f 74/73/74 75/75/76 73/72/73
s 1
f 77/76/77 7/6/6 76/77/78
f 78/78/79 8/7/7 7/6/6
f 7/6/6 77/76/77 78/78/79
f 8/7/7 78/78/79 79/79/80
f 79/79/80 9/9/9 8/7/7
f 9/9/9 79/79/80 80/80/81
f 80/80/81 79/79/80 81/81/82
f 82/82/83 78/78/79 77/76/77
f 78/78/79 82/82/83 83/83/84
f 83/83/84 79/79/80 78/78/79
f 79/79/80 83/83/84 84/84/85
f 79/79/80 84/84/85 81/81/82
f 85/85/86 84/84/85 83/83/84
f 84/84/85 85/85/86 86/86/87
s 3
f 91/87/88 90/88/89 89/89/90
f 90/88/89 91/87/88 92/90/91
f 93/91/92 92/90/91 91/87/88
f 92/90/91 93/91/92 94/92/93
f 94/92/93 95/93/94 92/90/91
f 94/92/93 87/94/95 88/95/96
f 95/93/94 94/92/93 96/96/97
f 88/95/96 96/96/97 94/92/93
f 98/97/98 95/93/94 96/96/97
f 95/93/94 98/97/98 97/98/99
f 100/99/100 96/96/97 88/95/96
s 4
f 102/100/101 103/101/102 104/102/103
f 105/103/104 102/100/101 104/102/103
f 106/104/105 107/105/106 108/106/107
f 109/107/108 107/105/106 106/104/105
f 110/108/109 109/107/108 106/104/105
f 106/104/105 108/106/107 111/109/110
f 106/104/105 112/110/111 110/108/109
f 112/110/111 106/104/105 111/109/110
f 111/109/110 108/106/107 113/111/112
f 108/106/107 114/112/113 113/111/112
f 115/113/114 111/109/110 113/111/112
f 115/113/114 112/110/111 111/109/110
f 116/114/115 113/111/112 114/112/113
f 114/112/113 105/103/104 116/114/115
f 115/113/114 113/111/112 117/115/116
f 113/111/112 116/114/115 117/115/116
f 118/116/117 116/114/115 105/103/104
f 104/102/103 118/116/117 105/103/104
f 119/117/118 117/115/116 116/114/115
f 116/114/115 118/116/117 119/117/118
f 118/116/117 104/102/103 120/118/119
f 118/116/117 121/119/120 119/117/118
f 121/119/120 118/116/117 120/118/119
f 104/102/103 122/120/121 120/118/119
f 122/120/121 121/119/120 120/118/119
f 122/120/121 104/102/103 103/101/102
f 117/115/116 119/117/118 123/121/122
f 121/119/120 123/121/122 119/117/118
f 124/122/123 117/115/116 123/121/122
f 124/122/123 115/113/114 117/115/116
f 123/121/122 121/119/120 125/123/124
f 124/122/123 126/124/125 115/113/114
f 112/110/111 115/113/114 126/124/125
f 123/121/122 127/125/126 124/122/123
f 127/125/126 123/121/122 125/123/124
f 126/124/125 124/122/123 128/126/127
f 127/125/126 128/126/127 124/122/123
f 121/119/120 129/127/128 125/123/124
f 129/127/128 127/125/126 125/123/124
f 129/127/128 121/119/120 130/128/129
f 121/119/120 122/120/121 130/128/129
f 128/126/127 127/125/126 131/129/130
f 128/126/127 132/130/131 126/124/125
f 132/130/131 128/126/127 131/129/130
f 127/125/126 133/131/132 131/129/130
f 132/130/131 131/129/130 133/131/132
f 127/125/126 129/127/128 134/132/133
f 133/131/132 127/125/126 134/132/133
f 135/133/134 132/130/131 133/131/132
f 134/132/133 135/133/134 133/131/132
f 136/134/135 126/124/125 132/130/131
f 136/134/135 132/130/131 135/133/134
f 126/124/125 136/134/135 112/110/111
f 137/135/136 134/132/133 129/127/128
f 130/128/129 137/135/136 129/127/128
f 135/133/134 134/132/133 138/136/137
f 134/132/133 137/135/136 138/136/137
f 139/137/138 136/134/135 135/133/134
f 138/136/137 139/137/138 135/133/134
f 140/138/139 112/110/111 136/134/135
f 136/134/135 139/137/138 140/138/139
f 112/110/111 140/138/139 110/108/109
f 141/139/140 110/108/109 140/138/139
f 140/138/139 142/140/141 141/139/140
f 142/140/141 140/138/139 139/137/138
f 139/137/138 143/141/142 142/140/141
f 143/141/142 139/137/138 144/142/143
f 139/137/138 138/136/137 144/142/143
f 144/142/143 145/143/144 143/141/142
f 138/136/137 146/144/145 144/142/143
f 145/143/144 144/142/143 146/144/145
f 146/144/145 138/136/137 137/135/136
f 147/145/146 145/143/144 146/144/145
f 148/146/147 146/144/145 137/135/136
f 147/145/146 146/144/145 148/146/147
f 137/135/136 130/128/129 148/146/147
f 147/145/146 148/146/147 103/101/102
f 148/146/147 130/128/129 122/120/121
f 103/101/102 148/146/147 122/120/121
s 5
f 151/147/148 149/148/149 150/149/150
f 150/149/150 152/150/151 151/147/148
s 4
f 158/151/152 157/152/153 153/153/154
f 157/152/153 158/151/152 159/154/155
f 156/155/156 160/156/157 155/157/158
f 160/156/157 156/155/156 109/107/108
f 109/107/108 110/108/109 160/156/157
f 110/108/109 141/139/140 160/156/157
f 162/158/159 163/159/160 161/160/61
f 163/159/160 162/158/159 165/161/161
f 142/140/141 165/161/161 162/158/159
f 162/158/159 141/139/140 142/140/141
f 154/162/162 164/163/64 166/164/163
f 167/165/164 166/164/163 164/163/64
f 143/141/142 168/166/165 165/161/161
f 165/161/161 142/140/141 143/141/142
f 166/164/163 167/165/164 170/167/166
f 170/167/166 169/168/167 166/164/163
f 167/165/164 168/166/165 171/169/168
f 171/169/168 170/167/166 167/165/164
f 171/169/168 168/166/165 145/143/144
f 168/166/165 143/141/142 145/143/144
f 169/168/167 172/170/169 158/151/152
f 172/170/169 159/154/155 158/151/152
f 169/168/167 170/167/166 173/171/170
f 172/170/169 169/168/167 173/171/170
f 170/167/166 171/169/168 174/172/171
f 174/172/171 173/171/170 170/167/166
f 147/145/146 174/172/171 171/169/168
f 171/169/168 145/143/144 147/145/146
f 159/154/155 172/170/169 175/173/172
f 175/173/172 107/105/106 159/154/155
f 173/171/170 176/174/173 172/170/169
f 176/174/173 175/173/172 172/170/169
f 173/171/170 174/172/171 102/100/101
f 176/174/173 173/171/170 102/100/101
f 103/101/102 102/100/101 174/172/171
f 174/172/171 147/145/146 103/101/102
f 102/100/101 105/103/104 176/174/173
f 175/173/172 176/174/173 114/112/113
f 105/103/104 114/112/113 176/174/173
f 114/112/113 108/106/107 175/173/172
f 107/105/106 175/173/172 108/106/107
s 6
f 101/175/174 178/176/175 177/177/176
f 178/176/175 99/178/177 177/177/176
f 178/176/175 101/175/174 179/179/81
f 180/180/178 178/176/175 179/179/81
f 99/178/177 178/176/175 181/181/179
f 182/182/180 181/181/179 178/176/175
f 178/176/175 180/180/178 182/182/180
f 181/181/179 182/182/180 183/183/181
f 186/184/182 180/180/178 185/185/183
f 186/184/182 182/182/180 180/180/178
f 186/184/182 185/185/183 187/186/184
f 189/187/185 186/184/182 187/186/184
f 182/182/180 186/184/182 190/188/186
f 190/188/186 183/183/181 182/182/180
f 186/184/182 189/187/185 191/189/187
f 191/189/187 190/188/186 186/184/182
f 183/183/181 190/188/186 184/190/188
f 191/189/187 188/191/189 192/192/190
f 190/188/186 191/189/187 193/193/191
f 193/193/191 184/190/188 190/188/186
f 192/192/190 193/193/191 191/189/187
f 184/190/188 193/193/191 194/194/192
f 193/193/191 192/192/190 194/194/192
s 7
f 195/195/193 196/196/95 197/197/194
f 196/196/95 195/195/193 198/198/195
s 8
f 196/196/196 200/199/93 199/200/92
s 7
f 201/201/197 204/202/198 202/203/98
f 204/202/198 201/201/197 203/204/100
f 198/198/195 205/205/3 203/204/100
f 205/205/3 198/198/195 195/195/193
f 206/206/199 203/204/100 205/205/3
f 203/204/100 206/206/199 204/202/198
f 207/207/174 202/203/98 204/202/198
s 9
f 212/208/200 208/209/201 210/210/202
f 211/211/203 212/208/200 210/210/202
f 213/212/204 209/213/205 208/209/201
f 208/209/201 212/208/200 213/212/204
f 209/213/205 213/212/204 215/214/206
f 209/213/205 215/214/206 214/215/207
f 213/212/204 216/216/208 215/214/206
f 212/208/200 218/217/209 213/212/204
f 213/212/204 218/217/209 216/216/208
f 212/208/200 211/211/203 219/218/210
f 217/219/211 219/218/210 211/211/203
f 219/218/210 217/219/211 220/220/212
f 221/221/213 212/208/200 219/218/210
f 212/208/200 221/221/213 222/222/214
f 212/208/200 222/222/214 218/217/209
f 219/218/210 223/223/13 221/221/213
f 223/223/13 219/218/210 220/220/212
f 220/220/212 224/224/21 223/223/13
f 224/224/21 220/220/212 225/225/215
f 225/225/215 226/226/25 224/224/21
f 220/220/212 227/227/216 225/225/215
f 227/227/216 220/220/212 217/219/211
f 228/228/217 225/225/215 227/227/216
f 225/225/215 228/228/217 229/229/218
f 226/226/25 225/225/215 229/229/218
f 230/230/219 229/229/218 228/228/217
f 232/231/220 233/232/221 230/230/219
f 229/229/218 230/230/219 233/232/221
f 234/233/222 229/229/218 233/232/221
f 229/229/218 234/233/222 226/226/25
f 233/232/221 232/231/220 235/234/223
f 233/232/221 236/235/29 234/233/222
f 236/235/29 233/232/221 235/234/223
f 237/236/224 235/234/223 232/231/220
f 239/237/225 240/238/226 237/236/224
f 240/238/226 239/237/225 241/239/227
f 238/240/228 240/238/226 241/239/227
f 235/234/223 237/236/224 240/238/226
f 240/238/226 238/240/228 242/241/229
f 242/241/229 235/234/223 240/238/226
f 235/234/223 242/241/229 236/235/29
f 214/215/207 244/242/230 243/243/231
f 244/242/230 214/215/207 215/214/206
f 245/244/232 243/243/231 244/242/230
f 243/243/231 245/244/232 246/245/233
f 215/214/206 247/246/234 244/242/230
f 247/246/234 215/214/206 216/216/208
f 244/242/230 248/247/235 245/244/232
f 248/247/235 244/242/230 247/246/234
f 249/248/236 246/245/233 245/244/232
f 250/249/46 245/244/232 248/247/235
f 245/244/232 250/249/46 249/248/236
f 246/245/233 249/248/236 251/250/237
f 252/251/238 249/248/236 250/249/46
f 249/248/236 252/251/238 253/252/167
f 253/252/167 251/250/237 249/248/236
s 10
f 231/253/239 255/254/240 256/255/241
f 254/256/242 231/253/239 256/255/241
f 257/257/243 256/255/241 255/254/240
f 256/255/241 258/258/244 254/256/242
f 258/258/244 256/255/241 259/259/245
f 256/255/241 257/257/243 259/259/245
f 259/259/245 260/260/246 258/258/244
f 261/261/247 259/259/245 257/257/243
f 260/260/246 259/259/245 262/262/248
f 259/259/245 261/261/247 262/262/248
s 7
f 202/203/98 207/207/174 263/263/249
s 11
f 264/264/89 265/265/250 267/266/94
f 267/266/94 266/267/251 264/264/89
f 269/268/252 268/269/253 266/267/251
f 267/266/94 269/268/252 266/267/251
f 269/268/252 270/270/254 268/269/253
f 271/271/255 269/268/252 267/266/94
f 273/272/256 270/270/254 269/268/252
f 271/271/255 273/272/256 269/268/252
f 274/273/257 273/272/256 271/271/255
f 271/271/255 272/274/98 274/273/257
f 273/272/256 275/275/258 270/270/254
s 12
f 278/276/259 279/277/260 280/278/261
f 280/278/261 281/279/262 278/276/259
f 279/277/260 278/276/259 282/280/263
f 283/281/264 281/279/262 280/278/261
f 284/282/265 278/276/259 281/279/262
f 280/278/261 285/283/266 283/281/264
f 278/276/259 284/282/265 286/284/205
f 286/284/205 282/280/263 278/276/259
f 281/279/262 287/285/267 284/282/265
f 281/279/262 283/281/264 288/286/268
f 288/286/268 287/285/267 281/279/262
f 287/285/267 288/286/268 289/287/269
f 290/288/270 282/280/263 286/284/205
f 288/286/268 291/289/271 289/287/269
f 292/290/272 291/289/271 288/286/268
f 283/281/264 292/290/272 288/286/268
f 292/290/272 294/291/273 291/289/271
f 295/292/274 294/291/273 292/290/272
f 295/292/274 296/293/217 294/291/273
f 292/290/272 293/294/275 295/292/274
f 297/295/276 296/293/217 295/292/274
f 297/295/276 298/296/277 296/293/217
f 295/292/274 299/297/278 297/295/276
f 295/292/274 293/294/275 299/297/278
f 300/298/279 298/296/277 297/295/276
f 301/299/280 297/295/276 299/297/278
f 301/299/280 300/298/279 297/295/276
f 302/300/281 300/298/279 301/299/280
f 302/300/281 303/301/282 300/298/279
f 300/298/279 304/302/283 298/296/277
f 303/301/282 304/302/283 300/298/279
f 303/301/282 305/303/284 304/302/283
f 303/301/282 302/300/281 306/304/285
f 307/305/286 303/301/282 306/304/285
f 308/306/287 309/307/288 307/305/286
f 303/301/282 307/305/286 309/307/288
f 309/307/288 308/306/287 310/308/289
f 305/303/284 303/301/282 309/307/288
f 311/309/225 309/307/288 310/308/289
f 309/307/288 311/309/225 305/303/284
f 282/280/263 312/310/290 279/277/260
f 313/311/291 312/310/290 282/280/263
f 282/280/263 290/288/270 313/311/291
f 314/312/292 279/277/260 312/310/290
f 315/313/293 313/311/291 290/288/270
f 312/310/290 313/311/291 316/314/294
f 313/311/291 315/313/293 317/315/295
f 317/315/295 316/314/294 313/311/291
f 318/316/296 317/315/295 315/313/293
f 324/317/297 319/318/298 321/319/299
f 324/317/297 321/319/299 323/320/300
f 319/318/298 324/317/297 314/312/292
f 319/318/298 314/312/292 320/321/301
f 279/277/260 314/312/292 324/317/297
f 320/321/301 314/312/292 325/322/302
f 320/321/301 325/322/302 322/323/303
f 314/312/292 312/310/290 325/322/302
f 325/322/302 312/310/290 316/314/294
f 279/277/260 324/317/297 326/324/304
f 323/320/300 326/324/304 324/317/297
f 326/324/304 280/278/261 279/277/260
f 285/283/266 280/278/261 326/324/304
f 327/325/305 326/324/304 323/320/300
f 326/324/304 327/325/305 285/283/266
f 325/322/302 316/314/294 328/326/306
f 322/323/303 325/322/302 328/326/306
f 328/326/306 316/314/294 329/327/307
f 316/314/294 317/315/295 329/327/307
f 322/323/303 328/326/306 330/328/308
f 328/326/306 329/327/307 331/329/309
f 330/328/308 328/326/306 331/329/309
f 332/330/153 329/327/307 317/315/295
f 317/315/295 318/316/296 332/330/153
f 331/329/309 329/327/307 333/331/310
f 329/327/307 332/330/153 333/331/310
f 334/332/311 333/331/310 332/330/153
f 331/329/309 333/331/310 277/333/312
f 277/333/312 333/331/310 276/334/313
f 333/331/310 334/332/311 276/334/313
f 335/335/314 285/283/266 327/325/305
f 285/283/266 335/335/314 337/336/315
f 336/337/316 337/336/315 335/335/314
f 293/294/275 285/283/266 337/336/315
f 339/338/317 338/339/240 337/336/315
f 337/336/315 336/337/316 339/338/317
f 338/339/240 339/338/317 340/340/243
f 336/337/316 341/341/318 339/338/317
f 341/341/318 340/340/243 339/338/317
s 11
f 342/342/176 274/273/257 272/274/98
f 344/343/319 274/273/257 343/344/320
f 274/273/257 344/343/319 273/272/256
f 344/343/319 275/275/258 273/272/256
f 345/345/321 344/343/319 343/344/320
f 275/275/258 344/343/319 346/346/322
f 344/343/319 345/345/321 347/347/323
f 347/347/323 346/346/322 344/343/319
f 348/348/324 347/347/323 345/345/321
f 347/347/323 348/348/324 349/349/325
f 351/350/326 348/348/324 350/351/327
f 349/349/325 348/348/324 351/350/326
s 13
f 353/352/194 354/353/328 352/354/193
f 355/355/329 354/353/328 353/352/194
f 355/355/329 356/356/330 354/353/328
f 357/357/331 356/356/330 355/355/329
f 354/353/328 358/358/332 352/354/193
f 357/357/331 359/359/333 356/356/330
f 360/360/334 356/356/330 359/359/333
f 356/356/330 361/361/335 354/353/328
f 356/356/330 360/360/334 361/361/335
f 354/353/328 361/361/335 358/358/332
f 362/362/336 361/361/335 360/360/334
f 361/361/335 362/362/336 363/363/337
f 363/363/337 358/358/332 361/361/335
f 358/358/332 363/363/337 364/364/338
f 365/365/6 364/364/338 363/363/337
s 14
f 369/366/275 368/367/339 366/368/340
f 367/369/341 369/366/275 366/368/340
s 15
f 370/370/342 371/371/343 372/372/344
f 372/372/344 373/373/345 370/370/342
s 16
f 376/374/75 375/375/70 372/372/346
f 374/376/347 376/374/75 372/372/346
s 17
f 369/366/348 379/377/315 380/378/240
f 380/378/240 374/376/349 369/366/348
s 18
f 382/379/350 378/380/351 383/381/352
f 383/381/352 384/382/353 382/379/350
f 384/382/353 381/383/354 382/379/350
f 384/382/353 383/381/352 386/384/355
f 377/385/72 388/386/356 387/387/357
f 390/388/358 387/387/357 388/386/356
f 388/386/356 389/389/244 390/388/358
f 391/390/359 390/388/358 389/389/244
f 387/387/357 390/388/358 392/391/360
f 390/388/358 391/390/359 393/392/361
f 393/392/361 392/391/360 390/388/358
f 381/383/354 384/382/353 394/393/362
f 391/390/359 396/394/363 393/392/361
f 391/390/359 395/395/364 396/394/363
f 396/394/363 395/395/364 397/396/365
f 396/394/363 398/397/366 393/392/361
f 398/397/366 396/394/363 397/396/365
f 395/395/364 399/398/367 397/396/365
f 399/398/367 395/395/364 394/393/362
f 399/398/367 398/397/366 397/396/365
f 394/393/362 400/399/368 399/398/367
f 400/399/368 394/393/362 384/382/353
f 398/397/366 399/398/367 400/399/368
f 386/384/355 400/399/368 384/382/353
f 398/397/366 401/400/369 393/392/361
f 392/391/360 393/392/361 401/400/369
f 401/400/369 398/397/366 402/401/370
f 401/400/369 403/402/371 392/391/360
f 403/402/371 401/400/369 402/401/370
f 385/403/372 392/391/360 403/402/371
f 403/402/371 386/384/355 385/403/372
f 404/404/373 398/397/366 400/399/368
f 398/397/366 404/404/373 402/401/370
f 400/399/368 386/384/355 404/404/373
f 402/401/370 404/404/373 403/402/371
f 386/384/355 403/402/371 404/404/373
s 13
f 365/365/6 363/363/337 405/405/374
s 19
f 407/406/375 406/407/376 408/408/375
f 407/406/375 408/408/375 409/409/377
f 410/410/378 407/406/375 409/409/377
f 410/410/378 411/411/334 407/406/375
f 411/411/334 410/410/378 412/412/379
f 411/411/334 412/412/379 413/413/253
s 20
f 415/414/380 414/415/337 413/413/336
s 21
f 418/416/275 422/417/347 420/418/381
s 22
f 420/418/278 423/419/148 421/420/382
f 424/421/383 421/420/382 423/419/148
f 421/420/382 424/421/383 425/422/384
f 427/423/31 423/419/148 426/424/151
f 423/419/148 427/423/31 424/421/383
s 23
f 426/424/30 422/417/347 419/425/344
s 22
f 428/426/385 424/421/383 427/423/31
f 424/421/383 428/426/385 429/427/386
f 429/427/386 425/422/384 424/421/383
f 430/428/387 429/427/386 428/426/385
f 425/422/384 429/427/386 431/429/285
f 429/427/386 430/428/387 432/430/388
f 432/430/388 431/429/285 429/427/386
f 433/431/389 432/430/388 430/428/387
f 431/429/285 432/430/388 434/432/286
f 432/430/388 433/431/389 435/433/390
f 435/433/390 434/432/286 432/430/388
f 436/434/37 435/433/390 433/431/389
f 435/433/390 436/434/37 437/435/391
f 437/435/391 438/436/392 435/433/390
f 434/432/286 435/433/390 438/436/392
s 24
f 443/437/393 441/438/57 440/439/394
f 443/437/393 442/440/395 441/438/57
f 439/441/396 444/442/397 440/439/394
f 443/437/393 440/439/394 444/442/397
f 446/443/398 445/444/399 442/440/395
f 442/440/395 443/437/393 446/443/398
f 445/444/399 446/443/398 448/445/400
f 448/445/400 447/446/401 445/444/399
f 449/447/298 446/443/398 443/437/393
f 446/443/398 450/448/402 448/445/400
f 450/448/402 446/443/398 449/447/298
f 449/447/298 443/437/393 451/449/403
f 452/450/404 448/445/400 450/448/402
f 447/446/401 448/445/400 453/451/405
f 448/445/400 452/450/404 453/451/405
f 443/437/393 454/452/406 451/449/403
f 454/452/406 443/437/393 444/442/397
f 454/452/406 444/442/397 455/453/407
f 456/454/408 453/451/405 452/450/404
f 457/455/409 458/456/410 456/454/408
f 453/451/405 456/454/408 458/456/410
f 458/456/410 457/455/409 417/457/411
f 459/458/412 453/451/405 458/456/410
f 453/451/405 459/458/412 447/446/401
f 458/456/410 460/459/413 459/458/412
f 460/459/413 458/456/410 417/457/411
f 461/460/71 463/461/414 439/441/396
f 444/442/397 439/441/396 463/461/414
f 463/461/414 455/453/407 444/442/397
f 463/461/414 461/460/71 464/462/415
f 462/463/416 464/462/415 461/460/71
f 455/453/407 463/461/414 465/464/417
f 464/462/415 465/464/417 463/461/414
f 465/464/417 464/462/415 466/465/418
f 467/466/419 466/465/418 464/462/415
f 466/465/418 467/466/419 468/467/420
f 464/462/415 462/463/416 467/466/419
f 469/468/372 468/467/420 467/466/419
f 468/467/420 469/468/372 470/469/421
f 471/470/422 467/466/419 462/463/416
f 467/466/419 471/470/422 469/468/372
f 472/471/423 469/468/372 471/470/422
s 20
f 414/415/337 415/414/380 473/472/78
f 416/473/424 473/472/78 415/414/380
f 473/472/78 416/473/424 474/474/425
f 475/475/322 474/474/425 416/473/424
f 474/474/425 475/475/322 477/476/83
f 478/477/426 475/475/322 476/478/323
f 478/477/426 477/476/83 475/475/322
f 478/477/426 476/478/323 479/479/427
f 481/480/428 480/481/429 477/476/83
f 477/476/83 478/477/426 481/480/428
f 480/481/429 481/480/428 482/482/430
f 478/477/426 483/483/431 481/480/428
f 483/483/431 482/482/430 481/480/428
f 482/482/430 483/483/431 485/484/189
f 485/484/189 484/485/87 482/482/430
f 484/485/87 485/484/189 486/486/432
f 485/484/189 487/487/187 486/486/432
f 483/483/431 488/488/190 485/484/189
f 488/488/190 483/483/431 490/489/433
f 490/489/433 489/490/434 488/488/190
f 483/483/431 478/477/426 490/489/433
f 489/490/434 490/489/433 491/491/435
f 478/477/426 491/491/435 490/489/433
f 491/491/435 478/477/426 479/479/427
s 25
usemtl Meshpart2Mtl.001
f 493/492/436 494/493/437 492/494/438
f 494/493/437 493/492/436 495/495/439
f 492/494/438 494/493/437 496/496/440
f 496/496/440 494/493/437 497/497/441
f 495/495/439 498/498/442 494/493/437
f 494/493/437 499/499/443 497/497/441
f 494/493/437 498/498/442 500/500/444
f 499/499/443 494/493/437 500/500/444
s 26
f 501/501/445 502/502/446 503/503/446
f 502/502/446 501/501/445 504/504/447
f 501/501/445 503/503/446 505/505/447
f 502/502/446 506/506/446 503/503/446
f 503/503/446 506/506/446 507/507/445
f 506/506/446 502/502/446 508/508/446
s 27
f 509/509/442 512/493/210 511/510/448
f 512/493/210 510/511/449 511/510/448
f 512/493/210 509/509/442 513/495/450
f 510/511/449 512/493/210 514/497/451
f 515/512/452 512/493/210 513/495/450
f 512/493/210 516/513/453 514/497/451
f 512/493/210 515/512/452 517/514/454
f 516/513/453 512/493/210 517/514/454
s 28
f 521/492/452 524/493/455 523/494/454
f 524/493/455 522/496/456 523/494/454
f 524/493/455 521/492/452 525/495/457
f 518/498/458 524/493/455 525/495/457
f 520/500/459 524/493/455 518/498/458
f 519/499/460 524/493/455 520/500/459
f 522/496/456 524/493/455 526/497/461
f 524/493/455 519/499/460 526/497/461
s 29
f 527/515/462 528/516/463 529/517/464
f 528/516/463 527/515/462 530/518/462
f 530/518/462 527/515/462 531/519/464
f 532/520/462 528/516/463 530/518/462
f 528/516/463 532/520/462 533/521/462
f 532/520/462 530/518/462 534/522/462
s 30
f 535/514/465 536/493/466 537/512/436
f 538/495/467 537/512/436 536/493/466
f 536/493/466 539/509/468 538/495/467
f 540/513/440 536/493/466 535/514/465
f 536/493/466 540/513/440 541/497/469
f 541/497/469 542/511/470 536/493/466
f 543/510/471 536/493/466 542/511/470
f 539/509/468 536/493/466 543/510/471
