# This file is brought to you by Roblox Corporation
# Generated by Roblox Studio

mtllib left arm pumpkin claws.mtl

g Meshpart1

v 1867.29 9.52386 2768.44 
v 1867.44 9.86566 2768.62 
v 1867.53 9.80508 2768.66 
v 1867.38 9.46328 2768.48 
v 1867.43 9.90251 2768.7 
v 1867.52 9.84193 2768.74 
v 1867.33 9.39874 2768.5 
v 1867.24 9.45932 2768.47 
v 1867.29 9.52386 2768.44 
v 1867.38 9.46328 2768.48 
v 1867.15 9.38854 2768.9 
v 1867.06 9.44912 2768.87 
v 1867.27 9.66198 2769.05 
v 1867.18 9.72255 2769.01 
v 1867.32 9.74859 2769.09 
v 1867.22 9.80917 2769.05 
v 1867.43 9.90251 2768.7 
v 1867.52 9.84193 2768.74 
v 1867.23 9.49431 2768.52 
v 1867.07 9.41963 2768.8 
v 1867.16 9.35906 2768.84 
v 1867.15 9.38854 2768.9 
v 1867.32 9.43373 2768.56 
v 1867.28 9.54594 2768.5 
v 1867.37 9.48536 2768.54 
v 1867.06 9.44912 2768.87 
v 1867.16 9.35906 2768.84 
v 1867.15 9.38854 2768.9 
v 1867.11 9.34226 2768.93 
v 1867.12 9.30541 2768.85 
v 1867.26 9.68405 2769.11 
v 1867.33 9.39874 2768.5 
v 1867.27 9.66198 2769.05 
v 1867.32 9.43373 2768.56 
v 1867.38 9.46328 2768.48 
v 1867.37 9.48536 2768.54 
v 1867.32 9.71361 2769.03 
v 1867.32 9.74859 2769.09 
v 1867.48 9.78828 2768.75 
v 1867.52 9.84193 2768.74 
v 1867.49 9.7588 2768.69 
v 1867.37 9.48536 2768.54 
v 1867.38 9.46328 2768.48 
v 1867.53 9.80508 2768.66 
v 1867.48 9.78828 2768.75 
v 1867.52 9.84193 2768.74 
v 1867.17 9.74463 2769.08 
v 1867.02 9.40283 2768.89 
v 1867.11 9.34226 2768.93 
v 1867.03 9.36598 2768.81 
v 1867.26 9.68405 2769.11 
v 1867.12 9.30541 2768.85 
v 1867.32 9.74859 2769.09 
v 1867.22 9.80917 2769.05 
v 1867.49 9.7588 2768.69 
v 1867.4 9.81937 2768.65 
v 1867.37 9.48536 2768.54 
v 1867.28 9.54594 2768.5 
v 1867.03 9.36598 2768.81 
v 1867.12 9.30541 2768.85 
v 1867.33 9.39874 2768.5 
v 1867.24 9.45932 2768.47 
v 1867.27 9.66198 2769.05 
v 1867.18 9.72255 2769.01 
v 1867.32 9.71361 2769.03 
v 1867.23 9.77418 2768.99 
v 1867.48 9.78828 2768.75 
v 1867.39 9.84886 2768.71 
v 1867.49 9.7588 2768.69 
v 1867.39 9.84886 2768.71 
v 1867.4 9.81937 2768.65 
v 1867.48 9.78828 2768.75 
v 1867.03 9.36598 2768.81 
v 1867.23 9.49431 2768.52 
v 1867.24 9.45932 2768.47 
v 1867.29 9.52386 2768.44 
v 1867.28 9.54594 2768.5 
v 1867.07 9.41963 2768.8 
v 1867.02 9.40283 2768.89 
v 1867.06 9.44912 2768.87 
v 1867.18 9.72255 2769.01 
v 1867.17 9.74463 2769.08 
v 1867.23 9.77418 2768.99 
v 1867.22 9.80917 2769.05 
v 1867.43 9.90251 2768.7 
v 1867.39 9.84886 2768.71 
v 1867.28 9.54594 2768.5 
v 1867.4 9.81937 2768.65 
v 1867.44 9.86566 2768.62 
v 1867.29 9.52386 2768.44 
v 1867.39 9.84886 2768.71 
v 1867.43 9.90251 2768.7 

vn 0.322835 -0.110236 -0.937008 
vn 0.606299 0.519685 -0.606299 
vn 0.606299 0.519685 -0.606299 
vn 0.322835 -0.110236 -0.937008 
vn 0.527559 0.84252 0.0866142 
vn 0.527559 0.84252 0.0866142 
vn -0.149606 -0.669291 -0.724409 
vn -0.149606 -0.669291 -0.724409 
vn 0.322835 -0.110236 -0.937008 
vn 0.322835 -0.110236 -0.937008 
vn 0.606299 0.519685 -0.606299 
vn 0.606299 0.519685 -0.606299 
vn 0.322835 -0.110236 -0.937008 
vn 0.322835 -0.110236 -0.937008 
vn 0.149606 0.669291 0.724409 
vn 0.149606 0.669291 0.724409 
vn 0.527559 0.84252 0.0866142 
vn 0.527559 0.84252 0.0866142 
vn 0.149606 0.669291 0.724409 
vn 0.527559 0.84252 0.0866142 
vn 0.527559 0.84252 0.0866142 
vn 0.606299 0.519685 -0.606299 
vn 0.149606 0.669291 0.724409 
vn -0.322835 0.110236 0.937008 
vn -0.322835 0.110236 0.937008 
vn 0.606299 0.519685 -0.606299 
vn 0.787402 -0.527559 0.330709 
vn 0.787402 -0.527559 0.330709 
vn 0.787402 -0.527559 0.330709 
vn 0.787402 -0.527559 0.330709 
vn 0.787402 -0.527559 0.330709 
vn 0.787402 -0.527559 0.330709 
vn 0.787402 -0.527559 0.330709 
vn 0.787402 -0.527559 0.330709 
vn 0.787402 -0.527559 0.330709 
vn 0.787402 -0.527559 0.330709 
vn 0.787402 -0.527559 0.330709 
vn 0.787402 -0.527559 0.330709 
vn 0.787402 -0.527559 0.330709 
vn 0.787402 -0.527559 0.330709 
vn 0.787402 -0.527559 0.330709 
vn 0.787402 -0.527559 0.330709 
vn 0.787402 -0.527559 0.330709 
vn 0.787402 -0.527559 0.330709 
vn 0.787402 -0.527559 0.330709 
vn 0.787402 -0.527559 0.330709 
vn -0.322835 0.110236 0.937008 
vn -0.598425 -0.519685 0.606299 
vn -0.598425 -0.519685 0.606299 
vn -0.527559 -0.84252 -0.0866142 
vn -0.322835 0.110236 0.937008 
vn -0.527559 -0.84252 -0.0866142 
vn 0.149606 0.669291 0.724409 
vn 0.149606 0.669291 0.724409 
vn -0.598425 -0.519685 0.606299 
vn -0.598425 -0.519685 0.606299 
vn -0.322835 0.110236 0.937008 
vn -0.322835 0.110236 0.937008 
vn -0.527559 -0.84252 -0.0866142 
vn -0.527559 -0.84252 -0.0866142 
vn -0.149606 -0.669291 -0.724409 
vn -0.149606 -0.669291 -0.724409 
vn 0.322835 -0.110236 -0.937008 
vn 0.322835 -0.110236 -0.937008 
vn -0.149606 -0.669291 -0.724409 
vn -0.149606 -0.669291 -0.724409 
vn -0.527559 -0.84252 -0.0866142 
vn -0.527559 -0.84252 -0.0866142 
vn -0.598425 -0.519685 0.606299 
vn -0.527559 -0.84252 -0.0866142 
vn -0.598425 -0.519685 0.606299 
vn -0.527559 -0.84252 -0.0866142 
vn -0.787402 0.527559 -0.330709 
vn -0.787402 0.527559 -0.330709 
vn -0.787402 0.527559 -0.330709 
vn -0.787402 0.527559 -0.330709 
vn -0.787402 0.527559 -0.330709 
vn -0.787402 0.527559 -0.330709 
vn -0.787402 0.527559 -0.330709 
vn -0.787402 0.527559 -0.330709 
vn -0.787402 0.527559 -0.330709 
vn -0.787402 0.527559 -0.330709 
vn -0.787402 0.527559 -0.330709 
vn -0.787402 0.527559 -0.330709 
vn -0.787402 0.527559 -0.330709 
vn -0.787402 0.527559 -0.330709 
vn -0.787402 0.527559 -0.330709 
vn -0.787402 0.527559 -0.330709 
vn -0.787402 0.527559 -0.330709 
vn -0.787402 0.527559 -0.330709 
vn -0.787402 0.527559 -0.330709 
vn -0.787402 0.527559 -0.330709 

vt 34.0576 -33.2082 
vt 34.0576 -32.7918 
vt 33.9424 -32.7918 
vt 33.9424 -33.2082 
vt 34.0576 -32.73 
vt 33.9424 -32.73 
vt 33.9424 -33.27 
vt 34.0576 -33.27 
vt 34.0576 -33.2082 
vt 33.9424 -33.2082 
vt 33.9424 -33.1666 
vt 34.0576 -33.1666 
vt 33.9424 -32.8334 
vt 34.0576 -32.8334 
vt 34.2082 -32.9424 
vt 34.2082 -33.0576 
vt 33.7918 -33.0576 
vt 33.7918 -32.9424 
vt 33.8334 -33.0576 
vt 34.1666 -33.0576 
vt 34.1666 -32.9424 
vt 34.216 -32.9424 
vt 33.8334 -32.9424 
vt 33.784 -33.0576 
vt 33.784 -32.9424 
vt 34.216 -33.0576 
vt 33.8334 -33.216 
vt 33.784 -33.1666 
vt 33.73 -33.2082 
vt 33.7918 -33.27 
vt 33.73 -32.7918 
vt 34.2082 -33.27 
vt 33.784 -32.8334 
vt 34.1666 -33.216 
vt 34.27 -33.2082 
vt 34.216 -33.1666 
vt 33.8334 -32.784 
vt 33.7918 -32.73 
vt 34.1666 -32.784 
vt 34.2082 -32.73 
vt 34.216 -32.8334 
vt 34.216 -33.1666 
vt 34.27 -33.2082 
vt 34.27 -32.7918 
vt 34.1666 -32.784 
vt 34.2082 -32.73 
vt 33.9424 -32.7918 
vt 33.9424 -33.2082 
vt 34.0576 -33.2082 
vt 33.9424 -33.27 
vt 34.0576 -32.7918 
vt 34.0576 -33.27 
vt 34.0576 -32.73 
vt 33.9424 -32.73 
vt 34.0576 -32.8334 
vt 33.9424 -32.8334 
vt 34.0576 -33.1666 
vt 33.9424 -33.1666 
vt 33.7918 -33.0576 
vt 33.7918 -32.9424 
vt 34.2082 -32.9424 
vt 34.2082 -33.0576 
vt 33.784 -32.9424 
vt 33.784 -33.0576 
vt 33.8334 -32.9424 
vt 33.8334 -33.0576 
vt 34.1666 -32.9424 
vt 34.1666 -33.0576 
vt 34.216 -32.9424 
vt 34.1666 -33.0576 
vt 34.216 -33.0576 
vt 34.1666 -32.9424 
vt 34.2082 -33.27 
vt 33.8334 -33.216 
vt 33.7918 -33.27 
vt 33.73 -33.2082 
vt 33.784 -33.1666 
vt 34.1666 -33.216 
vt 34.27 -33.2082 
vt 34.216 -33.1666 
vt 34.216 -32.8334 
vt 34.27 -32.7918 
vt 34.1666 -32.784 
vt 34.2082 -32.73 
vt 33.7918 -32.73 
vt 33.8334 -32.784 
vt 33.784 -33.1666 
vt 33.784 -32.8334 
vt 33.73 -32.7918 
vt 33.73 -33.2082 
vt 33.8334 -32.784 
vt 33.7918 -32.73 

usemtl Meshpart1Mtl

f 1/1/1 2/2/2 3/3/3 
f 1/1/1 3/3/3 4/4/4 
f 3/3/3 2/2/2 5/5/5 
f 5/5/5 6/6/6 3/3/3 
f 9/9/9 7/7/7 8/8/8 
f 7/7/7 9/9/9 10/10/10 
f 12/12/12 13/13/13 11/11/11 
f 13/13/13 12/12/12 14/14/14 
f 17/17/17 16/16/16 15/15/15 
f 17/17/17 15/15/15 18/18/18 
f 19/19/19 20/20/20 21/21/21 
f 20/20/20 22/22/22 21/21/21 
f 19/19/19 21/21/21 23/23/23 
f 19/19/19 23/23/23 24/24/24 
f 24/24/24 23/23/23 25/25/25 
f 26/26/26 22/22/22 20/20/20 
f 27/27/27 28/28/28 29/29/29 
f 29/29/29 30/30/30 27/27/27 
f 28/28/28 31/31/31 29/29/29 
f 32/32/32 27/27/27 30/30/30 
f 31/31/31 28/28/28 33/33/33 
f 27/27/27 32/32/32 34/34/34 
f 35/35/35 34/34/34 32/32/32 
f 34/34/34 35/35/35 36/36/36 
f 37/37/37 31/31/31 33/33/33 
f 31/31/31 37/37/37 38/38/38 
f 39/39/39 38/38/38 37/37/37 
f 38/38/38 39/39/39 40/40/40 
f 41/41/41 42/42/42 43/43/43 
f 43/43/43 44/44/44 41/41/41 
f 44/44/44 45/45/45 41/41/41 
f 45/45/45 44/44/44 46/46/46 
f 47/47/47 48/48/48 49/49/49 
f 49/49/49 48/48/48 50/50/50 
f 47/47/47 49/49/49 51/51/51 
f 50/50/50 52/52/52 49/49/49 
f 53/53/53 47/47/47 51/51/51 
f 47/47/47 53/53/53 54/54/54 
f 56/56/56 57/57/57 55/55/55 
f 57/57/57 56/56/56 58/58/58 
f 59/59/59 61/61/61 60/60/60 
f 59/59/59 62/62/62 61/61/61 
f 64/64/64 65/65/65 63/63/63 
f 66/66/66 65/65/65 64/64/64 
f 66/66/66 67/67/67 65/65/65 
f 66/66/66 68/68/68 67/67/67 
f 69/69/69 70/70/70 71/71/71 
f 70/70/70 69/69/69 72/72/72 
f 73/73/73 74/74/74 75/75/75 
f 74/74/74 76/76/76 75/75/75 
f 76/76/76 74/74/74 77/77/77 
f 74/74/74 73/73/73 78/78/78 
f 79/79/79 78/78/78 73/73/73 
f 78/78/78 79/79/79 80/80/80 
f 79/79/79 81/81/81 80/80/80 
f 81/81/81 79/79/79 82/82/82 
f 83/83/83 81/81/81 82/82/82 
f 82/82/82 84/84/84 83/83/83 
f 85/85/85 83/83/83 84/84/84 
f 83/83/83 85/85/85 86/86/86 
f 87/87/87 88/88/88 89/89/89 
f 89/89/89 90/90/90 87/87/87 
f 91/91/91 89/89/89 88/88/88 
f 89/89/89 91/91/91 92/92/92 

g Meshpart2

v 1867.46 9.71955 2768.35 
v 1867.32 9.67146 2768.44 
v 1867.37 9.7692 2768.38 
v 1867.4 9.60922 2768.41 
v 1867.51 9.69063 2768.4 
v 1867.45 9.59154 2768.46 
v 1867.56 9.51462 2768.45 
v 1867.64 9.62547 2768.39 
v 1867.68 9.60006 2768.46 
v 1867.6 9.5098 2768.51 
v 1867.73 9.56832 2768.54 
v 1867.66 9.49802 2768.58 
v 1867.76 9.54374 2768.67 
v 1867.32 10.0229 2768.57 
v 1867.53 9.86943 2768.95 
v 1867.46 9.90324 2768.93 
v 1867.48 9.9401 2768.92 
v 1867.56 9.9063 2768.93 
v 1867.6 9.87483 2768.95 
v 1867.58 9.83796 2768.96 
v 1867.68 9.6787 2768.55 
v 1867.37 9.95419 2768.61 
v 1867.4 10.0009 2768.59 
v 1867.42 9.99244 2768.64 
v 1867.39 9.9457 2768.66 
v 1867.44 9.92995 2768.7 
v 1867.47 9.97668 2768.68 
v 1867.47 9.92214 2768.67 
v 1867.5 9.96887 2768.65 
v 1867.55 9.92975 2768.64 
v 1867.51 9.88301 2768.66 
v 1867.55 9.86207 2768.59 
v 1867.54 9.84165 2768.63 
v 1867.56 9.87852 2768.61 
v 1867.57 9.84016 2768.65 
v 1867.6 9.87703 2768.64 
v 1867.62 9.83273 2768.61 
v 1867.7 9.67989 2768.58 
v 1867.59 9.79587 2768.63 
v 1867.67 9.64303 2768.6 
v 1867.63 9.81994 2768.61 
v 1867.66 9.67517 2768.6 
v 1867.6 9.78308 2768.62 
v 1867.69 9.71203 2768.58 
v 1867.67 9.73177 2768.58 
v 1867.65 9.68567 2768.6 
v 1867.64 9.69491 2768.6 
v 1867.68 9.72253 2768.58 
v 1867.57 9.93397 2769.04 
v 1867.68 9.78626 2769.01 
v 1867.73 9.67514 2768.95 
v 1867.4 10.0057 2768.96 
v 1867.51 9.69063 2768.4 
v 1867.64 9.62547 2768.39 
v 1867.76 9.54374 2768.67 
v 1867.32 10.0019 2768.73 
v 1867.32 10.0229 2768.57 
v 1867.64 9.84946 2768.91 
v 1867.72 9.83185 2768.7 
v 1867.73 9.66906 2768.64 
v 1867.69 9.71657 2768.59 
v 1867.76 9.76006 2768.74 
v 1867.78 9.65935 2768.79 
v 1867.67 9.73177 2768.58 
v 1867.68 9.72253 2768.58 
v 1867.63 9.81994 2768.61 
v 1867.64 9.8842 2768.67 
v 1867.62 9.83273 2768.61 
v 1867.6 9.87703 2768.64 
v 1867.55 9.92243 2768.64 
v 1867.56 9.87852 2768.61 
v 1867.55 9.86207 2768.59 
v 1867.55 9.92975 2768.64 
v 1867.51 9.93991 2768.59 
v 1867.5 9.93884 2768.59 
v 1867.53 9.85064 2768.56 
v 1867.49 9.83382 2768.5 
v 1867.51 9.82145 2768.51 
v 1867.48 9.92189 2768.56 
v 1867.35 9.88744 2768.49 
v 1867.43 9.9584 2768.57 
v 1867.4 10.0009 2768.59 
v 1867.32 10.0229 2768.57 
v 1867.32 10.0019 2768.73 
v 1867.47 9.97668 2768.68 
v 1867.42 9.99244 2768.64 
v 1867.4 10.0009 2768.59 
v 1867.32 10.0229 2768.57 
v 1867.46 9.97083 2768.79 
v 1867.5 9.97122 2768.66 
v 1867.51 9.93654 2768.74 
v 1867.48 9.95466 2768.79 
v 1867.53 9.9234 2768.72 
v 1867.5 9.96887 2768.65 
v 1867.55 9.92975 2768.64 
v 1867.55 9.92243 2768.64 
v 1867.55 9.91659 2768.7 
v 1867.59 9.90218 2768.69 
v 1867.64 9.8842 2768.67 
v 1867.61 9.89133 2768.74 
v 1867.61 9.88765 2768.75 
v 1867.72 9.83185 2768.7 
v 1867.64 9.85462 2768.84 
v 1867.66 9.8427 2768.86 
v 1867.65 9.84926 2768.85 
v 1867.7 9.7734 2768.87 
v 1867.76 9.76006 2768.74 
v 1867.78 9.65935 2768.79 
v 1867.37 9.7692 2768.38 
v 1867.35 9.88744 2768.49 
v 1867.49 9.83382 2768.5 
v 1867.46 9.71955 2768.35 
v 1867.5 9.80271 2768.47 
v 1867.51 9.82145 2768.51 
v 1867.52 9.73254 2768.45 
v 1867.51 9.69063 2768.4 
v 1867.53 9.72025 2768.45 
v 1867.61 9.69169 2768.47 
v 1867.64 9.62547 2768.39 
v 1867.65 9.66406 2768.5 
v 1867.68 9.60006 2768.46 
v 1867.68 9.6787 2768.55 
v 1867.73 9.56832 2768.54 
v 1867.7 9.67989 2768.58 
v 1867.73 9.66906 2768.64 
v 1867.76 9.54374 2768.67 
v 1867.75 9.61101 2768.73 
v 1867.73 9.54992 2768.84 
v 1867.69 9.71657 2768.59 
v 1867.69 9.71203 2768.58 
v 1867.68 9.72253 2768.58 
v 1867.31 10.0083 2768.89 
v 1867.46 9.97083 2768.79 
v 1867.32 10.0019 2768.73 
v 1867.4 10.0057 2768.96 
v 1867.46 9.97023 2768.83 
v 1867.48 9.95466 2768.79 
v 1867.48 9.94255 2768.9 
v 1867.45 9.9541 2768.96 
v 1867.48 9.9401 2768.92 
v 1867.56 9.9063 2768.93 
v 1867.57 9.93397 2769.04 
v 1867.6 9.87483 2768.95 
v 1867.62 9.86352 2769.02 
v 1867.64 9.84946 2768.91 
v 1867.68 9.78626 2769.01 
v 1867.67 9.82248 2768.89 
v 1867.7 9.7734 2768.87 
v 1867.73 9.67514 2768.95 
v 1867.73 9.67391 2768.86 
v 1867.73 9.54992 2768.84 
v 1867.66 9.8427 2768.86 
v 1867.66 9.84351 2768.86 
v 1867.65 9.84926 2768.85 
v 1867.68 9.78626 2769.01 
v 1867.61 9.70669 2769.02 
v 1867.73 9.67514 2768.95 
v 1867.68 9.63369 2768.96 
v 1867.73 9.54992 2768.84 
v 1867.31 10.0083 2768.89 
v 1867.56 9.51462 2768.45 
v 1867.64 9.62547 2768.39 
v 1867.73 9.56832 2768.54 
v 1867.66 9.49802 2768.58 
v 1867.76 9.54374 2768.67 
v 1867.7 9.50788 2768.69 
v 1867.73 9.54992 2768.84 
v 1867.46 9.90324 2768.93 
v 1867.48 9.9401 2768.92 
v 1867.45 9.90569 2768.92 
v 1867.48 9.94255 2768.9 
v 1867.43 9.93337 2768.84 
v 1867.46 9.97023 2768.83 
v 1867.45 9.9178 2768.81 
v 1867.48 9.95466 2768.79 
v 1867.48 9.89967 2768.76 
v 1867.51 9.93654 2768.74 
v 1867.51 9.88654 2768.74 
v 1867.53 9.9234 2768.72 
v 1867.53 9.87973 2768.71 
v 1867.55 9.91659 2768.7 
v 1867.57 9.86532 2768.7 
v 1867.59 9.90218 2768.69 
v 1867.73 9.66906 2768.64 
v 1867.78 9.65935 2768.79 
v 1867.75 9.61101 2768.73 
v 1867.73 9.54992 2768.84 
v 1867.55 9.92975 2768.64 
v 1867.7 9.7734 2768.87 
v 1867.78 9.65935 2768.79 
v 1867.73 9.67391 2768.86 
v 1867.73 9.54992 2768.84 
v 1867.68 9.6787 2768.55 
v 1867.76 9.54374 2768.67 
v 1867.75 9.61101 2768.73 
v 1867.73 9.54992 2768.84 
v 1867.73 9.67514 2768.95 
v 1867.73 9.67391 2768.86 
v 1867.73 9.54992 2768.84 
v 1867.45 9.87516 2768.58 
v 1867.43 9.9584 2768.57 
v 1867.39 9.91167 2768.59 
v 1867.37 9.95419 2768.61 
v 1867.4 10.0009 2768.59 
v 1867.42 9.99244 2768.64 
v 1867.39 9.9457 2768.66 
v 1867.48 9.78458 2768.52 
v 1867.47 9.76585 2768.49 
v 1867.5 9.80271 2768.47 
v 1867.52 9.73254 2768.45 
v 1867.51 9.82145 2768.51 
v 1867.5 9.69568 2768.47 
v 1867.5 9.81377 2768.57 
v 1867.53 9.72025 2768.45 
v 1867.53 9.85064 2768.56 
v 1867.51 9.68338 2768.46 
v 1867.52 9.8252 2768.6 
v 1867.55 9.86207 2768.59 
v 1867.54 9.84165 2768.63 
v 1867.56 9.87852 2768.61 
v 1867.54 9.76206 2769.05 
v 1867.62 9.86352 2769.02 
v 1867.49 9.80999 2769.08 
v 1867.57 9.93397 2769.04 
v 1867.68 9.78626 2769.01 
v 1867.45 9.9541 2768.96 
v 1867.61 9.70669 2769.02 
v 1867.39 9.84379 2768.99 
v 1867.73 9.67514 2768.95 
v 1867.34 9.88323 2769 
v 1867.4 10.0057 2768.96 
v 1867.27 9.90035 2768.92 
v 1867.31 10.0083 2768.89 
v 1867.64 9.78562 2768.9 
v 1867.67 9.82248 2768.89 
v 1867.63 9.80664 2768.88 
v 1867.66 9.84351 2768.86 
v 1867.62 9.8124 2768.87 
v 1867.53 9.87973 2768.71 
v 1867.65 9.84926 2768.85 
v 1867.55 9.91659 2768.7 
v 1867.62 9.81776 2768.86 
v 1867.57 9.86532 2768.7 
v 1867.64 9.85462 2768.84 
v 1867.59 9.90218 2768.69 
v 1867.59 9.85079 2768.77 
v 1867.61 9.89133 2768.74 
v 1867.61 9.88765 2768.75 
v 1867.58 9.85447 2768.75 
v 1867.47 9.89317 2768.61 
v 1867.55 9.92975 2768.64 
v 1867.51 9.93991 2768.59 
v 1867.51 9.88301 2768.66 
v 1867.48 9.92189 2768.56 
v 1867.45 9.87516 2768.58 
v 1867.43 9.9584 2768.57 
v 1867.39 9.91167 2768.59 
v 1867.37 9.95419 2768.61 
v 1867.4 10.0009 2768.59 
v 1867.53 9.72025 2768.45 
v 1867.51 9.68338 2768.46 
v 1867.58 9.65483 2768.49 
v 1867.61 9.69169 2768.47 
v 1867.65 9.66406 2768.5 
v 1867.63 9.6272 2768.51 
v 1867.49 9.80999 2769.08 
v 1867.68 9.78626 2769.01 
v 1867.61 9.70669 2769.02 
v 1867.73 9.54992 2768.84 
v 1867.27 9.90035 2768.92 
v 1867.31 10.0083 2768.89 
v 1867.32 9.67146 2768.44 
v 1867.56 9.51462 2768.45 
v 1867.6 9.5098 2768.51 
v 1867.66 9.49802 2768.58 
v 1867.35 9.88744 2768.49 
v 1867.32 10.0019 2768.73 
v 1867.32 10.0229 2768.57 
v 1867.39 9.84379 2768.99 
v 1867.45 9.59154 2768.46 
v 1867.68 9.63369 2768.96 
v 1867.61 9.70669 2769.02 
v 1867.54 9.76206 2769.05 
v 1867.49 9.80999 2769.08 
v 1867.7 9.50788 2768.69 
v 1867.73 9.54992 2768.84 
v 1867.66 9.49802 2768.58 
v 1867.6 9.5098 2768.51 
v 1867.56 9.51462 2768.45 
v 1867.27 9.90035 2768.92 
v 1867.34 9.88323 2769 
v 1867.32 9.67146 2768.44 
v 1867.4 9.60922 2768.41 
v 1867.4 10.0057 2768.96 
v 1867.27 9.90035 2768.92 
v 1867.31 10.0083 2768.89 
v 1867.32 9.67146 2768.44 
v 1867.27 9.90035 2768.92 
v 1867.35 9.88744 2768.49 
v 1867.32 9.67146 2768.44 
v 1867.37 9.7692 2768.38 
v 1867.32 10.0019 2768.73 
v 1867.32 10.0229 2768.57 
v 1867.31 10.0083 2768.89 
v 1867.6 9.87483 2768.95 
v 1867.58 9.83796 2768.96 
v 1867.62 9.8126 2768.93 
v 1867.64 9.84946 2768.91 
v 1867.64 9.78562 2768.9 
v 1867.67 9.82248 2768.89 
v 1867.65 9.84926 2768.85 
v 1867.57 9.86532 2768.7 
v 1867.59 9.90218 2768.69 
v 1867.61 9.89133 2768.74 
v 1867.58 9.85447 2768.75 
v 1867.55 9.92975 2768.64 
v 1867.47 9.89317 2768.61 
v 1867.51 9.93991 2768.59 
v 1867.5 9.93884 2768.59 
v 1867.47 9.8921 2768.61 
v 1867.48 9.92189 2768.56 
v 1867.45 9.87516 2768.58 
v 1867.44 9.92995 2768.7 
v 1867.47 9.97668 2768.68 
v 1867.46 9.92449 2768.67 
v 1867.5 9.97122 2768.66 
v 1867.47 9.92214 2768.67 
v 1867.5 9.96887 2768.65 
v 1867.65 9.66406 2768.5 
v 1867.63 9.6272 2768.51 
v 1867.57 9.84016 2768.65 
v 1867.66 9.64183 2768.56 
v 1867.6 9.87703 2768.64 
v 1867.68 9.6787 2768.55 
v 1867.62 9.83273 2768.61 
v 1867.7 9.67989 2768.58 
v 1867.59 9.79587 2768.63 
v 1867.67 9.64303 2768.6 

vn -0.0551181 -0.472441 -0.874016 
vn -0.425197 -0.267717 -0.866142 
vn -0.425197 -0.267717 -0.866142 
vn -0.00787402 -0.496063 -0.866142 
vn 0.0551181 -0.496063 -0.866142 
vn 0.023622 -0.480315 -0.874016 
vn 0.15748 -0.582677 -0.80315 
vn 0.125984 -0.566929 -0.811024 
vn 0.503937 -0.700787 -0.503937 
vn 0.503937 -0.700787 -0.503937 
vn 0.503937 -0.755906 -0.409449 
vn 0.511811 -0.76378 -0.393701 
vn 0.574803 -0.818898 -0.0866142 
vn -0.976378 0.141732 -0.165354 
vn 0.0314961 -0.385827 -0.92126 
vn 0.377953 -0.551181 -0.740157 
vn 0.393701 -0.559055 -0.724409 
vn 0.0314961 -0.385827 -0.92126 
vn -0.346457 -0.125984 -0.929134 
vn -0.307087 -0.15748 -0.937008 
vn 0.826772 0.425197 -0.370079 
vn 0.834646 -0.456693 0.314961 
vn 0.834646 -0.464567 0.283465 
vn 0.566929 -0.614173 -0.551181 
vn 0.551181 -0.606299 -0.574803 
vn 0 -0.362205 -0.929134 
vn -0.228346 -0.212598 -0.952756 
vn -0.519685 0.023622 -0.858268 
vn -0.503937 0.00787402 -0.866142 
vn -0.385827 -0.0944882 -0.92126 
vn -0.385827 -0.0944882 -0.92126 
vn 0.779528 -0.606299 -0.15748 
vn 0.677165 -0.622047 -0.393701 
vn 0.582677 -0.614173 -0.527559 
vn -0.110236 -0.299213 -0.944882 
vn -0.0944882 -0.307087 -0.944882 
vn -0.559055 0.0551181 -0.826772 
vn -0.724409 0.244094 -0.645669 
vn -0.543307 0.0472441 -0.834646 
vn -0.834646 0.448819 -0.330709 
vn -0.519685 0.023622 -0.858268 
vn -0.259843 -0.19685 -0.944882 
vn -0.519685 0.023622 -0.858268 
vn -0.259843 -0.19685 -0.944882 
vn -0.417323 -0.0708661 -0.905512 
vn -0.259843 -0.19685 -0.944882 
vn -0.362205 -0.110236 -0.92126 
vn -0.259843 -0.19685 -0.944882 
vn -0.0629921 0.267717 0.96063 
vn 0.362205 -0.133858 0.92126 
vn 0.480315 -0.417323 0.771654 
vn -0.244094 0.354331 0.905512 
vn 0.0551181 -0.496063 -0.866142 
vn 0.125984 -0.566929 -0.811024 
vn 0.574803 -0.818898 -0.0866142 
vn -0.976378 0.141732 -0.165354 
vn -0.976378 0.141732 -0.165354 
vn -0.622047 0.125984 -0.771654 
vn 0.732283 0.362205 -0.574803 
vn 0.897638 0.102362 -0.425197 
vn 0.724409 0.370079 -0.582677 
vn 0.897638 0.102362 -0.425197 
vn 0.937008 -0.23622 -0.251969 
vn 0.598425 0.480315 -0.645669 
vn 0.598425 0.480315 -0.645669 
vn 0.566929 0.496063 -0.653543 
vn 0.527559 0.519685 -0.669291 
vn 0.456693 0.559055 -0.692913 
vn 0.456693 0.559055 -0.692913 
vn 0.622047 0.472441 -0.622047 
vn 0.456693 0.559055 -0.692913 
vn 0.708661 0.417323 -0.566929 
vn 0.748031 0.385827 -0.535433 
vn 0.748031 0.385827 -0.535433 
vn 0.677165 0.433071 -0.598425 
vn 0.748031 0.385827 -0.535433 
vn 0.559055 0.488189 -0.669291 
vn 0.748031 0.385827 -0.535433 
vn 0.307087 0.574803 -0.755906 
vn 0.307087 0.574803 -0.755906 
vn 0.307087 0.574803 -0.755906 
vn 0.307087 0.574803 -0.755906 
vn 0.307087 0.574803 -0.755906 
vn 0.212598 0.968504 0.0944882 
vn 0.212598 0.968504 0.0944882 
vn 0.212598 0.968504 0.0944882 
vn 0.212598 0.968504 0.0944882 
vn 0.212598 0.968504 0.0944882 
vn 0.472441 0.866142 0.141732 
vn 0.590551 0.787402 0.165354 
vn 0.677165 0.716535 0.173228 
vn 0.677165 0.716535 0.173228 
vn 0.637795 0.755906 0.165354 
vn 0.677165 0.716535 0.173228 
vn 0.677165 0.716535 0.173228 
vn 0.543307 0.826772 0.141732 
vn 0.370079 0.92126 0.0944882 
vn 0.370079 0.92126 0.0944882 
vn 0.448819 0.889764 0.11811 
vn 0.370079 0.92126 0.0944882 
vn 0.480315 0.866142 0.133858 
vn 0.645669 0.732283 0.212598 
vn 0.511811 0.84252 0.141732 
vn 0.645669 0.740157 0.204724 
vn 0.511811 0.84252 0.141732 
vn 0.818898 0.464567 0.338583 
vn 0.818898 0.464567 0.346457 
vn 0.858268 0.11811 0.496063 
vn 0.251969 0.708661 -0.661417 
vn 0.251969 0.708661 -0.661417 
vn 0.543307 0.590551 -0.598425 
vn 0.519685 0.598425 -0.606299 
vn 0.755906 0.433071 -0.488189 
vn 0.755906 0.433071 -0.488189 
vn 0.677165 0.527559 -0.503937 
vn 0.598425 0.614173 -0.511811 
vn 0.393701 0.76378 -0.511811 
vn 0.543307 0.708661 -0.456693 
vn 0.582677 0.692913 -0.433071 
vn 0.700787 0.614173 -0.362205 
vn 0.76378 0.527559 -0.370079 
vn 0.826772 0.425197 -0.370079 
vn 0.897638 0.322835 -0.291339 
vn 0.858268 0.370079 -0.370079 
vn 0.92126 0.291339 -0.251969 
vn 0.984252 0.173228 -0.0472441 
vn 0.992126 0.125984 0.0393701 
vn 0.984252 0.0314961 0.188976 
vn 0.748031 0.472441 -0.464567 
vn 0.787402 0.440945 -0.433071 
vn 0.614173 0.566929 -0.551181 
vn 0.188976 0.976378 -0.0787402 
vn 0.472441 0.88189 0.023622 
vn 0.188976 0.976378 -0.0787402 
vn 0.456693 0.889764 0.015748 
vn 0.692913 0.716535 0.110236 
vn 0.692913 0.716535 0.110236 
vn 0.622047 0.779528 0.0314961 
vn 0.551181 0.834646 -0.0393701 
vn 0.362205 0.913386 -0.19685 
vn 0.511811 0.84252 -0.165354 
vn 0.551181 0.818898 -0.15748 
vn 0.677165 0.724409 -0.11811 
vn 0.732283 0.677165 -0.0393701 
vn 0.787402 0.622047 0.0472441 
vn 0.858268 0.503937 0.0944882 
vn 0.80315 0.582677 0.0944882 
vn 0.889764 0.456693 0.0944882 
vn 0.968504 0.228346 0.0708661 
vn 0.992126 0.133858 0.0551181 
vn 1 -0.0393701 0.023622 
vn 0.692913 0.716535 0.0629921 
vn 0.732283 0.677165 0.0708661 
vn 0.551181 0.834646 0.023622 
vn 0.362205 -0.133858 0.92126 
vn 0.370079 -0.149606 0.913386 
vn 0.480315 -0.417323 0.771654 
vn 0.488189 -0.440945 0.755906 
vn 0.519685 -0.582677 0.629921 
vn -0.582677 0.448819 0.677165 
vn 0.15748 -0.582677 -0.80315 
vn 0.125984 -0.566929 -0.811024 
vn 0.503937 -0.755906 -0.409449 
vn 0.511811 -0.76378 -0.393701 
vn 0.574803 -0.818898 -0.0866142 
vn 0.574803 -0.818898 -0.0551181 
vn 0.566929 -0.811024 0.141732 
vn 0.377953 -0.551181 -0.740157 
vn 0.393701 -0.559055 -0.724409 
vn 0.669291 -0.622047 -0.401575 
vn 0.669291 -0.622047 -0.401575 
vn 0.818898 -0.574803 -0.015748 
vn 0.84252 -0.488189 0.23622 
vn 0.755906 -0.291339 0.582677 
vn 0.755906 -0.291339 0.582677 
vn 0.732283 -0.259843 0.629921 
vn 0.724409 -0.244094 0.653543 
vn 0.692913 -0.204724 0.692913 
vn 0.692913 -0.204724 0.692913 
vn 0.543307 -0.0472441 0.834646 
vn 0.433071 0.0551181 0.897638 
vn -0.291339 0.519685 0.80315 
vn -0.283465 0.511811 0.811024 
vn 0.897638 0.102362 -0.425197 
vn 0.937008 -0.23622 -0.251969 
vn 0.937008 -0.220472 -0.251969 
vn 0.88189 -0.456693 -0.110236 
vn 0.748031 0.385827 -0.535433 
vn 0.818898 0.464567 0.338583 
vn 0.858268 0.11811 0.496063 
vn 0.866142 0.125984 0.488189 
vn 0.811024 -0.141732 0.566929 
vn 0.826772 0.425197 -0.370079 
vn 0.984252 0.173228 -0.0472441 
vn 0.992126 0.125984 0.0393701 
vn 0.984252 0.0314961 0.188976 
vn 0.968504 0.228346 0.0708661 
vn 0.992126 0.133858 0.0551181 
vn 1 -0.0393701 0.023622 
vn -0.173228 0.464567 0.866142 
vn 0.417323 0.0708661 0.905512 
vn 0.393701 0.0866142 0.913386 
vn 0.834646 -0.456693 0.314961 
vn 0.834646 -0.464567 0.283465 
vn 0.566929 -0.614173 -0.551181 
vn 0.551181 -0.606299 -0.574803 
vn 0.818898 -0.574803 -0.00787402 
vn 0.755906 -0.291339 0.582677 
vn 0.826772 -0.425197 0.362205 
vn 0.535433 -0.0393701 0.84252 
vn 0.818898 -0.574803 -0.00787402 
vn 0.535433 -0.0393701 0.84252 
vn 0.80315 -0.590551 -0.0708661 
vn 0.220472 0.220472 0.952756 
vn 0.80315 -0.590551 -0.102362 
vn 0.204724 0.23622 0.952756 
vn 0.779528 -0.606299 -0.15748 
vn 0.779528 -0.606299 -0.15748 
vn 0.677165 -0.622047 -0.393701 
vn 0.582677 -0.614173 -0.527559 
vn 0.346457 -0.0314961 0.937008 
vn 0.354331 -0.0314961 0.937008 
vn -0.0314961 0.251969 0.968504 
vn -0.0629921 0.267717 0.96063 
vn 0.362205 -0.133858 0.92126 
vn -0.133858 0.346457 0.929134 
vn 0.370079 -0.149606 0.913386 
vn -0.165354 0.354331 0.92126 
vn 0.480315 -0.417323 0.771654 
vn -0.19685 0.338583 0.92126 
vn -0.244094 0.354331 0.905512 
vn -0.582677 0.448819 0.677165 
vn -0.582677 0.448819 0.677165 
vn -0.834646 0.472441 -0.275591 
vn -0.80315 0.590551 0.0944882 
vn -0.433071 0.574803 0.700787 
vn -0.433071 0.574803 0.700787 
vn -0.433071 0.574803 0.700787 
vn 0.543307 -0.0472441 0.834646 
vn -0.433071 0.574803 0.700787 
vn 0.433071 0.0551181 0.897638 
vn -0.519685 0.598425 0.606299 
vn -0.291339 0.519685 0.80315 
vn -0.574803 0.614173 0.543307 
vn -0.283465 0.511811 0.811024 
vn -0.653543 0.622047 0.433071 
vn -0.685039 0.622047 0.377953 
vn -0.653543 0.622047 0.433071 
vn -0.677165 0.622047 0.393701 
vn -0.653543 0.622047 0.433071 
vn -0.543307 0.606299 0.582677 
vn -0.645669 0.622047 0.448819 
vn -0.543307 0.606299 0.582677 
vn -0.417323 0.566929 0.708661 
vn -0.173228 0.464567 0.866142 
vn 0.417323 0.0708661 0.905512 
vn 0.393701 0.0866142 0.913386 
vn 0.834646 -0.456693 0.314961 
vn 0.834646 -0.464567 0.283465 
vn 0.220472 0.220472 0.952756 
vn 0.204724 0.23622 0.952756 
vn -0.15748 0.456693 0.874016 
vn -0.15748 0.456693 0.874016 
vn -0.503937 0.598425 0.622047 
vn -0.472441 0.590551 0.653543 
vn -0.0314961 0.251969 0.968504 
vn 0.362205 -0.133858 0.92126 
vn 0.370079 -0.149606 0.913386 
vn 0.519685 -0.582677 0.629921 
vn -0.582677 0.448819 0.677165 
vn -0.582677 0.448819 0.677165 
vn -0.425197 -0.267717 -0.866142 
vn 0.15748 -0.582677 -0.80315 
vn 0.503937 -0.700787 -0.503937 
vn 0.511811 -0.76378 -0.393701 
vn -0.976378 0.141732 -0.165354 
vn -0.976378 0.141732 -0.165354 
vn -0.976378 0.141732 -0.165354 
vn -0.543307 -0.779528 0.307087 
vn -0.543307 -0.779528 0.307087 
vn -0.543307 -0.779528 0.307087 
vn -0.543307 -0.779528 0.307087 
vn -0.543307 -0.779528 0.307087 
vn -0.543307 -0.779528 0.307087 
vn -0.543307 -0.779528 0.307087 
vn -0.543307 -0.779528 0.307087 
vn -0.543307 -0.779528 0.307087 
vn -0.543307 -0.779528 0.307087 
vn -0.543307 -0.779528 0.307087 
vn -0.543307 -0.779528 0.307087 
vn -0.543307 -0.779528 0.307087 
vn -0.543307 -0.779528 0.307087 
vn -0.543307 -0.779528 0.307087 
vn -0.244094 0.354331 0.905512 
vn -0.582677 0.448819 0.677165 
vn -0.582677 0.448819 0.677165 
vn -0.425197 -0.267717 -0.866142 
vn -0.976378 0.141732 -0.165354 
vn -0.976378 0.141732 -0.165354 
vn -0.976378 0.141732 -0.165354 
vn -0.976378 0.141732 -0.165354 
vn -0.976378 0.141732 -0.165354 
vn -0.976378 0.141732 -0.165354 
vn -0.976378 0.141732 -0.165354 
vn -0.346457 -0.125984 -0.929134 
vn -0.307087 -0.15748 -0.937008 
vn -0.622047 0.125984 -0.771654 
vn -0.622047 0.125984 -0.771654 
vn -0.834646 0.472441 -0.275591 
vn -0.80315 0.590551 0.0944882 
vn -0.433071 0.574803 0.700787 
vn -0.291339 0.519685 0.80315 
vn -0.283465 0.511811 0.811024 
vn -0.685039 0.622047 0.377953 
vn -0.677165 0.622047 0.393701 
vn 0.748031 0.385827 -0.535433 
vn -0.653543 0.622047 0.433071 
vn -0.645669 0.622047 0.448819 
vn -0.740157 0.622047 0.275591 
vn -0.740157 0.622047 0.275591 
vn -0.417323 0.566929 0.708661 
vn -0.173228 0.464567 0.866142 
vn 0 -0.362205 -0.929134 
vn -0.228346 -0.212598 -0.952756 
vn -0.629921 0.133858 -0.771654 
vn -0.629921 0.133858 -0.771654 
vn -0.519685 0.023622 -0.858268 
vn -0.503937 0.00787402 -0.866142 
vn -0.503937 0.598425 0.622047 
vn -0.472441 0.590551 0.653543 
vn -0.110236 -0.299213 -0.944882 
vn -0.732283 0.622047 0.275591 
vn -0.0944882 -0.307087 -0.944882 
vn -0.732283 0.622047 0.275591 
vn -0.559055 0.0551181 -0.826772 
vn -0.724409 0.244094 -0.645669 
vn -0.543307 0.0472441 -0.834646 
vn -0.834646 0.448819 -0.330709 

vt 8.12858 -40.9978 
vt 8.18579 -41.1423 
vt 8.22201 -41.0289 
vt 8.09968 -41.1348 
vt 8.05893 -41.0028 
vt 8.0377 -41.1294 
vt 7.91759 -41.1189 
vt 7.93119 -40.9696 
vt 7.86238 -40.9856 
vt 7.86035 -41.1139 
vt 7.77973 -41.0005 
vt 7.7875 -41.1075 
vt 7.70015 -41.0358 
vt 8.32629 -40.9215 
vt 7.95881 -41.0131 
vt 8.04152 -41.0296 
vt 8.04563 -40.9827 
vt 7.96292 -40.9661 
vt 7.90458 -40.9648 
vt 7.90047 -41.0117 
vt 7.87182 -40.9486 
vt 8.24193 -40.9545 
vt 8.24714 -40.895 
vt 8.21156 -40.9026 
vt 8.20635 -40.9621 
vt 8.14618 -40.9555 
vt 8.15139 -40.8959 
vt 8.12709 -40.9358 
vt 8.1323 -40.8762 
vt 8.08065 -40.8729 
vt 8.07544 -40.9324 
vt 8.06213 -40.9098 
vt 8.04461 -40.9406 
vt 8.04872 -40.8936 
vt 8.01006 -40.9268 
vt 8.01417 -40.8798 
vt 7.98023 -40.893 
vt 7.84718 -40.949 
vt 7.97612 -40.94 
vt 7.84307 -40.996 
vt 7.96898 -40.8962 
vt 7.87172 -40.9799 
vt 7.96487 -40.9432 
vt 7.87582 -40.9329 
vt 7.89908 -40.9286 
vt 7.88443 -40.9779 
vt 7.89497 -40.9755 
vt 7.88854 -40.9309 
vt 8.36566 -40.9312 
vt 8.25832 -40.7797 
vt 8.15575 -40.7001 
vt 8.33922 -41.1286 
vt 7.68772 -41.0589 
vt 7.63434 -40.9312 
vt 7.84425 -40.7001 
vt 8.13565 -41.2619 
vt 8 -41.3263 
vt 8.2024 -40.8718 
vt 8 -40.8735 
vt 7.87634 -40.8008 
vt 7.85051 -40.8764 
vt 8 -40.789 
vt 8 -40.7057 
vt 7.85442 -40.8991 
vt 7.84979 -40.8885 
vt 7.91975 -40.969 
vt 8 -40.9726 
vt 7.93044 -40.9802 
vt 7.97002 -41.0142 
vt 8 -41.0701 
vt 7.95471 -41.0487 
vt 7.9273 -41.0621 
vt 8 -41.0807 
vt 7.96571 -41.1323 
vt 7.96161 -41.1351 
vt 7.89769 -41.0773 
vt 7.83761 -41.1171 
vt 7.8421 -41.095 
vt 7.93647 -41.1513 
vt 7.86435 -41.2619 
vt 7.96243 -41.2113 
vt 8 -41.2471 
vt 8 -41.3263 
vt 8.13565 -41.2619 
vt 8.06353 -41.1514 
vt 8.03757 -41.2116 
vt 8 -41.2471 
vt 8 -41.3263 
vt 8.16239 -41.1171 
vt 8.03839 -41.1351 
vt 8.10231 -41.0773 
vt 8.1579 -41.095 
vt 8.0727 -41.0621 
vt 8.03429 -41.1323 
vt 8 -41.0807 
vt 8 -41.0701 
vt 8.04529 -41.0487 
vt 8.02998 -41.0142 
vt 8 -40.9726 
vt 8.06956 -40.9802 
vt 8.08025 -40.969 
vt 8 -40.8735 
vt 8.14559 -40.8991 
vt 8.14949 -40.8764 
vt 8.15021 -40.8885 
vt 8.12366 -40.8008 
vt 8 -40.789 
vt 8 -40.7057 
vt 7.71664 -41.222 
vt 7.86435 -41.2619 
vt 7.83761 -41.1171 
vt 7.66078 -41.1286 
vt 7.80172 -41.1081 
vt 7.8421 -41.095 
vt 7.75108 -41.0569 
vt 7.68772 -41.0589 
vt 7.73951 -41.0456 
vt 7.74563 -40.9629 
vt 7.63434 -40.9312 
vt 7.74988 -40.9046 
vt 7.68772 -40.8624 
vt 7.7976 -40.8718 
vt 7.74168 -40.7797 
vt 7.83195 -40.8472 
vt 7.87634 -40.8008 
vt 7.84425 -40.7001 
vt 7.92544 -40.727 
vt 8 -40.6737 
vt 7.85051 -40.8764 
vt 7.84416 -40.8758 
vt 7.84979 -40.8885 
vt 8.28336 -41.222 
vt 8.16239 -41.1171 
vt 8.13565 -41.2619 
vt 8.33922 -41.1286 
vt 8.19829 -41.1082 
vt 8.1579 -41.095 
vt 8.24892 -41.0569 
vt 8.31228 -41.0589 
vt 8.26049 -41.0456 
vt 8.25437 -40.9629 
vt 8.36566 -40.9312 
vt 8.25012 -40.9046 
vt 8.31228 -40.8624 
vt 8.2024 -40.8718 
vt 8.25832 -40.7797 
vt 8.16805 -40.8473 
vt 8.12366 -40.8008 
vt 8.15575 -40.7001 
vt 8.07456 -40.727 
vt 8 -40.6737 
vt 8.14949 -40.8764 
vt 8.15584 -40.8758 
vt 8.15021 -40.8885 
vt 7.74168 -41.0005 
vt 7.75267 -41.1075 
vt 7.84425 -41.0358 
vt 7.85088 -41.1015 
vt 8 -41.0975 
vt 7.71664 -41.0289 
vt 8.3501 -41.1189 
vt 8.36566 -40.9696 
vt 8.25832 -41.0005 
vt 8.24733 -41.1075 
vt 8.15575 -41.0358 
vt 8.14912 -41.1015 
vt 8 -41.0975 
vt 7.73951 -41.0296 
vt 7.73951 -40.9827 
vt 7.75108 -41.0277 
vt 7.75108 -40.9808 
vt 7.80171 -40.9978 
vt 7.80171 -40.9508 
vt 7.8421 -40.9865 
vt 7.8421 -40.9395 
vt 7.89769 -40.9667 
vt 7.89769 -40.9197 
vt 7.9273 -40.9568 
vt 7.9273 -40.9098 
vt 7.95471 -40.9408 
vt 7.95471 -40.8938 
vt 7.97002 -40.927 
vt 7.97002 -40.88 
vt 8.12366 -40.956 
vt 8 -40.9722 
vt 8.07456 -41.0102 
vt 8 -41.0975 
vt 8 -40.8729 
vt 7.87634 -40.956 
vt 8 -40.9722 
vt 7.92544 -41.0102 
vt 8 -41.0975 
vt 8.2024 -40.9486 
vt 8.15575 -41.0358 
vt 8.07456 -41.0102 
vt 8 -41.0975 
vt 7.84425 -41.0358 
vt 7.92544 -41.0102 
vt 8 -41.0975 
vt 8.06353 -40.957 
vt 8.03757 -40.9056 
vt 8.03757 -40.9651 
vt 8 -40.9545 
vt 8 -40.895 
vt 7.96243 -40.9026 
vt 7.96243 -40.9621 
vt 8.1579 -40.9865 
vt 8.19828 -40.9981 
vt 8.19828 -40.9511 
vt 8.24892 -40.9808 
vt 8.1579 -40.9395 
vt 8.24892 -41.0277 
vt 8.10231 -40.9661 
vt 8.26049 -40.9828 
vt 8.10231 -40.9192 
vt 8.26049 -41.0298 
vt 8.0727 -40.9568 
vt 8.0727 -40.9098 
vt 8.04529 -40.9406 
vt 8.04529 -40.8936 
vt 8.13965 -41.1139 
vt 8.13762 -40.9856 
vt 8.08241 -41.1189 
vt 8.06881 -40.9696 
vt 8.22027 -41.0005 
vt 7.94107 -41.0028 
vt 8.2125 -41.1075 
vt 7.9623 -41.1294 
vt 8.29985 -41.0358 
vt 7.90032 -41.1348 
vt 7.87142 -40.9978 
vt 7.81421 -41.1423 
vt 7.77799 -41.0289 
vt 8.15684 -40.995 
vt 8.15273 -40.948 
vt 8.12828 -40.9799 
vt 8.12418 -40.9329 
vt 8.11557 -40.9779 
vt 7.9554 -40.9408 
vt 8.11146 -40.9309 
vt 7.95129 -40.8938 
vt 8.10503 -40.9755 
vt 7.98996 -40.927 
vt 8.10092 -40.9285 
vt 7.98585 -40.88 
vt 8.03513 -40.9432 
vt 8.01978 -40.8932 
vt 8.03102 -40.8962 
vt 8.02388 -40.9401 
vt 7.87292 -40.9358 
vt 7.91935 -40.8729 
vt 7.86771 -40.8763 
vt 7.92456 -40.9324 
vt 7.84874 -40.8974 
vt 7.85395 -40.957 
vt 7.7887 -40.9056 
vt 7.79391 -40.9651 
vt 7.75807 -40.9545 
vt 7.75286 -40.895 
vt 7.95438 -40.9828 
vt 7.95849 -41.0298 
vt 8.04119 -41.0131 
vt 8.03708 -40.9661 
vt 8.09539 -40.9645 
vt 8.0995 -41.0114 
vt 7.6499 -40.9176 
vt 7.74168 -40.7797 
vt 7.75267 -40.7875 
vt 8 -40.6737 
vt 7.7287 -41.1858 
vt 7.71664 -41.222 
vt 8.2713 -41.1858 
vt 8.3501 -40.9176 
vt 8.29899 -40.8604 
vt 8.24733 -40.7875 
vt 8.13565 -41.2619 
vt 7.86435 -41.2619 
vt 8 -41.3263 
vt 7.70101 -41.0377 
vt 8.29899 -41.0377 
vt 7.85088 -40.719 
vt 7.75267 -40.7875 
vt 7.70101 -40.8604 
vt 7.6499 -40.9176 
vt 8.14912 -40.719 
vt 8 -40.6737 
vt 8.24733 -40.7875 
vt 8.29899 -40.8604 
vt 8.3501 -40.9176 
vt 7.7287 -41.1858 
vt 7.67521 -41.0997 
vt 8.2713 -41.1858 
vt 8.32479 -41.0997 
vt 8.33922 -40.9978 
vt 8.2713 -41.1423 
vt 8.28336 -41.0289 
vt 7.7287 -41.1423 
vt 8.2713 -41.1423 
vt 7.86435 -40.9816 
vt 7.7287 -41.1423 
vt 7.71664 -41.0289 
vt 8.13565 -40.9816 
vt 8 -40.9215 
vt 8.28336 -41.0289 
vt 8.25012 -40.9648 
vt 8.25012 -41.0117 
vt 8.2024 -40.9955 
vt 8.2024 -40.9486 
vt 8.16805 -40.995 
vt 8.16805 -40.948 
vt 8.15021 -40.9309 
vt 8.02998 -40.927 
vt 8.02998 -40.88 
vt 8.06956 -40.8932 
vt 8.06956 -40.9401 
vt 8 -40.8729 
vt 7.96571 -40.9358 
vt 7.96571 -40.8763 
vt 7.96161 -40.8774 
vt 7.96161 -40.9369 
vt 7.93647 -40.8974 
vt 7.93647 -40.957 
vt 8.06353 -40.9555 
vt 8.06353 -40.8959 
vt 8.03839 -40.9369 
vt 8.03839 -40.8774 
vt 8.03429 -40.9358 
vt 8.03429 -40.8762 
vt 7.74988 -40.9645 
vt 7.74988 -41.0114 
vt 7.97002 -40.9268 
vt 7.7976 -40.9955 
vt 7.97002 -40.8798 
vt 7.7976 -40.9486 
vt 7.93044 -40.893 
vt 7.83195 -40.949 
vt 7.93044 -40.94 
vt 7.83195 -40.996 

usemtl Meshpart2Mtl

f 93/93/93 94/94/94 95/95/95 
f 94/94/94 93/93/93 96/96/96 
f 96/96/96 93/93/93 97/97/97 
f 96/96/96 97/97/97 98/98/98 
f 98/98/98 97/97/97 99/99/99 
f 97/97/97 100/100/100 99/99/99 
f 101/101/101 99/99/99 100/100/100 
f 99/99/99 101/101/101 102/102/102 
f 101/101/101 103/103/103 102/102/102 
f 102/102/102 103/103/103 104/104/104 
f 107/107/107 108/108/108 109/109/109 
f 109/109/109 110/110/110 107/107/107 
f 111/111/111 107/107/107 110/110/110 
f 107/107/107 111/111/111 112/112/112 
f 117/117/117 116/116/116 118/118/118 
f 116/116/116 119/119/119 118/118/118 
f 122/122/122 120/120/120 121/121/121 
f 120/120/120 122/122/122 123/123/123 
f 125/125/125 126/126/126 127/127/127 
f 126/126/126 128/128/128 127/127/127 
f 133/133/133 131/131/131 129/129/129 
f 134/134/134 130/130/130 132/132/132 
f 131/131/131 133/133/133 135/135/135 
f 130/130/130 134/134/134 136/136/136 
f 137/137/137 135/135/135 133/133/133 
f 138/138/138 136/136/136 134/134/134 
f 135/135/135 137/137/137 139/139/139 
f 136/136/136 138/138/138 140/140/140 
f 140/140/140 139/139/139 137/137/137 
f 139/139/139 140/140/140 138/138/138 
f 151/151/151 152/152/152 153/153/153 
f 152/152/152 151/151/151 154/154/154 
f 155/155/155 152/152/152 154/154/154 
f 153/153/153 156/156/156 151/151/151 
f 156/156/156 153/153/153 157/157/157 
f 151/151/151 156/156/156 158/158/158 
f 159/159/159 151/151/151 158/158/158 
f 159/159/159 158/158/158 160/160/160 
f 159/159/159 160/160/160 161/161/161 
f 161/161/161 162/162/162 159/159/159 
f 162/162/162 161/161/161 163/163/163 
f 164/164/164 162/162/162 163/163/163 
f 164/164/164 165/165/165 162/162/162 
f 165/165/165 164/164/164 166/166/166 
f 166/166/166 164/164/164 167/167/167 
f 167/167/167 164/164/164 168/168/168 
f 168/168/168 169/169/169 167/167/167 
f 169/169/169 168/168/168 170/170/170 
f 167/167/167 169/169/169 171/171/171 
f 172/172/172 171/171/171 169/169/169 
f 171/171/171 172/172/172 173/173/173 
f 173/173/173 172/172/172 174/174/174 
f 172/172/172 175/175/175 174/174/174 
f 176/176/176 177/177/177 178/178/178 
f 179/179/179 176/176/176 178/178/178 
f 176/176/176 179/179/179 180/180/180 
f 177/177/177 176/176/176 181/181/181 
f 181/181/181 182/182/182 177/177/177 
f 181/181/181 183/183/183 182/182/182 
f 183/183/183 181/181/181 184/184/184 
f 185/185/185 182/182/182 183/183/183 
f 182/182/182 185/185/185 186/186/186 
f 185/185/185 187/187/187 186/186/186 
f 187/187/187 185/185/185 188/188/188 
f 188/188/188 185/185/185 189/189/189 
f 190/190/190 188/188/188 189/189/189 
f 188/188/188 190/190/190 191/191/191 
f 191/191/191 190/190/190 192/192/192 
f 191/191/191 192/192/192 193/193/193 
f 193/193/193 194/194/194 191/191/191 
f 195/195/195 194/194/194 193/193/193 
f 194/194/194 195/195/195 196/196/196 
f 196/196/196 195/195/195 197/197/197 
f 196/196/196 198/198/198 194/194/194 
f 194/194/194 198/198/198 199/199/199 
f 198/198/198 200/200/200 199/199/199 
f 201/201/201 202/202/202 203/203/203 
f 203/203/203 204/204/204 201/201/201 
f 204/204/204 203/203/203 205/205/205 
f 206/206/206 205/205/205 203/203/203 
f 207/207/207 204/204/204 205/205/205 
f 204/204/204 207/207/207 208/208/208 
f 208/208/208 207/207/207 209/209/209 
f 210/210/210 208/208/208 209/209/209 
f 208/208/208 210/210/210 211/211/211 
f 212/212/212 211/211/211 210/210/210 
f 211/211/211 212/212/212 213/213/213 
f 212/212/212 214/214/214 213/213/213 
f 214/214/214 215/215/215 213/213/213 
f 215/215/215 214/214/214 216/216/216 
f 215/215/215 216/216/216 217/217/217 
f 217/217/217 218/218/218 215/215/215 
f 218/218/218 217/217/217 219/219/219 
f 216/216/216 221/221/221 217/217/217 
f 221/221/221 216/216/216 222/222/222 
f 222/222/222 223/223/223 221/221/221 
f 224/224/224 225/225/225 226/226/226 
f 225/225/225 224/224/224 227/227/227 
f 225/225/225 227/227/227 228/228/228 
f 225/225/225 228/228/228 229/229/229 
f 228/228/228 227/227/227 230/230/230 
f 227/227/227 231/231/231 230/230/230 
f 230/230/230 231/231/231 232/232/232 
f 232/232/232 231/231/231 233/233/233 
f 231/231/231 234/234/234 233/233/233 
f 233/233/233 234/234/234 235/235/235 
f 236/236/236 235/235/235 234/234/234 
f 235/235/235 236/236/236 237/237/237 
f 237/237/237 236/236/236 238/238/238 
f 239/239/239 237/237/237 238/238/238 
f 239/239/239 238/238/238 240/240/240 
f 241/241/241 240/240/240 238/238/238 
f 240/240/240 241/241/241 242/242/242 
f 240/240/240 244/244/244 239/239/239 
f 245/245/245 239/239/239 244/244/244 
f 246/246/246 245/245/245 244/244/244 
f 248/248/248 249/249/249 247/247/247 
f 249/249/249 248/248/248 250/250/250 
f 249/249/249 250/250/250 251/251/251 
f 256/256/256 255/255/255 257/257/257 
f 258/258/258 256/256/256 257/257/257 
f 258/258/258 257/257/257 259/259/259 
f 262/262/262 261/261/261 260/260/260 
f 261/261/261 262/262/262 263/263/263 
f 264/264/264 263/263/263 262/262/262 
f 263/263/263 264/264/264 265/265/265 
f 266/266/266 265/265/265 264/264/264 
f 265/265/265 266/266/266 267/267/267 
f 268/268/268 267/267/267 266/266/266 
f 267/267/267 268/268/268 269/269/269 
f 270/270/270 269/269/269 268/268/268 
f 269/269/269 270/270/270 271/271/271 
f 272/272/272 271/271/271 270/270/270 
f 271/271/271 272/272/272 273/273/273 
f 276/276/276 277/277/277 278/278/278 
f 278/278/278 277/277/277 279/279/279 
f 282/282/282 281/281/281 283/283/283 
f 282/282/282 283/283/283 284/284/284 
f 286/286/286 287/287/287 288/288/288 
f 290/290/290 289/289/289 291/291/291 
f 295/295/295 294/294/294 293/293/293 
f 295/295/295 293/293/293 296/296/296 
f 297/297/297 295/295/295 296/296/296 
f 295/295/295 297/297/297 298/298/298 
f 299/299/299 300/300/300 301/301/301 
f 300/300/300 302/302/302 301/301/301 
f 299/299/299 301/301/301 303/303/303 
f 300/300/300 304/304/304 302/302/302 
f 305/305/305 299/299/299 303/303/303 
f 304/304/304 306/306/306 302/302/302 
f 305/305/305 303/303/303 307/307/307 
f 308/308/308 306/306/306 304/304/304 
f 309/309/309 305/305/305 307/307/307 
f 309/309/309 307/307/307 310/310/310 
f 311/311/311 309/309/309 310/310/310 
f 311/311/311 310/310/310 312/312/312 
f 313/313/313 314/314/314 315/315/315 
f 316/316/316 315/315/315 314/314/314 
f 313/313/313 317/317/317 314/314/314 
f 318/318/318 315/315/315 316/316/316 
f 317/317/317 313/313/313 319/319/319 
f 315/315/315 318/318/318 320/320/320 
f 318/318/318 322/322/322 320/320/320 
f 322/322/322 318/318/318 323/323/323 
f 323/323/323 324/324/324 322/322/322 
f 324/324/324 323/323/323 325/325/325 
f 327/327/327 328/328/328 326/326/326 
f 329/329/329 328/328/328 327/327/327 
f 329/329/329 330/330/330 328/328/328 
f 330/330/330 329/329/329 332/332/332 
f 332/332/332 334/334/334 330/330/330 
f 335/335/335 333/333/333 331/331/331 
f 334/334/334 332/332/332 336/336/336 
f 333/333/333 335/335/335 337/337/337 
f 336/336/336 338/338/338 334/334/334 
f 338/338/338 336/336/336 340/340/340 
f 340/340/340 341/341/341 338/338/338 
f 341/341/341 340/340/340 339/339/339 
f 342/342/342 343/343/343 344/344/344 
f 343/343/343 342/342/342 345/345/345 
f 348/348/348 347/347/347 346/346/346 
f 347/347/347 348/348/348 349/349/349 
f 354/354/354 352/352/352 353/353/353 
f 352/352/352 354/354/354 355/355/355 
f 354/354/354 356/356/356 355/355/355 
f 356/356/356 354/354/354 357/357/357 
f 368/368/368 369/369/369 370/370/370 
f 371/371/371 372/372/372 373/373/373 
f 374/374/374 371/371/371 373/373/373 
f 371/371/371 374/374/374 375/375/375 
f 375/375/375 376/376/376 371/371/371 
f 373/373/373 377/377/377 378/378/378 
f 373/373/373 372/372/372 377/377/377 
f 377/377/377 372/372/372 379/379/379 
f 379/379/379 372/372/372 380/380/380 
f 372/372/372 381/381/381 380/380/380 
f 372/372/372 371/371/371 382/382/382 
f 371/371/371 383/383/383 382/382/382 
f 372/372/372 382/382/382 384/384/384 
f 384/384/384 385/385/385 372/372/372 
f 390/390/390 391/391/391 392/392/392 
f 392/392/392 391/391/391 393/393/393 
f 394/394/394 391/391/391 390/390/390 
f 390/390/390 396/396/396 394/394/394 
f 397/397/397 399/399/399 398/398/398 
f 400/400/400 399/399/399 397/397/397 
f 400/400/400 401/401/401 399/399/399 
f 402/402/402 401/401/401 400/400/400 
f 405/405/405 404/404/404 406/406/406 
f 406/406/406 404/404/404 407/407/407 
f 411/411/411 409/409/409 410/410/410 
f 409/409/409 411/411/411 412/412/412 
f 413/413/413 412/412/412 411/411/411 
f 412/412/412 413/413/413 414/414/414 
f 415/415/415 416/416/416 417/417/417 
f 418/418/418 417/417/417 416/416/416 
f 418/418/418 419/419/419 417/417/417 
f 420/420/420 419/419/419 418/418/418 
f 424/424/424 421/421/421 422/422/422 
f 421/421/421 424/424/424 426/426/426 
f 427/427/427 423/423/423 425/425/425 
f 426/426/426 424/424/424 428/428/428 
f 423/423/423 427/427/427 429/429/429 
f 428/428/428 424/424/424 430/430/430 

g Meshpart3

v 1867.39 9.98623 2768.85 
v 1867.3 9.82677 2768.4 
v 1867.35 9.74398 2768.39 
v 1867.31 9.76266 2768.4 
v 1867.26 9.78906 2768.44 
v 1867.36 9.8358 2768.39 
v 1867.43 9.79032 2768.43 
v 1867.3 10.0674 2768.69 
v 1866.7 10.3201 2768.46 
v 1867.43 9.98452 2768.71 
v 1867.33 9.9597 2768.45 
v 1867.36 9.86959 2768.46 
v 1867.28 9.88619 2768.45 
v 1866.7 10.2176 2768.3 
v 1867.38 9.97446 2768.46 
v 1867.46 9.91006 2768.53 
v 1867.31 9.83853 2768.46 
v 1867.73 9.52176 2768.76 
v 1867.78 9.53972 2768.79 
v 1867.76 9.50614 2768.78 
v 1867.78 9.48841 2768.79 
v 1867.75 9.5643 2768.76 
v 1867.71 9.52572 2768.73 
v 1867.74 9.58072 2768.73 
v 1867.81 9.53275 2768.79 
v 1867.83 9.4459 2768.79 
v 1867.86 9.4776 2768.79 
v 1867.87 9.46959 2768.8 
v 1867.84 9.44286 2768.8 
v 1867.24 9.97251 2768.68 
v 1867.31 9.93411 2768.84 
v 1867.35 9.76125 2768.47 
v 1867.29 10.0172 2768.63 
v 1867.32 9.93921 2768.69 
v 1867.24 9.97251 2768.68 
v 1866.7 10.3201 2768.46 
v 1867.35 10.0152 2768.63 
v 1867.43 9.98452 2768.71 
v 1867.27 9.94932 2768.83 
v 1867.33 9.9923 2768.77 
v 1867.31 9.93411 2768.84 
v 1867.39 9.98623 2768.85 
v 1867.28 9.98913 2768.78 
v 1867.22 9.96439 2768.82 
v 1867.87 9.46959 2768.8 
v 1867.32 10.045 2768.84 
v 1867.39 9.98623 2768.85 
v 1867.3 10.0674 2768.69 
v 1866.7 10.3201 2768.46 
v 1867.71 9.58185 2768.89 
v 1867.78 9.53851 2768.92 
v 1867.36 9.86959 2768.46 
v 1866.7 10.2176 2768.3 
v 1867.46 9.91006 2768.53 
v 1867.35 9.98209 2768.55 
v 1867.33 9.9597 2768.45 
v 1867.3 9.97735 2768.54 
v 1866.7 10.2176 2768.3 
v 1867.38 9.97446 2768.46 
v 1867.46 9.91006 2768.53 
v 1867.29 10.0172 2768.63 
v 1867.3 10.0674 2768.69 
v 1867.35 10.0809 2768.7 
v 1866.7 10.3201 2768.46 
v 1867.35 10.0152 2768.63 
v 1867.43 9.98452 2768.71 
v 1867.36 9.85307 2768.47 
v 1867.31 9.83853 2768.46 
v 1867.36 9.8358 2768.39 
v 1867.43 9.79032 2768.43 
v 1867.33 9.9923 2768.77 
v 1867.32 10.045 2768.84 
v 1867.39 9.98623 2768.85 
v 1867.76 9.60309 2768.8 
v 1867.77 9.5759 2768.86 
v 1867.78 9.57032 2768.82 
v 1867.82 9.56885 2768.83 
v 1867.74 9.61032 2768.85 
v 1867.75 9.63163 2768.78 
v 1867.73 9.64112 2768.85 
v 1867.81 9.57281 2768.89 
v 1867.84 9.51791 2768.85 
v 1867.87 9.50586 2768.81 
v 1867.85 9.50136 2768.85 
v 1867.87 9.49186 2768.82 
v 1867.75 9.5643 2768.76 
v 1867.75 9.5643 2768.76 
v 1867.76 9.60309 2768.8 
v 1867.78 9.53972 2768.79 
v 1867.75 9.63163 2768.78 
v 1867.74 9.58072 2768.73 
v 1867.78 9.57032 2768.82 
v 1867.81 9.53275 2768.79 
v 1867.82 9.56885 2768.83 
v 1867.87 9.50586 2768.81 
v 1867.86 9.4776 2768.79 
v 1867.87 9.46959 2768.8 
v 1867.87 9.49186 2768.82 
v 1867.84 9.44286 2768.8 
v 1867.85 9.50136 2768.85 
v 1867.83 9.47776 2768.87 
v 1867.87 9.46959 2768.8 
v 1867.87 9.49186 2768.82 
v 1867.26 9.98532 2768.87 
v 1867.39 9.98623 2768.85 
v 1867.3 10.0674 2768.69 
v 1867.35 10.0809 2768.7 
v 1867.78 9.53851 2768.92 
v 1867.81 9.57281 2768.89 
v 1867.82 9.49017 2768.88 
v 1867.84 9.51791 2768.85 
v 1867.85 9.50136 2768.85 
v 1867.83 9.47776 2768.87 
v 1867.36 9.86959 2768.46 
v 1867.46 9.91006 2768.53 
v 1867.31 9.83853 2768.46 
v 1867.33 9.9923 2768.77 
v 1867.24 9.97251 2768.68 
v 1867.32 10.005 2768.76 
v 1867.32 9.93921 2768.69 
v 1867.43 9.98452 2768.71 
v 1867.3 9.98683 2768.9 
v 1867.31 9.93411 2768.84 
v 1867.39 9.98623 2768.85 
v 1867.35 9.74398 2768.39 
v 1867.35 9.76125 2768.47 
v 1867.43 9.79032 2768.43 
v 1867.36 9.86959 2768.46 
v 1867.34 9.87723 2768.56 
v 1867.46 9.91006 2768.53 
v 1867.26 9.98532 2768.87 
v 1867.3 9.98683 2768.9 
v 1867.26 10.0251 2768.82 
v 1867.22 9.96439 2768.82 
v 1867.32 10.045 2768.84 
v 1867.39 9.98623 2768.85 
v 1867.43 9.79032 2768.43 
v 1867.3 10.0674 2768.69 
v 1867.25 10.0227 2768.74 
v 1867.32 10.005 2768.76 
v 1866.7 10.3201 2768.46 
v 1867.35 10.0809 2768.7 
v 1867.43 9.98452 2768.71 
v 1867.74 9.61032 2768.85 
v 1867.71 9.58185 2768.89 
v 1867.77 9.5759 2768.86 
v 1867.69 9.60458 2768.9 
v 1867.73 9.64112 2768.85 
v 1867.75 9.55307 2768.89 
v 1867.78 9.53851 2768.92 
v 1867.81 9.57281 2768.89 
v 1867.82 9.49017 2768.88 
v 1867.84 9.51791 2768.85 
v 1867.85 9.50136 2768.85 
v 1867.83 9.47776 2768.87 
v 1867.36 9.86959 2768.46 
v 1866.7 10.2176 2768.3 
v 1867.46 9.91006 2768.53 
v 1867.35 9.98209 2768.55 
v 1867.31 9.83853 2768.46 
v 1867.24 9.97251 2768.68 
v 1867.35 9.76125 2768.47 
v 1867.34 9.87723 2768.56 
v 1867.34 9.87723 2768.56 
v 1867.3 9.97735 2768.54 
v 1867.26 9.90385 2768.53 
v 1866.7 10.2176 2768.3 
v 1867.35 9.98209 2768.55 
v 1867.46 9.91006 2768.53 
v 1867.31 9.77442 2768.46 
v 1867.35 9.76125 2768.47 
v 1867.36 9.85307 2768.47 
v 1867.43 9.79032 2768.43 
v 1867.31 9.83853 2768.46 
v 1867.26 9.78906 2768.44 
v 1867.87 9.46959 2768.8 
v 1867.26 9.98532 2768.87 
v 1867.3 10.0674 2768.69 
v 1866.7 10.3201 2768.46 
v 1867.71 9.58185 2768.89 
v 1867.78 9.53851 2768.92 
v 1866.7 10.2176 2768.3 
v 1867.31 9.83853 2768.46 
v 1867.33 9.9923 2768.77 
v 1867.75 9.5643 2768.76 
v 1867.75 9.55307 2768.89 
v 1867.78 9.48841 2768.79 
v 1867.82 9.49017 2768.88 
v 1867.78 9.53851 2768.92 
v 1867.83 9.47776 2768.87 
v 1867.84 9.44286 2768.8 
v 1867.83 9.4459 2768.79 
v 1867.76 9.50614 2768.78 
v 1867.73 9.52176 2768.76 
v 1867.71 9.58185 2768.89 
v 1867.71 9.52572 2768.73 
v 1867.69 9.60458 2768.9 
v 1867.24 9.97251 2768.68 
v 1867.32 10.005 2768.76 
v 1867.25 10.0227 2768.74 
v 1866.7 10.3201 2768.46 
v 1867.32 9.93921 2768.69 
v 1867.27 9.94932 2768.83 
v 1867.3 9.98683 2768.9 
v 1867.26 9.98532 2768.87 
v 1867.22 9.96439 2768.82 
v 1867.31 9.93411 2768.84 
v 1867.31 9.77442 2768.46 
v 1867.35 9.74398 2768.39 
v 1867.35 9.76125 2768.47 
v 1867.31 9.76266 2768.4 
v 1867.26 9.78906 2768.44 
v 1867.26 9.90385 2768.53 
v 1867.36 9.86959 2768.46 
v 1867.34 9.87723 2768.56 
v 1867.28 9.88619 2768.45 
v 1866.7 10.2176 2768.3 
v 1867.26 9.98532 2768.87 
v 1867.26 10.0251 2768.82 
v 1867.22 9.96439 2768.82 
v 1867.32 10.045 2768.84 
v 1867.3 9.82677 2768.4 
v 1867.31 9.76266 2768.4 
v 1867.26 9.78906 2768.44 
v 1867.3 10.0674 2768.69 
v 1867.35 10.0809 2768.7 
v 1867.36 9.86959 2768.46 
v 1867.35 9.98209 2768.55 
v 1867.33 9.9597 2768.45 
v 1867.38 9.97446 2768.46 
v 1867.29 10.0172 2768.63 
v 1867.3 10.0674 2768.69 
v 1867.35 10.0809 2768.7 
v 1867.36 9.85307 2768.47 
v 1867.3 9.82677 2768.4 
v 1867.31 9.83853 2768.46 
v 1867.26 9.78906 2768.44 
v 1867.36 9.8358 2768.39 
v 1867.33 9.9923 2768.77 
v 1867.26 10.0251 2768.82 
v 1867.32 10.045 2768.84 
v 1867.28 9.98913 2768.78 
v 1867.22 9.96439 2768.82 

vn 0.370079 0.661417 0.653543 
vn -0.322835 0.0314961 -0.944882 
vn -0.0393701 0.015748 -1 
vn -0.503937 0.015748 -0.866142 
vn -0.669291 0 -0.748031 
vn 0.314961 -0.015748 -0.952756 
vn 0.527559 -0.0393701 -0.850394 
vn -0.0708661 0.748031 0.661417 
vn 0.0472441 0.740157 0.669291 
vn 0.440945 0.496063 0.748031 
vn 0.173228 -0.0393701 -0.984252 
vn 0.291339 -0.0787402 -0.952756 
vn 0.19685 -0.0314961 -0.976378 
vn 0.220472 -0.023622 -0.976378 
vn 0.488189 -0.125984 -0.866142 
vn 0.629921 -0.165354 -0.76378 
vn -0.417323 0.897638 -0.141732 
vn 0.661417 -0.299213 -0.685039 
vn 0.338583 -0.125984 -0.929134 
vn 0.362205 -0.133858 -0.92126 
vn 0.0944882 0.00787402 -0.992126 
vn 0.692913 -0.314961 -0.653543 
vn 0.76378 -0.354331 -0.535433 
vn 0.76378 -0.354331 -0.535433 
vn 0.0708661 0.023622 -1 
vn 0.314961 -0.23622 -0.92126 
vn 0.259843 -0.181102 -0.952756 
vn 0.614173 -0.551181 -0.566929 
vn 0.614173 -0.551181 -0.566929 
vn -0.511811 -0.629921 0.590551 
vn -0.141732 -0.795276 0.590551 
vn -0.125984 -0.968504 0.212598 
vn -0.125984 -0.669291 -0.732283 
vn -0.00787402 -0.685039 -0.724409 
vn -0.133858 -0.677165 -0.724409 
vn -0.141732 -0.685039 -0.716535 
vn 0.204724 -0.708661 -0.677165 
vn 0.362205 -0.700787 -0.614173 
vn -0.0944882 -0.771654 -0.629921 
vn 0.346457 -0.76378 -0.543307 
vn 0.0393701 -0.779528 -0.622047 
vn 0.551181 -0.708661 -0.448819 
vn -0.110236 -0.76378 -0.637795 
vn -0.0708661 -0.779528 -0.622047 
vn 0.724409 -0.519685 0.456693 
vn 0.141732 0.740157 0.661417 
vn 0.370079 0.661417 0.653543 
vn -0.0708661 0.748031 0.661417 
vn 0.0472441 0.740157 0.669291 
vn 0.551181 0.385827 0.740157 
vn 0.338583 0.566929 0.748031 
vn 0.291339 -0.0787402 -0.952756 
vn 0.220472 -0.023622 -0.976378 
vn 0.629921 -0.165354 -0.76378 
vn 0.165354 0.984252 -0.0708661 
vn 0.0944882 0.984252 -0.141732 
vn 0.228346 0.968504 -0.110236 
vn 0.393701 0.913386 -0.0787402 
vn 0.322835 0.944882 -0.015748 
vn 0.582677 0.811024 0.0866142 
vn 0.330709 0.708661 -0.629921 
vn 0.212598 0.732283 -0.645669 
vn 0.440945 0.653543 -0.622047 
vn 0.496063 0.645669 -0.582677 
vn 0.322835 0.692913 -0.645669 
vn 0.685039 0.503937 -0.519685 
vn 0.220472 0.96063 -0.181102 
vn -0.417323 0.897638 -0.141732 
vn 0.338583 0.929134 -0.173228 
vn 0.598425 0.787402 -0.141732 
vn 0.291339 0.771654 -0.566929 
vn 0.362205 0.755906 -0.543307 
vn 0.629921 0.661417 -0.409449 
vn 0.84252 0.511811 0.165354 
vn 0.488189 0.874016 0.0314961 
vn 0.480315 0.874016 0.0314961 
vn 0.622047 0.771654 0.133858 
vn 0.811024 0.559055 0.15748 
vn 0.897638 0.393701 0.19685 
vn 0.897638 0.393701 0.19685 
vn 0.488189 0.866142 0.0708661 
vn 0.84252 0.433071 0.322835 
vn 0.84252 0.433071 0.330709 
vn 0.787402 0.456693 0.409449 
vn 0.787402 0.456693 0.409449 
vn 0.692913 -0.314961 -0.653543 
vn 0.850394 0.259843 -0.456693 
vn 0.88189 0.212598 -0.417323 
vn 0.598425 0.496063 -0.629921 
vn 0.937008 0.125984 -0.330709 
vn 0.937008 0.125984 -0.330709 
vn 0.543307 0.527559 -0.653543 
vn 0.393701 0.598425 -0.700787 
vn 0.417323 0.582677 -0.692913 
vn 0.653543 0.440945 -0.614173 
vn 0.80315 0.307087 -0.511811 
vn 0.944882 0.0944882 -0.314961 
vn 0.944882 0.0944882 -0.314961 
vn 0.724409 -0.519685 0.456693 
vn 0.724409 -0.519685 0.456693 
vn 0.724409 -0.519685 0.456693 
vn 0.724409 -0.519685 0.456693 
vn 0.724409 -0.519685 0.456693 
vn -0.637795 0.629921 0.448819 
vn 0.370079 0.661417 0.653543 
vn -0.0708661 0.748031 0.661417 
vn 0.259843 0.606299 0.748031 
vn 0.338583 0.566929 0.748031 
vn 0.472441 0.448819 0.755906 
vn 0.700787 0.125984 0.700787 
vn 0.716535 0.0944882 0.685039 
vn 0.559055 0.314961 0.771654 
vn 0.559055 0.314961 0.771654 
vn 0.291339 -0.0787402 -0.952756 
vn 0.629921 -0.165354 -0.76378 
vn -0.417323 0.897638 -0.141732 
vn 0.291339 0.771654 -0.566929 
vn -0.511811 -0.629921 0.590551 
vn -0.110236 -0.732283 0.677165 
vn -0.23622 -0.716535 0.661417 
vn 0.181102 -0.724409 0.661417 
vn -0.0787402 -0.795276 0.598425 
vn -0.141732 -0.795276 0.590551 
vn 0.346457 -0.700787 0.622047 
vn -0.00787402 -0.976378 0.212598 
vn -0.125984 -0.968504 0.212598 
vn 0.393701 -0.897638 0.19685 
vn 0.015748 -0.992126 0.110236 
vn -0.149606 -0.984252 0.0787402 
vn 0.283465 -0.944882 0.149606 
vn -0.637795 0.629921 0.448819 
vn -0.212598 0.771654 0.598425 
vn -0.480315 0.716535 0.511811 
vn -0.779528 0.511811 0.354331 
vn 0.141732 0.740157 0.661417 
vn 0.370079 0.661417 0.653543 
vn 0.527559 -0.0393701 -0.850394 
vn -0.0708661 0.748031 0.661417 
vn -0.00787402 0.748031 0.669291 
vn 0.023622 0.708661 0.708661 
vn 0.0472441 0.740157 0.669291 
vn 0.259843 0.606299 0.748031 
vn 0.440945 0.496063 0.748031 
vn 0.566929 0.362205 0.740157 
vn 0.551181 0.385827 0.740157 
vn 0.0866142 0.732283 0.669291 
vn 0.645669 0.267717 0.716535 
vn 0.645669 0.267717 0.716535 
vn 0.110236 0.724409 0.685039 
vn 0.338583 0.566929 0.748031 
vn 0.472441 0.448819 0.755906 
vn 0.700787 0.125984 0.700787 
vn 0.716535 0.0944882 0.685039 
vn 0.559055 0.314961 0.771654 
vn 0.559055 0.314961 0.771654 
vn 0.291339 -0.0787402 -0.952756 
vn 0.220472 -0.023622 -0.976378 
vn 0.629921 -0.165354 -0.76378 
vn 0.165354 0.984252 -0.0708661 
vn -0.417323 0.897638 -0.141732 
vn -0.511811 -0.629921 0.590551 
vn -0.125984 -0.968504 0.212598 
vn -0.149606 -0.984252 0.0787402 
vn -0.149606 0.0708661 0.984252 
vn -0.267717 0.0866142 0.96063 
vn -0.299213 0.0866142 0.952756 
vn -0.330709 0.0944882 0.937008 
vn 0.0393701 0.0551181 1 
vn 0.173228 0.0393701 0.984252 
vn -0.259843 -0.023622 0.968504 
vn -0.133858 -0.023622 0.992126 
vn 0.188976 -0.0551181 0.984252 
vn 0.409449 -0.0708661 0.913386 
vn -0.283465 -0.015748 0.96063 
vn -0.23622 -0.0314961 0.968504 
vn 0.724409 -0.519685 0.456693 
vn -0.637795 0.629921 0.448819 
vn -0.0708661 0.748031 0.661417 
vn 0.0472441 0.740157 0.669291 
vn 0.551181 0.385827 0.740157 
vn 0.338583 0.566929 0.748031 
vn 0.220472 -0.023622 -0.976378 
vn -0.417323 0.897638 -0.141732 
vn 0.291339 0.771654 -0.566929 
vn 0.692913 -0.314961 -0.653543 
vn -0.614173 -0.740157 0.283465 
vn -0.614173 -0.740157 0.283465 
vn -0.614173 -0.740157 0.283465 
vn -0.614173 -0.740157 0.283465 
vn -0.614173 -0.740157 0.283465 
vn -0.614173 -0.740157 0.283465 
vn -0.614173 -0.740157 0.283465 
vn -0.614173 -0.740157 0.283465 
vn -0.614173 -0.740157 0.283465 
vn -0.614173 -0.740157 0.283465 
vn -0.614173 -0.740157 0.283465 
vn -0.614173 -0.740157 0.283465 
vn -0.511811 -0.629921 0.590551 
vn -0.110236 -0.732283 0.677165 
vn -0.488189 -0.637795 0.598425 
vn -0.598425 -0.582677 0.543307 
vn -0.23622 -0.716535 0.661417 
vn -0.354331 -0.779528 0.511811 
vn -0.0787402 -0.795276 0.598425 
vn -0.362205 -0.779528 0.511811 
vn -0.322835 -0.795276 0.519685 
vn -0.141732 -0.795276 0.590551 
vn -0.322835 -0.92126 0.212598 
vn -0.00787402 -0.976378 0.212598 
vn -0.125984 -0.968504 0.212598 
vn -0.330709 -0.92126 0.204724 
vn -0.291339 -0.929134 0.228346 
vn -0.417323 -0.905512 0.0472441 
vn 0.015748 -0.992126 0.110236 
vn -0.149606 -0.984252 0.0787402 
vn -0.385827 -0.92126 0.0472441 
vn -0.496063 -0.866142 0.0393701 
vn -0.637795 0.629921 0.448819 
vn -0.480315 0.716535 0.511811 
vn -0.779528 0.511811 0.354331 
vn 0.141732 0.740157 0.661417 
vn -0.322835 0.0314961 -0.944882 
vn -0.503937 0.015748 -0.866142 
vn -0.669291 0 -0.748031 
vn -0.0708661 0.748031 0.661417 
vn 0.259843 0.606299 0.748031 
vn 0.291339 -0.0787402 -0.952756 
vn 0.165354 0.984252 -0.0708661 
vn 0.0944882 0.984252 -0.141732 
vn 0.322835 0.944882 -0.015748 
vn 0.330709 0.708661 -0.629921 
vn 0.212598 0.732283 -0.645669 
vn 0.440945 0.653543 -0.622047 
vn 0.220472 0.96063 -0.181102 
vn -0.393701 0.905512 -0.149606 
vn -0.417323 0.897638 -0.141732 
vn -0.653543 0.748031 -0.0708661 
vn 0.338583 0.929134 -0.173228 
vn 0.291339 0.771654 -0.566929 
vn -0.354331 0.653543 -0.661417 
vn 0.362205 0.755906 -0.543307 
vn -0.338583 0.669291 -0.661417 
vn -0.598425 0.488189 -0.637795 

vt 19.8903 -10.9917 
vt 20.0223 -11.0347 
vt 19.9455 -11.062 
vt 19.9877 -11.0803 
vt 20.026 -11.1039 
vt 19.9849 -10.9885 
vt 19.8903 -10.9917 
vt 20.0555 -10.9397 
vt 20.7382 -11.0563 
vt 19.9007 -10.9258 
vt 20.0555 -10.9367 
vt 19.981 -10.987 
vt 20.0555 -11.0166 
vt 20.7347 -11.0901 
vt 20.0238 -10.8961 
vt 19.9031 -10.9179 
vt 20.0038 -11.0379 
vt 19.4123 -11.1021 
vt 19.3752 -11.0663 
vt 19.3734 -11.1021 
vt 19.3434 -11.1021 
vt 19.4167 -11.0581 
vt 19.4376 -11.1021 
vt 19.4434 -11.0455 
vt 19.3435 -11.0527 
vt 19.2826 -11.1021 
vt 19.2745 -11.0607 
vt 19.2618 -11.0671 
vt 19.2682 -11.1021 
vt 20.0555 -11.044 
vt 19.9293 -11.0744 
vt 19.9293 -11.0744 
vt 20.0555 -10.9641 
vt 19.975 -11.0267 
vt 20.0555 -11.044 
vt 20.7382 -11.0563 
vt 20.0135 -10.9326 
vt 19.9007 -10.9258 
vt 19.9691 -11.0835 
vt 19.9687 -11.0009 
vt 19.9293 -11.0744 
vt 19.8903 -10.9917 
vt 20.0038 -11.0379 
vt 20.026 -11.1039 
vt 19.9223 -10.2618 
vt 20.248 -10.9849 
vt 20.2322 -10.8903 
vt 20.1277 -11.0555 
vt 20.0804 -11.7382 
vt 20.0616 -10.4129 
vt 20.0709 -10.3229 
vt 19.8345 -10.981 
vt 19.9013 -11.7347 
vt 19.9064 -10.9031 
vt 19.96 -11.0165 
vt 19.8671 -11.0555 
vt 19.9547 -11.0555 
vt 19.9013 -11.7347 
vt 19.8706 -11.0238 
vt 19.9064 -10.9031 
vt 20.0514 -11.0555 
vt 20.1277 -11.0555 
vt 20.1345 -11.021 
vt 20.0804 -11.7382 
vt 20.0437 -11.0135 
vt 20.0997 -10.9007 
vt 19.835 -10.9687 
vt 19.8215 -11.0038 
vt 19.752 -10.9849 
vt 19.7678 -10.8903 
vt 20.165 -10.9687 
vt 20.248 -10.9849 
vt 20.2322 -10.8903 
vt 19.9872 -10.4187 
vt 20.0271 -10.3732 
vt 19.9858 -10.3751 
vt 19.9952 -10.3375 
vt 20.0383 -10.4171 
vt 19.9861 -10.446 
vt 20.0532 -10.444 
vt 20.0473 -10.329 
vt 19.9861 -10.2905 
vt 19.9493 -10.2761 
vt 19.979 -10.2744 
vt 19.9499 -10.2631 
vt 19.9381 -10.4167 
vt 19.9381 -10.4167 
vt 19.9872 -10.4187 
vt 19.9461 -10.3752 
vt 19.9861 -10.446 
vt 19.9217 -10.4434 
vt 19.9858 -10.3751 
vt 19.9452 -10.3435 
vt 19.9952 -10.3375 
vt 19.9493 -10.2761 
vt 19.9143 -10.2745 
vt 19.9223 -10.2618 
vt 19.9499 -10.2631 
vt 20.0877 -11.1021 
vt 20.021 -11.0654 
vt 20.0076 -11.1021 
vt 20.0777 -11.0671 
vt 20.0501 -11.0536 
vt 19.7361 -11.0803 
vt 19.7678 -10.9917 
vt 19.8723 -10.9397 
vt 19.8655 -10.9007 
vt 19.9291 -11.1021 
vt 19.9527 -11.0465 
vt 19.9968 -11.1021 
vt 20.0139 -11.0585 
vt 20.021 -11.0654 
vt 20.0076 -11.1021 
vt 20.1655 -10.987 
vt 20.0936 -10.9179 
vt 20.1785 -11.0379 
vt 19.835 -11.0009 
vt 19.9145 -11.044 
vt 19.8329 -10.9948 
vt 19.9237 -11.0267 
vt 19.9003 -10.9258 
vt 19.7122 -11.062 
vt 19.7951 -11.0744 
vt 19.7678 -10.9917 
vt 20.2878 -11.062 
vt 20.2049 -11.0744 
vt 20.2322 -10.9917 
vt 20.1655 -10.987 
vt 20.0761 -11.0226 
vt 20.0936 -10.9179 
vt 20.0123 -11.0803 
vt 20.0545 -11.062 
vt 19.9777 -11.0347 
vt 19.974 -11.1039 
vt 20.0151 -10.9885 
vt 20.1097 -10.9917 
vt 20.1097 -10.9917 
vt 19.9445 -10.9397 
vt 19.9445 -11.0197 
vt 20.0175 -10.9948 
vt 19.2618 -11.0563 
vt 19.979 -10.9007 
vt 20.0993 -10.9258 
vt 20.5829 -11.0533 
vt 20.5872 -11.1021 
vt 20.6268 -11.0623 
vt 20.5617 -11.1021 
vt 20.556 -11.0392 
vt 20.6294 -11.1021 
vt 20.6771 -11.1021 
vt 20.671 -11.0465 
vt 20.7147 -11.1021 
vt 20.7095 -11.0585 
vt 20.7256 -11.0654 
vt 20.7297 -11.1021 
vt 20.019 -10.987 
vt 19.2653 -11.0901 
vt 20.0969 -10.9179 
vt 19.9835 -10.9317 
vt 19.9962 -11.0379 
vt 19.9445 -11.044 
vt 20.0707 -11.0744 
vt 20.0263 -11.0226 
vt 20.0263 -11.0226 
vt 19.9445 -10.9628 
vt 19.9445 -11.0427 
vt 19.2653 -11.0901 
vt 19.9835 -10.9317 
vt 20.0969 -10.9179 
vt 20.0309 -11.0835 
vt 20.0707 -11.0744 
vt 20.0313 -11.0009 
vt 20.1097 -10.9917 
vt 19.9962 -11.0379 
vt 19.974 -11.1039 
vt 20.0777 -10.2618 
vt 19.7361 -10.9877 
vt 19.8723 -11.0555 
vt 19.9196 -11.7382 
vt 19.9384 -10.4129 
vt 19.9291 -10.3229 
vt 20.0987 -11.7347 
vt 20.1785 -11.0038 
vt 19.835 -10.9687 
vt 20.0619 -10.4167 
vt 19.9541 -10.3706 
vt 20.0734 -10.3434 
vt 19.9968 -10.2853 
vt 19.9291 -10.3229 
vt 20.0076 -10.2703 
vt 20.0877 -10.2682 
vt 20.0984 -10.2826 
vt 20.0687 -10.3734 
vt 20.0801 -10.4123 
vt 19.9384 -10.4129 
vt 20.1023 -10.4376 
vt 19.9163 -10.4383 
vt 19.9145 -11.0555 
vt 19.8329 -10.9825 
vt 19.8382 -11.0555 
vt 19.9196 -11.7382 
vt 19.9237 -10.975 
vt 19.7927 -10.9691 
vt 19.7122 -10.9455 
vt 19.7361 -10.9877 
vt 19.7922 -11.026 
vt 19.7951 -10.9292 
vt 20.2073 -10.9691 
vt 20.2878 -10.9455 
vt 20.2049 -10.9292 
vt 20.2639 -10.9877 
vt 20.2078 -11.026 
vt 20.0795 -11.0555 
vt 20.1655 -10.981 
vt 20.0761 -10.9737 
vt 20.1672 -11.0555 
vt 20.0987 -11.7347 
vt 20.2639 -11.0803 
vt 20.2351 -11.0347 
vt 20.2078 -11.1039 
vt 20.248 -10.9885 
vt 19.7649 -11.0347 
vt 19.7361 -11.0803 
vt 19.7922 -11.1039 
vt 20.1277 -10.9397 
vt 20.1345 -10.9007 
vt 19.8345 -10.987 
vt 19.96 -10.9317 
vt 19.8671 -10.9367 
vt 19.8706 -10.8961 
vt 20.0514 -10.9641 
vt 20.1277 -10.9397 
vt 20.1345 -10.9007 
vt 19.835 -11.0009 
vt 19.7649 -11.0347 
vt 19.8215 -11.0379 
vt 19.7922 -11.1039 
vt 19.752 -10.9885 
vt 20.165 -11.0009 
vt 20.2351 -11.0347 
vt 20.248 -10.9885 
vt 20.1785 -11.0379 
vt 20.2078 -11.1039 

usemtl Meshpart3Mtl

f 432/432/432 433/433/433 434/434/434 
f 433/433/433 432/432/432 436/436/436 
f 436/436/436 437/437/437 433/433/433 
f 441/441/441 442/442/442 443/443/443 
f 443/443/443 444/444/444 441/441/441 
f 445/445/445 442/442/442 441/441/441 
f 445/445/445 446/446/446 442/442/442 
f 448/448/448 449/449/449 450/450/450 
f 449/449/449 451/451/451 450/450/450 
f 449/449/449 448/448/448 452/452/452 
f 453/453/453 452/452/452 448/448/448 
f 453/453/453 454/454/454 452/452/452 
f 451/451/451 449/449/449 455/455/455 
f 455/455/455 456/456/456 451/451/451 
f 456/456/456 455/455/455 457/457/457 
f 458/458/458 456/456/456 457/457/457 
f 456/456/456 458/458/458 459/459/459 
f 463/463/463 464/464/464 465/465/465 
f 463/463/463 465/465/465 466/466/466 
f 464/464/464 463/463/463 467/467/467 
f 464/464/464 467/467/467 468/468/468 
f 469/469/469 470/470/470 471/471/471 
f 471/471/471 470/470/470 472/472/472 
f 470/470/470 469/469/469 473/473/473 
f 473/473/473 469/469/469 474/474/474 
f 485/485/485 486/486/486 487/487/487 
f 486/486/486 488/488/488 487/487/487 
f 485/485/485 490/490/490 489/489/489 
f 492/492/492 491/491/491 494/494/494 
f 491/491/491 493/493/493 495/495/495 
f 495/495/495 493/493/493 496/496/496 
f 497/497/497 500/500/500 499/499/499 
f 501/501/501 502/502/502 503/503/503 
f 504/504/504 505/505/505 506/506/506 
f 505/505/505 507/507/507 506/506/506 
f 505/505/505 504/504/504 508/508/508 
f 509/509/509 508/508/508 504/504/504 
f 509/509/509 510/510/510 508/508/508 
f 507/507/507 505/505/505 511/511/511 
f 512/512/512 507/507/507 511/511/511 
f 507/507/507 512/512/512 513/513/513 
f 513/513/513 512/512/512 514/514/514 
f 513/513/513 514/514/514 515/515/515 
f 517/517/517 518/518/518 519/519/519 
f 517/517/517 520/520/520 518/518/518 
f 520/520/520 517/517/517 521/521/521 
f 518/518/518 522/522/522 519/519/519 
f 522/522/522 523/523/523 519/519/519 
f 523/523/523 522/522/522 524/524/524 
f 525/525/525 523/523/523 524/524/524 
f 523/523/523 525/525/525 526/526/526 
f 525/525/525 527/527/527 526/526/526 
f 527/527/527 525/525/525 528/528/528 
f 529/529/529 530/530/530 531/531/531 
f 530/530/530 529/529/529 532/532/532 
f 530/530/530 532/532/532 533/533/533 
f 540/540/540 539/539/539 538/538/538 
f 539/539/539 540/540/540 541/541/541 
f 549/549/549 550/550/550 551/551/551 
f 552/552/552 553/553/553 554/554/554 
f 555/555/555 557/557/557 556/556/556 
f 558/558/558 560/560/560 559/559/559 
f 561/561/561 562/562/562 563/563/563 
f 562/562/562 565/565/565 563/563/563 
f 565/565/565 562/562/562 566/566/566 
f 568/568/568 569/569/569 570/570/570 
f 569/569/569 568/568/568 571/571/571 
f 570/570/570 572/572/572 568/568/568 
f 572/572/572 570/570/570 573/573/573 
f 574/574/574 575/575/575 576/576/576 
f 574/574/574 577/577/577 575/575/575 
f 577/577/577 574/574/574 578/578/578 
f 575/575/575 579/579/579 576/576/576 
f 580/580/580 576/576/576 579/579/579 
f 576/576/576 580/580/580 581/581/581 
f 582/582/582 584/584/584 583/583/583 
f 584/584/584 582/582/582 585/585/585 
f 594/594/594 595/595/595 596/596/596 
f 595/595/595 597/597/597 596/596/596 
f 595/595/595 594/594/594 598/598/598 
f 594/594/594 599/599/599 598/598/598 
f 600/600/600 601/601/601 602/602/602 
f 601/601/601 603/603/603 602/602/602 
f 602/602/602 604/604/604 600/600/600 
f 604/604/604 605/605/605 600/600/600 
f 616/616/616 617/617/617 618/618/618 
f 616/616/616 618/618/618 619/619/619 
f 617/617/617 620/620/620 618/618/618 
f 620/620/620 617/617/617 621/621/621 
f 621/621/621 617/617/617 622/622/622 
f 617/617/617 616/616/616 623/623/623 
f 616/616/616 624/624/624 623/623/623 
f 624/624/624 616/616/616 625/625/625 
f 625/625/625 626/626/626 624/624/624 
f 627/627/627 626/626/626 625/625/625 
f 628/628/628 629/629/629 630/630/630 
f 628/628/628 630/630/630 631/631/631 
f 629/629/629 628/628/628 632/632/632 
f 633/633/633 634/634/634 635/635/635 
f 633/633/633 635/635/635 636/636/636 
f 634/634/634 633/633/633 637/637/637 
f 638/638/638 639/639/639 640/640/640 
f 639/639/639 638/638/638 641/641/641 
f 638/638/638 642/642/642 641/641/641 
f 643/643/643 644/644/644 645/645/645 
f 644/644/644 643/643/643 646/646/646 
f 643/643/643 647/647/647 646/646/646 
f 648/648/648 649/649/649 650/650/650 
f 653/653/653 654/654/654 652/652/652 
f 659/659/659 658/658/658 660/660/660 
f 661/661/661 662/662/662 663/663/663 
f 664/664/664 665/665/665 666/666/666 
f 665/665/665 667/667/667 666/666/666 
f 665/665/665 664/664/664 668/668/668 
f 669/669/669 670/670/670 671/671/671 
f 670/670/670 669/669/669 672/672/672 
f 670/670/670 672/672/672 673/673/673 

g Meshpart4

v 1867.37 9.9544 2768.61 
v 1867.48 9.92482 2768.63 
v 1867.4 9.91188 2768.59 
v 1867.39 9.94592 2768.66 
v 1867.47 9.89232 2768.61 
v 1867.45 9.87537 2768.58 
v 1867.47 9.89339 2768.61 
v 1867.51 9.88323 2768.66 
v 1867.47 9.92235 2768.67 
v 1867.47 9.9247 2768.67 
v 1867.44 9.93016 2768.7 
v 1867.59 9.72363 2768.57 
v 1867.63 9.62741 2768.51 
v 1867.58 9.65504 2768.49 
v 1867.66 9.64205 2768.56 
v 1867.5 9.69589 2768.47 
v 1867.51 9.6836 2768.46 
v 1867.66 9.67538 2768.6 
v 1867.67 9.64324 2768.6 
v 1867.65 9.68588 2768.6 
v 1867.64 9.69512 2768.6 
v 1867.6 9.78329 2768.62 
v 1867.51 9.76165 2768.55 
v 1867.47 9.76606 2768.49 
v 1867.48 9.7848 2768.52 
v 1867.51 9.81399 2768.57 
v 1867.59 9.79608 2768.63 
v 1867.52 9.82542 2768.6 
v 1867.54 9.84186 2768.63 
v 1867.57 9.84038 2768.65 
v 1867.58 9.85468 2768.75 
v 1867.51 9.88675 2768.73 
v 1867.48 9.88778 2768.82 
v 1867.53 9.87994 2768.71 
v 1867.57 9.86553 2768.7 
v 1867.49 9.89989 2768.76 
v 1867.45 9.91801 2768.81 
v 1867.43 9.93358 2768.84 
v 1867.59 9.851 2768.77 
v 1867.45 9.9059 2768.92 
v 1867.56 9.85421 2768.85 
v 1867.62 9.81797 2768.86 
v 1867.62 9.81261 2768.87 
v 1867.53 9.86965 2768.95 
v 1867.46 9.90345 2768.93 
v 1867.58 9.83818 2768.96 
v 1867.62 9.81281 2768.93 
v 1867.63 9.80686 2768.88 
v 1867.64 9.78583 2768.9 

vn 0.322835 0.858268 -0.393701 
vn 0.559055 0.771654 -0.314961 
vn 0.322835 0.574803 -0.755906 
vn 0.251969 0.968504 0.0629921 
vn 0.425197 0.543307 -0.724409 
vn 0.322835 0.574803 -0.755906 
vn 0.748031 0.385827 -0.543307 
vn 0.771654 0.606299 -0.204724 
vn 0.669291 0.724409 0.173228 
vn 0.354331 0.929134 0.0944882 
vn 0.251969 0.968504 0.0629921 
vn 0.535433 0.566929 -0.629921 
vn 0.614173 0.566929 -0.551181 
vn 0.543307 0.606299 -0.582677 
vn 0.685039 0.519685 -0.519685 
vn 0.551181 0.598425 -0.582677 
vn 0.472441 0.637795 -0.606299 
vn 0.708661 0.496063 -0.503937 
vn 0.866142 0.338583 -0.362205 
vn 0.614173 0.551181 -0.566929 
vn 0.606299 0.480315 -0.637795 
vn 0.488189 0.543307 -0.685039 
vn 0.614173 0.511811 -0.598425 
vn 0.76378 0.433071 -0.488189 
vn 0.76378 0.409449 -0.503937 
vn 0.76378 0.370079 -0.535433 
vn 0.456693 0.559055 -0.692913 
vn 0.511811 0.527559 -0.677165 
vn 0.456693 0.559055 -0.692913 
vn 0.456693 0.559055 -0.692913 
vn 0.370079 0.92126 0.0866142 
vn 0.433071 0.897638 0.102362 
vn 0.543307 0.834646 0.0866142 
vn 0.370079 0.92126 0.0866142 
vn 0.370079 0.92126 0.0866142 
vn 0.677165 0.708661 0.173228 
vn 0.692913 0.708661 0.133858 
vn 0.700787 0.700787 0.110236 
vn 0.409449 0.905512 0.102362 
vn 0.488189 0.874016 0.00787402 
vn 0.464567 0.88189 0.0551181 
vn 0.519685 0.84252 0.141732 
vn 0.543307 0.834646 0.0472441 
vn 0.480315 0.874016 0 
vn 0.409449 0.913386 -0.0314961 
vn 0.551181 0.834646 0.023622 
vn 0.614173 0.787402 0.0472441 
vn 0.645669 0.76378 0.0551181 
vn 0.80315 0.582677 0.110236 

vt -0.0155987 0.874801 
vt -0.0155987 0.981252 
vt -0.0531657 0.910646 
vt 0.0219693 0.910386 
vt -0.0539857 0.986834 
vt -0.0791327 0.970685 
vt -0.0498907 0.989651 
vt -0.0155987 1.04129 
vt 0.0186933 0.989648 
vt 0.0227883 0.986834 
vt 0.0479353 0.970552 
vt -0.170366 1.15523 
vt -0.265719 1.21624 
vt -0.269969 1.15793 
vt -0.218004 1.24902 
vt -0.264517 1.06394 
vt -0.276087 1.07523 
vt -0.171436 1.24502 
vt -0.183646 1.27367 
vt -0.165812 1.2323 
vt -0.161183 1.22177 
vt -0.0958507 1.15187 
vt -0.165093 1.06712 
vt -0.213883 1.01272 
vt -0.173497 1.02584 
vt -0.11791 1.04352 
vt -0.0851567 1.14061 
vt -0.0882957 1.05872 
vt -0.0608897 1.07212 
vt -0.0455757 1.10668 
vt 0.0539603 1.14062 
vt 0.0570983 1.05872 
vt 0.133895 1.06712 
vt 0.0296933 1.07214 
vt 0.0143783 1.10669 
vt 0.0867123 1.04357 
vt 0.142299 1.02584 
vt 0.182686 1.01269 
vt 0.0646533 1.15187 
vt 0.233319 1.06394 
vt 0.139169 1.15523 
vt 0.129986 1.22177 
vt 0.134614 1.2323 
vt 0.238771 1.15793 
vt 0.244889 1.07522 
vt 0.234522 1.21626 
vt 0.186806 1.24902 
vt 0.140239 1.24502 
vt 0.152448 1.27358 

usemtl Meshpart4Mtl

f 674/674/674 675/675/675 676/676/676 
f 677/677/677 675/675/675 674/674/674 
f 676/676/676 678/678/678 679/679/679 
f 678/678/678 676/676/676 675/675/675 
f 678/678/678 675/675/675 680/680/680 
f 680/680/680 675/675/675 681/681/681 
f 675/675/675 682/682/682 681/681/681 
f 675/675/675 683/683/683 682/682/682 
f 675/675/675 677/677/677 683/683/683 
f 683/683/683 677/677/677 684/684/684 
f 685/685/685 686/686/686 687/687/687 
f 686/686/686 685/685/685 688/688/688 
f 689/689/689 687/687/687 690/690/690 
f 687/687/687 689/689/689 685/685/685 
f 691/691/691 692/692/692 688/688/688 
f 688/688/688 693/693/693 691/691/691 
f 688/688/688 685/685/685 693/693/693 
f 693/693/693 685/685/685 694/694/694 
f 685/685/685 695/695/695 694/694/694 
f 685/685/685 689/689/689 696/696/696 
f 696/696/696 695/695/695 685/685/685 
f 696/696/696 689/689/689 697/697/697 
f 696/696/696 697/697/697 698/698/698 
f 698/698/698 699/699/699 696/696/696 
f 695/695/695 696/696/696 700/700/700 
f 701/701/701 696/696/696 699/699/699 
f 700/700/700 696/696/696 701/701/701 
f 702/702/702 700/700/700 701/701/701 
f 700/700/700 702/702/702 703/703/703 
f 704/704/704 705/705/705 706/706/706 
f 705/705/705 704/704/704 707/707/707 
f 707/707/707 704/704/704 708/708/708 
f 706/706/706 705/705/705 709/709/709 
f 709/709/709 710/710/710 706/706/706 
f 711/711/711 706/706/706 710/710/710 
f 704/704/704 706/706/706 712/712/712 
f 706/706/706 711/711/711 713/713/713 
f 712/712/712 706/706/706 714/714/714 
f 706/706/706 713/713/713 714/714/714 
f 715/715/715 712/712/712 714/714/714 
f 714/714/714 716/716/716 715/715/715 
f 713/713/713 717/717/717 714/714/714 
f 717/717/717 713/713/713 718/718/718 
f 719/719/719 714/714/714 717/717/717 
f 720/720/720 714/714/714 719/719/719 
f 720/720/720 716/716/716 714/714/714 
f 716/716/716 720/720/720 721/721/721 
f 720/720/720 722/722/722 721/721/721 

