# Blender 5.0.0
# www.blender.org
g rigth_arm_boxing_rigth_arm_boxing
v 1375.810059 -389.609894 1028.349976
v 1375.910034 -389.449921 1028.530029
v 1375.859985 -389.617920 1028.329956
v 1375.959961 -389.456909 1028.510010
v 1375.859985 -389.446899 1028.550049
v 1375.920044 -389.630920 1028.319946
v 1376.010010 -389.412903 1028.750000
v 1375.829956 -389.807922 1028.180054
v 1375.959961 -389.410919 1028.770020
v 1376.020020 -389.466919 1028.489990
v 1376.060059 -389.420898 1028.729980
v 1376.119995 -389.430908 1028.699951
v 1376.079956 -389.492920 1028.459961
v 1376.180054 -389.446899 1028.680054
v 1375.989990 -389.714905 1028.339966
v 1376.239990 -389.472900 1028.640015
v 1376.140015 -389.536896 1028.420044
v 1376.329956 -389.501923 1028.599976
v 1376.209961 -389.585907 1028.369995
v 1375.900024 -389.418915 1028.790039
v 1375.849976 -389.436920 1028.810059
v 1375.810059 -389.454895 1028.579956
v 1375.800049 -389.460907 1028.819946
v 1375.760010 -389.471893 1028.609985
v 1376.119995 -390.355896 1028.619995
v 1376.089966 -390.406921 1028.619995
v 1376.119995 -390.418915 1028.569946
v 1376.150024 -390.388916 1028.550049
v 1376.189941 -390.357910 1028.540039
v 1376.229980 -390.457916 1028.540039
v 1376.229980 -390.274902 1028.780029
v 1375.760010 -389.604919 1028.380005
v 1375.709961 -389.606903 1028.410034
v 1375.660034 -389.614899 1028.449951
v 1375.709961 -389.493896 1028.630005
v 1375.619995 -389.627899 1028.489990
v 1375.670044 -389.521912 1028.660034
v 1375.849976 -390.035919 1028.150024
v 1375.790039 -390.020905 1028.160034
v 1375.729980 -390.005920 1028.180054
v 1375.670044 -389.992920 1028.199951
v 1375.619995 -389.981903 1028.229980
v 1375.709961 -389.782898 1028.219971
v 1375.770020 -389.793915 1028.189941
v 1375.660034 -389.774902 1028.239990
v 1375.900024 -389.833923 1028.170044
v 1375.569946 -389.968903 1028.270020
v 1375.619995 -389.770905 1028.280029
v 1375.540039 -389.955902 1028.319946
v 1375.579956 -389.769897 1028.329956
v 1375.510010 -389.943909 1028.369995
v 1375.550049 -389.770905 1028.380005
v 1375.520020 -389.775909 1028.420044
v 1375.589966 -389.645905 1028.530029
v 1375.910034 -390.050903 1028.150024
v 1375.959961 -389.875916 1028.170044
v 1376.020020 -389.923920 1028.180054
v 1376.040039 -389.844910 1028.319946
v 1376.099976 -389.908905 1028.310059
v 1376.069946 -389.766907 1028.359985
v 1376.130005 -389.830902 1028.300049
v 1376.410034 -389.529907 1028.569946
v 1376.300049 -389.623901 1028.339966
v 1376.500000 -389.558899 1028.540039
v 1376.209961 -389.873901 1028.250000
v 1376.380005 -389.655914 1028.310059
v 1376.569946 -389.593903 1028.520020
v 1376.640015 -389.631897 1028.489990
v 1376.459961 -389.686920 1028.300049
v 1376.540039 -389.718903 1028.290039
v 1376.459961 -389.934906 1028.199951
v 1376.380005 -389.918915 1028.209961
v 1376.300049 -389.900909 1028.219971
v 1376.359985 -390.179901 1028.540039
v 1376.300049 -390.173920 1028.650024
v 1376.339966 -390.249908 1028.540039
v 1376.280029 -390.228912 1028.650024
v 1376.380005 -390.368896 1028.530029
v 1376.300049 -390.291901 1028.550049
v 1376.329956 -390.412903 1028.540039
v 1376.239990 -390.256897 1028.650024
v 1376.270020 -390.315918 1028.550049
v 1376.199951 -390.271912 1028.650024
v 1376.280029 -390.440918 1028.540039
v 1376.229980 -390.334900 1028.540039
v 1376.170044 -390.293915 1028.780029
v 1376.170044 -390.289917 1028.640015
v 1376.150024 -390.316895 1028.619995
v 1375.469971 -389.905914 1028.540039
v 1375.489990 -389.813904 1028.619995
v 1375.489990 -389.793915 1028.540039
v 1375.560059 -389.749908 1028.800049
v 1375.530029 -389.744904 1028.670044
v 1375.520020 -389.804901 1028.739990
v 1375.560059 -389.826904 1028.859985
v 1375.500000 -389.851898 1028.699951
v 1375.469971 -389.893921 1028.619995
v 1375.479980 -390.050903 1028.640015
v 1375.489990 -390.094910 1028.589966
v 1375.520020 -390.156921 1028.780029
v 1375.530029 -389.878906 1028.810059
v 1375.510010 -389.917908 1028.780029
v 1375.550049 -389.954895 1028.880005
v 1375.589966 -389.894897 1028.930054
v 1375.579956 -390.021912 1028.930054
v 1375.520020 -389.996918 1028.839966
v 1375.540039 -390.078918 1028.869995
v 1375.479980 -389.893921 1028.680054
v 1375.489990 -389.952911 1028.739990
v 1375.489990 -389.999908 1028.699951
v 1375.510010 -390.014923 1028.800049
v 1375.510010 -390.079895 1028.790039
v 1375.869995 -389.834900 1029.170044
v 1375.800049 -389.460907 1028.819946
v 1376.089966 -390.377899 1028.699951
v 1376.079956 -390.459900 1028.709961
v 1376.099976 -390.446899 1028.760010
v 1376.219971 -390.375916 1028.839966
v 1376.079956 -390.409912 1028.680054
v 1376.119995 -390.355896 1028.619995
v 1376.099976 -390.509918 1028.719971
v 1376.119995 -390.521912 1028.760010
v 1376.170044 -390.520905 1028.800049
v 1376.109985 -390.528900 1028.670044
v 1376.089966 -390.470917 1028.640015
v 1376.089966 -390.406921 1028.619995
v 1376.420044 -390.196899 1028.790039
v 1376.369995 -390.280914 1028.819946
v 1376.290039 -390.241913 1028.760010
v 1376.229980 -390.274902 1028.780029
v 1375.709961 -389.493896 1028.630005
v 1375.750000 -389.491913 1028.829956
v 1375.670044 -389.521912 1028.660034
v 1375.709961 -389.529907 1028.839966
v 1375.810059 -389.623901 1029.030029
v 1375.819946 -389.832916 1029.150024
v 1375.819946 -390.030914 1029.140015
v 1375.770020 -389.831909 1029.119995
v 1375.760010 -389.646912 1029.010010
v 1375.770020 -390.012909 1029.119995
v 1375.660034 -390.308899 1028.880005
v 1375.589966 -390.317902 1028.719971
v 1375.510010 -389.943909 1028.369995
v 1375.550049 -389.770905 1028.380005
v 1375.489990 -389.931915 1028.420044
v 1375.520020 -389.775909 1028.420044
v 1375.589966 -389.645905 1028.530029
v 1375.560059 -390.272919 1028.739990
v 1375.510010 -390.130920 1028.550049
v 1375.479980 -389.919922 1028.469971
v 1375.510010 -389.782898 1028.479980
v 1375.619995 -390.265900 1028.880005
v 1375.540039 -390.221893 1028.760010
v 1375.699951 -390.156921 1029.010010
v 1375.589966 -390.216919 1028.890015
v 1375.719971 -389.992920 1029.099976
v 1375.660034 -390.120911 1028.989990
v 1375.560059 -390.154907 1028.880005
v 1375.709961 -389.832916 1029.079956
v 1375.680054 -389.968903 1029.060059
v 1375.619995 -390.076904 1028.969971
v 1375.630005 -389.938904 1029.000000
v 1375.660034 -389.835907 1029.020020
v 1375.609985 -389.836914 1028.969971
v 1375.699951 -389.678894 1028.989990
v 1375.650024 -389.721893 1028.959961
v 1375.599976 -389.770905 1028.910034
v 1375.660034 -389.581909 1028.839966
v 1375.619995 -389.650909 1028.849976
v 1375.589966 -389.714905 1028.849976
v 1375.640015 -389.558899 1028.689941
v 1375.599976 -389.607910 1028.719971
v 1375.569946 -389.667908 1028.569946
v 1375.569946 -389.673920 1028.750000
v 1375.540039 -389.699921 1028.619995
v 1376.069946 -390.005920 1028.560059
v 1376.069946 -389.766907 1028.359985
v 1376.089966 -390.045898 1028.520020
v 1376.160034 -390.217896 1028.780029
v 1376.459961 -390.097900 1028.770020
v 1376.369995 -390.094910 1028.530029
v 1376.359985 -390.179901 1028.540039
v 1376.319946 -390.102905 1028.650024
v 1376.300049 -390.173920 1028.650024
v 1376.349976 -390.104919 1028.750000
v 1376.319946 -390.181915 1028.760010
v 1376.280029 -390.228912 1028.650024
v 1376.239990 -390.256897 1028.650024
v 1376.199951 -390.271912 1028.650024
v 1376.170044 -390.293915 1028.780029
v 1376.140015 -390.316895 1028.760010
v 1376.170044 -390.289917 1028.640015
v 1376.150024 -390.316895 1028.619995
v 1376.119995 -390.344910 1028.729980
v 1376.130005 -390.428894 1028.800049
v 1376.170044 -390.405914 1028.829956
v 1376.010010 -389.412903 1028.750000
v 1375.959961 -389.410919 1028.770020
v 1376.060059 -389.420898 1028.729980
v 1376.089966 -389.588898 1029.000000
v 1376.140015 -389.598907 1028.979980
v 1376.119995 -389.430908 1028.699951
v 1376.180054 -389.446899 1028.680054
v 1376.239990 -389.472900 1028.640015
v 1376.189941 -389.608917 1028.959961
v 1376.250000 -389.620911 1028.930054
v 1376.319946 -389.637909 1028.900024
v 1376.329956 -389.501923 1028.599976
v 1376.329956 -389.913910 1029.060059
v 1376.260010 -389.894897 1029.099976
v 1376.209961 -389.880920 1029.130005
v 1376.150024 -389.871918 1029.150024
v 1376.099976 -389.861908 1029.170044
v 1376.050049 -389.852905 1029.180054
v 1376.030029 -389.583923 1029.020020
v 1375.989990 -389.844910 1029.189941
v 1375.900024 -389.418915 1028.790039
v 1375.969971 -389.585907 1029.030029
v 1375.930054 -389.838898 1029.180054
v 1375.869995 -389.834900 1029.170044
v 1375.910034 -389.594910 1029.040039
v 1375.849976 -389.436920 1028.810059
v 1375.859985 -389.606903 1029.030029
v 1375.800049 -389.460907 1028.819946
v 1376.219971 -390.375916 1028.839966
v 1376.380005 -390.409912 1028.810059
v 1376.469971 -390.324921 1028.790039
v 1376.530029 -390.213898 1028.750000
v 1376.420044 -390.196899 1028.790039
v 1376.369995 -390.280914 1028.819946
v 1376.290039 -390.241913 1028.760010
v 1376.290039 -390.337921 1028.839966
v 1376.229980 -390.274902 1028.780029
v 1375.750000 -389.491913 1028.829956
v 1375.810059 -389.623901 1029.030029
v 1375.819946 -389.832916 1029.150024
v 1376.040039 -389.844910 1028.319946
v 1376.099976 -389.908905 1028.310059
v 1376.140015 -389.978912 1028.300049
v 1376.199951 -390.093903 1028.439941
v 1376.199951 -390.251923 1028.550049
v 1376.170044 -390.052917 1028.489990
v 1376.170044 -390.255920 1028.630005
v 1376.109985 -390.017914 1028.540039
v 1376.130005 -390.254913 1028.709961
v 1376.069946 -390.005920 1028.560059
v 1376.410034 -389.932922 1029.010010
v 1376.410034 -389.655914 1028.859985
v 1376.500000 -389.945923 1028.959961
v 1376.410034 -389.529907 1028.569946
v 1376.489990 -389.672913 1028.829956
v 1376.579956 -389.954895 1028.910034
v 1376.500000 -389.558899 1028.540039
v 1376.579956 -389.692902 1028.790039
v 1376.650024 -389.964905 1028.859985
v 1376.569946 -389.593903 1028.520020
v 1376.650024 -389.718903 1028.750000
v 1376.709961 -389.976898 1028.810059
v 1376.709961 -389.747894 1028.699951
v 1376.640015 -389.631897 1028.489990
v 1376.459961 -390.097900 1028.770020
v 1376.579956 -390.087921 1028.709961
v 1376.349976 -390.104919 1028.750000
v 1376.319946 -390.181915 1028.760010
v 1376.170044 -390.293915 1028.780029
v 1376.329956 -389.913910 1029.060059
v 1376.260010 -389.894897 1029.099976
v 1376.209961 -389.880920 1029.130005
v 1376.199951 -390.122894 1029.060059
v 1376.150024 -390.111908 1029.089966
v 1376.150024 -389.871918 1029.150024
v 1376.099976 -389.861908 1029.170044
v 1376.089966 -390.104919 1029.119995
v 1376.050049 -390.293915 1028.939941
v 1376.040039 -390.094910 1029.140015
v 1375.989990 -390.291901 1028.969971
v 1376.050049 -389.852905 1029.180054
v 1375.939941 -390.282898 1028.989990
v 1375.989990 -390.082916 1029.150024
v 1375.989990 -389.844910 1029.189941
v 1375.930054 -390.066895 1029.160034
v 1375.930054 -389.838898 1029.180054
v 1375.890015 -390.267914 1029.000000
v 1375.869995 -390.048920 1029.150024
v 1375.829956 -390.244904 1029.010010
v 1375.869995 -389.834900 1029.170044
v 1376.219971 -390.375916 1028.839966
v 1376.219971 -390.503906 1028.819946
v 1376.290039 -390.467896 1028.829956
v 1376.119995 -390.521912 1028.760010
v 1376.170044 -390.520905 1028.800049
v 1376.160034 -390.560913 1028.689941
v 1376.209961 -390.569916 1028.719971
v 1376.239990 -390.549896 1028.609985
v 1376.300049 -390.535919 1028.609985
v 1376.270020 -390.556915 1028.729980
v 1376.349976 -390.517914 1028.729980
v 1376.380005 -390.409912 1028.810059
v 1376.439941 -390.449921 1028.709961
v 1376.520020 -390.351898 1028.680054
v 1376.469971 -390.324921 1028.790039
v 1376.530029 -390.213898 1028.750000
v 1376.290039 -390.337921 1028.839966
v 1375.819946 -390.030914 1029.140015
v 1375.780029 -390.217896 1029.020020
v 1375.770020 -390.012909 1029.119995
v 1375.739990 -390.188904 1029.010010
v 1375.689941 -390.346893 1028.869995
v 1375.660034 -390.308899 1028.880005
v 1375.739990 -390.382904 1028.859985
v 1375.790039 -390.410919 1028.839966
v 1375.619995 -390.356903 1028.699951
v 1375.660034 -390.394897 1028.670044
v 1375.589966 -390.317902 1028.719971
v 1375.839966 -390.428894 1028.819946
v 1375.709961 -390.423920 1028.650024
v 1375.760010 -390.441895 1028.630005
v 1375.900024 -390.437897 1028.800049
v 1375.819946 -390.451904 1028.599976
v 1375.959961 -390.440918 1028.770020
v 1375.880005 -390.458923 1028.569946
v 1376.099976 -390.255920 1028.839966
v 1375.939941 -390.457916 1028.540039
v 1376.020020 -390.435913 1028.729980
v 1375.979980 -390.442902 1028.520020
v 1375.619995 -390.265900 1028.880005
v 1375.699951 -390.156921 1029.010010
v 1376.109985 -390.398895 1028.619995
v 1376.170044 -390.255920 1028.630005
v 1376.069946 -390.422913 1028.680054
v 1376.130005 -390.254913 1028.709961
v 1376.160034 -390.217896 1028.780029
v 1376.219971 -390.261902 1028.699951
v 1376.260010 -390.146912 1029.000000
v 1376.329956 -390.177917 1028.930054
v 1376.410034 -389.932922 1029.010010
v 1376.500000 -389.945923 1028.959961
v 1376.410034 -390.195923 1028.869995
v 1376.290039 -390.289917 1028.640015
v 1376.579956 -389.954895 1028.910034
v 1376.489990 -390.199921 1028.819946
v 1376.650024 -389.964905 1028.859985
v 1376.709961 -389.976898 1028.810059
v 1376.569946 -390.196899 1028.780029
v 1376.630005 -390.191895 1028.729980
v 1376.530029 -390.278900 1028.530029
v 1376.449951 -390.289917 1028.560059
v 1376.380005 -390.295898 1028.599976
v 1376.359985 -390.500916 1028.609985
v 1376.130005 -390.428894 1028.800049
v 1376.170044 -390.405914 1028.829956
v 1375.920044 -389.630920 1028.319946
v 1375.829956 -389.807922 1028.180054
v 1376.079956 -389.492920 1028.459961
v 1375.989990 -389.714905 1028.339966
v 1376.199951 -390.122894 1029.060059
v 1376.050049 -390.293915 1028.939941
v 1376.349976 -390.517914 1028.729980
v 1376.439941 -390.449921 1028.709961
v 1376.439941 -390.437897 1028.599976
v 1376.520020 -390.351898 1028.680054
v 1376.530029 -390.213898 1028.750000
v 1375.959961 -390.440918 1028.770020
v 1376.099976 -390.255920 1028.839966
v 1376.020020 -390.435913 1028.729980
v 1375.979980 -390.442902 1028.520020
v 1375.900024 -389.833923 1028.170044
v 1375.910034 -390.050903 1028.150024
v 1376.020020 -390.413910 1028.489990
v 1375.949951 -390.068909 1028.170044
v 1376.020020 -389.923920 1028.180054
v 1376.040039 -389.844910 1028.319946
v 1376.099976 -389.908905 1028.310059
v 1375.959961 -390.270905 1028.310059
v 1376.060059 -389.986908 1028.199951
v 1376.000000 -390.095917 1028.199951
v 1376.050049 -390.367920 1028.459961
v 1376.000000 -390.253906 1028.319946
v 1376.040039 -390.125916 1028.250000
v 1376.060059 -390.226898 1028.329956
v 1376.099976 -390.072906 1028.260010
v 1376.140015 -389.978912 1028.300049
v 1376.130005 -390.185913 1028.359985
v 1376.079956 -390.312897 1028.430054
v 1376.150024 -390.049896 1028.310059
v 1376.140015 -390.292908 1028.469971
v 1376.140015 -390.360901 1028.560059
v 1376.180054 -390.138916 1028.400024
v 1376.109985 -390.398895 1028.619995
v 1376.189941 -390.236908 1028.479980
v 1376.199951 -390.093903 1028.439941
v 1376.199951 -390.251923 1028.550049
v 1376.170044 -390.255920 1028.630005
v 1376.130005 -390.254913 1028.709961
v 1376.069946 -390.005920 1028.560059
v 1376.579956 -390.087921 1028.709961
v 1376.579956 -390.223907 1028.640015
v 1376.619995 -390.078918 1028.589966
v 1376.550049 -390.219910 1028.540039
v 1376.579956 -390.076904 1028.489990
v 1376.459961 -390.199921 1028.489990
v 1376.500000 -390.344910 1028.569946
v 1376.430054 -390.299896 1028.520020
v 1376.380005 -390.368896 1028.530029
v 1376.359985 -390.500916 1028.609985
v 1375.989990 -389.714905 1028.339966
v 1376.079956 -390.459900 1028.709961
v 1376.099976 -390.509918 1028.719971
v 1376.119995 -390.521912 1028.760010
v 1376.109985 -390.528900 1028.670044
v 1376.089966 -390.470917 1028.640015
v 1376.089966 -390.406921 1028.619995
v 1376.160034 -390.560913 1028.689941
v 1376.140015 -390.525909 1028.609985
v 1376.130005 -390.475922 1028.579956
v 1376.119995 -390.418915 1028.569946
v 1376.150024 -390.388916 1028.550049
v 1376.189941 -390.357910 1028.540039
v 1376.180054 -390.470917 1028.550049
v 1376.229980 -390.457916 1028.540039
v 1376.180054 -390.545898 1028.609985
v 1376.209961 -390.569916 1028.719971
v 1376.239990 -390.549896 1028.609985
v 1376.300049 -390.535919 1028.609985
v 1376.439941 -390.437897 1028.599976
v 1375.619995 -390.356903 1028.699951
v 1375.660034 -390.394897 1028.670044
v 1375.589966 -390.317902 1028.719971
v 1375.709961 -390.423920 1028.650024
v 1375.760010 -390.441895 1028.630005
v 1375.819946 -390.451904 1028.599976
v 1375.689941 -390.255920 1028.380005
v 1375.640015 -390.240906 1028.410034
v 1375.880005 -390.458923 1028.569946
v 1375.750000 -390.267914 1028.349976
v 1376.099976 -390.255920 1028.839966
v 1375.939941 -390.457916 1028.540039
v 1375.810059 -390.279907 1028.329956
v 1375.869995 -390.286896 1028.310059
v 1375.979980 -390.442902 1028.520020
v 1375.849976 -390.035919 1028.150024
v 1375.790039 -390.020905 1028.160034
v 1375.729980 -390.005920 1028.180054
v 1375.670044 -389.992920 1028.199951
v 1375.619995 -389.981903 1028.229980
v 1375.569946 -389.968903 1028.270020
v 1375.599976 -390.217896 1028.439941
v 1375.540039 -389.955902 1028.319946
v 1375.560059 -390.190918 1028.479980
v 1375.510010 -389.943909 1028.369995
v 1375.530029 -390.161896 1028.510010
v 1375.489990 -389.931915 1028.420044
v 1375.560059 -390.272919 1028.739990
v 1375.510010 -390.130920 1028.550049
v 1375.920044 -390.282898 1028.300049
v 1375.910034 -390.050903 1028.150024
v 1376.020020 -390.413910 1028.489990
v 1375.949951 -390.068909 1028.170044
v 1375.959961 -390.270905 1028.310059
v 1376.000000 -390.095917 1028.199951
v 1376.050049 -390.367920 1028.459961
v 1376.069946 -390.005920 1028.560059
v 1376.069946 -389.766907 1028.359985
v 1376.089966 -390.045898 1028.520020
v 1376.160034 -390.217896 1028.780029
v 1376.130005 -389.830902 1028.300049
v 1376.219971 -390.261902 1028.699951
v 1376.140015 -390.107910 1028.439941
v 1376.290039 -390.289917 1028.640015
v 1376.209961 -389.873901 1028.250000
v 1376.530029 -390.278900 1028.530029
v 1376.459961 -389.934906 1028.199951
v 1376.449951 -390.289917 1028.560059
v 1376.380005 -390.165894 1028.329956
v 1376.459961 -390.163910 1028.310059
v 1376.380005 -389.918915 1028.209961
v 1376.380005 -390.295898 1028.599976
v 1376.300049 -390.161896 1028.349976
v 1376.300049 -389.900909 1028.219971
v 1376.209961 -390.145905 1028.380005
v 1376.579956 -390.076904 1028.489990
v 1376.459961 -390.199921 1028.489990
v 1376.479980 -390.083923 1028.469971
v 1376.369995 -390.094910 1028.530029
v 1376.430054 -390.299896 1028.520020
v 1376.359985 -390.179901 1028.540039
v 1376.339966 -390.249908 1028.540039
v 1376.380005 -390.368896 1028.530029
v 1376.329956 -390.412903 1028.540039
v 1376.280029 -390.440918 1028.540039
v 1376.359985 -390.500916 1028.609985
v 1376.439941 -389.923920 1028.180054
v 1376.619995 -389.958923 1028.109985
v 1376.520020 -389.939911 1028.130005
v 1376.599976 -389.695923 1028.219971
v 1376.699951 -389.728912 1028.189941
v 1376.520020 -389.689911 1028.260010
v 1376.810059 -389.639923 1028.410034
v 1376.630005 -389.598907 1028.479980
v 1376.719971 -389.601898 1028.449951
v 1376.520020 -389.689911 1028.260010
v 1376.699951 -389.729919 1028.719971
v 1376.630005 -389.598907 1028.479980
v 1376.439941 -390.176910 1028.300049
v 1376.439941 -389.923920 1028.180054
v 1376.619995 -390.216919 1028.760010
v 1376.709961 -389.982910 1028.849976
v 1376.510010 -390.307922 1028.540039
v 1376.709961 -389.982910 1028.849976
v 1376.880005 -390.017914 1028.770020
v 1376.800049 -390.001923 1028.819946
v 1376.810059 -389.639923 1028.410034
v 1376.630005 -389.598907 1028.479980
v 1376.719971 -389.601898 1028.449951
v 1376.800049 -389.737915 1028.689941
v 1376.880005 -389.768921 1028.640015
v 1376.699951 -389.729919 1028.719971
v 1376.510010 -390.307922 1028.540039
v 1376.599976 -390.339905 1028.510010
v 1376.719971 -390.245911 1028.729980
v 1376.619995 -390.216919 1028.760010
v 1376.689941 -390.337921 1028.469971
v 1376.800049 -390.248901 1028.680054
v 1376.709961 -389.982910 1028.849976
v 1376.880005 -390.017914 1028.770020
v 1376.800049 -390.001923 1028.819946
v 1376.619995 -390.207916 1028.229980
v 1376.699951 -389.728912 1028.189941
v 1376.880005 -389.768921 1028.640015
v 1376.810059 -389.639923 1028.410034
v 1376.619995 -389.958923 1028.109985
v 1376.800049 -390.248901 1028.680054
v 1376.689941 -390.337921 1028.469971
v 1376.880005 -390.017914 1028.770020
v 1376.510010 -390.307922 1028.540039
v 1376.439941 -390.176910 1028.300049
v 1376.520020 -390.203918 1028.260010
v 1376.439941 -389.923920 1028.180054
v 1376.599976 -390.339905 1028.510010
v 1376.689941 -390.337921 1028.469971
v 1376.619995 -390.207916 1028.229980
v 1376.619995 -389.958923 1028.109985
v 1376.520020 -389.939911 1028.130005
vn -0.2054 0.7267 -0.6556
vn -0.0787 0.9126 -0.4012
vn -0.1021 0.7073 -0.6995
vn -0.0000 0.8976 -0.4409
vn -0.2042 0.9188 -0.3377
vn 0.1661 0.6093 -0.7754
vn 0.1660 0.9721 0.1660
vn -0.0000 0.3768 -0.9263
vn 0.0315 0.9750 0.2201
vn 0.1577 0.8440 -0.5127
vn 0.2289 0.9630 0.1420
vn 0.2832 0.9518 0.1180
vn 0.2681 0.7414 -0.6152
vn 0.3530 0.9335 0.0627
vn 0.3632 0.9317 0.0079
vn 0.1022 0.6995 -0.7073
vn 0.3869 0.4343 -0.8134
vn 0.3231 0.9458 -0.0316
vn -0.0943 0.6840 -0.7233
vn -0.1260 0.9530 0.2756
vn -0.3452 0.9021 -0.2589
vn -0.2670 0.9111 0.3141
vn -0.4648 0.8667 -0.1812
vn -0.3941 0.8512 0.3467
vn -0.9202 0.1495 -0.3618
vn -0.7676 0.5381 -0.3482
vn -0.7417 -0.0000 -0.6707
vn -0.5266 0.2043 -0.8252
vn -0.3075 0.3548 -0.8829
vn -0.3297 0.7380 -0.5888
vn -0.4570 0.7327 -0.5043
vn -0.5662 0.7157 -0.4090
vn -0.5694 0.8146 -0.1108
vn -0.6595 0.6830 -0.3140
vn -0.6621 0.7488 -0.0316
vn -0.3307 0.4252 -0.8425
vn -0.3764 -0.2117 -0.9019
vn -0.4728 -0.1969 -0.8589
vn -0.6055 -0.1651 -0.7785
vn -0.2203 0.4012 -0.8891
vn -0.2901 -0.2117 -0.9333
vn -0.1256 -0.2276 -0.9656
vn -0.4722 0.4407 -0.7634
vn 0.2841 0.3315 -0.8997
vn -0.7361 -0.1266 -0.6649
vn -0.6075 0.4497 -0.6548
vn -0.8289 -0.0868 -0.5526
vn -0.7090 0.4493 -0.5435
vn -0.8993 -0.0552 -0.4339
vn -0.7893 0.4342 -0.4341
vn -0.8518 0.4181 -0.3155
vn -0.7390 0.6368 -0.2201
vn 0.0947 -0.2525 -0.9629
vn 0.4263 0.3237 -0.8447
vn 0.5334 0.2746 -0.8001
vn 0.7795 0.6063 -0.1575
vn 0.7764 0.6039 -0.1804
vn 0.3870 0.4344 -0.8134
vn -0.5453 -0.0316 -0.8377
vn -0.6150 0.0158 -0.7884
vn 0.2994 0.9533 -0.0394
vn -0.0316 0.6786 -0.7338
vn 0.3459 0.9356 -0.0708
vn -0.4090 -0.0157 -0.9124
vn 0.0551 0.6614 -0.7480
vn 0.4315 0.8944 -0.1177
vn 0.1264 0.6397 -0.7582
vn 0.4651 0.8751 -0.1340
vn 0.1494 0.6291 -0.7628
vn -0.0790 -0.0474 -0.9957
vn -0.1259 -0.0393 -0.9913
vn -0.2276 -0.0314 -0.9732
vn -0.9426 0.2985 -0.1493
vn -0.6643 0.0791 -0.7433
vn -0.7708 0.5978 -0.2203
vn -0.5421 0.1964 -0.8170
vn 0.1182 -0.2759 -0.9539
vn -0.3785 0.3627 -0.8516
vn 0.1491 -0.2747 -0.9499
vn -0.4805 0.8508 -0.2127
vn -0.2285 0.4728 -0.8510
vn -0.4315 0.8787 -0.2040
vn -0.3146 0.7946 0.5192
vn 0.1419 -0.2917 -0.9459
vn -0.1971 0.4573 -0.8672
vn -0.4552 0.7298 0.5101
vn -0.0000 -0.3303 -0.9439
vn -0.5500 0.7858 -0.2829
vn -0.6373 0.6924 -0.3384
vn -0.9977 0.0550 -0.0393
vn -0.9513 0.2909 0.1022
vn -0.9369 0.3464 -0.0472
vn -0.8980 0.3072 0.3151
vn -0.9084 0.3871 0.1580
vn -0.9190 0.2749 0.2828
vn -0.8892 0.2046 0.4092
vn -0.9444 0.2204 0.2440
vn -0.9918 0.0866 0.0945
vn -0.9875 -0.1501 0.0474
vn -0.9653 -0.2532 -0.0633
vn -0.9365 -0.2518 0.2440
vn -0.9088 0.1738 0.3793
vn -0.9311 0.1341 0.3393
vn -0.8775 0.0712 0.4743
vn -0.8571 0.1101 0.5032
vn -0.8213 -0.0474 0.5686
vn -0.9077 0.0316 0.4183
vn -0.8718 -0.1021 0.4791
vn -0.9751 0.1023 0.1966
vn -0.9670 0.0393 0.2516
vn -0.9871 -0.0553 0.1500
vn -0.9517 -0.0157 0.3067
vn -0.9496 -0.1177 0.2904
vn -0.8910 0.4258 0.1577
vn -0.9846 -0.1418 0.1024
vn -0.8642 -0.0157 0.5029
vn -0.9830 0.1808 -0.0315
vn -0.8482 -0.5105 0.1414
vn -0.6456 -0.6062 0.4645
vn -0.3381 -0.6291 0.6999
vn -0.9058 -0.2835 -0.3150
vn -0.7225 -0.6674 -0.1806
vn -0.9202 0.1495 -0.3617
vn 0.0551 0.2441 0.9682
vn 0.0708 0.2047 0.9763
vn -0.5030 0.6601 0.5579
vn -0.5694 0.8146 -0.1107
vn -0.5043 0.7801 0.3703
vn -0.6621 0.7488 -0.0315
vn -0.6073 0.6941 0.3865
vn -0.3791 0.5924 0.7109
vn -0.3940 0.2284 0.8903
vn -0.3553 -0.2526 0.9000
vn -0.2680 0.2206 0.9378
vn -0.5133 0.2211 0.8292
vn -0.4982 0.5378 0.6801
vn -0.4666 -0.1977 0.8621
vn -0.7893 0.4341 -0.4342
vn -0.9484 -0.0237 -0.3161
vn -0.8519 0.4180 -0.3155
vn -0.5820 -0.6056 0.5427
vn -0.8516 -0.5046 0.1420
vn -0.7893 -0.6078 0.0869
vn -0.9819 0.0157 -0.1886
vn -0.9256 -0.3402 -0.1661
vn -0.9006 0.3871 -0.1975
vn -0.6674 -0.5025 0.5496
vn -0.8992 -0.3944 0.1893
vn -0.7476 -0.3935 0.5351
vn -0.5295 -0.3951 0.7507
vn -0.5761 -0.1420 0.8049
vn -0.6300 -0.2992 0.7166
vn -0.8205 -0.2525 0.5128
vn -0.6379 0.2126 0.7402
vn -0.6938 -0.0631 0.7174
vn -0.7337 -0.1815 0.6548
vn -0.7883 0.0237 0.6149
vn -0.7487 0.2049 0.6305
vn -0.8205 0.1972 0.5365
vn -0.6301 0.4647 0.6222
vn -0.7390 0.3773 0.5582
vn -0.8315 0.2824 0.4785
vn -0.7098 0.5836 0.3944
vn -0.7969 0.4576 0.3945
vn -0.8512 0.3468 0.3940
vn -0.7412 0.6702 0.0394
vn -0.8185 0.5588 0.1338
vn -0.8037 0.5831 -0.1182
vn -0.8740 0.4330 0.2205
vn -0.8675 0.4969 0.0236
vn 0.6324 -0.4584 -0.6244
vn -0.5452 -0.0316 -0.8377
vn -0.7573 -0.5206 -0.3944
vn -0.3631 -0.9317 0.0079
vn -0.9743 0.1964 -0.1100
vn -0.6747 0.0314 -0.7374
vn -0.9427 0.2985 -0.1492
vn -0.6518 0.2749 0.7068
vn -0.6694 0.3938 0.6300
vn -0.7708 0.5978 -0.2202
vn 0.1734 0.1734 0.9695
vn -0.3147 0.7946 0.5192
vn -0.4806 0.8508 -0.2127
vn -0.4316 0.8787 -0.2040
vn -0.7160 0.5819 0.3858
vn -0.1579 0.1815 0.9706
vn -0.8337 0.4955 0.2438
vn -0.6373 0.6924 -0.3383
vn -0.7031 -0.0079 0.7110
vn -0.4656 0.0474 0.8837
vn 0.0315 0.9750 0.2202
vn 0.3228 0.6848 0.6533
vn 0.3784 0.6701 0.6386
vn 0.2289 0.9630 0.1421
vn 0.4089 0.6684 0.6213
vn 0.3530 0.9335 0.0628
vn 0.4581 0.6556 0.6003
vn 0.4787 0.6514 0.5886
vn 0.3232 0.9458 -0.0315
vn 0.5449 0.0474 0.8371
vn 0.5187 0.1022 0.8488
vn 0.4495 0.1341 0.8832
vn 0.3942 0.1498 0.9067
vn 0.3311 0.1577 0.9303
vn 0.1884 0.1806 0.9654
vn 0.1894 0.6943 0.6943
vn 0.0237 0.2052 0.9784
vn -0.1260 0.9530 0.2757
vn 0.0316 0.6867 0.7262
vn -0.1260 0.2127 0.9689
vn -0.1182 0.6699 0.7330
vn -0.2679 0.2207 0.9378
vn -0.2670 0.9110 0.3142
vn -0.2511 0.6357 0.7299
vn -0.3941 0.8511 0.3468
vn 0.0709 0.2047 0.9763
vn 0.6038 -0.2117 0.7685
vn 0.7005 -0.0866 0.7084
vn 0.0551 0.2440 0.9682
vn 0.4551 -0.3374 0.8240
vn 0.0235 0.2591 0.9656
vn -0.5029 0.6601 0.5580
vn -0.5043 0.7801 0.3704
vn -0.3939 0.2285 0.8903
vn 0.8896 0.2676 -0.3700
vn 0.8274 0.4648 0.3153
vn 0.9820 0.1886 -0.0078
vn 0.9803 -0.1898 0.0553
vn 0.7764 0.6039 -0.1803
vn 0.9045 -0.0393 0.4247
vn 0.8017 0.4874 0.3459
vn 0.7795 0.6063 -0.1574
vn 0.9051 -0.0157 0.4250
vn 0.6323 -0.4585 -0.6245
vn 0.5122 -0.0000 0.8589
vn 0.4474 0.6593 0.6043
vn 0.4876 -0.0157 0.8729
vn 0.4410 0.6616 0.6065
vn 0.5453 -0.0316 0.8377
vn 0.3459 0.9356 -0.0707
vn 0.5120 0.6381 0.5751
vn 0.6228 -0.0551 0.7805
vn 0.4315 0.8944 -0.1176
vn 0.6072 0.6072 0.5126
vn 0.6524 -0.0707 0.7546
vn 0.6474 0.5842 0.4895
vn 0.4651 0.8750 -0.1340
vn 0.8032 -0.0787 0.5905
vn -0.6694 0.3937 0.6300
vn 0.5343 -0.5737 0.6208
vn 0.5449 0.0473 0.8372
vn 0.4255 -0.4965 0.7566
vn 0.4494 0.1340 0.8832
vn 0.2754 -0.4642 0.8418
vn 0.4392 -0.7451 0.5020
vn 0.1964 -0.4479 0.8722
vn 0.1891 -0.7326 0.6538
vn 0.1884 0.1805 0.9654
vn 0.0865 -0.7084 0.7005
vn 0.0628 -0.4082 0.9107
vn 0.0237 0.2051 0.9784
vn -0.0943 -0.3616 0.9276
vn -0.1261 0.2126 0.9690
vn -0.0473 -0.6700 0.7409
vn -0.2289 -0.3078 0.9235
vn -0.1893 -0.6153 0.7652
vn -0.2679 0.2206 0.9378
vn -0.1578 0.1815 0.9706
vn -0.0000 -0.5601 0.8284
vn 0.2682 -0.4497 0.8520
vn -0.3631 -0.9314 0.0237
vn -0.0079 -0.9848 0.1734
vn 0.2999 -0.9155 0.2683
vn 0.0949 -0.8619 -0.4981
vn 0.3305 -0.8262 -0.4563
vn 0.5209 -0.8050 0.2842
vn 0.4552 -0.3375 0.8240
vn 0.6922 -0.6764 0.2517
vn 0.6038 -0.2118 0.7685
vn 0.8561 -0.4870 0.1729
vn 0.0236 0.2590 0.9656
vn -0.3553 -0.2527 0.9000
vn -0.3147 -0.5427 0.7787
vn -0.4253 -0.4726 0.7719
vn -0.4666 -0.1978 0.8621
vn -0.4783 -0.6978 0.5332
vn -0.3620 -0.7792 0.5116
vn -0.2128 -0.8593 0.4651
vn -0.7068 -0.7068 0.0314
vn -0.6010 -0.7987 -0.0316
vn -0.0633 -0.9094 0.4112
vn -0.4636 -0.8801 -0.1021
vn -0.3237 -0.9315 -0.1657
vn 0.0472 -0.9280 0.3696
vn -0.2281 -0.9519 -0.2045
vn 0.2591 -0.9186 0.2984
vn -0.1421 -0.9630 -0.2289
vn 0.0158 -0.9611 -0.2757
vn 0.5125 -0.8358 0.1971
vn 0.6209 -0.7310 0.2830
vn 0.2276 -0.9105 -0.3453
vn -0.6674 -0.5025 0.5497
vn -0.5294 -0.3951 0.7507
vn 0.9045 -0.0394 0.4247
vn 0.6398 -0.7504 0.1659
vn 0.7233 -0.6840 0.0944
vn 0.9051 -0.0158 0.4250
vn 0.3776 -0.7002 0.6058
vn 0.6209 -0.7310 0.2829
vn -0.3632 -0.9317 0.0079
vn 0.1974 -0.7499 0.6314
vn -0.4334 -0.8984 0.0709
vn 0.4876 -0.0158 0.8729
vn 0.2605 -0.7500 0.6079
vn -0.2203 -0.9754 -0.0079
vn 0.3398 -0.7428 0.5769
vn 0.6228 -0.0552 0.7805
vn 0.4024 -0.7417 0.5366
vn 0.6524 -0.0708 0.7546
vn 0.4255 -0.7406 0.5200
vn 0.1106 -0.9877 -0.1106
vn 0.0710 -0.9930 -0.0946
vn -0.0392 -0.9973 -0.0628
vn 0.4783 -0.7606 -0.4391
vn -0.4655 0.0473 0.8838
vn 0.3870 0.4343 -0.8134
vn 0.1662 0.6092 -0.7754
vn 0.5209 -0.8050 0.2841
vn 0.5848 -0.6638 -0.4662
vn 0.6922 -0.6765 0.2516
vn 0.8562 -0.4870 0.1727
vn 0.6210 -0.7310 0.2829
vn 0.4392 -0.7451 0.5019
vn 0.5344 -0.5736 0.6208
vn 0.5334 0.2745 -0.8001
vn 0.3001 -0.3158 -0.9001
vn 0.0948 -0.2526 -0.9629
vn 0.6285 -0.0000 -0.7778
vn 0.4266 -0.3950 -0.8137
vn 0.2760 -0.6307 -0.7253
vn 0.3944 -0.5836 -0.7098
vn 0.4870 -0.6911 -0.5341
vn 0.5119 -0.4489 -0.7324
vn 0.5121 -0.5279 -0.6776
vn 0.6465 -0.2996 -0.7017
vn 0.8896 0.2677 -0.3700
vn 0.6471 -0.4498 -0.6155
vn 0.5428 -0.5899 -0.5978
vn 0.8376 -0.1343 -0.5295
vn 0.6934 -0.5437 -0.4728
vn 0.7555 -0.6296 -0.1810
vn 0.3948 -0.8054 -0.4422
vn 0.8817 -0.2204 -0.4172
vn 0.7233 -0.6840 0.0943
vn 0.8811 -0.3383 -0.3304
vn 0.9820 0.1885 -0.0079
vn 0.9051 -0.0157 0.4249
vn 0.6324 -0.4585 -0.6244
vn 0.8032 -0.0788 0.5905
vn 0.9463 -0.3154 0.0710
vn 0.9572 -0.2825 -0.0628
vn 0.6798 -0.3715 -0.6324
vn 0.6517 -0.3298 -0.6831
vn -0.0237 -0.1976 -0.9800
vn 0.6774 -0.5041 -0.5357
vn 0.0710 -0.2364 -0.9691
vn 0.1183 -0.2760 -0.9539
vn 0.4783 -0.7605 -0.4390
vn -0.7224 -0.6675 -0.1806
vn -0.8482 -0.5105 0.1413
vn -0.3631 -0.9314 0.0236
vn -0.9057 -0.2835 -0.3151
vn -0.5730 -0.6594 -0.4867
vn -0.9202 0.1494 -0.3618
vn -0.6609 -0.3698 -0.6531
vn -0.2833 -0.3778 -0.8815
vn -0.5265 0.2043 -0.8252
vn -0.3075 0.3547 -0.8830
vn -0.0000 -0.3304 -0.9438
vn -0.2282 -0.8185 -0.5273
vn -0.0079 -0.9848 0.1733
vn 0.0949 -0.8619 -0.4982
vn 0.3304 -0.8262 -0.4564
vn -0.4636 -0.8801 -0.1022
vn -0.4581 -0.6556 -0.6003
vn -0.3237 -0.9315 -0.1658
vn -0.2282 -0.9519 -0.2046
vn -0.6010 -0.7987 -0.0317
vn -0.5842 -0.6157 -0.5288
vn -0.3871 -0.6714 -0.6319
vn -0.3227 -0.6848 -0.6533
vn 0.0157 -0.9611 -0.2758
vn -0.1732 -0.6925 -0.7003
vn 0.2276 -0.9105 -0.3454
vn -0.1256 -0.2277 -0.9656
vn -0.2902 -0.2118 -0.9332
vn -0.3765 -0.2118 -0.9019
vn -0.4728 -0.1970 -0.8589
vn -0.6055 -0.1652 -0.7785
vn -0.7361 -0.1267 -0.6649
vn -0.7015 -0.5596 -0.4414
vn -0.7068 -0.7067 0.0314
vn -0.8289 -0.0869 -0.5526
vn -0.7967 -0.4891 -0.3550
vn -0.7893 -0.6078 0.0868
vn -0.8993 -0.0553 -0.4339
vn -0.8716 -0.4162 -0.2591
vn -0.8516 -0.5046 0.1419
vn 0.0709 -0.6772 -0.7324
vn 0.0947 -0.2526 -0.9629
vn 0.3000 -0.3159 -0.9001
vn 0.4265 -0.3950 -0.8136
vn 0.4869 -0.6911 -0.5341
vn 0.6324 -0.4584 -0.6245
vn -0.3632 -0.9317 0.0080
vn -0.7334 -0.5362 -0.4179
vn -0.2202 -0.9754 -0.0079
vn -0.1578 -0.6943 -0.7022
vn 0.1106 -0.9877 -0.1107
vn 0.0709 -0.9930 -0.0946
vn -0.1099 -0.6909 -0.7145
vn -0.0790 -0.0475 -0.9957
vn -0.1259 -0.0394 -0.9913
vn -0.2838 -0.6859 -0.6701
vn -0.0393 -0.9973 -0.0628
vn -0.5036 -0.6453 -0.5744
vn 0.6517 -0.3297 -0.6831
vn -0.0238 -0.1976 -0.9800
vn -0.0158 -0.2052 -0.9786
vn -0.6747 0.0313 -0.7375
vn -0.6642 0.0791 -0.7433
vn 0.0709 -0.2364 -0.9691
vn -0.5421 0.1964 -0.8171
vn 0.5848 -0.6638 -0.4663
vn 0.1492 -0.2748 -0.9499
vn -0.1183 0.7177 -0.6862
vn -0.1975 -0.0395 -0.9795
vn -0.3632 -0.0000 -0.9317
vn -0.5212 0.0316 -0.8529
vn 0.0473 0.6700 -0.7409
vn -0.2841 0.7417 -0.6076
vn 0.3784 0.9223 -0.0788
vn 0.0471 0.9974 0.0549
vn 0.2127 0.9768 -0.0237
vn -0.9048 0.1810 0.3855
vn -0.9048 0.1809 0.3855
vn 0.4197 0.6651 0.6176
vn 0.2127 0.9768 -0.0236
vn 0.0471 0.9974 0.0550
vn 0.5605 0.6237 0.5448
vn 0.5687 -0.0395 0.8216
vn 0.4090 -0.0157 0.9124
vn 0.2444 0.0237 0.9694
vn 0.2678 0.6852 0.6773
vn 0.1654 -0.7244 0.6693
vn -0.3297 -0.9420 0.0628
vn -0.1657 -0.9862 -0.0000
vn -0.0000 -0.6832 0.7303
vn -0.0000 -0.9969 -0.0785
vn 0.3313 -0.7414 0.5836
vn 0.2444 0.0236 0.9694
vn 0.9048 -0.1810 -0.3855
vn -0.5201 -0.6383 -0.5674
vn -0.3764 -0.6744 -0.6352
vn -0.5212 0.0315 -0.8529
vn -0.2207 -0.6936 -0.6857
vt 42.035400 -26.825100
vt 41.776001 -26.824900
vt 42.032600 -26.882700
vt 41.773399 -26.881500
vt 41.779999 -26.767599
vt 42.028198 -26.943399
vt 41.574501 -26.824900
vt 42.267899 -26.950600
vt 41.581100 -26.767599
vt 41.770901 -26.939600
vt 41.572800 -26.881300
vt 41.571999 -26.938999
vt 41.780102 -27.006500
vt 41.576000 -27.005501
vt 41.587898 -27.087000
vt 41.809299 -27.087299
vt 42.042000 -27.020700
vt 41.599499 -27.180099
vt 41.844501 -27.180099
vt 41.597198 -26.709499
vt 41.789299 -26.709499
vt 41.620399 -26.655899
vt 41.802601 -26.655899
vt 41.647301 -26.611099
vt 42.288200 -27.123400
vt 42.247501 -27.137699
vt 42.315399 -27.168400
vt 42.297901 -27.200500
vt 42.266701 -27.238199
vt 42.035801 -26.767599
vt 42.035801 -26.709499
vt 42.035801 -26.655899
vt 41.818100 -26.611099
vt 42.035801 -26.611099
vt 41.836102 -26.572001
vt 42.273701 -26.825399
vt 42.440399 -26.888300
vt 42.440102 -26.825800
vt 42.433701 -26.767599
vt 42.272301 -26.885500
vt 42.438000 -26.957800
vt 42.431499 -27.022600
vt 42.270302 -26.767599
vt 42.265701 -27.017799
vt 42.417599 -26.709499
vt 42.261002 -26.709499
vt 42.394402 -26.655899
vt 42.247700 -26.655899
vt 42.367500 -26.611099
vt 42.232201 -26.611099
vt 42.214199 -26.572001
vt 42.035801 -26.572001
vt 42.418400 -27.071600
vt 42.270000 -27.082100
vt 42.273602 -27.138399
vt 42.118999 -27.093599
vt 42.147202 -27.167000
vt 42.033501 -27.089100
vt 42.089500 -27.180099
vt 41.603298 -27.278099
vt 41.860001 -27.278099
vt 41.606800 -27.372000
vt 42.116699 -27.278099
vt 41.861599 -27.372000
vt 41.618401 -27.454800
vt 41.861198 -27.454800
vt 41.635399 -27.530701
vt 41.861198 -27.530701
vt 42.086899 -27.530701
vt 42.104099 -27.454800
vt 42.116299 -27.372000
vt 42.032200 -27.263300
vt 42.083500 -27.356501
vt 42.077499 -27.250299
vt 42.134800 -27.347900
vt 42.204300 -27.414900
vt 42.173500 -27.323000
vt 42.250599 -27.372101
vt 42.108799 -27.216900
vt 42.204601 -27.292400
vt 42.134602 -27.183001
vt 42.047501 -27.163401
vt 42.288799 -27.332001
vt 42.235001 -27.266600
vt 42.080399 -27.115000
vt 42.319901 -27.289200
vt 42.165100 -27.167101
vt 42.203300 -27.156601
vt 41.782600 -27.249300
vt 41.772900 -27.129999
vt 41.706402 -27.164301
vt 41.856300 -26.949100
vt 41.765202 -27.035801
vt 41.853100 -27.035801
vt 41.956799 -26.957500
vt 41.856300 -27.102501
vt 41.827900 -27.189899
vt 41.956799 -27.278500
vt 41.956799 -27.334900
vt 42.131001 -27.249300
vt 41.956799 -27.035801
vt 41.956799 -27.093500
vt 42.060501 -27.035801
vt 42.057400 -26.949100
vt 42.148499 -27.035801
vt 42.057400 -27.102501
vt 42.140800 -27.129999
vt 41.872501 -27.145399
vt 41.956799 -27.144800
vt 41.956799 -27.208900
vt 42.041100 -27.145399
vt 42.085800 -27.189899
vt 42.322701 -27.215900
vt 42.381199 -27.275600
vt 42.410400 -27.226000
vt 42.326599 -27.258699
vt 42.250401 -27.247499
vt 42.428299 -27.294001
vt 42.467899 -27.266500
vt 42.499699 -27.223801
vt 42.346699 -27.318600
vt 42.410198 -27.331100
vt 42.287102 -27.288200
vt 42.369999 -26.969400
vt 42.301701 -26.906900
vt 42.293800 -27.010099
vt 41.584099 -26.818100
vt 41.720100 -26.678600
vt 41.697601 -26.647301
vt 41.616501 -26.836100
vt 41.747398 -26.716499
vt 41.956799 -26.622101
vt 42.193600 -26.678600
vt 42.329601 -26.818100
vt 42.216099 -26.647301
vt 42.166302 -26.716499
vt 41.956799 -26.665701
vt 42.297199 -26.836100
vt 41.584099 -27.232201
vt 41.697601 -27.367500
vt 41.720100 -27.336201
vt 41.616501 -27.214199
vt 42.329601 -27.232201
vt 42.193600 -27.336201
vt 42.216099 -27.367500
vt 41.747398 -27.298300
vt 41.956799 -27.378401
vt 41.655701 -27.192400
vt 41.601700 -27.035801
vt 42.297199 -27.214199
vt 42.166302 -27.298300
vt 42.257999 -27.192400
vt 42.312000 -27.035801
vt 42.257999 -26.857901
vt 42.271099 -27.035801
vt 42.207199 -27.164301
vt 42.131001 -26.765499
vt 42.207199 -26.886000
vt 42.218102 -27.035801
vt 42.140800 -26.920601
vt 42.085800 -26.826500
vt 42.041100 -26.878901
vt 41.956799 -26.722099
vt 41.956799 -26.793800
vt 41.956799 -26.873301
vt 41.782600 -26.765499
vt 41.827900 -26.826500
vt 41.872501 -26.878901
vt 41.655701 -26.857901
vt 41.706402 -26.886000
vt 41.642601 -27.035801
vt 41.772900 -26.920601
vt 41.695599 -27.035801
vt 41.956799 -27.063801
vt 41.643600 -27.033501
vt 41.956799 -27.113300
vt 42.270100 -27.033501
vt 42.104801 -27.083500
vt 42.118599 -26.978201
vt 42.041302 -27.024500
vt 42.167198 -27.032200
vt 42.193501 -26.903601
vt 42.249599 -26.960600
vt 42.204498 -27.077499
vt 42.219200 -26.840900
vt 42.317699 -27.047501
vt 42.222500 -27.108801
vt 42.227200 -27.134600
vt 42.326500 -27.118099
vt 42.326000 -27.080400
vt 42.435101 -27.076900
vt 42.227798 -27.165100
vt 42.323898 -27.163601
vt 42.232899 -27.203300
vt 42.431400 -27.173800
vt 42.440399 -27.124800
vt 42.350101 -26.767599
vt 42.043201 -26.824900
vt 42.354801 -26.824900
vt 42.043201 -26.881300
vt 42.355499 -26.881300
vt 42.355400 -26.938999
vt 42.043201 -26.938999
vt 42.353901 -27.005501
vt 42.043201 -27.005400
vt 42.349602 -27.087000
vt 42.043201 -27.087000
vt 42.342201 -27.180099
vt 41.736698 -27.087000
vt 41.732399 -27.005501
vt 41.730900 -26.938999
vt 41.730801 -26.881300
vt 41.731499 -26.824900
vt 41.736198 -26.767599
vt 42.043201 -26.767599
vt 41.747799 -26.709499
vt 42.338501 -26.709499
vt 42.043201 -26.709499
vt 41.764500 -26.655899
vt 42.043201 -26.655899
vt 41.783901 -26.611099
vt 42.321800 -26.655899
vt 42.043201 -26.611099
vt 42.302399 -26.611099
vt 41.698299 -27.320299
vt 41.603699 -27.389400
vt 41.699600 -27.439400
vt 41.630001 -27.278799
vt 41.537800 -27.315100
vt 41.586498 -27.211500
vt 41.706200 -27.214800
vt 41.682301 -27.163401
vt 41.564899 -27.145901
vt 42.279900 -26.572001
vt 42.043201 -26.572001
vt 41.806400 -26.572001
vt 42.232399 -27.217199
vt 42.043201 -27.177799
vt 42.043201 -27.231400
vt 41.853901 -27.217199
vt 42.283699 -27.167000
vt 41.802700 -27.167000
vt 42.043201 -27.100500
vt 42.327599 -27.093599
vt 41.758701 -27.093599
vt 42.043201 -27.051800
vt 41.744099 -27.180099
vt 42.043201 -27.180099
vt 41.754700 -27.278099
vt 42.331600 -27.278099
vt 42.043201 -27.278099
vt 41.768600 -27.372000
vt 42.317699 -27.372000
vt 42.043201 -27.372000
vt 41.785599 -27.454800
vt 42.300701 -27.454800
vt 42.043201 -27.454800
vt 41.804298 -27.530701
vt 42.043201 -27.530701
vt 42.282001 -27.530701
vt 41.780800 -27.344299
vt 41.812302 -27.473600
vt 41.806499 -27.249901
vt 41.750401 -27.240999
vt 41.674000 -27.115000
vt 42.219898 -27.006500
vt 42.412102 -27.087000
vt 42.424000 -27.005501
vt 42.229099 -26.939600
vt 42.428001 -26.938999
vt 42.427200 -26.881300
vt 42.226601 -26.881500
vt 42.425499 -26.824900
vt 41.971802 -26.943399
vt 42.223999 -26.824900
vt 41.967400 -26.882700
vt 42.418900 -26.767599
vt 41.964600 -26.825100
vt 42.220001 -26.767599
vt 42.402802 -26.709499
vt 42.210701 -26.709499
vt 42.379601 -26.655899
vt 41.964199 -26.767599
vt 42.197399 -26.655899
vt 41.964199 -26.709499
vt 42.352699 -26.611099
vt 41.923100 -27.145901
vt 41.823700 -27.182600
vt 41.879299 -27.238501
vt 41.679699 -27.180901
vt 41.776199 -27.144199
vt 41.733501 -27.117701
vt 41.709599 -27.224600
vt 41.751499 -27.274200
vt 41.666801 -27.286400
vt 41.702000 -27.336599
vt 41.807098 -27.334999
vt 41.947201 -27.315100
vt 41.878601 -27.409500
vt 42.022400 -27.389400
vt 41.959499 -27.478399
vt 42.098801 -27.439400
vt 41.974201 -27.211500
vt 42.181900 -26.611099
vt 41.964199 -26.655899
vt 41.964199 -26.611099
vt 42.163898 -26.572001
vt 41.752300 -26.655899
vt 41.767799 -26.611099
vt 41.738998 -26.709499
vt 41.729698 -26.767599
vt 41.605598 -26.655899
vt 41.582401 -26.709499
vt 41.632500 -26.611099
vt 41.726299 -26.825399
vt 41.566299 -26.767599
vt 41.559898 -26.825800
vt 41.727699 -26.885500
vt 41.559601 -26.888300
vt 41.732101 -26.950600
vt 41.562000 -26.957800
vt 41.568501 -27.022600
vt 41.734299 -27.017799
vt 41.958000 -27.020700
vt 41.581600 -27.071600
vt 41.785801 -26.572001
vt 41.964199 -26.572001
vt 41.852798 -27.167000
vt 41.730000 -27.082100
vt 41.726398 -27.138399
vt 41.881001 -27.093599
vt 42.190701 -27.087299
vt 41.966499 -27.089100
vt 42.155499 -27.180099
vt 41.910500 -27.180099
vt 42.400501 -27.180099
vt 42.396702 -27.278099
vt 42.139999 -27.278099
vt 41.883301 -27.278099
vt 42.393200 -27.372000
vt 42.138401 -27.372000
vt 42.381599 -27.454800
vt 42.138802 -27.454800
vt 42.364601 -27.530701
vt 42.138802 -27.530701
vt 41.913101 -27.530701
vt 41.895901 -27.454800
vt 41.883701 -27.372000
vt 41.750900 -27.390100
vt 41.826199 -27.091999
vt 41.875198 -27.109400
vt 42.480400 -26.780100
vt 42.418301 -27.042000
vt 42.502998 -27.028200
vt 42.482601 -27.267900
vt 41.522800 -27.192900
vt 41.656300 -27.186501
vt 41.568600 -27.121401
vt 41.647400 -27.040501
vt 41.603699 -27.267900
vt 41.667999 -27.042000
vt 41.583302 -27.028200
vt 41.605900 -26.780100
vt 42.372700 -27.273600
vt 42.282001 -27.400000
vt 42.314899 -27.418400
vt 42.460602 -27.265699
vt 42.327599 -27.118999
vt 42.302200 -27.280199
vt 42.283699 -27.147200
vt 42.232201 -27.376900
vt 42.043201 -27.447399
vt 42.043201 -27.412600
vt 41.854099 -27.376900
vt 42.173100 -27.350401
vt 42.043201 -27.362200
vt 42.195599 -27.286800
vt 42.232399 -27.183300
vt 42.043201 -27.289200
vt 41.913300 -27.350401
vt 42.173100 -27.220800
vt 41.890701 -27.286800
vt 41.784100 -27.280199
vt 41.804298 -27.400000
vt 42.043201 -27.211300
vt 41.713600 -27.273600
vt 41.771400 -27.418400
vt 41.913300 -27.220800
vt 42.043201 -27.147800
vt 41.853901 -27.183300
vt 41.802700 -27.147200
vt 41.625702 -27.265699
vt 41.758701 -27.118999
vt 42.043201 -27.063801
vt 41.812302 -26.824800
vt 41.699600 -26.901199
vt 41.759499 -26.957600
vt 41.890202 -26.874500
vt 41.839401 -27.034500
vt 41.965801 -26.952499
vt 41.894001 -27.083000
vt 41.731400 -27.113501
vt 41.812901 -27.148600
vt 41.759602 -27.204300
vt 41.612801 -27.249100
vt 42.381199 -27.088900
vt 42.410198 -27.147499
vt 42.428299 -27.109800
vt 42.467899 -27.117701
vt 42.457298 -27.180901
vt 42.346699 -27.127001
vt 42.375500 -27.189800
vt 42.287102 -27.123400
vt 42.316101 -27.181999
vt 42.267799 -27.168400
vt 42.297298 -27.237600
vt 42.234100 -27.200500
vt 42.210999 -27.238199
vt 42.287601 -27.289200
vt 42.391201 -27.233200
vt 42.486099 -27.224600
vt 42.403400 -27.286400
vt 42.404598 -27.336599
vt 42.263802 -26.767599
vt 41.956799 -26.825899
vt 42.268200 -26.825800
vt 42.266701 -26.888300
vt 42.252201 -26.709499
vt 41.956799 -26.767599
vt 41.956799 -26.889299
vt 42.260799 -26.957800
vt 41.956799 -26.960501
vt 42.249001 -27.022600
vt 41.956799 -27.024500
vt 42.228600 -27.071600
vt 41.664700 -27.022600
vt 41.652901 -26.957800
vt 41.646999 -26.888300
vt 41.645500 -26.825800
vt 41.649899 -26.767599
vt 41.661499 -26.709499
vt 41.956799 -26.709499
vt 42.235500 -26.655899
vt 41.678200 -26.655899
vt 41.956799 -26.655899
vt 42.216099 -26.611099
vt 41.697601 -26.611099
vt 41.956799 -26.611099
vt 41.720100 -26.572001
vt 42.193600 -26.572001
vt 41.956799 -26.572001
vt 41.956799 -27.067699
vt 41.685101 -27.071600
vt 42.195702 -27.109699
vt 41.717999 -27.109699
vt 41.956799 -27.098900
vt 41.767799 -27.144199
vt 42.145901 -27.144199
vt 41.956799 -27.051800
vt 41.581699 -27.020700
vt 41.643600 -27.089100
vt 42.270100 -27.089100
vt 42.332001 -27.020700
vt 41.956799 -27.091999
vt 41.657799 -27.180099
vt 42.255901 -27.180099
vt 41.956799 -27.180099
vt 42.245300 -27.278099
vt 41.668400 -27.278099
vt 41.956799 -27.454800
vt 42.195702 -27.530701
vt 42.214401 -27.454800
vt 41.956799 -27.530701
vt 41.717999 -27.530701
vt 41.699299 -27.454800
vt 41.956799 -27.372000
vt 42.231400 -27.372000
vt 41.682301 -27.372000
vt 41.956799 -27.278099
vt 42.034199 -27.554199
vt 42.105999 -27.466499
vt 42.009102 -27.471901
vt 42.041302 -27.354799
vt 42.104801 -27.356501
vt 42.187099 -27.449800
vt 42.155499 -27.347900
vt 42.240398 -27.414900
vt 42.343700 -27.451300
vt 42.269199 -27.372101
vt 42.387199 -27.390100
vt 42.281502 -27.332001
vt 8.000000 -15.000000
vt 8.238650 -15.098400
vt 8.252590 -15.000000
vt 8.242320 -14.901600
vt 8.000000 -15.098400
vt 8.000000 -14.901600
vt 7.761350 -15.098400
vt 7.757680 -14.901600
vt 7.747410 -15.000000
vt 7.633760 -15.000000
vt 8.000000 -14.666800
vt 7.733640 -14.757700
vt 8.000000 -15.333200
vt 7.733640 -15.242300
vt 8.366240 -15.000000
vt 8.266360 -14.757700
vt 8.266360 -15.242300
vt 8.262320 -15.098400
vt 8.277640 -15.000000
vt 8.266360 -14.901600
vt 7.737680 -15.098400
vt 7.722360 -15.000000
vt 7.733640 -14.901600
vt 8.000000 -15.328100
vt 8.360690 -15.000000
vt 8.000000 -14.671900
vt 8.262320 -14.761300
vt 8.262320 -15.238700
vt 7.639310 -15.000000
vt 7.737680 -15.238700
vt 7.737680 -14.761300
s 1
usemtl Meshpart1Mtl
f 1/1/1 2/2/2 3/3/3
f 3/3/3 2/2/2 4/4/4
f 1/1/1 5/5/5 2/2/2
f 4/4/4 6/6/6 3/3/3
f 2/2/2 7/7/7 4/4/4
f 8/8/8 3/3/3 6/6/6
f 5/5/5 9/9/9 2/2/2
f 2/2/2 9/9/9 7/7/7
f 6/6/6 4/4/4 10/10/10
f 4/4/4 7/7/7 11/11/11
f 11/11/11 10/10/10 4/4/4
f 10/10/10 11/11/11 12/12/12
f 6/6/6 10/10/10 13/13/13
f 10/10/10 12/12/12 14/14/14
f 14/14/14 13/13/13 10/10/10
f 13/13/13 14/14/14 16/15/15
f 16/15/15 17/16/16 13/13/13
f 15/17/17 13/13/13 17/16/16
f 17/16/16 16/15/15 18/18/18
f 18/18/18 19/19/19 17/16/16
f 5/5/5 20/20/20 9/9/9
f 22/21/21 21/22/22 20/20/20
f 20/20/20 5/5/5 22/21/21
f 21/22/22 22/21/21 24/23/23
f 24/23/23 23/24/24 21/22/22
s 2
f 26/25/25 25/26/26 27/27/27
f 25/26/26 28/28/28 27/27/27
f 25/26/26 29/29/29 28/28/28
s 1
f 32/30/30 22/21/21 5/5/5
f 33/31/31 24/23/23 22/21/21
f 22/21/21 32/30/30 33/31/31
f 32/30/30 5/5/5 1/1/1
f 24/23/23 33/31/31 34/32/32
f 23/24/24 24/23/23 35/33/33
f 34/32/32 35/33/33 24/23/23
f 35/33/33 34/32/32 36/34/34
f 36/34/34 37/35/35 35/33/33
f 43/36/36 40/37/37 41/38/38
f 42/39/39 43/36/36 41/38/38
f 44/40/40 39/41/41 40/37/37
f 40/37/37 43/36/36 44/40/40
f 39/41/41 44/40/40 8/8/8
f 8/8/8 38/42/42 39/41/41
f 3/3/3 8/8/8 44/40/40
f 44/40/40 1/1/1 3/3/3
f 43/36/36 1/1/1 44/40/40
f 45/43/43 1/1/1 43/36/36
f 43/36/36 42/39/39 45/43/43
f 1/1/1 45/43/43 32/30/30
f 38/42/42 8/8/8 46/44/44
f 47/45/45 45/43/43 42/39/39
f 48/46/46 32/30/30 45/43/43
f 45/43/43 47/45/45 48/46/46
f 32/30/30 48/46/46 33/31/31
f 49/47/47 48/46/46 47/45/45
f 48/46/46 49/47/47 50/48/48
f 50/48/48 33/31/31 48/46/46
f 33/31/31 50/48/48 34/32/32
f 51/49/49 50/48/48 49/47/47
f 52/50/50 34/32/32 50/48/48
f 51/49/49 52/50/50 50/48/48
f 34/32/32 52/50/50 36/34/34
f 53/51/51 36/34/34 52/50/50
f 36/34/34 53/51/51 54/52/52
f 37/35/35 36/34/34 54/52/52
f 46/44/44 55/53/53 38/42/42
f 55/53/53 46/44/44 56/54/54
f 55/53/53 56/54/54 57/55/55
f 46/44/44 58/56/56 56/54/54
f 56/54/54 59/57/57 57/55/55
f 56/54/54 58/56/56 59/57/57
f 15/17/58 46/44/44 8/8/8
f 17/16/16 60/58/59 15/17/17
f 60/58/59 17/16/16 19/19/19
f 19/19/19 61/59/60 60/58/59
f 19/19/19 18/18/18 62/60/61
f 62/60/61 63/61/62 19/19/19
f 61/59/60 19/19/19 63/61/62
f 63/61/62 62/60/61 64/62/63
f 63/61/62 65/63/64 61/59/60
f 64/62/63 66/64/65 63/61/62
f 65/63/64 63/61/62 66/64/65
f 66/64/65 64/62/63 67/65/66
f 69/66/67 67/65/66 68/67/68
f 67/65/66 69/66/67 66/64/65
f 68/67/68 70/68/69 69/66/67
f 71/69/70 69/66/67 70/68/69
f 69/66/67 71/69/70 72/70/71
f 72/70/71 66/64/65 69/66/67
f 66/64/65 72/70/71 73/71/72
f 66/64/65 73/71/72 65/63/64
s 2
f 75/72/73 74/73/74 77/74/75
f 76/75/76 77/74/75 74/73/74
f 76/75/76 78/76/77 79/77/78
f 77/74/75 76/75/76 79/77/78
f 79/77/78 78/76/77 80/78/79
f 79/77/78 81/79/80 77/74/75
f 81/79/80 79/77/78 82/80/81
f 80/78/79 82/80/81 79/77/78
f 82/80/81 83/81/82 81/79/80
f 31/82/83 81/79/80 83/81/82
f 82/80/81 80/78/79 84/83/84
f 82/80/81 84/83/84 85/84/85
f 83/81/82 82/80/81 85/84/85
f 31/82/83 83/81/82 86/85/86
f 85/84/85 84/83/84 30/86/87
f 85/84/85 87/87/88 83/81/82
f 85/84/85 30/86/87 29/29/29
f 85/84/85 88/88/89 87/87/88
f 88/88/89 85/84/85 29/29/29
f 29/29/29 25/26/26 88/88/89
s 3
f 89/89/90 90/90/91 91/91/92
f 92/92/93 93/93/94 94/94/95
f 94/94/95 95/95/96 92/92/93
f 96/96/97 93/93/94 90/90/91
f 93/93/94 96/96/97 94/94/95
f 90/90/91 89/89/90 97/97/98
f 97/97/98 96/96/97 90/90/91
f 98/98/99 97/97/98 89/89/90
f 89/89/90 99/99/100 98/98/99
f 99/99/100 100/100/101 98/98/99
f 94/94/95 101/101/102 95/95/96
f 102/102/103 94/94/95 96/96/97
f 94/94/95 102/102/103 101/101/102
f 103/103/104 95/95/96 101/101/102
f 102/102/103 103/103/104 101/101/102
f 95/95/96 103/103/104 104/104/105
f 103/103/104 105/105/106 104/104/105
f 106/106/107 105/105/106 103/103/104
f 102/102/103 106/106/107 103/103/104
f 105/105/106 106/106/107 107/107/108
f 102/102/103 96/96/97 108/108/109
f 96/96/97 97/97/98 108/108/109
f 108/108/109 109/109/110 102/102/103
f 110/110/111 108/108/109 97/97/98
f 108/108/109 110/110/111 109/109/110
f 97/97/98 98/98/99 110/110/111
f 111/111/112 102/102/103 109/109/110
f 102/102/103 111/111/112 106/106/107
f 110/110/111 111/111/112 109/109/110
f 112/112/113 106/106/107 111/111/112
f 111/111/112 110/110/111 112/112/113
f 98/98/99 112/112/113 110/110/111
f 112/112/113 107/107/108 106/106/107
f 112/112/113 98/98/99 100/100/101
f 100/100/101 107/107/108 112/112/113
s 4
f 115/113/114 116/114/115 117/115/116
f 116/114/115 115/113/114 119/116/117
f 120/117/26 119/116/117 115/113/114
f 121/118/118 117/115/116 116/114/115
f 117/115/116 121/118/118 122/119/119
f 123/120/120 117/115/116 122/119/119
f 119/116/117 125/121/121 116/114/115
f 124/122/122 116/114/115 125/121/121
f 119/116/117 120/117/26 126/123/123
f 125/121/121 119/116/117 126/123/123
s 5
f 128/124/124 127/125/125 129/126/126
s 3
f 131/127/127 132/128/128 114/129/24
f 132/128/128 131/127/127 133/130/129
f 133/130/129 134/131/130 132/128/128
f 135/132/131 132/128/128 134/131/130
f 136/133/132 137/134/133 113/135/134
f 135/132/131 138/136/135 136/133/132
f 134/131/130 139/137/136 135/132/131
f 138/136/135 135/132/131 139/137/136
f 137/134/133 136/133/132 140/138/137
f 138/136/135 140/138/137 136/133/132
f 144/139/138 143/140/49 145/141/139
f 145/141/139 146/142/140 144/139/138
f 141/143/141 148/144/142 142/145/143
f 146/142/140 145/141/139 150/146/144
f 149/147/145 150/146/144 145/141/139
f 150/146/144 151/148/146 146/142/140
f 151/148/146 147/149/52 146/142/140
f 148/144/142 141/143/141 152/150/147
f 153/151/148 149/147/145 148/144/142
f 152/150/147 153/151/148 148/144/142
f 150/146/144 149/147/145 99/99/100
f 149/147/145 153/151/148 99/99/100
f 151/148/146 150/146/144 89/89/90
f 99/99/100 89/89/90 150/146/144
f 153/151/148 152/150/147 155/152/149
f 154/153/150 155/152/149 152/150/147
f 100/100/101 99/99/100 153/151/148
f 155/152/149 100/100/101 153/151/148
f 154/153/150 140/138/137 156/154/151
f 140/138/137 138/136/135 156/154/151
f 155/152/149 154/153/150 157/155/152
f 156/154/151 157/155/152 154/153/150
f 157/155/152 158/156/153 155/152/149
f 100/100/101 155/152/149 158/156/153
f 159/157/154 156/154/151 138/136/135
f 139/137/136 159/157/154 138/136/135
f 157/155/152 156/154/151 160/158/155
f 156/154/151 159/157/154 160/158/155
f 158/156/153 157/155/152 161/159/156
f 160/158/155 161/159/156 157/155/152
f 107/107/108 100/100/101 158/156/153
f 161/159/156 107/107/108 158/156/153
f 161/159/156 160/158/155 162/160/157
f 107/107/108 161/159/156 105/105/106
f 105/105/106 161/159/156 162/160/157
f 160/158/155 163/161/158 162/160/157
f 163/161/158 160/158/155 159/157/154
f 105/105/106 162/160/157 104/104/105
f 164/162/159 162/160/157 163/161/158
f 162/160/157 164/162/159 104/104/105
f 165/163/160 163/161/158 159/157/154
f 159/157/154 139/137/136 165/163/160
f 166/164/161 164/162/159 163/161/158
f 163/161/158 165/163/160 166/164/161
f 164/162/159 166/164/161 167/165/162
f 168/166/163 165/163/160 139/137/136
f 139/137/136 134/131/130 168/166/163
f 169/167/164 166/164/161 165/163/160
f 165/163/160 168/166/163 169/167/164
f 170/168/165 167/165/162 166/164/161
f 166/164/161 169/167/164 170/168/165
f 95/95/96 164/162/159 167/165/162
f 170/168/165 95/95/96 167/165/162
f 95/95/96 104/104/105 164/162/159
f 171/169/166 168/166/163 134/131/130
f 134/131/130 133/130/129 171/169/166
f 147/149/52 171/169/166 133/130/129
f 168/166/163 171/169/166 172/170/167
f 172/170/167 169/167/164 168/166/163
f 171/169/166 147/149/52 173/171/168
f 173/171/168 172/170/167 171/169/166
f 147/149/52 151/148/146 173/171/168
f 169/167/164 172/170/167 174/172/169
f 174/172/169 170/168/165 169/167/164
f 172/170/167 173/171/168 175/173/170
f 175/173/170 174/172/169 172/170/167
f 91/91/92 173/171/168 151/148/146
f 173/171/168 91/91/92 175/173/170
f 89/89/90 91/91/92 151/148/146
f 170/168/165 174/172/169 92/92/93
f 95/95/96 170/168/165 92/92/93
f 174/172/169 175/173/170 93/93/94
f 93/93/94 92/92/93 174/172/169
f 90/90/91 175/173/170 91/91/92
f 175/173/170 90/90/91 93/93/94
s 6
f 176/174/171 177/175/172 178/176/173
f 179/177/174 176/174/171 178/176/173
s 5
f 182/178/74 183/179/175 181/180/176
f 183/179/175 182/178/74 184/181/177
f 184/181/177 185/182/178 183/179/175
f 185/182/178 184/181/177 186/183/179
f 187/184/180 186/183/179 184/181/177
f 186/183/179 127/125/125 180/185/181
f 186/183/179 187/184/180 129/126/126
f 127/125/125 186/183/179 129/126/126
f 187/184/180 130/186/182 129/126/126
f 130/186/182 187/184/180 188/187/183
s 4
f 189/188/184 191/189/185 190/190/86
f 191/189/185 118/191/186 190/190/86
f 191/189/185 189/188/184 192/192/88
f 194/193/187 192/192/88 193/194/188
f 192/192/88 194/193/187 191/189/185
f 193/194/188 115/113/114 194/193/187
f 115/113/114 193/194/188 120/117/26
f 117/115/116 194/193/187 115/113/114
f 195/195/189 191/189/185 194/193/187
f 194/193/187 117/115/116 195/195/189
f 191/189/185 195/195/189 196/196/190
f 191/189/185 196/196/190 118/191/186
f 117/115/116 123/120/120 195/195/189
s 7
f 198/197/191 200/198/192 197/199/7
f 197/199/7 201/200/193 199/201/194
f 201/200/193 197/199/7 200/198/192
f 201/200/193 202/202/12 199/201/194
f 205/203/195 203/204/196 202/202/12
f 202/202/12 201/200/193 205/203/195
f 203/204/196 205/203/195 206/205/197
f 206/205/197 204/206/15 203/204/196
f 204/206/15 206/205/197 207/207/198
f 207/207/198 208/208/199 204/206/15
f 209/209/200 207/207/198 206/205/197
f 210/210/201 206/205/197 205/203/195
f 209/209/200 206/205/197 210/210/201
f 210/210/201 205/203/195 211/211/202
f 211/211/202 205/203/195 201/200/193
f 211/211/202 201/200/193 212/212/203
f 212/212/203 201/200/193 213/213/204
f 200/198/192 213/213/204 201/200/193
f 213/213/204 200/198/192 214/214/205
f 215/215/206 214/214/205 200/198/192
f 200/198/192 198/197/191 215/215/206
f 215/215/206 216/216/207 214/214/205
f 215/215/206 198/197/191 217/217/208
f 216/216/207 215/215/206 218/218/209
f 215/215/206 217/217/208 218/218/209
f 218/218/209 219/219/210 216/216/207
f 219/219/210 218/218/209 221/220/211
f 221/220/211 220/221/212 219/219/210
f 218/218/209 222/222/213 221/220/211
f 218/218/209 217/217/208 222/222/213
f 220/221/212 221/220/211 223/223/214
f 224/224/215 221/220/211 222/222/213
f 221/220/211 224/224/215 223/223/214
s 8
f 229/225/216 227/226/217 228/227/218
f 227/226/217 229/225/216 230/228/219
f 230/228/219 226/229/220 227/226/217
f 226/229/220 230/228/219 232/230/221
f 231/231/222 232/230/221 230/228/219
f 232/230/221 231/231/222 233/232/182
f 233/232/182 225/233/186 232/230/221
s 7
f 223/223/214 224/224/215 234/234/223
f 223/223/214 234/234/223 235/235/131
f 236/236/224 223/223/214 235/235/131
f 223/223/214 236/236/224 220/221/212
s 9
f 239/237/225 242/238/226 240/239/227
f 241/240/228 240/239/227 242/238/226
f 242/238/226 239/237/225 238/241/229
f 242/238/226 243/242/230 241/240/228
f 238/241/229 244/243/231 242/238/226
f 243/242/230 242/238/226 244/243/231
f 244/243/231 238/241/229 237/244/232
f 244/243/231 245/245/233 243/242/230
f 237/244/232 246/246/234 244/243/231
f 245/245/233 244/243/231 246/246/234
s 7
f 247/247/235 207/207/198 209/209/200
f 247/247/235 248/248/236 207/207/198
f 208/208/199 207/207/198 248/248/236
f 249/249/237 248/248/236 247/247/235
f 248/248/236 250/250/61 208/208/199
f 249/249/237 251/251/238 248/248/236
f 250/250/61 248/248/236 251/251/238
f 252/252/239 251/251/238 249/249/237
f 251/251/238 253/253/240 250/250/61
f 252/252/239 254/254/241 251/251/238
f 253/253/240 251/251/238 254/254/241
f 255/255/242 254/254/241 252/252/239
f 254/254/241 256/256/243 253/253/240
f 255/255/242 257/257/244 254/254/241
f 256/256/243 254/254/241 257/257/244
f 257/257/244 255/255/242 258/258/245
f 258/258/245 259/259/246 257/257/244
f 260/260/247 257/257/244 259/259/246
f 257/257/244 260/260/247 256/256/243
s 8
f 228/227/218 261/261/181 229/225/216
f 261/261/181 228/227/218 262/262/248
s 10
f 261/261/181 263/263/178 264/264/249
s 8
f 225/233/186 233/232/182 265/265/86
s 11
f 269/266/250 266/267/251 267/268/201
f 270/269/252 267/268/201 268/270/253
f 267/268/201 270/269/252 269/266/250
f 271/271/203 270/269/252 268/270/253
f 270/269/252 271/271/203 273/272/254
f 272/273/204 273/272/254 271/271/203
f 274/274/255 269/266/250 270/269/252
f 273/272/254 274/274/255 270/269/252
f 273/272/254 272/273/204 275/275/256
f 274/274/255 273/272/254 276/276/257
f 275/275/256 276/276/257 273/272/254
f 277/277/258 275/275/256 272/273/204
f 276/276/257 275/275/256 278/278/259
f 275/275/256 277/277/258 279/279/260
f 279/279/260 278/278/259 275/275/256
f 279/279/260 277/277/258 280/280/261
f 280/280/261 281/281/262 279/279/260
f 281/281/262 280/280/261 282/282/263
f 283/283/264 279/279/260 281/281/262
f 278/278/259 279/279/260 283/283/264
f 282/282/263 284/284/265 281/281/262
f 281/281/262 285/285/266 283/283/264
f 285/285/266 281/281/262 284/284/265
f 284/284/265 282/282/263 286/286/267
s 12
f 287/287/268 288/288/269 289/289/270
f 292/290/271 291/291/120 290/292/119
f 291/291/120 292/290/271 293/293/272
f 293/293/272 288/288/269 291/291/120
f 288/288/269 293/293/272 296/294/273
f 294/295/274 296/294/273 293/293/272
f 296/294/273 294/295/274 295/296/275
f 296/294/273 289/289/270 288/288/269
f 295/296/275 297/297/276 296/294/273
f 289/289/270 296/294/273 297/297/276
f 297/297/276 298/298/277 289/289/270
f 298/298/277 297/297/276 299/299/278
f 301/300/279 299/299/278 300/301/280
f 299/299/278 301/300/279 298/298/277
f 302/302/218 301/300/279 300/301/280
f 303/303/281 289/289/270 298/298/277
f 289/289/270 303/303/281 287/287/268
s 11
f 286/286/267 304/304/282 284/284/265
f 305/305/283 284/284/265 304/304/282
f 284/284/265 305/305/283 285/285/266
f 304/304/282 307/306/284 305/305/283
f 307/306/284 304/304/282 306/307/285
f 308/308/286 285/285/266 305/305/283
f 309/309/141 305/305/283 307/306/284
f 305/305/283 309/309/141 308/308/286
f 285/285/266 308/308/286 310/310/287
f 310/310/287 283/283/264 285/285/266
f 283/283/264 310/310/287 311/311/288
f 311/311/288 278/278/259 283/283/264
f 312/312/289 310/310/287 308/308/286
f 313/313/290 311/311/288 310/310/287
f 310/310/287 312/312/289 313/313/290
f 314/314/143 308/308/286 309/309/141
f 308/308/286 314/314/143 312/312/289
f 315/315/291 278/278/259 311/311/288
f 311/311/288 313/313/290 316/316/292
f 316/316/292 315/315/291 311/311/288
f 317/317/293 315/315/291 316/316/292
f 318/318/294 278/278/259 315/315/291
f 278/278/259 318/318/294 276/276/257
f 319/319/295 315/315/291 317/317/293
f 315/315/291 319/319/295 318/318/294
f 320/320/296 276/276/257 318/318/294
f 276/276/257 320/320/296 274/274/255
f 321/321/297 318/318/294 319/319/295
f 318/318/294 321/321/297 320/320/296
f 323/322/298 320/320/296 321/321/297
f 320/320/296 323/322/298 324/323/299
f 322/324/300 320/320/296 324/323/299
f 325/325/301 324/323/299 323/322/298
f 307/306/284 326/326/302 309/309/141
f 326/326/302 307/306/284 327/327/303
f 306/307/285 327/327/303 307/306/284
f 329/328/304 330/329/305 328/330/306
f 325/325/301 328/330/306 330/329/305
f 324/323/299 325/325/301 330/329/305
f 330/329/305 329/328/304 331/331/307
f 331/331/307 324/323/299 330/329/305
f 334/332/308 322/324/309 332/333/310
f 322/324/309 334/332/308 269/266/250
f 266/267/251 269/266/250 334/332/308
f 332/333/310 335/334/311 334/332/308
f 335/334/311 332/333/310 333/335/312
f 334/332/308 336/336/235 266/267/251
f 336/336/235 334/332/308 335/334/311
f 335/334/311 337/337/313 336/336/235
f 333/335/312 338/338/314 335/334/311
f 337/337/313 335/334/311 338/338/314
f 338/338/314 333/335/312 339/339/315
f 338/338/314 340/340/239 337/337/313
f 339/339/315 341/341/316 338/338/314
f 340/340/239 338/338/314 341/341/316
f 341/341/316 342/342/317 340/340/239
f 344/343/318 343/344/319 342/342/317
f 342/342/317 341/341/316 344/343/318
f 343/344/319 344/343/318 345/345/320
f 344/343/318 346/346/321 345/345/320
f 346/346/321 344/343/318 347/347/322
f 341/341/316 347/347/322 344/343/318
f 347/347/322 341/341/316 348/348/323
f 341/341/316 339/339/315 348/348/323
s 12
f 297/297/276 295/296/275 349/349/324
f 350/350/189 288/288/269 351/351/325
f 288/288/269 287/287/268 351/351/325
f 288/288/269 350/350/189 291/291/120
s 13
f 354/352/13 355/353/326 352/354/327
f 353/355/8 352/354/327 355/353/326
s 14
f 358/356/328 360/357/329 359/358/330
f 360/357/329 361/359/331 359/358/330
s 15
f 363/360/296 364/361/332 357/362/333
f 356/363/334 357/362/333 364/361/332
s 16
f 371/364/335 370/365/336 368/366/337
s 17
f 367/367/44 355/353/17 372/368/56
s 16
f 370/365/336 371/364/335 375/369/338
f 373/370/57 375/369/338 371/364/335
f 375/369/338 376/371/339 370/365/336
f 374/372/340 376/371/339 378/373/341
f 377/374/342 374/372/340 378/373/341
f 379/375/343 378/373/341 376/371/339
f 378/373/341 379/375/343 380/376/344
f 376/371/339 375/369/338 381/377/345
f 381/377/345 379/375/343 376/371/339
f 382/378/346 381/377/345 375/369/338
f 375/369/338 373/370/57 382/378/346
f 383/379/347 379/375/343 381/377/345
f 379/375/343 383/379/347 380/376/344
f 384/380/348 378/373/341 380/376/344
f 378/373/341 384/380/348 377/374/342
f 384/380/348 380/376/344 383/379/347
f 381/377/345 382/378/346 385/381/349
f 383/379/347 381/377/345 385/381/349
f 386/382/350 377/374/342 384/380/348
f 383/379/347 386/382/350 384/380/348
f 377/374/342 386/382/350 387/383/351
f 387/383/351 369/384/352 377/374/342
f 383/379/347 385/381/349 388/385/353
f 369/384/352 387/383/351 389/386/354
f 389/386/354 366/387/301 369/384/352
f 383/379/347 390/388/355 386/382/350
f 390/388/355 383/379/347 388/385/353
f 385/381/349 391/389/356 388/385/353
f 390/388/355 388/385/353 391/389/356
f 391/389/356 385/381/349 382/378/346
f 392/390/228 386/382/350 390/388/355
f 391/389/356 392/390/228 390/388/355
f 387/383/351 386/382/350 392/390/228
f 393/391/304 387/383/351 392/390/228
f 393/391/304 389/386/354 387/383/351
s 18
f 365/392/299 394/393/357 364/361/300
f 395/394/358 364/361/300 394/393/357
s 17
f 395/394/358 372/368/56 355/353/17
s 14
f 396/395/359 362/396/218 397/397/360
f 398/398/361 396/395/359 397/397/360
f 398/398/361 397/397/360 399/399/362
f 400/400/363 398/398/361 399/399/362
f 362/396/218 361/359/331 397/397/360
f 401/401/364 400/400/363 399/399/362
f 399/399/362 397/397/360 402/402/365
f 397/397/360 361/359/331 402/402/365
f 399/399/362 403/403/366 401/401/364
f 403/403/366 399/399/362 402/402/365
f 402/402/365 404/404/367 403/403/366
f 404/404/367 402/402/365 360/357/329
f 361/359/331 360/357/329 402/402/365
f 360/357/329 358/356/328 405/405/368
s 19
f 407/406/115 410/407/369 408/408/370
f 410/407/369 409/409/119 408/408/370
f 409/409/119 410/407/369 413/410/371
f 411/411/372 414/412/373 410/407/369
f 414/412/373 413/410/371 410/407/369
f 412/413/374 415/414/375 411/411/372
f 414/412/373 411/411/372 415/414/375
f 415/414/375 412/413/374 416/415/27
f 416/415/27 419/416/376 415/414/375
f 419/416/376 416/415/27 417/417/377
f 418/418/378 419/416/376 417/417/377
f 419/416/376 414/412/373 415/414/375
f 419/416/376 418/418/378 420/419/379
f 413/410/371 414/412/373 421/420/380
f 419/416/376 421/420/380 414/412/373
f 421/420/380 422/421/381 413/410/371
f 419/416/376 423/422/382 421/420/380
f 423/422/382 419/416/376 420/419/379
f 422/421/381 421/420/380 423/422/382
f 420/419/379 424/423/383 423/422/382
s 20
f 429/424/384 432/425/385 430/426/386
f 432/425/385 431/427/387 430/426/386
f 427/428/388 433/429/389 429/424/384
f 432/425/385 429/424/384 433/429/389
f 435/430/390 434/431/297 431/427/387
f 431/427/387 432/425/385 435/430/390
f 434/431/297 435/430/390 438/432/391
f 438/432/391 437/433/392 434/431/297
f 437/433/392 438/432/391 439/434/393
f 439/434/393 440/435/394 437/433/392
f 438/432/391 441/436/395 439/434/393
f 435/430/390 442/437/396 438/432/391
f 438/432/391 442/437/396 441/436/395
f 435/430/390 443/438/397 442/437/396
f 432/425/385 443/438/397 435/430/390
f 443/438/397 432/425/385 444/439/398
f 432/425/385 445/440/399 444/439/398
f 445/440/399 432/425/385 433/429/389
f 433/429/389 446/441/400 445/440/399
f 446/441/400 433/429/389 447/442/401
f 427/428/388 447/442/401 433/429/389
f 447/442/401 427/428/388 426/443/402
f 447/442/401 448/444/403 446/441/400
f 426/443/402 449/445/404 447/442/401
f 448/444/403 447/442/401 449/445/404
f 449/445/404 426/443/402 428/446/405
f 449/445/404 450/447/406 448/444/403
f 450/447/406 449/445/404 451/448/407
f 428/446/405 451/448/407 449/445/404
f 451/448/407 452/449/139 450/447/406
f 451/448/407 428/446/405 453/450/408
f 452/449/139 451/448/407 454/451/145
f 453/450/408 454/451/145 451/448/407
f 440/435/394 439/434/393 455/452/409
f 439/434/393 456/453/410 455/452/409
f 439/434/393 441/436/395 456/453/410
f 455/452/409 457/454/352 440/435/394
f 458/455/411 455/452/409 456/453/410
f 455/452/409 458/455/411 459/456/340
f 457/454/352 455/452/409 459/456/340
f 460/457/412 459/456/340 458/455/411
f 459/456/340 461/458/413 457/454/352
s 21
f 462/459/358 406/460/326 463/461/59
s 22
f 462/459/414 465/462/415 436/463/332
s 23
f 464/464/173 463/461/59 466/465/60
f 464/464/173 467/466/312 465/462/310
f 467/466/312 464/464/173 468/467/416
f 464/464/173 466/465/60 468/467/416
f 468/467/416 469/468/417 467/466/312
f 468/467/416 466/465/60 470/469/64
f 474/470/418 471/471/419 473/472/420
f 471/471/419 474/470/418 475/473/421
f 474/470/418 472/474/422 475/473/421
f 472/474/422 474/470/418 476/475/423
f 473/472/420 478/476/424 474/470/418
f 478/476/424 476/475/423 474/470/418
f 478/476/424 473/472/420 477/477/425
f 476/475/423 478/476/424 479/478/72
f 480/479/426 477/477/425 469/468/417
f 477/477/425 480/479/426 478/476/424
f 480/479/426 479/478/72 478/476/424
f 480/479/426 470/469/64 479/478/72
f 469/468/417 468/467/416 480/479/426
f 468/467/416 470/469/64 480/479/426
s 24
f 481/480/427 482/481/428 483/482/429
f 482/481/428 484/483/430 483/482/429
f 484/483/430 482/481/428 486/484/431
f 485/485/432 486/484/431 482/481/428
f 486/484/431 485/485/432 487/486/433
f 487/486/433 485/485/432 488/487/77
s 19
f 425/488/434 489/489/435 488/487/77
f 489/489/435 425/488/434 491/490/324
f 491/490/324 490/491/84 489/489/435
f 490/491/84 491/490/324 424/423/383
f 424/423/383 420/419/379 490/491/84
s 25
usemtl Meshpart2Mtl
f 495/492/436 493/493/437 494/494/438
f 495/492/436 494/494/438 492/495/439
f 493/493/437 495/492/436 496/496/440
f 492/495/439 497/497/441 495/492/436
f 498/498/442 496/496/440 495/492/436
f 499/499/443 495/492/436 497/497/441
f 495/492/436 500/500/444 498/498/442
f 495/492/436 499/499/443 500/500/444
s 26
f 501/501/445 502/502/446 503/503/445
f 502/502/446 501/501/445 504/504/445
f 504/504/445 501/501/445 505/505/445
f 506/506/445 502/502/446 504/504/445
f 502/502/446 506/506/445 507/507/445
f 506/506/445 504/504/445 508/508/445
s 27
f 515/492/447 512/509/442 514/510/448
f 515/492/447 514/510/448 513/511/449
f 512/509/442 515/492/447 516/496/450
f 510/512/451 516/496/450 515/492/447
f 510/512/451 515/492/447 511/513/452
f 515/492/447 509/514/453 511/513/452
f 515/492/447 513/511/449 517/497/454
f 509/514/453 515/492/447 517/497/454
s 28
f 520/492/455 518/499/456 519/500/457
f 518/499/456 520/492/455 521/497/458
f 522/498/459 520/492/455 519/500/457
f 520/492/455 522/498/459 523/496/460
f 520/492/455 524/495/461 521/497/458
f 525/493/451 520/492/455 523/496/460
f 524/495/461 520/492/455 526/494/452
f 520/492/455 525/493/451 526/494/452
s 29
f 527/515/462 528/516/462 529/517/462
f 529/517/462 528/516/462 530/518/462
f 528/516/462 527/515/462 531/519/462
f 529/517/462 532/520/462 527/515/462
f 527/515/462 532/520/462 533/521/462
f 532/520/462 529/517/462 534/522/462
s 30
f 535/511/456 536/497/463 537/492/464
f 538/514/465 537/492/464 536/497/463
f 535/511/456 537/492/464 539/510/457
f 537/492/464 540/509/459 539/510/457
f 540/509/459 537/492/464 541/496/466
f 537/492/464 542/512/437 541/496/466
f 542/512/437 537/492/464 543/513/438
f 537/492/464 538/514/465 543/513/438
