# This file is brought to you by Roblox Corporation
# Generated by Roblox Studio

mtllib right arm pumpkin claws.mtl

g Meshpart1

v 1866.84 8.89153 2768.26 
v 1866.95 9.2832 2768.35 
v 1867.05 9.26261 2768.3 
v 1866.94 8.87094 2768.22 
v 1866.99 9.32343 2768.41 
v 1867.09 9.30284 2768.37 
v 1866.94 8.79499 2768.26 
v 1866.84 8.81557 2768.3 
v 1866.84 8.89153 2768.26 
v 1866.94 8.87094 2768.22 
v 1867.11 8.76957 2768.66 
v 1867 8.79015 2768.71 
v 1867.2 9.08291 2768.73 
v 1867.09 9.10349 2768.78 
v 1867.22 9.18241 2768.75 
v 1867.12 9.20299 2768.79 
v 1866.99 9.32343 2768.41 
v 1867.09 9.30284 2768.37 
v 1866.87 8.85431 2768.35 
v 1866.97 8.75797 2768.65 
v 1867.08 8.73739 2768.61 
v 1867.11 8.76957 2768.66 
v 1866.97 8.83373 2768.31 
v 1866.86 8.91508 2768.32 
v 1866.97 8.8945 2768.27 
v 1867 8.79015 2768.71 
v 1867.08 8.73739 2768.61 
v 1867.11 8.76957 2768.66 
v 1867.11 8.71479 2768.7 
v 1867.08 8.67456 2768.64 
v 1867.23 9.10646 2768.79 
v 1866.94 8.79499 2768.26 
v 1867.2 9.08291 2768.73 
v 1866.97 8.83373 2768.31 
v 1866.94 8.87094 2768.22 
v 1866.97 8.8945 2768.27 
v 1867.2 9.14367 2768.7 
v 1867.22 9.18241 2768.75 
v 1867.09 9.24002 2768.4 
v 1867.09 9.30284 2768.37 
v 1867.06 9.20783 2768.34 
v 1866.97 8.8945 2768.27 
v 1866.94 8.87094 2768.22 
v 1867.05 9.26261 2768.3 
v 1867.09 9.24002 2768.4 
v 1867.09 9.30284 2768.37 
v 1867.12 9.12704 2768.83 
v 1867.01 8.73537 2768.75 
v 1867.11 8.71479 2768.7 
v 1866.97 8.69514 2768.68 
v 1867.23 9.10646 2768.79 
v 1867.08 8.67456 2768.64 
v 1867.22 9.18241 2768.75 
v 1867.12 9.20299 2768.79 
v 1867.06 9.20783 2768.34 
v 1866.95 9.22842 2768.39 
v 1866.97 8.8945 2768.27 
v 1866.86 8.91508 2768.32 
v 1866.97 8.69514 2768.68 
v 1867.08 8.67456 2768.64 
v 1866.94 8.79499 2768.26 
v 1866.84 8.81557 2768.3 
v 1867.2 9.08291 2768.73 
v 1867.09 9.10349 2768.78 
v 1867.2 9.14367 2768.7 
v 1867.09 9.16425 2768.74 
v 1867.09 9.24002 2768.4 
v 1866.98 9.2606 2768.44 
v 1867.06 9.20783 2768.34 
v 1866.98 9.2606 2768.44 
v 1866.95 9.22842 2768.39 
v 1867.09 9.24002 2768.4 
v 1866.97 8.69514 2768.68 
v 1866.87 8.85431 2768.35 
v 1866.84 8.81557 2768.3 
v 1866.84 8.89153 2768.26 
v 1866.86 8.91508 2768.32 
v 1866.97 8.75797 2768.65 
v 1867.01 8.73537 2768.75 
v 1867 8.79015 2768.71 
v 1867.09 9.10349 2768.78 
v 1867.12 9.12704 2768.83 
v 1867.09 9.16425 2768.74 
v 1867.12 9.20299 2768.79 
v 1866.99 9.32343 2768.41 
v 1866.98 9.2606 2768.44 
v 1866.86 8.91508 2768.32 
v 1866.95 9.22842 2768.39 
v 1866.95 9.2832 2768.35 
v 1866.84 8.89153 2768.26 
v 1866.98 9.2606 2768.44 
v 1866.99 9.32343 2768.41 

vn -0.401575 -0.0944882 -0.913386 
vn -0.19685 0.629921 -0.755906 
vn -0.19685 0.629921 -0.755906 
vn -0.401575 -0.0944882 -0.913386 
vn 0.125984 0.976378 -0.15748 
vn 0.125984 0.976378 -0.15748 
vn -0.377953 -0.755906 -0.535433 
vn -0.377953 -0.755906 -0.535433 
vn -0.401575 -0.0944882 -0.913386 
vn -0.401575 -0.0944882 -0.913386 
vn -0.19685 0.629921 -0.755906 
vn -0.19685 0.629921 -0.755906 
vn -0.401575 -0.0944882 -0.913386 
vn -0.401575 -0.0944882 -0.913386 
vn 0.377953 0.755906 0.535433 
vn 0.377953 0.755906 0.535433 
vn 0.125984 0.976378 -0.15748 
vn 0.125984 0.976378 -0.15748 
vn 0.377953 0.755906 0.535433 
vn 0.125984 0.976378 -0.15748 
vn 0.125984 0.976378 -0.15748 
vn -0.19685 0.629921 -0.755906 
vn 0.377953 0.755906 0.535433 
vn 0.401575 0.0944882 0.913386 
vn 0.401575 0.0944882 0.913386 
vn -0.19685 0.629921 -0.755906 
vn 0.905512 -0.181102 -0.385827 
vn 0.905512 -0.181102 -0.385827 
vn 0.905512 -0.181102 -0.385827 
vn 0.905512 -0.181102 -0.385827 
vn 0.905512 -0.181102 -0.385827 
vn 0.905512 -0.181102 -0.385827 
vn 0.905512 -0.181102 -0.385827 
vn 0.905512 -0.181102 -0.385827 
vn 0.905512 -0.181102 -0.385827 
vn 0.905512 -0.181102 -0.385827 
vn 0.905512 -0.181102 -0.385827 
vn 0.905512 -0.181102 -0.385827 
vn 0.905512 -0.181102 -0.385827 
vn 0.905512 -0.181102 -0.385827 
vn 0.905512 -0.181102 -0.385827 
vn 0.905512 -0.181102 -0.385827 
vn 0.905512 -0.181102 -0.385827 
vn 0.905512 -0.181102 -0.385827 
vn 0.905512 -0.181102 -0.385827 
vn 0.905512 -0.181102 -0.385827 
vn 0.401575 0.0944882 0.913386 
vn 0.19685 -0.629921 0.755906 
vn 0.19685 -0.629921 0.755906 
vn -0.125984 -0.976378 0.15748 
vn 0.401575 0.0944882 0.913386 
vn -0.125984 -0.976378 0.15748 
vn 0.377953 0.755906 0.535433 
vn 0.377953 0.755906 0.535433 
vn 0.19685 -0.629921 0.755906 
vn 0.19685 -0.629921 0.755906 
vn 0.401575 0.0944882 0.913386 
vn 0.401575 0.0944882 0.913386 
vn -0.125984 -0.976378 0.15748 
vn -0.125984 -0.976378 0.15748 
vn -0.377953 -0.755906 -0.535433 
vn -0.377953 -0.755906 -0.535433 
vn -0.401575 -0.0944882 -0.913386 
vn -0.401575 -0.0944882 -0.913386 
vn -0.377953 -0.755906 -0.535433 
vn -0.377953 -0.755906 -0.535433 
vn -0.125984 -0.976378 0.15748 
vn -0.125984 -0.976378 0.15748 
vn 0.19685 -0.629921 0.755906 
vn -0.125984 -0.976378 0.15748 
vn 0.19685 -0.629921 0.755906 
vn -0.125984 -0.976378 0.15748 
vn -0.905512 0.181102 0.385827 
vn -0.905512 0.181102 0.385827 
vn -0.905512 0.181102 0.385827 
vn -0.905512 0.181102 0.385827 
vn -0.905512 0.181102 0.385827 
vn -0.905512 0.181102 0.385827 
vn -0.905512 0.181102 0.385827 
vn -0.905512 0.181102 0.385827 
vn -0.905512 0.181102 0.385827 
vn -0.905512 0.181102 0.385827 
vn -0.905512 0.181102 0.385827 
vn -0.905512 0.181102 0.385827 
vn -0.905512 0.181102 0.385827 
vn -0.905512 0.181102 0.385827 
vn -0.905512 0.181102 0.385827 
vn -0.905512 0.181102 0.385827 
vn -0.905512 0.181102 0.385827 
vn -0.905512 0.181102 0.385827 
vn -0.905512 0.181102 0.385827 
vn -0.905512 0.181102 0.385827 

vt 28.0576 -19.2082 
vt 28.0576 -18.7918 
vt 27.9424 -18.7918 
vt 27.9424 -19.2082 
vt 28.0576 -18.73 
vt 27.9424 -18.73 
vt 27.9424 -19.27 
vt 28.0576 -19.27 
vt 28.0576 -19.2082 
vt 27.9424 -19.2082 
vt 27.9424 -19.1666 
vt 28.0576 -19.1666 
vt 27.9424 -18.8334 
vt 28.0576 -18.8334 
vt 28.2082 -18.9424 
vt 28.2082 -19.0576 
vt 27.7918 -19.0576 
vt 27.7918 -18.9424 
vt 27.8334 -19.0576 
vt 28.1666 -19.0576 
vt 28.1666 -18.9424 
vt 28.216 -18.9424 
vt 27.8334 -18.9424 
vt 27.784 -19.0576 
vt 27.784 -18.9424 
vt 28.216 -19.0576 
vt 27.8334 -19.216 
vt 27.784 -19.1666 
vt 27.73 -19.2082 
vt 27.7918 -19.27 
vt 27.73 -18.7918 
vt 28.2082 -19.27 
vt 27.784 -18.8334 
vt 28.1666 -19.216 
vt 28.27 -19.2082 
vt 28.216 -19.1666 
vt 27.8334 -18.784 
vt 27.7918 -18.73 
vt 28.1666 -18.784 
vt 28.2082 -18.73 
vt 28.216 -18.8334 
vt 28.216 -19.1666 
vt 28.27 -19.2082 
vt 28.27 -18.7918 
vt 28.1666 -18.784 
vt 28.2082 -18.73 
vt 27.9424 -18.7918 
vt 27.9424 -19.2082 
vt 28.0576 -19.2082 
vt 27.9424 -19.27 
vt 28.0576 -18.7918 
vt 28.0576 -19.27 
vt 28.0576 -18.73 
vt 27.9424 -18.73 
vt 28.0576 -18.8334 
vt 27.9424 -18.8334 
vt 28.0576 -19.1666 
vt 27.9424 -19.1666 
vt 27.7918 -19.0576 
vt 27.7918 -18.9424 
vt 28.2082 -18.9424 
vt 28.2082 -19.0576 
vt 27.784 -18.9424 
vt 27.784 -19.0576 
vt 27.8334 -18.9424 
vt 27.8334 -19.0576 
vt 28.1666 -18.9424 
vt 28.1666 -19.0576 
vt 28.216 -18.9424 
vt 28.1666 -19.0576 
vt 28.216 -19.0576 
vt 28.1666 -18.9424 
vt 28.2082 -19.27 
vt 27.8334 -19.216 
vt 27.7918 -19.27 
vt 27.73 -19.2082 
vt 27.784 -19.1666 
vt 28.1666 -19.216 
vt 28.27 -19.2082 
vt 28.216 -19.1666 
vt 28.216 -18.8334 
vt 28.27 -18.7918 
vt 28.1666 -18.784 
vt 28.2082 -18.73 
vt 27.7918 -18.73 
vt 27.8334 -18.784 
vt 27.784 -19.1666 
vt 27.784 -18.8334 
vt 27.73 -18.7918 
vt 27.73 -19.2082 
vt 27.8334 -18.784 
vt 27.7918 -18.73 

usemtl Meshpart1Mtl

f 1/1/1 2/2/2 3/3/3 
f 1/1/1 3/3/3 4/4/4 
f 3/3/3 2/2/2 5/5/5 
f 5/5/5 6/6/6 3/3/3 
f 9/9/9 7/7/7 8/8/8 
f 7/7/7 9/9/9 10/10/10 
f 12/12/12 13/13/13 11/11/11 
f 13/13/13 12/12/12 14/14/14 
f 17/17/17 16/16/16 15/15/15 
f 17/17/17 15/15/15 18/18/18 
f 19/19/19 20/20/20 21/21/21 
f 20/20/20 22/22/22 21/21/21 
f 19/19/19 21/21/21 23/23/23 
f 19/19/19 23/23/23 24/24/24 
f 24/24/24 23/23/23 25/25/25 
f 26/26/26 22/22/22 20/20/20 
f 27/27/27 28/28/28 29/29/29 
f 29/29/29 30/30/30 27/27/27 
f 28/28/28 31/31/31 29/29/29 
f 32/32/32 27/27/27 30/30/30 
f 31/31/31 28/28/28 33/33/33 
f 27/27/27 32/32/32 34/34/34 
f 35/35/35 34/34/34 32/32/32 
f 34/34/34 35/35/35 36/36/36 
f 37/37/37 31/31/31 33/33/33 
f 31/31/31 37/37/37 38/38/38 
f 39/39/39 38/38/38 37/37/37 
f 38/38/38 39/39/39 40/40/40 
f 41/41/41 42/42/42 43/43/43 
f 43/43/43 44/44/44 41/41/41 
f 44/44/44 45/45/45 41/41/41 
f 45/45/45 44/44/44 46/46/46 
f 47/47/47 48/48/48 49/49/49 
f 49/49/49 48/48/48 50/50/50 
f 47/47/47 49/49/49 51/51/51 
f 50/50/50 52/52/52 49/49/49 
f 53/53/53 47/47/47 51/51/51 
f 47/47/47 53/53/53 54/54/54 
f 56/56/56 57/57/57 55/55/55 
f 57/57/57 56/56/56 58/58/58 
f 59/59/59 61/61/61 60/60/60 
f 59/59/59 62/62/62 61/61/61 
f 64/64/64 65/65/65 63/63/63 
f 66/66/66 65/65/65 64/64/64 
f 66/66/66 67/67/67 65/65/65 
f 66/66/66 68/68/68 67/67/67 
f 69/69/69 70/70/70 71/71/71 
f 70/70/70 69/69/69 72/72/72 
f 73/73/73 74/74/74 75/75/75 
f 74/74/74 76/76/76 75/75/75 
f 76/76/76 74/74/74 77/77/77 
f 74/74/74 73/73/73 78/78/78 
f 79/79/79 78/78/78 73/73/73 
f 78/78/78 79/79/79 80/80/80 
f 79/79/79 81/81/81 80/80/80 
f 81/81/81 79/79/79 82/82/82 
f 83/83/83 81/81/81 82/82/82 
f 82/82/82 84/84/84 83/83/83 
f 85/85/85 83/83/83 84/84/84 
f 83/83/83 85/85/85 86/86/86 
f 87/87/87 88/88/88 89/89/89 
f 89/89/89 90/90/90 87/87/87 
f 91/91/91 89/89/89 88/88/88 
f 89/89/89 91/91/91 92/92/92 

g Meshpart2

v 1867.1 8.97573 2768.93 
v 1866.95 9.38586 2768.71 
v 1867 9.40542 2768.64 
v 1866.96 9.38368 2768.65 
v 1866.92 9.3309 2768.67 
v 1867 9.41164 2768.73 
v 1867.08 9.37952 2768.7 
v 1866.97 9.12003 2768.98 
v 1866.3 9.22939 2769.12 
v 1867.11 9.12315 2768.92 
v 1866.96 9.34808 2768.85 
v 1867.01 9.33989 2768.77 
v 1866.93 9.34106 2768.77 
v 1866.28 9.36894 2769.01 
v 1867.01 9.35805 2768.87 
v 1867.11 9.29532 2768.83 
v 1866.96 9.33185 2768.73 
v 1867.48 9.11111 2768.5 
v 1867.53 9.09815 2768.53 
v 1867.51 9.09421 2768.49 
v 1867.54 9.09299 2768.48 
v 1867.49 9.11628 2768.55 
v 1867.45 9.13487 2768.5 
v 1867.47 9.14115 2768.56 
v 1867.56 9.09952 2768.53 
v 1867.59 9.10384 2768.44 
v 1867.62 9.11045 2768.48 
v 1867.63 9.09821 2768.47 
v 1867.61 9.09192 2768.44 
v 1866.92 9.1087 2768.88 
v 1867.03 8.96837 2768.86 
v 1867.02 9.32466 2768.66 
v 1866.96 9.17519 2768.92 
v 1867 9.11031 2768.85 
v 1866.92 9.1087 2768.88 
v 1866.3 9.22939 2769.12 
v 1867.01 9.18887 2768.93 
v 1867.11 9.12315 2768.92 
v 1866.99 8.96918 2768.87 
v 1867.02 9.04391 2768.91 
v 1867.03 8.96837 2768.86 
v 1867.1 8.97573 2768.93 
v 1866.98 9.02144 2768.91 
v 1866.93 8.96952 2768.88 
v 1867.63 9.09821 2768.47 
v 1867.02 8.9804 2768.97 
v 1867.1 8.97573 2768.93 
v 1866.97 9.12003 2768.98 
v 1866.3 9.22939 2769.12 
v 1867.48 8.98801 2768.57 
v 1867.56 8.96381 2768.54 
v 1867.01 9.33989 2768.77 
v 1866.28 9.36894 2769.01 
v 1867.11 9.29532 2768.83 
v 1867 9.2626 2768.89 
v 1866.96 9.34808 2768.85 
v 1866.95 9.25979 2768.87 
v 1866.28 9.36894 2769.01 
v 1867.01 9.35805 2768.87 
v 1867.11 9.29532 2768.83 
v 1866.96 9.17519 2768.92 
v 1866.97 9.12003 2768.98 
v 1867.02 9.1259 2769 
v 1866.3 9.22939 2769.12 
v 1867.01 9.18887 2768.93 
v 1867.11 9.12315 2768.92 
v 1867.01 9.33088 2768.75 
v 1866.96 9.33185 2768.73 
v 1867 9.41164 2768.73 
v 1867.08 9.37952 2768.7 
v 1867.02 9.04391 2768.91 
v 1867.02 8.9804 2768.97 
v 1867.1 8.97573 2768.93 
v 1867.5 9.0846 2768.59 
v 1867.53 9.02921 2768.57 
v 1867.54 9.07229 2768.56 
v 1867.58 9.06631 2768.57 
v 1867.5 9.03145 2768.6 
v 1867.49 9.09957 2768.62 
v 1867.48 9.02981 2768.63 
v 1867.58 9.01106 2768.58 
v 1867.61 9.05186 2768.52 
v 1867.63 9.08819 2768.51 
v 1867.62 9.05202 2768.51 
v 1867.63 9.08066 2768.5 
v 1867.49 9.11628 2768.55 
v 1867.49 9.11628 2768.55 
v 1867.5 9.0846 2768.59 
v 1867.53 9.09815 2768.53 
v 1867.49 9.09957 2768.62 
v 1867.47 9.14115 2768.56 
v 1867.54 9.07229 2768.56 
v 1867.56 9.09952 2768.53 
v 1867.58 9.06631 2768.57 
v 1867.63 9.08819 2768.51 
v 1867.62 9.11045 2768.48 
v 1867.63 9.09821 2768.47 
v 1867.63 9.08066 2768.5 
v 1867.61 9.09192 2768.44 
v 1867.62 9.05202 2768.51 
v 1867.61 9.02268 2768.48 
v 1867.63 9.09821 2768.47 
v 1867.63 9.08066 2768.5 
v 1866.98 8.92475 2768.91 
v 1867.1 8.97573 2768.93 
v 1866.97 9.12003 2768.98 
v 1867.02 9.1259 2769 
v 1867.56 8.96381 2768.54 
v 1867.58 9.01106 2768.58 
v 1867.59 9.01602 2768.49 
v 1867.61 9.05186 2768.52 
v 1867.62 9.05202 2768.51 
v 1867.61 9.02268 2768.48 
v 1867.01 9.33989 2768.77 
v 1867.11 9.29532 2768.83 
v 1866.96 9.33185 2768.73 
v 1867.02 9.04391 2768.91 
v 1866.92 9.1087 2768.88 
v 1867.01 9.04734 2768.93 
v 1867 9.11031 2768.85 
v 1867.11 9.12315 2768.92 
v 1867.02 8.90487 2768.92 
v 1867.03 8.96837 2768.86 
v 1867.1 8.97573 2768.93 
v 1867 9.40542 2768.64 
v 1867.02 9.32466 2768.66 
v 1867.08 9.37952 2768.7 
v 1867.01 9.33989 2768.77 
v 1867 9.24445 2768.78 
v 1867.11 9.29532 2768.83 
v 1866.98 8.92475 2768.91 
v 1867.02 8.90487 2768.92 
v 1866.96 8.97701 2768.94 
v 1866.93 8.96952 2768.88 
v 1867.02 8.9804 2768.97 
v 1867.1 8.97573 2768.93 
v 1867.08 9.37952 2768.7 
v 1866.97 9.12003 2768.98 
v 1866.94 9.05354 2768.93 
v 1867.01 9.04734 2768.93 
v 1866.3 9.22939 2769.12 
v 1867.02 9.1259 2769 
v 1867.11 9.12315 2768.92 
v 1867.5 9.03145 2768.6 
v 1867.48 8.98801 2768.57 
v 1867.53 9.02921 2768.57 
v 1867.46 8.97332 2768.59 
v 1867.48 9.02981 2768.63 
v 1867.52 8.99407 2768.55 
v 1867.56 8.96381 2768.54 
v 1867.58 9.01106 2768.58 
v 1867.59 9.01602 2768.49 
v 1867.61 9.05186 2768.52 
v 1867.62 9.05202 2768.51 
v 1867.61 9.02268 2768.48 
v 1867.01 9.33989 2768.77 
v 1866.28 9.36894 2769.01 
v 1867.11 9.29532 2768.83 
v 1867 9.2626 2768.89 
v 1866.96 9.33185 2768.73 
v 1866.92 9.1087 2768.88 
v 1867.02 9.32466 2768.66 
v 1867 9.24445 2768.78 
v 1867 9.24445 2768.78 
v 1866.95 9.25979 2768.87 
v 1866.92 9.25276 2768.79 
v 1866.28 9.36894 2769.01 
v 1867 9.2626 2768.89 
v 1867.11 9.29532 2768.83 
v 1866.98 9.32966 2768.67 
v 1867.02 9.32466 2768.66 
v 1867.01 9.33088 2768.75 
v 1867.08 9.37952 2768.7 
v 1866.96 9.33185 2768.73 
v 1866.92 9.3309 2768.67 
v 1867.63 9.09821 2768.47 
v 1866.98 8.92475 2768.91 
v 1866.97 9.12003 2768.98 
v 1866.3 9.22939 2769.12 
v 1867.48 8.98801 2768.57 
v 1867.56 8.96381 2768.54 
v 1866.28 9.36894 2769.01 
v 1866.96 9.33185 2768.73 
v 1867.02 9.04391 2768.91 
v 1867.49 9.11628 2768.55 
v 1867.52 8.99407 2768.55 
v 1867.54 9.09299 2768.48 
v 1867.59 9.01602 2768.49 
v 1867.56 8.96381 2768.54 
v 1867.61 9.02268 2768.48 
v 1867.61 9.09192 2768.44 
v 1867.59 9.10384 2768.44 
v 1867.51 9.09421 2768.49 
v 1867.48 9.11111 2768.5 
v 1867.48 8.98801 2768.57 
v 1867.45 9.13487 2768.5 
v 1867.46 8.97332 2768.59 
v 1866.92 9.1087 2768.88 
v 1867.01 9.04734 2768.93 
v 1866.94 9.05354 2768.93 
v 1866.3 9.22939 2769.12 
v 1867 9.11031 2768.85 
v 1866.99 8.96918 2768.87 
v 1867.02 8.90487 2768.92 
v 1866.98 8.92475 2768.91 
v 1866.93 8.96952 2768.88 
v 1867.03 8.96837 2768.86 
v 1866.98 9.32966 2768.67 
v 1867 9.40542 2768.64 
v 1867.02 9.32466 2768.66 
v 1866.96 9.38368 2768.65 
v 1866.92 9.3309 2768.67 
v 1866.92 9.25276 2768.79 
v 1867.01 9.33989 2768.77 
v 1867 9.24445 2768.78 
v 1866.93 9.34106 2768.77 
v 1866.28 9.36894 2769.01 
v 1866.98 8.92475 2768.91 
v 1866.96 8.97701 2768.94 
v 1866.93 8.96952 2768.88 
v 1867.02 8.9804 2768.97 
v 1866.95 9.38586 2768.71 
v 1866.96 9.38368 2768.65 
v 1866.92 9.3309 2768.67 
v 1866.97 9.12003 2768.98 
v 1867.02 9.1259 2769 
v 1867.01 9.33989 2768.77 
v 1867 9.2626 2768.89 
v 1866.96 9.34808 2768.85 
v 1867.01 9.35805 2768.87 
v 1866.96 9.17519 2768.92 
v 1866.97 9.12003 2768.98 
v 1867.02 9.1259 2769 
v 1867.01 9.33088 2768.75 
v 1866.95 9.38586 2768.71 
v 1866.96 9.33185 2768.73 
v 1866.92 9.3309 2768.67 
v 1867 9.41164 2768.73 
v 1867.02 9.04391 2768.91 
v 1866.96 8.97701 2768.94 
v 1867.02 8.9804 2768.97 
v 1866.98 9.02144 2768.91 
v 1866.93 8.96952 2768.88 

vn 0.393701 -0.503937 0.76378 
vn -0.519685 0.850394 -0.102362 
vn -0.251969 0.96063 -0.0866142 
vn -0.669291 0.724409 -0.133858 
vn -0.80315 0.574803 -0.15748 
vn 0.102362 0.992126 -0.0708661 
vn 0.338583 0.937008 -0.0551181 
vn -0.0393701 -0.606299 0.795276 
vn 0.0787402 -0.590551 0.80315 
vn 0.511811 -0.590551 0.622047 
vn -0.0314961 0.992126 -0.11811 
vn 0.0866142 0.984252 -0.133858 
vn -0.00787402 0.992126 -0.102362 
vn 0.00787402 0.992126 -0.0944882 
vn 0.307087 0.937008 -0.149606 
vn 0.472441 0.866142 -0.149606 
vn -0.566929 0.110236 0.818898 
vn 0.535433 0.795276 -0.275591 
vn 0.149606 0.976378 -0.165354 
vn 0.173228 0.968504 -0.173228 
vn -0.11811 0.992126 -0.0708661 
vn 0.574803 0.771654 -0.283465 
vn 0.677165 0.669291 -0.299213 
vn 0.677165 0.669291 -0.299213 
vn -0.149606 0.984252 -0.0629921 
vn 0.141732 0.944882 -0.283465 
vn 0.0708661 0.968504 -0.23622 
vn 0.551181 0.653543 -0.519685 
vn 0.551181 0.653543 -0.519685 
vn -0.275591 -0.724409 -0.629921 
vn 0.110236 -0.661417 -0.748031 
vn 0.0708661 -0.299213 -0.952756 
vn -0.173228 0.637795 -0.748031 
vn -0.0629921 0.653543 -0.748031 
vn -0.181102 0.629921 -0.755906 
vn -0.188976 0.614173 -0.76378 
vn 0.15748 0.653543 -0.740157 
vn 0.322835 0.629921 -0.708661 
vn -0.110236 0.543307 -0.834646 
vn 0.338583 0.551181 -0.76378 
vn 0.015748 0.559055 -0.826772 
vn 0.543307 0.511811 -0.669291 
vn -0.133858 0.543307 -0.826772 
vn -0.0866142 0.535433 -0.84252 
vn 0.874016 -0.314961 -0.377953 
vn 0.173228 -0.559055 0.811024 
vn 0.393701 -0.503937 0.76378 
vn -0.0393701 -0.606299 0.795276 
vn 0.0787402 -0.590551 0.80315 
vn 0.629921 -0.574803 0.519685 
vn 0.401575 -0.614173 0.677165 
vn 0.0866142 0.984252 -0.133858 
vn 0.00787402 0.992126 -0.0944882 
vn 0.472441 0.866142 -0.149606 
vn -0.00787402 0.173228 0.984252 
vn -0.0866142 0.220472 0.968504 
vn 0.0551181 0.228346 0.976378 
vn 0.228346 0.220472 0.944882 
vn 0.165354 0.149606 0.976378 
vn 0.456693 0.102362 0.88189 
vn 0.0787402 0.732283 0.677165 
vn -0.0393701 0.724409 0.685039 
vn 0.19685 0.748031 0.637795 
vn 0.259843 0.724409 0.645669 
vn 0.0708661 0.748031 0.661417 
vn 0.480315 0.692913 0.535433 
vn 0.0314961 0.291339 0.952756 
vn -0.566929 0.110236 0.818898 
vn 0.149606 0.307087 0.937008 
vn 0.433071 0.322835 0.84252 
vn 0.0472441 0.669291 0.740157 
vn 0.11811 0.661417 0.740157 
vn 0.417323 0.582677 0.700787 
vn 0.771654 0.0629921 0.629921 
vn 0.346457 0.133858 0.929134 
vn 0.338583 0.133858 0.929134 
vn 0.519685 0.0629921 0.850394 
vn 0.732283 0.0708661 0.677165 
vn 0.850394 0.0314961 0.527559 
vn 0.850394 0.0314961 0.527559 
vn 0.354331 0.0944882 0.929134 
vn 0.818898 -0.0944882 0.566929 
vn 0.818898 -0.102362 0.566929 
vn 0.779528 -0.188976 0.590551 
vn 0.779528 -0.188976 0.590551 
vn 0.574803 0.771654 -0.283465 
vn 0.685039 0.653543 0.322835 
vn 0.732283 0.614173 0.283465 
vn 0.370079 0.779528 0.503937 
vn 0.818898 0.535433 0.212598 
vn 0.818898 0.535433 0.212598 
vn 0.307087 0.795276 0.527559 
vn 0.149606 0.80315 0.574803 
vn 0.165354 0.811024 0.566929 
vn 0.433071 0.771654 0.456693 
vn 0.622047 0.692913 0.362205 
vn 0.826772 0.527559 0.188976 
vn 0.826772 0.527559 0.188976 
vn 0.874016 -0.314961 -0.377953 
vn 0.874016 -0.314961 -0.377953 
vn 0.874016 -0.314961 -0.377953 
vn 0.874016 -0.314961 -0.377953 
vn 0.874016 -0.314961 -0.377953 
vn -0.614173 -0.535433 0.582677 
vn 0.393701 -0.503937 0.76378 
vn -0.0393701 -0.606299 0.795276 
vn 0.314961 -0.629921 0.708661 
vn 0.401575 -0.614173 0.677165 
vn 0.551181 -0.598425 0.574803 
vn 0.811024 -0.511811 0.283465 
vn 0.826772 -0.503937 0.259843 
vn 0.653543 -0.606299 0.456693 
vn 0.653543 -0.606299 0.456693 
vn 0.0866142 0.984252 -0.133858 
vn 0.472441 0.866142 -0.149606 
vn -0.566929 0.110236 0.818898 
vn 0.0472441 0.669291 0.740157 
vn -0.275591 -0.724409 -0.629921 
vn 0.141732 -0.732283 -0.669291 
vn 0.023622 -0.740157 -0.669291 
vn 0.425197 -0.653543 -0.629921 
vn 0.165354 -0.653543 -0.732283 
vn 0.110236 -0.661417 -0.748031 
vn 0.574803 -0.574803 -0.582677 
vn 0.188976 -0.275591 -0.944882 
vn 0.0708661 -0.299213 -0.952756 
vn 0.559055 -0.165354 -0.811024 
vn 0.188976 -0.173228 -0.968504 
vn 0.015748 -0.181102 -0.984252 
vn 0.448819 -0.149606 -0.88189 
vn -0.614173 -0.535433 0.582677 
vn -0.19685 -0.582677 0.787402 
vn -0.456693 -0.559055 0.692913 
vn -0.755906 -0.480315 0.440945 
vn 0.173228 -0.559055 0.811024 
vn 0.393701 -0.503937 0.76378 
vn 0.338583 0.937008 -0.0551181 
vn -0.0393701 -0.606299 0.795276 
vn 0.023622 -0.598425 0.80315 
vn 0.0629921 -0.629921 0.771654 
vn 0.0787402 -0.590551 0.80315 
vn 0.314961 -0.629921 0.708661 
vn 0.511811 -0.590551 0.622047 
vn 0.653543 -0.566929 0.503937 
vn 0.629921 -0.574803 0.519685 
vn 0.11811 -0.582677 0.80315 
vn 0.732283 -0.535433 0.417323 
vn 0.732283 -0.535433 0.417323 
vn 0.141732 -0.590551 0.795276 
vn 0.401575 -0.614173 0.677165 
vn 0.551181 -0.598425 0.574803 
vn 0.811024 -0.511811 0.283465 
vn 0.826772 -0.503937 0.259843 
vn 0.653543 -0.606299 0.456693 
vn 0.653543 -0.606299 0.456693 
vn 0.0866142 0.984252 -0.133858 
vn 0.00787402 0.992126 -0.0944882 
vn 0.472441 0.866142 -0.149606 
vn -0.00787402 0.173228 0.984252 
vn -0.566929 0.110236 0.818898 
vn -0.275591 -0.724409 -0.629921 
vn 0.0708661 -0.299213 -0.952756 
vn 0.015748 -0.181102 -0.984252 
vn 0.0551181 -0.984252 0.149606 
vn -0.0708661 -0.984252 0.141732 
vn -0.0944882 -0.984252 0.141732 
vn -0.133858 -0.984252 0.141732 
vn 0.23622 -0.96063 0.15748 
vn 0.370079 -0.913386 0.15748 
vn -0.0393701 -1 0.0393701 
vn 0.0866142 -0.992126 0.0551181 
vn 0.401575 -0.913386 0.0708661 
vn 0.598425 -0.80315 0.0787402 
vn -0.0629921 -1 0.0472441 
vn -0.015748 -1 0.0314961 
vn 0.874016 -0.314961 -0.377953 
vn -0.614173 -0.535433 0.582677 
vn -0.0393701 -0.606299 0.795276 
vn 0.0787402 -0.590551 0.80315 
vn 0.629921 -0.574803 0.519685 
vn 0.401575 -0.614173 0.677165 
vn 0.00787402 0.992126 -0.0944882 
vn -0.566929 0.110236 0.818898 
vn 0.0472441 0.669291 0.740157 
vn 0.574803 0.771654 -0.283465 
vn -0.417323 -0.456693 -0.779528 
vn -0.417323 -0.456693 -0.779528 
vn -0.417323 -0.456693 -0.779528 
vn -0.417323 -0.456693 -0.779528 
vn -0.417323 -0.456693 -0.779528 
vn -0.417323 -0.456693 -0.779528 
vn -0.417323 -0.456693 -0.779528 
vn -0.417323 -0.456693 -0.779528 
vn -0.417323 -0.456693 -0.779528 
vn -0.417323 -0.456693 -0.779528 
vn -0.417323 -0.456693 -0.779528 
vn -0.417323 -0.456693 -0.779528 
vn -0.275591 -0.724409 -0.629921 
vn 0.141732 -0.732283 -0.669291 
vn -0.244094 -0.732283 -0.637795 
vn -0.377953 -0.708661 -0.598425 
vn 0.023622 -0.740157 -0.669291 
vn -0.11811 -0.629921 -0.76378 
vn 0.165354 -0.653543 -0.732283 
vn -0.125984 -0.629921 -0.76378 
vn -0.0866142 -0.629921 -0.771654 
vn 0.110236 -0.661417 -0.748031 
vn -0.133858 -0.338583 -0.929134 
vn 0.188976 -0.275591 -0.944882 
vn 0.0708661 -0.299213 -0.952756 
vn -0.133858 -0.338583 -0.929134 
vn -0.0944882 -0.346457 -0.937008 
vn -0.259843 -0.19685 -0.944882 
vn 0.188976 -0.173228 -0.968504 
vn 0.015748 -0.181102 -0.984252 
vn -0.220472 -0.19685 -0.952756 
vn -0.346457 -0.204724 -0.913386 
vn -0.614173 -0.535433 0.582677 
vn -0.456693 -0.559055 0.692913 
vn -0.755906 -0.480315 0.440945 
vn 0.173228 -0.559055 0.811024 
vn -0.519685 0.850394 -0.102362 
vn -0.669291 0.724409 -0.133858 
vn -0.80315 0.574803 -0.15748 
vn -0.0393701 -0.606299 0.795276 
vn 0.314961 -0.629921 0.708661 
vn 0.0866142 0.984252 -0.133858 
vn -0.00787402 0.173228 0.984252 
vn -0.0866142 0.220472 0.968504 
vn 0.165354 0.149606 0.976378 
vn 0.0787402 0.732283 0.677165 
vn -0.0393701 0.724409 0.685039 
vn 0.19685 0.748031 0.637795 
vn 0.0314961 0.291339 0.952756 
vn -0.543307 0.11811 0.826772 
vn -0.566929 0.110236 0.818898 
vn -0.76378 -0.0314961 0.645669 
vn 0.149606 0.307087 0.937008 
vn 0.0472441 0.669291 0.740157 
vn -0.582677 0.614173 0.535433 
vn 0.11811 0.661417 0.740157 
vn -0.566929 0.614173 0.543307 
vn -0.787402 0.519685 0.338583 

vt 53.8903 -28.9917 
vt 54.0223 -29.0347 
vt 53.9455 -29.062 
vt 53.9877 -29.0803 
vt 54.026 -29.1039 
vt 53.9849 -28.9885 
vt 53.8903 -28.9917 
vt 54.0555 -28.9397 
vt 54.7382 -29.0563 
vt 53.9007 -28.9258 
vt 54.0555 -28.9367 
vt 53.981 -28.987 
vt 54.0555 -29.0166 
vt 54.7347 -29.0901 
vt 54.0238 -28.8961 
vt 53.9031 -28.9179 
vt 54.0038 -29.0379 
vt 53.4123 -29.1021 
vt 53.3752 -29.0663 
vt 53.3734 -29.1021 
vt 53.3434 -29.1021 
vt 53.4167 -29.0581 
vt 53.4376 -29.1021 
vt 53.4434 -29.0455 
vt 53.3435 -29.0527 
vt 53.2826 -29.1021 
vt 53.2745 -29.0607 
vt 53.2618 -29.0671 
vt 53.2682 -29.1021 
vt 54.0555 -29.044 
vt 53.9292 -29.0744 
vt 53.9292 -29.0744 
vt 54.0555 -28.9641 
vt 53.975 -29.0267 
vt 54.0555 -29.044 
vt 54.7382 -29.0563 
vt 54.0135 -28.9326 
vt 53.9007 -28.9258 
vt 53.9691 -29.0835 
vt 53.9687 -29.0009 
vt 53.9292 -29.0744 
vt 53.8903 -28.9917 
vt 54.0038 -29.0379 
vt 54.026 -29.1039 
vt 53.9223 -28.2618 
vt 54.248 -28.9849 
vt 54.2322 -28.8903 
vt 54.1277 -29.0555 
vt 54.0804 -29.7382 
vt 54.0616 -28.4128 
vt 54.0709 -28.3229 
vt 53.8345 -28.981 
vt 53.9013 -29.7347 
vt 53.9064 -28.9031 
vt 53.96 -29.0165 
vt 53.8671 -29.0555 
vt 53.9547 -29.0555 
vt 53.9013 -29.7347 
vt 53.8706 -29.0238 
vt 53.9064 -28.9031 
vt 54.0514 -29.0555 
vt 54.1277 -29.0555 
vt 54.1345 -29.021 
vt 54.0804 -29.7382 
vt 54.0437 -29.0135 
vt 54.0997 -28.9007 
vt 53.835 -28.9687 
vt 53.8215 -29.0038 
vt 53.752 -28.9849 
vt 53.7678 -28.8903 
vt 54.165 -28.9687 
vt 54.248 -28.9849 
vt 54.2322 -28.8903 
vt 53.9872 -28.4187 
vt 54.0271 -28.3732 
vt 53.9858 -28.3751 
vt 53.9952 -28.3375 
vt 54.0383 -28.4171 
vt 53.9861 -28.446 
vt 54.0532 -28.444 
vt 54.0473 -28.329 
vt 53.9861 -28.2905 
vt 53.9493 -28.2761 
vt 53.979 -28.2744 
vt 53.9499 -28.2631 
vt 53.9381 -28.4167 
vt 53.9381 -28.4167 
vt 53.9872 -28.4187 
vt 53.9461 -28.3752 
vt 53.9861 -28.446 
vt 53.9217 -28.4434 
vt 53.9858 -28.3751 
vt 53.9452 -28.3435 
vt 53.9952 -28.3375 
vt 53.9493 -28.2761 
vt 53.9143 -28.2745 
vt 53.9223 -28.2618 
vt 53.9499 -28.2631 
vt 54.0877 -29.1021 
vt 54.021 -29.0654 
vt 54.0076 -29.1021 
vt 54.0777 -29.0671 
vt 54.0501 -29.0536 
vt 53.7361 -29.0803 
vt 53.7678 -28.9917 
vt 53.8723 -28.9397 
vt 53.8655 -28.9007 
vt 53.9291 -29.1021 
vt 53.9527 -29.0465 
vt 53.9968 -29.1021 
vt 54.0139 -29.0585 
vt 54.021 -29.0654 
vt 54.0076 -29.1021 
vt 54.1655 -28.987 
vt 54.0936 -28.9179 
vt 54.1785 -29.0379 
vt 53.835 -29.0009 
vt 53.9145 -29.044 
vt 53.8329 -28.9948 
vt 53.9237 -29.0267 
vt 53.9003 -28.9258 
vt 53.7122 -29.062 
vt 53.7951 -29.0744 
vt 53.7678 -28.9917 
vt 54.2878 -29.062 
vt 54.2049 -29.0744 
vt 54.2322 -28.9917 
vt 54.1655 -28.987 
vt 54.0761 -29.0226 
vt 54.0936 -28.9179 
vt 54.0123 -29.0803 
vt 54.0545 -29.062 
vt 53.9777 -29.0347 
vt 53.974 -29.1039 
vt 54.0151 -28.9885 
vt 54.1097 -28.9917 
vt 54.1097 -28.9917 
vt 53.9445 -28.9397 
vt 53.9445 -29.0197 
vt 54.0175 -28.9948 
vt 53.2618 -29.0563 
vt 53.979 -28.9007 
vt 54.0993 -28.9258 
vt 54.5829 -29.0533 
vt 54.5872 -29.1021 
vt 54.6268 -29.0623 
vt 54.5617 -29.1021 
vt 54.556 -29.0392 
vt 54.6294 -29.1021 
vt 54.6771 -29.1021 
vt 54.671 -29.0465 
vt 54.7147 -29.1021 
vt 54.7095 -29.0585 
vt 54.7256 -29.0654 
vt 54.7297 -29.1021 
vt 54.019 -28.987 
vt 53.2653 -29.0901 
vt 54.0969 -28.9179 
vt 53.9835 -28.9317 
vt 53.9962 -29.0379 
vt 53.9445 -29.044 
vt 54.0708 -29.0744 
vt 54.0263 -29.0226 
vt 54.0263 -29.0226 
vt 53.9445 -28.9628 
vt 53.9445 -29.0427 
vt 53.2653 -29.0901 
vt 53.9835 -28.9317 
vt 54.0969 -28.9179 
vt 54.0309 -29.0835 
vt 54.0708 -29.0744 
vt 54.0313 -29.0009 
vt 54.1097 -28.9917 
vt 53.9962 -29.0379 
vt 53.974 -29.1039 
vt 54.0777 -28.2618 
vt 53.7361 -28.9877 
vt 53.8723 -29.0555 
vt 53.9196 -29.7382 
vt 53.9384 -28.4128 
vt 53.9291 -28.3229 
vt 54.0987 -29.7347 
vt 54.1785 -29.0038 
vt 53.835 -28.9687 
vt 54.0619 -28.4167 
vt 53.9541 -28.3706 
vt 54.0734 -28.3434 
vt 53.9968 -28.2853 
vt 53.9291 -28.3229 
vt 54.0076 -28.2703 
vt 54.0877 -28.2682 
vt 54.0984 -28.2826 
vt 54.0687 -28.3734 
vt 54.0801 -28.4123 
vt 53.9384 -28.4128 
vt 54.1023 -28.4376 
vt 53.9163 -28.4383 
vt 53.9145 -29.0555 
vt 53.8329 -28.9825 
vt 53.8382 -29.0555 
vt 53.9196 -29.7382 
vt 53.9237 -28.975 
vt 53.7927 -28.9691 
vt 53.7122 -28.9455 
vt 53.7361 -28.9877 
vt 53.7922 -29.026 
vt 53.7951 -28.9293 
vt 54.2073 -28.9691 
vt 54.2878 -28.9455 
vt 54.2049 -28.9293 
vt 54.2639 -28.9877 
vt 54.2078 -29.026 
vt 54.0795 -29.0555 
vt 54.1655 -28.981 
vt 54.0761 -28.9737 
vt 54.1672 -29.0555 
vt 54.0987 -29.7347 
vt 54.2639 -29.0803 
vt 54.2351 -29.0347 
vt 54.2078 -29.1039 
vt 54.248 -28.9885 
vt 53.7649 -29.0347 
vt 53.7361 -29.0803 
vt 53.7922 -29.1039 
vt 54.1277 -28.9397 
vt 54.1345 -28.9007 
vt 53.8345 -28.987 
vt 53.96 -28.9317 
vt 53.8671 -28.9367 
vt 53.8706 -28.8961 
vt 54.0514 -28.9641 
vt 54.1277 -28.9397 
vt 54.1345 -28.9007 
vt 53.835 -29.0009 
vt 53.7649 -29.0347 
vt 53.8215 -29.0379 
vt 53.7922 -29.1039 
vt 53.752 -28.9885 
vt 54.165 -29.0009 
vt 54.2351 -29.0347 
vt 54.248 -28.9885 
vt 54.1785 -29.0379 
vt 54.2078 -29.1039 

usemtl Meshpart2Mtl

f 94/94/94 95/95/95 96/96/96 
f 95/95/95 94/94/94 98/98/98 
f 98/98/98 99/99/99 95/95/95 
f 103/103/103 104/104/104 105/105/105 
f 105/105/105 106/106/106 103/103/103 
f 107/107/107 104/104/104 103/103/103 
f 107/107/107 108/108/108 104/104/104 
f 110/110/110 111/111/111 112/112/112 
f 111/111/111 113/113/113 112/112/112 
f 111/111/111 110/110/110 114/114/114 
f 115/115/115 114/114/114 110/110/110 
f 115/115/115 116/116/116 114/114/114 
f 113/113/113 111/111/111 117/117/117 
f 117/117/117 118/118/118 113/113/113 
f 118/118/118 117/117/117 119/119/119 
f 120/120/120 118/118/118 119/119/119 
f 118/118/118 120/120/120 121/121/121 
f 125/125/125 126/126/126 127/127/127 
f 125/125/125 127/127/127 128/128/128 
f 126/126/126 125/125/125 129/129/129 
f 126/126/126 129/129/129 130/130/130 
f 131/131/131 132/132/132 133/133/133 
f 133/133/133 132/132/132 134/134/134 
f 132/132/132 131/131/131 135/135/135 
f 135/135/135 131/131/131 136/136/136 
f 147/147/147 148/148/148 149/149/149 
f 148/148/148 150/150/150 149/149/149 
f 147/147/147 152/152/152 151/151/151 
f 154/154/154 153/153/153 156/156/156 
f 153/153/153 155/155/155 157/157/157 
f 157/157/157 155/155/155 158/158/158 
f 159/159/159 162/162/162 161/161/161 
f 163/163/163 164/164/164 165/165/165 
f 166/166/166 167/167/167 168/168/168 
f 167/167/167 169/169/169 168/168/168 
f 167/167/167 166/166/166 170/170/170 
f 171/171/171 170/170/170 166/166/166 
f 171/171/171 172/172/172 170/170/170 
f 169/169/169 167/167/167 173/173/173 
f 174/174/174 169/169/169 173/173/173 
f 169/169/169 174/174/174 175/175/175 
f 175/175/175 174/174/174 176/176/176 
f 175/175/175 176/176/176 177/177/177 
f 179/179/179 180/180/180 181/181/181 
f 179/179/179 182/182/182 180/180/180 
f 182/182/182 179/179/179 183/183/183 
f 180/180/180 184/184/184 181/181/181 
f 184/184/184 185/185/185 181/181/181 
f 185/185/185 184/184/184 186/186/186 
f 187/187/187 185/185/185 186/186/186 
f 185/185/185 187/187/187 188/188/188 
f 187/187/187 189/189/189 188/188/188 
f 189/189/189 187/187/187 190/190/190 
f 191/191/191 192/192/192 193/193/193 
f 192/192/192 191/191/191 194/194/194 
f 192/192/192 194/194/194 195/195/195 
f 202/202/202 201/201/201 200/200/200 
f 201/201/201 202/202/202 203/203/203 
f 211/211/211 212/212/212 213/213/213 
f 214/214/214 215/215/215 216/216/216 
f 217/217/217 219/219/219 218/218/218 
f 220/220/220 222/222/222 221/221/221 
f 223/223/223 224/224/224 225/225/225 
f 224/224/224 227/227/227 225/225/225 
f 227/227/227 224/224/224 228/228/228 
f 230/230/230 231/231/231 232/232/232 
f 231/231/231 230/230/230 233/233/233 
f 232/232/232 234/234/234 230/230/230 
f 234/234/234 232/232/232 235/235/235 
f 236/236/236 237/237/237 238/238/238 
f 236/236/236 239/239/239 237/237/237 
f 239/239/239 236/236/236 240/240/240 
f 237/237/237 241/241/241 238/238/238 
f 242/242/242 238/238/238 241/241/241 
f 238/238/238 242/242/242 243/243/243 
f 244/244/244 246/246/246 245/245/245 
f 246/246/246 244/244/244 247/247/247 
f 256/256/256 257/257/257 258/258/258 
f 257/257/257 259/259/259 258/258/258 
f 257/257/257 256/256/256 260/260/260 
f 256/256/256 261/261/261 260/260/260 
f 262/262/262 263/263/263 264/264/264 
f 263/263/263 265/265/265 264/264/264 
f 264/264/264 266/266/266 262/262/262 
f 266/266/266 267/267/267 262/262/262 
f 278/278/278 279/279/279 280/280/280 
f 278/278/278 280/280/280 281/281/281 
f 279/279/279 282/282/282 280/280/280 
f 282/282/282 279/279/279 283/283/283 
f 283/283/283 279/279/279 284/284/284 
f 279/279/279 278/278/278 285/285/285 
f 278/278/278 286/286/286 285/285/285 
f 286/286/286 278/278/278 287/287/287 
f 287/287/287 288/288/288 286/286/286 
f 289/289/289 288/288/288 287/287/287 
f 290/290/290 291/291/291 292/292/292 
f 290/290/290 292/292/292 293/293/293 
f 291/291/291 290/290/290 294/294/294 
f 295/295/295 296/296/296 297/297/297 
f 295/295/295 297/297/297 298/298/298 
f 296/296/296 295/295/295 299/299/299 
f 300/300/300 301/301/301 302/302/302 
f 301/301/301 300/300/300 303/303/303 
f 300/300/300 304/304/304 303/303/303 
f 305/305/305 306/306/306 307/307/307 
f 306/306/306 305/305/305 308/308/308 
f 305/305/305 309/309/309 308/308/308 
f 310/310/310 311/311/311 312/312/312 
f 315/315/315 316/316/316 314/314/314 
f 321/321/321 320/320/320 322/322/322 
f 323/323/323 324/324/324 325/325/325 
f 326/326/326 327/327/327 328/328/328 
f 327/327/327 329/329/329 328/328/328 
f 327/327/327 326/326/326 330/330/330 
f 331/331/331 332/332/332 333/333/333 
f 332/332/332 331/331/331 334/334/334 
f 332/332/332 334/334/334 335/335/335 

g Meshpart3

v 1867.03 9.20722 2768.87 
v 1867.15 9.20464 2768.85 
v 1867.06 9.2286 2768.83 
v 1867.07 9.16469 2768.87 
v 1867.14 9.22868 2768.82 
v 1867.12 9.24419 2768.8 
v 1867.15 9.22513 2768.82 
v 1867.19 9.18765 2768.82 
v 1867.15 9.16552 2768.85 
v 1867.14 9.16192 2768.86 
v 1867.12 9.13443 2768.86 
v 1867.27 9.28041 2768.66 
v 1867.31 9.3375 2768.57 
v 1867.26 9.35085 2768.59 
v 1867.35 9.29747 2768.59 
v 1867.17 9.35614 2768.61 
v 1867.18 9.36326 2768.6 
v 1867.35 9.26492 2768.63 
v 1867.37 9.26298 2768.6 
v 1867.34 9.2632 2768.64 
v 1867.33 9.26215 2768.65 
v 1867.29 9.23271 2768.73 
v 1867.19 9.28501 2768.69 
v 1867.13 9.33491 2768.68 
v 1867.15 9.30281 2768.71 
v 1867.18 9.26069 2768.74 
v 1867.28 9.2269 2768.74 
v 1867.2 9.23654 2768.76 
v 1867.22 9.21775 2768.78 
v 1867.26 9.20463 2768.79 
v 1867.28 9.10588 2768.81 
v 1867.2 9.11012 2768.83 
v 1867.2 9.02505 2768.84 
v 1867.22 9.13891 2768.82 
v 1867.26 9.15242 2768.81 
v 1867.19 9.08252 2768.84 
v 1867.16 9.02823 2768.86 
v 1867.15 8.99024 2768.88 
v 1867.29 9.09316 2768.81 
v 1867.18 8.92328 2768.86 
v 1867.28 9.01127 2768.82 
v 1867.35 9.009 2768.79 
v 1867.35 9.00199 2768.79 
v 1867.28 8.90851 2768.84 
v 1867.19 8.91033 2768.86 
v 1867.33 8.90239 2768.81 
v 1867.36 8.9455 2768.79 
v 1867.37 8.99392 2768.78 
v 1867.39 8.97124 2768.77 

vn 0.102362 0.511811 0.850394 
vn 0.354331 0.480315 0.80315 
vn 0.0629921 0.84252 0.527559 
vn 0.11811 0.0551181 0.992126 
vn 0.181102 0.834646 0.519685 
vn 0.0629921 0.84252 0.527559 
vn 0.551181 0.716535 0.425197 
vn 0.614173 0.409449 0.677165 
vn 0.574803 0.0314961 0.818898 
vn 0.228346 0.0551181 0.976378 
vn 0.11811 0.0551181 0.992126 
vn 0.299213 0.771654 0.566929 
vn 0.385827 0.716535 0.582677 
vn 0.307087 0.732283 0.614173 
vn 0.472441 0.692913 0.551181 
vn 0.314961 0.732283 0.606299 
vn 0.228346 0.740157 0.637795 
vn 0.503937 0.677165 0.535433 
vn 0.708661 0.566929 0.409449 
vn 0.385827 0.724409 0.566929 
vn 0.377953 0.787402 0.488189 
vn 0.244094 0.811024 0.527559 
vn 0.393701 0.755906 0.527559 
vn 0.566929 0.669291 0.472441 
vn 0.566929 0.685039 0.456693 
vn 0.566929 0.716535 0.409449 
vn 0.204724 0.818898 0.543307 
vn 0.275591 0.811024 0.519685 
vn 0.204724 0.818898 0.543307 
vn 0.204724 0.818898 0.543307 
vn 0.23622 0.0551181 0.968504 
vn 0.299213 0.0551181 0.952756 
vn 0.417323 0.0944882 0.905512 
vn 0.23622 0.0551181 0.968504 
vn 0.23622 0.0551181 0.968504 
vn 0.590551 0.0314961 0.811024 
vn 0.590551 0.0787402 0.80315 
vn 0.598425 0.102362 0.795276 
vn 0.275591 0.0551181 0.96063 
vn 0.346457 0.165354 0.92126 
vn 0.330709 0.110236 0.937008 
vn 0.409449 0.0393701 0.913386 
vn 0.409449 0.133858 0.897638 
vn 0.330709 0.173228 0.929134 
vn 0.251969 0.181102 0.952756 
vn 0.409449 0.15748 0.897638 
vn 0.488189 0.149606 0.858268 
vn 0.519685 0.141732 0.84252 
vn 0.708661 0.110236 0.692913 

vt 0.335456 1.06311 
vt 0.335456 1.16956 
vt 0.297889 1.09895 
vt 0.373024 1.09869 
vt 0.297069 1.17514 
vt 0.271922 1.15899 
vt 0.301164 1.17796 
vt 0.335456 1.2296 
vt 0.369748 1.17796 
vt 0.373843 1.17514 
vt 0.39899 1.15886 
vt 0.180689 1.34354 
vt 0.0853359 1.40454 
vt 0.0810859 1.34624 
vt 0.133051 1.43733 
vt 0.0865379 1.25225 
vt 0.0749679 1.26354 
vt 0.179619 1.43333 
vt 0.167409 1.46198 
vt 0.185243 1.42061 
vt 0.189872 1.41008 
vt 0.255204 1.34018 
vt 0.185962 1.25543 
vt 0.137172 1.20103 
vt 0.177558 1.21415 
vt 0.233145 1.23183 
vt 0.265898 1.32892 
vt 0.262759 1.24702 
vt 0.290165 1.26043 
vt 0.305479 1.29498 
vt 0.405015 1.32893 
vt 0.408153 1.24702 
vt 0.48495 1.25543 
vt 0.380748 1.26045 
vt 0.365433 1.295 
vt 0.437767 1.23188 
vt 0.493354 1.21415 
vt 0.533741 1.201 
vt 0.415708 1.34018 
vt 0.584374 1.25225 
vt 0.490224 1.34354 
vt 0.481041 1.41007 
vt 0.485669 1.42061 
vt 0.589826 1.34624 
vt 0.595944 1.26353 
vt 0.585577 1.40457 
vt 0.537861 1.43733 
vt 0.491294 1.43333 
vt 0.503503 1.46188 

usemtl Meshpart3Mtl

f 336/336/336 337/337/337 338/338/338 
f 339/339/339 337/337/337 336/336/336 
f 338/338/338 340/340/340 341/341/341 
f 340/340/340 338/338/338 337/337/337 
f 340/340/340 337/337/337 342/342/342 
f 342/342/342 337/337/337 343/343/343 
f 337/337/337 344/344/344 343/343/343 
f 337/337/337 345/345/345 344/344/344 
f 337/337/337 339/339/339 345/345/345 
f 345/345/345 339/339/339 346/346/346 
f 347/347/347 348/348/348 349/349/349 
f 348/348/348 347/347/347 350/350/350 
f 351/351/351 349/349/349 352/352/352 
f 349/349/349 351/351/351 347/347/347 
f 353/353/353 354/354/354 350/350/350 
f 350/350/350 355/355/355 353/353/353 
f 350/350/350 347/347/347 355/355/355 
f 355/355/355 347/347/347 356/356/356 
f 347/347/347 357/357/357 356/356/356 
f 347/347/347 351/351/351 358/358/358 
f 358/358/358 357/357/357 347/347/347 
f 358/358/358 351/351/351 359/359/359 
f 358/358/358 359/359/359 360/360/360 
f 360/360/360 361/361/361 358/358/358 
f 357/357/357 358/358/358 362/362/362 
f 363/363/363 358/358/358 361/361/361 
f 362/362/362 358/358/358 363/363/363 
f 364/364/364 362/362/362 363/363/363 
f 362/362/362 364/364/364 365/365/365 
f 366/366/366 367/367/367 368/368/368 
f 367/367/367 366/366/366 369/369/369 
f 369/369/369 366/366/366 370/370/370 
f 368/368/368 367/367/367 371/371/371 
f 371/371/371 372/372/372 368/368/368 
f 373/373/373 368/368/368 372/372/372 
f 366/366/366 368/368/368 374/374/374 
f 368/368/368 373/373/373 375/375/375 
f 374/374/374 368/368/368 376/376/376 
f 368/368/368 375/375/375 376/376/376 
f 377/377/377 374/374/374 376/376/376 
f 376/376/376 378/378/378 377/377/377 
f 375/375/375 379/379/379 376/376/376 
f 379/379/379 375/375/375 380/380/380 
f 381/381/381 376/376/376 379/379/379 
f 382/382/382 376/376/376 381/381/381 
f 382/382/382 378/378/378 376/376/376 
f 378/378/378 382/382/382 383/383/383 
f 382/382/382 384/384/384 383/383/383 

g Meshpart4

v 1867.11 9.4616 2768.62 
v 1867 9.34619 2768.56 
v 1867.01 9.41537 2768.66 
v 1867.08 9.38078 2768.51 
v 1867.17 9.42344 2768.61 
v 1867.14 9.34978 2768.5 
v 1867.25 9.37761 2768.44 
v 1867.3 9.4623 2768.56 
v 1867.35 9.39625 2768.54 
v 1867.3 9.32525 2768.45 
v 1867.42 9.32768 2768.53 
v 1867.37 9.27026 2768.45 
v 1867.49 9.20806 2768.52 
v 1866.97 9.2371 2768.92 
v 1867.28 8.90811 2768.84 
v 1867.19 8.90993 2768.86 
v 1867.21 8.9323 2768.9 
v 1867.29 8.93048 2768.88 
v 1867.35 8.92436 2768.85 
v 1867.33 8.902 2768.81 
v 1867.37 9.31944 2768.63 
v 1867.03 9.20683 2768.87 
v 1867.06 9.23518 2768.92 
v 1867.09 9.19265 2768.91 
v 1867.07 9.16429 2768.87 
v 1867.12 9.13403 2768.86 
v 1867.14 9.16238 2768.91 
v 1867.15 9.16512 2768.85 
v 1867.17 9.19347 2768.9 
v 1867.22 9.21561 2768.87 
v 1867.19 9.18726 2768.82 
v 1867.21 9.25851 2768.8 
v 1867.22 9.21736 2768.78 
v 1867.23 9.23972 2768.82 
v 1867.26 9.20424 2768.78 
v 1867.27 9.2266 2768.82 
v 1867.3 9.24887 2768.78 
v 1867.39 9.28495 2768.64 
v 1867.28 9.2265 2768.74 
v 1867.37 9.26258 2768.6 
v 1867.3 9.25468 2768.77 
v 1867.35 9.26452 2768.63 
v 1867.29 9.23232 2768.73 
v 1867.37 9.28689 2768.67 
v 1867.35 9.28412 2768.68 
v 1867.34 9.26281 2768.64 
v 1867.33 9.26175 2768.65 
v 1867.36 9.28517 2768.68 
v 1867.32 8.82643 2768.92 
v 1867.44 8.87847 2768.78 
v 1867.5 8.93722 2768.67 
v 1867.13 8.8717 2768.96 
v 1867.17 9.42344 2768.61 
v 1867.3 9.4623 2768.56 
v 1867.49 9.20806 2768.52 
v 1867.01 9.07997 2768.92 
v 1866.97 9.2371 2768.92 
v 1867.38 8.96747 2768.83 
v 1867.41 9.18544 2768.8 
v 1867.43 9.23486 2768.64 
v 1867.37 9.28245 2768.67 
v 1867.47 9.1533 2768.74 
v 1867.51 9.10292 2768.65 
v 1867.35 9.28412 2768.68 
v 1867.36 9.28517 2768.68 
v 1867.3 9.25468 2768.77 
v 1867.32 9.20331 2768.84 
v 1867.3 9.24887 2768.78 
v 1867.27 9.2266 2768.82 
v 1867.22 9.21262 2768.86 
v 1867.23 9.23972 2768.82 
v 1867.21 9.25851 2768.8 
v 1867.22 9.21561 2768.87 
v 1867.17 9.25309 2768.87 
v 1867.16 9.25664 2768.87 
v 1867.2 9.28266 2768.78 
v 1867.15 9.33429 2768.75 
v 1867.17 9.32478 2768.74 
v 1867.14 9.27215 2768.85 
v 1867 9.31586 2768.79 
v 1867.08 9.25656 2768.87 
v 1867.06 9.23518 2768.92 
v 1866.97 9.2371 2768.92 
v 1867.01 9.07997 2768.92 
v 1867.14 9.16238 2768.91 
v 1867.09 9.19265 2768.91 
v 1867.06 9.23518 2768.92 
v 1866.97 9.2371 2768.92 
v 1867.16 9.0519 2768.91 
v 1867.17 9.18988 2768.91 
v 1867.2 9.10449 2768.88 
v 1867.18 9.0502 2768.9 
v 1867.22 9.13209 2768.87 
v 1867.17 9.19347 2768.9 
v 1867.22 9.21561 2768.87 
v 1867.22 9.21262 2768.86 
v 1867.24 9.16088 2768.86 
v 1867.27 9.17439 2768.85 
v 1867.32 9.20331 2768.84 
v 1867.3 9.12786 2768.85 
v 1867.31 9.11513 2768.85 
v 1867.41 9.18544 2768.8 
v 1867.36 9.03097 2768.83 
v 1867.38 9.02249 2768.82 
v 1867.37 9.02396 2768.82 
v 1867.44 9.01981 2768.76 
v 1867.47 9.1533 2768.74 
v 1867.51 9.10292 2768.65 
v 1867.01 9.41537 2768.66 
v 1867 9.31586 2768.79 
v 1867.15 9.33429 2768.75 
v 1867.11 9.4616 2768.62 
v 1867.15 9.35688 2768.72 
v 1867.17 9.32478 2768.74 
v 1867.18 9.37811 2768.65 
v 1867.17 9.42344 2768.61 
v 1867.19 9.38523 2768.64 
v 1867.27 9.37282 2768.63 
v 1867.3 9.4623 2768.56 
v 1867.33 9.35947 2768.61 
v 1867.35 9.39625 2768.54 
v 1867.37 9.31944 2768.63 
v 1867.42 9.32768 2768.53 
v 1867.39 9.28495 2768.64 
v 1867.43 9.23486 2768.64 
v 1867.49 9.20806 2768.52 
v 1867.48 9.15405 2768.59 
v 1867.49 9.03947 2768.54 
v 1867.37 9.28245 2768.67 
v 1867.37 9.28689 2768.67 
v 1867.36 9.28517 2768.68 
v 1867.03 8.92261 2768.94 
v 1867.16 9.0519 2768.91 
v 1867.01 9.07997 2768.92 
v 1867.13 8.8717 2768.96 
v 1867.16 9.01221 2768.92 
v 1867.18 9.0502 2768.9 
v 1867.2 8.94525 2768.9 
v 1867.19 8.88039 2768.91 
v 1867.21 8.9323 2768.9 
v 1867.29 8.93048 2768.88 
v 1867.32 8.82643 2768.92 
v 1867.35 8.92436 2768.85 
v 1867.38 8.85321 2768.85 
v 1867.38 8.96747 2768.83 
v 1867.44 8.87847 2768.78 
v 1867.4 8.99321 2768.8 
v 1867.44 9.01981 2768.76 
v 1867.5 8.93722 2768.67 
v 1867.48 9.02439 2768.66 
v 1867.49 9.03947 2768.54 
v 1867.38 9.02249 2768.82 
v 1867.38 9.01589 2768.82 
v 1867.37 9.02396 2768.82 
v 1867.44 8.87847 2768.78 
v 1867.39 8.84016 2768.7 
v 1867.5 8.93722 2768.67 
v 1867.45 8.91608 2768.62 
v 1867.49 9.03947 2768.54 
v 1867.03 8.92261 2768.94 
v 1867.25 9.37761 2768.44 
v 1867.3 9.4623 2768.56 
v 1867.42 9.32768 2768.53 
v 1867.37 9.27026 2768.45 
v 1867.49 9.20806 2768.52 
v 1867.44 9.17539 2768.48 
v 1867.49 9.03947 2768.54 
v 1867.19 8.90993 2768.86 
v 1867.21 8.9323 2768.9 
v 1867.18 8.92288 2768.86 
v 1867.2 8.94525 2768.9 
v 1867.15 8.98984 2768.88 
v 1867.16 9.01221 2768.92 
v 1867.16 9.02783 2768.86 
v 1867.18 9.0502 2768.9 
v 1867.19 9.08212 2768.84 
v 1867.2 9.10449 2768.88 
v 1867.2 9.10973 2768.83 
v 1867.22 9.13209 2768.87 
v 1867.22 9.13852 2768.82 
v 1867.24 9.16088 2768.86 
v 1867.26 9.15202 2768.81 
v 1867.27 9.17439 2768.85 
v 1867.43 9.23486 2768.64 
v 1867.51 9.10292 2768.65 
v 1867.48 9.15405 2768.59 
v 1867.49 9.03947 2768.54 
v 1867.22 9.21561 2768.87 
v 1867.44 9.01981 2768.76 
v 1867.51 9.10292 2768.65 
v 1867.48 9.02439 2768.66 
v 1867.49 9.03947 2768.54 
v 1867.37 9.31944 2768.63 
v 1867.49 9.20806 2768.52 
v 1867.48 9.15405 2768.59 
v 1867.49 9.03947 2768.54 
v 1867.5 8.93722 2768.67 
v 1867.48 9.02439 2768.66 
v 1867.49 9.03947 2768.54 
v 1867.12 9.24379 2768.8 
v 1867.08 9.25656 2768.87 
v 1867.06 9.2282 2768.83 
v 1867.03 9.20683 2768.87 
v 1867.06 9.23518 2768.92 
v 1867.09 9.19265 2768.91 
v 1867.07 9.16429 2768.87 
v 1867.15 9.30241 2768.71 
v 1867.13 9.33451 2768.68 
v 1867.15 9.35688 2768.72 
v 1867.18 9.37811 2768.65 
v 1867.17 9.32478 2768.74 
v 1867.17 9.35574 2768.61 
v 1867.18 9.26029 2768.74 
v 1867.19 9.38523 2768.64 
v 1867.2 9.28266 2768.78 
v 1867.18 9.36286 2768.6 
v 1867.2 9.23614 2768.76 
v 1867.21 9.25851 2768.8 
v 1867.22 9.21736 2768.78 
v 1867.23 9.23972 2768.82 
v 1867.32 8.80532 2768.74 
v 1867.38 8.85321 2768.85 
v 1867.27 8.7688 2768.79 
v 1867.32 8.82643 2768.92 
v 1867.44 8.87847 2768.78 
v 1867.19 8.88039 2768.91 
v 1867.39 8.84016 2768.7 
v 1867.16 8.82985 2768.8 
v 1867.5 8.93722 2768.67 
v 1867.1 8.81599 2768.83 
v 1867.13 8.8717 2768.96 
v 1867.02 8.8744 2768.83 
v 1867.03 8.92261 2768.94 
v 1867.39 8.97085 2768.77 
v 1867.4 8.99321 2768.8 
v 1867.37 8.99353 2768.78 
v 1867.38 9.01589 2768.82 
v 1867.35 9.00159 2768.79 
v 1867.22 9.13852 2768.82 
v 1867.37 9.02396 2768.82 
v 1867.24 9.16088 2768.86 
v 1867.35 9.0086 2768.79 
v 1867.26 9.15202 2768.81 
v 1867.36 9.03097 2768.83 
v 1867.27 9.17439 2768.85 
v 1867.29 9.09276 2768.81 
v 1867.3 9.12786 2768.85 
v 1867.31 9.11513 2768.85 
v 1867.28 9.10549 2768.81 
v 1867.15 9.22473 2768.82 
v 1867.22 9.21561 2768.87 
v 1867.17 9.25309 2768.87 
v 1867.19 9.18726 2768.82 
v 1867.14 9.27215 2768.85 
v 1867.12 9.24379 2768.8 
v 1867.08 9.25656 2768.87 
v 1867.06 9.2282 2768.83 
v 1867.03 9.20683 2768.87 
v 1867.06 9.23518 2768.92 
v 1867.19 9.38523 2768.64 
v 1867.18 9.36286 2768.6 
v 1867.26 9.35046 2768.59 
v 1867.27 9.37282 2768.63 
v 1867.33 9.35947 2768.61 
v 1867.31 9.33711 2768.57 
v 1867.27 8.7688 2768.79 
v 1867.44 8.87847 2768.78 
v 1867.39 8.84016 2768.7 
v 1867.49 9.03947 2768.54 
v 1867.02 8.8744 2768.83 
v 1867.03 8.92261 2768.94 
v 1867 9.34619 2768.56 
v 1867.25 9.37761 2768.44 
v 1867.3 9.32525 2768.45 
v 1867.37 9.27026 2768.45 
v 1867 9.31586 2768.79 
v 1867.01 9.07997 2768.92 
v 1866.97 9.2371 2768.92 
v 1867.16 8.82985 2768.8 
v 1867.14 9.34978 2768.5 
v 1867.45 8.91608 2768.62 
v 1867.39 8.84016 2768.7 
v 1867.32 8.80532 2768.74 
v 1867.27 8.7688 2768.79 
v 1867.44 9.17539 2768.48 
v 1867.49 9.03947 2768.54 
v 1867.37 9.27026 2768.45 
v 1867.3 9.32525 2768.45 
v 1867.25 9.37761 2768.44 
v 1867.02 8.8744 2768.83 
v 1867.1 8.81599 2768.83 
v 1867 9.34619 2768.56 
v 1867.08 9.38078 2768.51 
v 1867.13 8.8717 2768.96 
v 1867.02 8.8744 2768.83 
v 1867.03 8.92261 2768.94 
v 1867 9.34619 2768.56 
v 1867.02 8.8744 2768.83 
v 1867 9.31586 2768.79 
v 1867 9.34619 2768.56 
v 1867.01 9.41537 2768.66 
v 1867.01 9.07997 2768.92 
v 1866.97 9.2371 2768.92 
v 1867.03 8.92261 2768.94 
v 1867.35 8.92436 2768.85 
v 1867.33 8.902 2768.81 
v 1867.36 8.9451 2768.79 
v 1867.38 8.96747 2768.83 
v 1867.39 8.97085 2768.77 
v 1867.4 8.99321 2768.8 
v 1867.37 9.02396 2768.82 
v 1867.26 9.15202 2768.81 
v 1867.27 9.17439 2768.85 
v 1867.3 9.12786 2768.85 
v 1867.28 9.10549 2768.81 
v 1867.22 9.21561 2768.87 
v 1867.15 9.22473 2768.82 
v 1867.17 9.25309 2768.87 
v 1867.16 9.25664 2768.87 
v 1867.14 9.22828 2768.82 
v 1867.14 9.27215 2768.85 
v 1867.12 9.24379 2768.8 
v 1867.12 9.13403 2768.86 
v 1867.14 9.16238 2768.91 
v 1867.15 9.16153 2768.86 
v 1867.17 9.18988 2768.91 
v 1867.15 9.16512 2768.85 
v 1867.17 9.19347 2768.9 
v 1867.33 9.35947 2768.61 
v 1867.31 9.33711 2768.57 
v 1867.26 9.20424 2768.78 
v 1867.35 9.29708 2768.59 
v 1867.27 9.2266 2768.82 
v 1867.37 9.31944 2768.63 
v 1867.3 9.24887 2768.78 
v 1867.39 9.28495 2768.64 
v 1867.28 9.2265 2768.74 
v 1867.37 9.26258 2768.6 

vn -0.173228 0.811024 -0.566929 
vn -0.551181 0.732283 -0.409449 
vn -0.551181 0.732283 -0.409449 
vn -0.11811 0.811024 -0.574803 
vn -0.0551181 0.818898 -0.566929 
vn -0.0866142 0.826772 -0.559055 
vn 0.0708661 0.771654 -0.629921 
vn 0.0314961 0.779528 -0.622047 
vn 0.488189 0.551181 -0.677165 
vn 0.480315 0.559055 -0.677165 
vn 0.511811 0.464567 -0.724409 
vn 0.527559 0.448819 -0.724409 
vn 0.653543 0.15748 -0.740157 
vn -1 -0.0472441 -0.00787402 
vn -0.102362 0.874016 -0.464567 
vn 0.291339 0.76378 -0.566929 
vn 0.314961 0.755906 -0.574803 
vn -0.102362 0.874016 -0.464567 
vn -0.511811 0.818898 -0.267717 
vn -0.472441 0.834646 -0.291339 
vn 0.653543 0.574803 0.488189 
vn 0.937008 -0.149606 -0.307087 
vn 0.937008 -0.11811 -0.322835 
vn 0.519685 0.622047 -0.582677 
vn 0.503937 0.637795 -0.582677 
vn -0.141732 0.88189 -0.456693 
vn -0.393701 0.858268 -0.338583 
vn -0.685039 0.716535 -0.133858 
vn -0.677165 0.724409 -0.141732 
vn -0.551181 0.80315 -0.23622 
vn -0.551181 0.80315 -0.23622 
vn 0.811024 0.291339 -0.511811 
vn 0.661417 0.496063 -0.566929 
vn 0.543307 0.606299 -0.582677 
vn -0.259843 0.874016 -0.401575 
vn -0.251969 0.88189 -0.409449 
vn -0.724409 0.685039 -0.0944882 
vn -0.874016 0.480315 0.0866142 
vn -0.708661 0.692913 -0.110236 
vn -0.937008 0.165354 0.299213 
vn -0.685039 0.716535 -0.133858 
vn -0.417323 0.850394 -0.322835 
vn -0.685039 0.716535 -0.133858 
vn -0.417323 0.850394 -0.322835 
vn -0.590551 0.779528 -0.212598 
vn -0.417323 0.850394 -0.322835 
vn -0.527559 0.811024 -0.251969 
vn -0.417323 0.850394 -0.322835 
vn 0.110236 -0.929134 0.346457 
vn 0.566929 -0.826772 0.00787402 
vn 0.692913 -0.669291 -0.267717 
vn -0.0944882 -0.905512 0.409449 
vn -0.0551181 0.818898 -0.566929 
vn 0.0314961 0.779528 -0.622047 
vn 0.653543 0.15748 -0.740157 
vn -1 -0.0472441 -0.00787402 
vn -1 -0.0472441 -0.00787402 
vn -0.787402 0.614173 -0.0314961 
vn 0.527559 0.748031 0.401575 
vn 0.755906 0.622047 0.181102 
vn 0.519685 0.755906 0.401575 
vn 0.76378 0.622047 0.173228 
vn 0.889764 0.440945 -0.133858 
vn 0.370079 0.795276 0.488189 
vn 0.370079 0.795276 0.488189 
vn 0.330709 0.80315 0.503937 
vn 0.291339 0.80315 0.511811 
vn 0.212598 0.811024 0.543307 
vn 0.212598 0.811024 0.543307 
vn 0.401575 0.779528 0.488189 
vn 0.212598 0.811024 0.543307 
vn 0.503937 0.740157 0.448819 
vn 0.551181 0.716535 0.425197 
vn 0.551181 0.716535 0.425197 
vn 0.456693 0.76378 0.456693 
vn 0.551181 0.716535 0.425197 
vn 0.330709 0.80315 0.496063 
vn 0.551181 0.716535 0.425197 
vn 0.0472441 0.84252 0.535433 
vn 0.0472441 0.84252 0.535433 
vn 0.0472441 0.84252 0.535433 
vn 0.0472441 0.84252 0.535433 
vn 0.0472441 0.84252 0.535433 
vn 0.0787402 0.023622 1 
vn 0.0787402 0.023622 1 
vn 0.0787402 0.023622 1 
vn 0.0787402 0.023622 1 
vn 0.0787402 0.023622 1 
vn 0.362205 0.023622 0.929134 
vn 0.488189 0.023622 0.874016 
vn 0.582677 0.0314961 0.811024 
vn 0.582677 0.0314961 0.811024 
vn 0.535433 0.0314961 0.84252 
vn 0.582677 0.0314961 0.811024 
vn 0.582677 0.0314961 0.811024 
vn 0.433071 0.0393701 0.897638 
vn 0.244094 0.0551181 0.968504 
vn 0.244094 0.0551181 0.968504 
vn 0.322835 0.0472441 0.944882 
vn 0.244094 0.0551181 0.968504 
vn 0.362205 0.0393701 0.929134 
vn 0.559055 -0.00787402 0.826772 
vn 0.401575 0.0314961 0.913386 
vn 0.551181 -0.00787402 0.834646 
vn 0.401575 0.0314961 0.913386 
vn 0.787402 -0.11811 0.598425 
vn 0.795276 -0.11811 0.598425 
vn 0.92126 -0.275591 0.275591 
vn 0 0.748031 0.661417 
vn 0 0.748031 0.661417 
vn 0.307087 0.748031 0.590551 
vn 0.283465 0.748031 0.598425 
vn 0.559055 0.677165 0.480315 
vn 0.559055 0.677165 0.480315 
vn 0.472441 0.685039 0.559055 
vn 0.377953 0.677165 0.629921 
vn 0.15748 0.637795 0.755906 
vn 0.314961 0.606299 0.724409 
vn 0.362205 0.598425 0.716535 
vn 0.511811 0.551181 0.661417 
vn 0.582677 0.566929 0.582677 
vn 0.653543 0.574803 0.488189 
vn 0.755906 0.511811 0.409449 
vn 0.692913 0.574803 0.440945 
vn 0.795276 0.472441 0.385827 
vn 0.913386 0.283465 0.291339 
vn 0.944882 0.19685 0.251969 
vn 0.984252 0.0393701 0.181102 
vn 0.559055 0.653543 0.519685 
vn 0.598425 0.629921 0.496063 
vn 0.393701 0.716535 0.582677 
vn 0.023622 0.181102 0.984252 
vn 0.330709 0.149606 0.929134 
vn 0.023622 0.181102 0.984252 
vn 0.307087 0.149606 0.937008 
vn 0.582677 0.102362 0.80315 
vn 0.582677 0.102362 0.80315 
vn 0.488189 0.165354 0.858268 
vn 0.393701 0.220472 0.889764 
vn 0.173228 0.330709 0.929134 
vn 0.330709 0.330709 0.88189 
vn 0.377953 0.330709 0.866142 
vn 0.519685 0.314961 0.795276 
vn 0.598425 0.251969 0.76378 
vn 0.677165 0.165354 0.716535 
vn 0.771654 0.133858 0.614173 
vn 0.708661 0.125984 0.692913 
vn 0.811024 0.141732 0.574803 
vn 0.92126 0.165354 0.362205 
vn 0.944882 0.181102 0.267717 
vn 0.976378 0.19685 0.0944882 
vn 0.574803 0.141732 0.80315 
vn 0.622047 0.141732 0.771654 
vn 0.417323 0.15748 0.897638 
vn 0.566929 -0.826772 0.00787402 
vn 0.574803 -0.818898 -0.00787402 
vn 0.692913 -0.669291 -0.267717 
vn 0.692913 -0.653543 -0.291339 
vn 0.716535 -0.535433 -0.448819 
vn -0.488189 -0.755906 0.433071 
vn 0.0708661 0.771654 -0.629921 
vn 0.0314961 0.779528 -0.622047 
vn 0.511811 0.464567 -0.724409 
vn 0.527559 0.448819 -0.724409 
vn 0.653543 0.15748 -0.740157 
vn 0.661417 0.125984 -0.740157 
vn 0.700787 -0.0629921 -0.708661 
vn 0.291339 0.76378 -0.566929 
vn 0.314961 0.755906 -0.574803 
vn 0.653543 0.503937 -0.566929 
vn 0.653543 0.503937 -0.566929 
vn 0.874016 0.15748 -0.456693 
vn 0.937008 -0.0787402 -0.346457 
vn 0.897638 -0.417323 -0.133858 
vn 0.897638 -0.417323 -0.133858 
vn 0.88189 -0.464567 -0.0944882 
vn 0.866142 -0.488189 -0.0787402 
vn 0.84252 -0.535433 -0.0393701 
vn 0.84252 -0.535433 -0.0393701 
vn 0.708661 -0.692913 0.110236 
vn 0.606299 -0.771654 0.19685 
vn -0.188976 -0.811024 0.551181 
vn -0.173228 -0.818898 0.551181 
vn 0.755906 0.622047 0.181102 
vn 0.889764 0.440945 -0.133858 
vn 0.889764 0.440945 -0.11811 
vn 0.897638 0.267717 -0.346457 
vn 0.551181 0.716535 0.425197 
vn 0.787402 -0.11811 0.598425 
vn 0.92126 -0.275591 0.275591 
vn 0.92126 -0.275591 0.283465 
vn 0.92126 -0.377953 0.015748 
vn 0.653543 0.574803 0.488189 
vn 0.913386 0.283465 0.291339 
vn 0.944882 0.19685 0.251969 
vn 0.984252 0.0393701 0.181102 
vn 0.92126 0.165354 0.362205 
vn 0.944882 0.181102 0.267717 
vn 0.976378 0.19685 0.0944882 
vn -0.0551181 -0.850394 0.519685 
vn 0.582677 -0.787402 0.212598 
vn 0.559055 -0.795276 0.228346 
vn 0.937008 -0.149606 -0.307087 
vn 0.937008 -0.11811 -0.322835 
vn 0.519685 0.622047 -0.582677 
vn 0.503937 0.637795 -0.582677 
vn 0.874016 0.15748 -0.456693 
vn 0.897638 -0.417323 -0.133858 
vn 0.937008 -0.19685 -0.275591 
vn 0.700787 -0.700787 0.110236 
vn 0.874016 0.15748 -0.456693 
vn 0.700787 -0.700787 0.110236 
vn 0.850394 0.212598 -0.480315 
vn 0.377953 -0.858268 0.338583 
vn 0.84252 0.23622 -0.488189 
vn 0.362205 -0.866142 0.354331 
vn 0.811024 0.291339 -0.511811 
vn 0.811024 0.291339 -0.511811 
vn 0.661417 0.496063 -0.566929 
vn 0.543307 0.606299 -0.582677 
vn 0.543307 -0.834646 0.110236 
vn 0.543307 -0.826772 0.110236 
vn 0.141732 -0.929134 0.338583 
vn 0.110236 -0.929134 0.346457 
vn 0.566929 -0.826772 0.00787402 
vn 0.015748 -0.913386 0.409449 
vn 0.574803 -0.818898 -0.00787402 
vn -0.015748 -0.905512 0.425197 
vn 0.692913 -0.669291 -0.267717 
vn -0.0393701 -0.913386 0.401575 
vn -0.0944882 -0.905512 0.409449 
vn -0.488189 -0.755906 0.433071 
vn -0.488189 -0.755906 0.433071 
vn -0.937008 0.110236 0.330709 
vn -0.84252 -0.23622 0.488189 
vn -0.354331 -0.732283 0.574803 
vn -0.354331 -0.732283 0.574803 
vn -0.354331 -0.732283 0.574803 
vn 0.708661 -0.692913 0.110236 
vn -0.354331 -0.732283 0.574803 
vn 0.606299 -0.771654 0.19685 
vn -0.464567 -0.661417 0.582677 
vn -0.188976 -0.811024 0.551181 
vn -0.527559 -0.614173 0.582677 
vn -0.173228 -0.818898 0.551181 
vn -0.629921 -0.527559 0.574803 
vn -0.669291 -0.480315 0.559055 
vn -0.629921 -0.527559 0.574803 
vn -0.661417 -0.496063 0.566929 
vn -0.629921 -0.519685 0.574803 
vn -0.488189 -0.645669 0.582677 
vn -0.622047 -0.535433 0.574803 
vn -0.488189 -0.645669 0.582677 
vn -0.338583 -0.748031 0.574803 
vn -0.0551181 -0.850394 0.519685 
vn 0.582677 -0.787402 0.212598 
vn 0.559055 -0.795276 0.228346 
vn 0.937008 -0.149606 -0.307087 
vn 0.937008 -0.11811 -0.322835 
vn 0.377953 -0.858268 0.338583 
vn 0.362205 -0.866142 0.354331 
vn -0.0314961 -0.858268 0.511811 
vn -0.0314961 -0.858268 0.511811 
vn -0.448819 -0.677165 0.582677 
vn -0.409449 -0.700787 0.582677 
vn 0.141732 -0.929134 0.338583 
vn 0.566929 -0.826772 0.00787402 
vn 0.574803 -0.818898 -0.00787402 
vn 0.716535 -0.535433 -0.448819 
vn -0.488189 -0.755906 0.433071 
vn -0.488189 -0.755906 0.433071 
vn -0.551181 0.732283 -0.409449 
vn 0.0708661 0.771654 -0.629921 
vn 0.480315 0.559055 -0.677165 
vn 0.527559 0.448819 -0.724409 
vn -1 -0.0472441 -0.00787402 
vn -1 -0.0472441 -0.00787402 
vn -1 -0.0472441 -0.00787402 
vn -0.338583 -0.472441 -0.811024 
vn -0.338583 -0.472441 -0.811024 
vn -0.338583 -0.472441 -0.811024 
vn -0.338583 -0.472441 -0.811024 
vn -0.338583 -0.472441 -0.811024 
vn -0.338583 -0.472441 -0.811024 
vn -0.338583 -0.472441 -0.811024 
vn -0.338583 -0.472441 -0.811024 
vn -0.338583 -0.472441 -0.811024 
vn -0.338583 -0.472441 -0.811024 
vn -0.338583 -0.472441 -0.811024 
vn -0.338583 -0.472441 -0.811024 
vn -0.338583 -0.472441 -0.811024 
vn -0.338583 -0.472441 -0.811024 
vn -0.338583 -0.472441 -0.811024 
vn -0.0944882 -0.905512 0.409449 
vn -0.488189 -0.755906 0.433071 
vn -0.488189 -0.755906 0.433071 
vn -0.551181 0.732283 -0.409449 
vn -1 -0.0472441 -0.00787402 
vn -1 -0.0472441 -0.00787402 
vn -1 -0.0472441 -0.00787402 
vn -1 -0.0472441 -0.00787402 
vn -1 -0.0472441 -0.00787402 
vn -1 -0.0472441 -0.00787402 
vn -1 -0.0472441 -0.00787402 
vn -0.511811 0.818898 -0.267717 
vn -0.472441 0.834646 -0.291339 
vn -0.787402 0.614173 -0.0314961 
vn -0.787402 0.614173 -0.0314961 
vn -0.937008 0.110236 0.330709 
vn -0.84252 -0.23622 0.488189 
vn -0.354331 -0.732283 0.574803 
vn -0.188976 -0.811024 0.551181 
vn -0.173228 -0.818898 0.551181 
vn -0.669291 -0.480315 0.559055 
vn -0.661417 -0.496063 0.566929 
vn 0.551181 0.716535 0.425197 
vn -0.629921 -0.519685 0.574803 
vn -0.622047 -0.535433 0.574803 
vn -0.748031 -0.393701 0.543307 
vn -0.748031 -0.393701 0.543307 
vn -0.338583 -0.748031 0.574803 
vn -0.0551181 -0.850394 0.519685 
vn -0.141732 0.88189 -0.456693 
vn -0.393701 0.858268 -0.338583 
vn -0.787402 0.614173 -0.0314961 
vn -0.787402 0.614173 -0.0314961 
vn -0.685039 0.716535 -0.133858 
vn -0.677165 0.724409 -0.141732 
vn -0.448819 -0.677165 0.582677 
vn -0.409449 -0.700787 0.582677 
vn -0.259843 0.874016 -0.401575 
vn -0.740157 -0.393701 0.543307 
vn -0.251969 0.88189 -0.409449 
vn -0.740157 -0.393701 0.543307 
vn -0.724409 0.685039 -0.0944882 
vn -0.874016 0.480315 0.0866142 
vn -0.708661 0.692913 -0.110236 
vn -0.937008 0.165354 0.299213 

vt 6.12858 -44.9978 
vt 6.18579 -45.1423 
vt 6.22201 -45.0289 
vt 6.09968 -45.1348 
vt 6.05893 -45.0028 
vt 6.0377 -45.1294 
vt 5.91759 -45.1189 
vt 5.93119 -44.9696 
vt 5.86238 -44.9856 
vt 5.86035 -45.1139 
vt 5.77973 -45.0005 
vt 5.7875 -45.1075 
vt 5.70015 -45.0358 
vt 6.32629 -44.9215 
vt 5.95881 -45.0131 
vt 6.04152 -45.0296 
vt 6.04563 -44.9827 
vt 5.96292 -44.9661 
vt 5.90458 -44.9648 
vt 5.90047 -45.0117 
vt 5.87182 -44.9486 
vt 6.24193 -44.9545 
vt 6.24714 -44.895 
vt 6.21156 -44.9026 
vt 6.20635 -44.9621 
vt 6.14618 -44.9555 
vt 6.15139 -44.8959 
vt 6.12709 -44.9358 
vt 6.1323 -44.8762 
vt 6.08065 -44.8729 
vt 6.07544 -44.9324 
vt 6.06213 -44.9098 
vt 6.04461 -44.9406 
vt 6.04872 -44.8936 
vt 6.01006 -44.9268 
vt 6.01417 -44.8798 
vt 5.98023 -44.893 
vt 5.84718 -44.949 
vt 5.97612 -44.94 
vt 5.84307 -44.996 
vt 5.96898 -44.8962 
vt 5.87172 -44.9799 
vt 5.96487 -44.9432 
vt 5.87582 -44.9329 
vt 5.89908 -44.9286 
vt 5.88443 -44.9779 
vt 5.89497 -44.9755 
vt 5.88854 -44.9309 
vt 6.36566 -44.9312 
vt 6.25832 -44.7797 
vt 6.15575 -44.7001 
vt 6.33922 -45.1286 
vt 5.68772 -45.0589 
vt 5.63434 -44.9312 
vt 5.84425 -44.7001 
vt 6.13565 -45.2619 
vt 6 -45.3263 
vt 6.2024 -44.8718 
vt 6 -44.8735 
vt 5.87634 -44.8008 
vt 5.85051 -44.8764 
vt 6 -44.789 
vt 6 -44.7057 
vt 5.85442 -44.8991 
vt 5.84979 -44.8885 
vt 5.91975 -44.969 
vt 6 -44.9726 
vt 5.93044 -44.9802 
vt 5.97002 -45.0142 
vt 6 -45.0701 
vt 5.95471 -45.0487 
vt 5.9273 -45.0621 
vt 6 -45.0807 
vt 5.96571 -45.1323 
vt 5.96161 -45.1351 
vt 5.89769 -45.0773 
vt 5.83761 -45.1171 
vt 5.8421 -45.095 
vt 5.93647 -45.1513 
vt 5.86435 -45.2619 
vt 5.96243 -45.2113 
vt 6 -45.2471 
vt 6 -45.3263 
vt 6.13565 -45.2619 
vt 6.06353 -45.1514 
vt 6.03757 -45.2116 
vt 6 -45.2471 
vt 6 -45.3263 
vt 6.16239 -45.1171 
vt 6.03839 -45.1351 
vt 6.10231 -45.0773 
vt 6.1579 -45.095 
vt 6.0727 -45.0621 
vt 6.03429 -45.1323 
vt 6 -45.0807 
vt 6 -45.0701 
vt 6.04529 -45.0487 
vt 6.02998 -45.0142 
vt 6 -44.9726 
vt 6.06956 -44.9802 
vt 6.08025 -44.969 
vt 6 -44.8735 
vt 6.14559 -44.8991 
vt 6.14949 -44.8764 
vt 6.15021 -44.8885 
vt 6.12366 -44.8008 
vt 6 -44.789 
vt 6 -44.7057 
vt 5.71664 -45.222 
vt 5.86435 -45.2619 
vt 5.83761 -45.1171 
vt 5.66078 -45.1286 
vt 5.80172 -45.1081 
vt 5.8421 -45.095 
vt 5.75108 -45.0569 
vt 5.68772 -45.0589 
vt 5.73951 -45.0456 
vt 5.74563 -44.9629 
vt 5.63434 -44.9312 
vt 5.74988 -44.9046 
vt 5.68772 -44.8624 
vt 5.7976 -44.8718 
vt 5.74168 -44.7797 
vt 5.83195 -44.8472 
vt 5.87634 -44.8008 
vt 5.84425 -44.7001 
vt 5.92544 -44.727 
vt 6 -44.6737 
vt 5.85051 -44.8764 
vt 5.84416 -44.8758 
vt 5.84979 -44.8885 
vt 6.28336 -45.222 
vt 6.16239 -45.1171 
vt 6.13565 -45.2619 
vt 6.33922 -45.1286 
vt 6.19829 -45.1082 
vt 6.1579 -45.095 
vt 6.24892 -45.0569 
vt 6.31228 -45.0589 
vt 6.26049 -45.0456 
vt 6.25437 -44.9629 
vt 6.36566 -44.9312 
vt 6.25012 -44.9046 
vt 6.31228 -44.8624 
vt 6.2024 -44.8718 
vt 6.25832 -44.7797 
vt 6.16805 -44.8473 
vt 6.12366 -44.8008 
vt 6.15575 -44.7001 
vt 6.07456 -44.727 
vt 6 -44.6737 
vt 6.14949 -44.8764 
vt 6.15584 -44.8758 
vt 6.15021 -44.8885 
vt 5.74168 -45.0005 
vt 5.75267 -45.1075 
vt 5.84425 -45.0358 
vt 5.85088 -45.1015 
vt 6 -45.0975 
vt 5.71664 -45.0289 
vt 6.3501 -45.1189 
vt 6.36566 -44.9696 
vt 6.25832 -45.0005 
vt 6.24733 -45.1075 
vt 6.15575 -45.0358 
vt 6.14912 -45.1015 
vt 6 -45.0975 
vt 5.73951 -45.0296 
vt 5.73951 -44.9827 
vt 5.75108 -45.0277 
vt 5.75108 -44.9808 
vt 5.80171 -44.9978 
vt 5.80171 -44.9508 
vt 5.8421 -44.9865 
vt 5.8421 -44.9395 
vt 5.89769 -44.9667 
vt 5.89769 -44.9197 
vt 5.9273 -44.9568 
vt 5.9273 -44.9098 
vt 5.95471 -44.9408 
vt 5.95471 -44.8938 
vt 5.97002 -44.927 
vt 5.97002 -44.88 
vt 6.12366 -44.956 
vt 6 -44.9722 
vt 6.07456 -45.0102 
vt 6 -45.0975 
vt 6 -44.8729 
vt 5.87634 -44.956 
vt 6 -44.9722 
vt 5.92544 -45.0102 
vt 6 -45.0975 
vt 6.2024 -44.9486 
vt 6.15575 -45.0358 
vt 6.07456 -45.0102 
vt 6 -45.0975 
vt 5.84425 -45.0358 
vt 5.92544 -45.0102 
vt 6 -45.0975 
vt 6.06353 -44.957 
vt 6.03757 -44.9056 
vt 6.03757 -44.9651 
vt 6 -44.9545 
vt 6 -44.895 
vt 5.96243 -44.9026 
vt 5.96243 -44.9621 
vt 6.1579 -44.9865 
vt 6.19828 -44.9981 
vt 6.19828 -44.9511 
vt 6.24892 -44.9808 
vt 6.1579 -44.9395 
vt 6.24892 -45.0277 
vt 6.10231 -44.9661 
vt 6.26049 -44.9828 
vt 6.10231 -44.9192 
vt 6.26049 -45.0298 
vt 6.0727 -44.9568 
vt 6.0727 -44.9098 
vt 6.04529 -44.9406 
vt 6.04529 -44.8936 
vt 6.13965 -45.1139 
vt 6.13762 -44.9856 
vt 6.08241 -45.1189 
vt 6.06881 -44.9696 
vt 6.22027 -45.0005 
vt 5.94107 -45.0028 
vt 6.2125 -45.1075 
vt 5.9623 -45.1294 
vt 6.29985 -45.0358 
vt 5.90032 -45.1348 
vt 5.87142 -44.9978 
vt 5.81421 -45.1423 
vt 5.77799 -45.0289 
vt 6.15684 -44.995 
vt 6.15273 -44.948 
vt 6.12828 -44.9799 
vt 6.12418 -44.9329 
vt 6.11557 -44.9779 
vt 5.9554 -44.9408 
vt 6.11146 -44.9309 
vt 5.95129 -44.8938 
vt 6.10503 -44.9755 
vt 5.98996 -44.927 
vt 6.10092 -44.9285 
vt 5.98585 -44.88 
vt 6.03513 -44.9432 
vt 6.01978 -44.8932 
vt 6.03102 -44.8962 
vt 6.02388 -44.9401 
vt 5.87292 -44.9358 
vt 5.91935 -44.8729 
vt 5.86771 -44.8763 
vt 5.92456 -44.9324 
vt 5.84874 -44.8974 
vt 5.85395 -44.957 
vt 5.7887 -44.9056 
vt 5.79391 -44.9651 
vt 5.75807 -44.9545 
vt 5.75286 -44.895 
vt 5.95438 -44.9828 
vt 5.95849 -45.0298 
vt 6.04119 -45.0131 
vt 6.03708 -44.9661 
vt 6.09539 -44.9645 
vt 6.0995 -45.0114 
vt 5.6499 -44.9176 
vt 5.74168 -44.7797 
vt 5.75267 -44.7875 
vt 6 -44.6737 
vt 5.7287 -45.1858 
vt 5.71664 -45.222 
vt 6.2713 -45.1858 
vt 6.3501 -44.9176 
vt 6.29899 -44.8604 
vt 6.24733 -44.7875 
vt 6.13565 -45.2619 
vt 5.86435 -45.2619 
vt 6 -45.3263 
vt 5.70101 -45.0377 
vt 6.29899 -45.0377 
vt 5.85088 -44.719 
vt 5.75267 -44.7875 
vt 5.70101 -44.8604 
vt 5.6499 -44.9176 
vt 6.14912 -44.719 
vt 6 -44.6737 
vt 6.24733 -44.7875 
vt 6.29899 -44.8604 
vt 6.3501 -44.9176 
vt 5.7287 -45.1858 
vt 5.67521 -45.0997 
vt 6.2713 -45.1858 
vt 6.32479 -45.0997 
vt 6.33922 -44.9978 
vt 6.2713 -45.1423 
vt 6.28336 -45.0289 
vt 5.7287 -45.1423 
vt 6.2713 -45.1423 
vt 5.86435 -44.9816 
vt 5.7287 -45.1423 
vt 5.71664 -45.0289 
vt 6.13565 -44.9816 
vt 6 -44.9215 
vt 6.28336 -45.0289 
vt 6.25012 -44.9648 
vt 6.25012 -45.0117 
vt 6.2024 -44.9955 
vt 6.2024 -44.9486 
vt 6.16805 -44.995 
vt 6.16805 -44.948 
vt 6.15021 -44.9309 
vt 6.02998 -44.927 
vt 6.02998 -44.88 
vt 6.06956 -44.8932 
vt 6.06956 -44.9401 
vt 6 -44.8729 
vt 5.96571 -44.9358 
vt 5.96571 -44.8763 
vt 5.96161 -44.8774 
vt 5.96161 -44.9369 
vt 5.93647 -44.8974 
vt 5.93647 -44.957 
vt 6.06353 -44.9555 
vt 6.06353 -44.8959 
vt 6.03839 -44.9369 
vt 6.03839 -44.8774 
vt 6.03429 -44.9358 
vt 6.03429 -44.8762 
vt 5.74988 -44.9645 
vt 5.74988 -45.0114 
vt 5.97002 -44.9268 
vt 5.7976 -44.9955 
vt 5.97002 -44.8798 
vt 5.7976 -44.9486 
vt 5.93044 -44.893 
vt 5.83195 -44.949 
vt 5.93044 -44.94 
vt 5.83195 -44.996 

usemtl Meshpart4Mtl

f 385/385/385 386/386/386 387/387/387 
f 386/386/386 385/385/385 388/388/388 
f 388/388/388 385/385/385 389/389/389 
f 388/388/388 389/389/389 390/390/390 
f 390/390/390 389/389/389 391/391/391 
f 389/389/389 392/392/392 391/391/391 
f 393/393/393 391/391/391 392/392/392 
f 391/391/391 393/393/393 394/394/394 
f 393/393/393 395/395/395 394/394/394 
f 394/394/394 395/395/395 396/396/396 
f 399/399/399 400/400/400 401/401/401 
f 401/401/401 402/402/402 399/399/399 
f 403/403/403 399/399/399 402/402/402 
f 399/399/399 403/403/403 404/404/404 
f 409/409/409 408/408/408 410/410/410 
f 408/408/408 411/411/411 410/410/410 
f 414/414/414 412/412/412 413/413/413 
f 412/412/412 414/414/414 415/415/415 
f 417/417/417 418/418/418 419/419/419 
f 418/418/418 420/420/420 419/419/419 
f 425/425/425 423/423/423 421/421/421 
f 426/426/426 422/422/422 424/424/424 
f 423/423/423 425/425/425 427/427/427 
f 422/422/422 426/426/426 428/428/428 
f 429/429/429 427/427/427 425/425/425 
f 430/430/430 428/428/428 426/426/426 
f 427/427/427 429/429/429 431/431/431 
f 428/428/428 430/430/430 432/432/432 
f 432/432/432 431/431/431 429/429/429 
f 431/431/431 432/432/432 430/430/430 
f 443/443/443 444/444/444 445/445/445 
f 444/444/444 443/443/443 446/446/446 
f 447/447/447 444/444/444 446/446/446 
f 445/445/445 448/448/448 443/443/443 
f 448/448/448 445/445/445 449/449/449 
f 443/443/443 448/448/448 450/450/450 
f 451/451/451 443/443/443 450/450/450 
f 451/451/451 450/450/450 452/452/452 
f 451/451/451 452/452/452 453/453/453 
f 453/453/453 454/454/454 451/451/451 
f 454/454/454 453/453/453 455/455/455 
f 456/456/456 454/454/454 455/455/455 
f 456/456/456 457/457/457 454/454/454 
f 457/457/457 456/456/456 458/458/458 
f 458/458/458 456/456/456 459/459/459 
f 459/459/459 456/456/456 460/460/460 
f 460/460/460 461/461/461 459/459/459 
f 461/461/461 460/460/460 462/462/462 
f 459/459/459 461/461/461 463/463/463 
f 464/464/464 463/463/463 461/461/461 
f 463/463/463 464/464/464 465/465/465 
f 465/465/465 464/464/464 466/466/466 
f 464/464/464 467/467/467 466/466/466 
f 468/468/468 469/469/469 470/470/470 
f 471/471/471 468/468/468 470/470/470 
f 468/468/468 471/471/471 472/472/472 
f 469/469/469 468/468/468 473/473/473 
f 473/473/473 474/474/474 469/469/469 
f 473/473/473 475/475/475 474/474/474 
f 475/475/475 473/473/473 476/476/476 
f 477/477/477 474/474/474 475/475/475 
f 474/474/474 477/477/477 478/478/478 
f 477/477/477 479/479/479 478/478/478 
f 479/479/479 477/477/477 480/480/480 
f 480/480/480 477/477/477 481/481/481 
f 482/482/482 480/480/480 481/481/481 
f 480/480/480 482/482/482 483/483/483 
f 483/483/483 482/482/482 484/484/484 
f 483/483/483 484/484/484 485/485/485 
f 485/485/485 486/486/486 483/483/483 
f 487/487/487 486/486/486 485/485/485 
f 486/486/486 487/487/487 488/488/488 
f 488/488/488 487/487/487 489/489/489 
f 488/488/488 490/490/490 486/486/486 
f 486/486/486 490/490/490 491/491/491 
f 490/490/490 492/492/492 491/491/491 
f 493/493/493 494/494/494 495/495/495 
f 495/495/495 496/496/496 493/493/493 
f 496/496/496 495/495/495 497/497/497 
f 498/498/498 497/497/497 495/495/495 
f 499/499/499 496/496/496 497/497/497 
f 496/496/496 499/499/499 500/500/500 
f 500/500/500 499/499/499 501/501/501 
f 502/502/502 500/500/500 501/501/501 
f 500/500/500 502/502/502 503/503/503 
f 504/504/504 503/503/503 502/502/502 
f 503/503/503 504/504/504 505/505/505 
f 504/504/504 506/506/506 505/505/505 
f 506/506/506 507/507/507 505/505/505 
f 507/507/507 506/506/506 508/508/508 
f 507/507/507 508/508/508 509/509/509 
f 509/509/509 510/510/510 507/507/507 
f 510/510/510 509/509/509 511/511/511 
f 508/508/508 513/513/513 509/509/509 
f 513/513/513 508/508/508 514/514/514 
f 514/514/514 515/515/515 513/513/513 
f 516/516/516 517/517/517 518/518/518 
f 517/517/517 516/516/516 519/519/519 
f 517/517/517 519/519/519 520/520/520 
f 517/517/517 520/520/520 521/521/521 
f 520/520/520 519/519/519 522/522/522 
f 519/519/519 523/523/523 522/522/522 
f 522/522/522 523/523/523 524/524/524 
f 524/524/524 523/523/523 525/525/525 
f 523/523/523 526/526/526 525/525/525 
f 525/525/525 526/526/526 527/527/527 
f 528/528/528 527/527/527 526/526/526 
f 527/527/527 528/528/528 529/529/529 
f 529/529/529 528/528/528 530/530/530 
f 531/531/531 529/529/529 530/530/530 
f 531/531/531 530/530/530 532/532/532 
f 533/533/533 532/532/532 530/530/530 
f 532/532/532 533/533/533 534/534/534 
f 532/532/532 536/536/536 531/531/531 
f 537/537/537 531/531/531 536/536/536 
f 538/538/538 537/537/537 536/536/536 
f 540/540/540 541/541/541 539/539/539 
f 541/541/541 540/540/540 542/542/542 
f 541/541/541 542/542/542 543/543/543 
f 548/548/548 547/547/547 549/549/549 
f 550/550/550 548/548/548 549/549/549 
f 550/550/550 549/549/549 551/551/551 
f 554/554/554 553/553/553 552/552/552 
f 553/553/553 554/554/554 555/555/555 
f 556/556/556 555/555/555 554/554/554 
f 555/555/555 556/556/556 557/557/557 
f 558/558/558 557/557/557 556/556/556 
f 557/557/557 558/558/558 559/559/559 
f 560/560/560 559/559/559 558/558/558 
f 559/559/559 560/560/560 561/561/561 
f 562/562/562 561/561/561 560/560/560 
f 561/561/561 562/562/562 563/563/563 
f 564/564/564 563/563/563 562/562/562 
f 563/563/563 564/564/564 565/565/565 
f 568/568/568 569/569/569 570/570/570 
f 570/570/570 569/569/569 571/571/571 
f 574/574/574 573/573/573 575/575/575 
f 574/574/574 575/575/575 576/576/576 
f 578/578/578 579/579/579 580/580/580 
f 582/582/582 581/581/581 583/583/583 
f 587/587/587 586/586/586 585/585/585 
f 587/587/587 585/585/585 588/588/588 
f 589/589/589 587/587/587 588/588/588 
f 587/587/587 589/589/589 590/590/590 
f 591/591/591 592/592/592 593/593/593 
f 592/592/592 594/594/594 593/593/593 
f 591/591/591 593/593/593 595/595/595 
f 592/592/592 596/596/596 594/594/594 
f 597/597/597 591/591/591 595/595/595 
f 596/596/596 598/598/598 594/594/594 
f 597/597/597 595/595/595 599/599/599 
f 600/600/600 598/598/598 596/596/596 
f 601/601/601 597/597/597 599/599/599 
f 601/601/601 599/599/599 602/602/602 
f 603/603/603 601/601/601 602/602/602 
f 603/603/603 602/602/602 604/604/604 
f 605/605/605 606/606/606 607/607/607 
f 608/608/608 607/607/607 606/606/606 
f 605/605/605 609/609/609 606/606/606 
f 610/610/610 607/607/607 608/608/608 
f 609/609/609 605/605/605 611/611/611 
f 607/607/607 610/610/610 612/612/612 
f 610/610/610 614/614/614 612/612/612 
f 614/614/614 610/610/610 615/615/615 
f 615/615/615 616/616/616 614/614/614 
f 616/616/616 615/615/615 617/617/617 
f 619/619/619 620/620/620 618/618/618 
f 621/621/621 620/620/620 619/619/619 
f 621/621/621 622/622/622 620/620/620 
f 622/622/622 621/621/621 624/624/624 
f 624/624/624 626/626/626 622/622/622 
f 627/627/627 625/625/625 623/623/623 
f 626/626/626 624/624/624 628/628/628 
f 625/625/625 627/627/627 629/629/629 
f 628/628/628 630/630/630 626/626/626 
f 630/630/630 628/628/628 632/632/632 
f 632/632/632 633/633/633 630/630/630 
f 633/633/633 632/632/632 631/631/631 
f 634/634/634 635/635/635 636/636/636 
f 635/635/635 634/634/634 637/637/637 
f 640/640/640 639/639/639 638/638/638 
f 639/639/639 640/640/640 641/641/641 
f 646/646/646 644/644/644 645/645/645 
f 644/644/644 646/646/646 647/647/647 
f 646/646/646 648/648/648 647/647/647 
f 648/648/648 646/646/646 649/649/649 
f 660/660/660 661/661/661 662/662/662 
f 663/663/663 664/664/664 665/665/665 
f 666/666/666 663/663/663 665/665/665 
f 663/663/663 666/666/666 667/667/667 
f 667/667/667 668/668/668 663/663/663 
f 665/665/665 669/669/669 670/670/670 
f 665/665/665 664/664/664 669/669/669 
f 669/669/669 664/664/664 671/671/671 
f 671/671/671 664/664/664 672/672/672 
f 664/664/664 673/673/673 672/672/672 
f 664/664/664 663/663/663 674/674/674 
f 663/663/663 675/675/675 674/674/674 
f 664/664/664 674/674/674 676/676/676 
f 676/676/676 677/677/677 664/664/664 
f 682/682/682 683/683/683 684/684/684 
f 684/684/684 683/683/683 685/685/685 
f 686/686/686 683/683/683 682/682/682 
f 682/682/682 688/688/688 686/686/686 
f 689/689/689 691/691/691 690/690/690 
f 692/692/692 691/691/691 689/689/689 
f 692/692/692 693/693/693 691/691/691 
f 694/694/694 693/693/693 692/692/692 
f 697/697/697 696/696/696 698/698/698 
f 698/698/698 696/696/696 699/699/699 
f 703/703/703 701/701/701 702/702/702 
f 701/701/701 703/703/703 704/704/704 
f 705/705/705 704/704/704 703/703/703 
f 704/704/704 705/705/705 706/706/706 
f 707/707/707 708/708/708 709/709/709 
f 710/710/710 709/709/709 708/708/708 
f 710/710/710 711/711/711 709/709/709 
f 712/712/712 711/711/711 710/710/710 
f 716/716/716 713/713/713 714/714/714 
f 713/713/713 716/716/716 718/718/718 
f 719/719/719 715/715/715 717/717/717 
f 718/718/718 716/716/716 720/720/720 
f 715/715/715 719/719/719 721/721/721 
f 720/720/720 716/716/716 722/722/722 

