# This file is brought to you by Roblox Corporation
# Generated by Roblox Studio

mtllib rigth arm boxing.mtl

g Meshpart1

v 1375.81 -389.61 1028.35 
v 1375.91 -389.45 1028.53 
v 1375.86 -389.618 1028.33 
v 1375.96 -389.457 1028.51 
v 1375.86 -389.447 1028.55 
v 1375.92 -389.631 1028.32 
v 1376.01 -389.413 1028.75 
v 1375.83 -389.808 1028.18 
v 1375.96 -389.411 1028.77 
v 1376.02 -389.467 1028.49 
v 1376.06 -389.421 1028.73 
v 1376.12 -389.431 1028.7 
v 1376.08 -389.493 1028.46 
v 1376.18 -389.447 1028.68 
v 1375.99 -389.715 1028.34 
v 1376.24 -389.473 1028.64 
v 1376.14 -389.537 1028.42 
v 1376.33 -389.502 1028.6 
v 1376.21 -389.586 1028.37 
v 1375.9 -389.419 1028.79 
v 1375.85 -389.437 1028.81 
v 1375.81 -389.455 1028.58 
v 1375.8 -389.461 1028.82 
v 1375.76 -389.472 1028.61 
v 1376.12 -390.356 1028.62 
v 1376.09 -390.407 1028.62 
v 1376.12 -390.419 1028.57 
v 1376.15 -390.389 1028.55 
v 1376.19 -390.358 1028.54 
v 1376.18 -390.471 1028.55 
v 1376.23 -390.458 1028.54 
v 1376.29 -390.242 1028.76 
v 1376.23 -390.275 1028.78 
v 1375.76 -389.605 1028.38 
v 1375.71 -389.607 1028.41 
v 1375.66 -389.615 1028.45 
v 1375.71 -389.494 1028.63 
v 1375.62 -389.628 1028.49 
v 1375.67 -389.522 1028.66 
v 1375.85 -390.036 1028.15 
v 1375.79 -390.021 1028.16 
v 1375.73 -390.006 1028.18 
v 1375.67 -389.993 1028.2 
v 1375.62 -389.982 1028.23 
v 1375.71 -389.783 1028.22 
v 1375.77 -389.794 1028.19 
v 1375.66 -389.775 1028.24 
v 1375.9 -389.834 1028.17 
v 1375.57 -389.969 1028.27 
v 1375.62 -389.771 1028.28 
v 1375.54 -389.956 1028.32 
v 1375.58 -389.77 1028.33 
v 1375.51 -389.944 1028.37 
v 1375.55 -389.771 1028.38 
v 1375.52 -389.776 1028.42 
v 1375.59 -389.646 1028.53 
v 1375.51 -389.783 1028.48 
v 1375.57 -389.668 1028.57 
v 1375.91 -390.051 1028.15 
v 1375.96 -389.876 1028.17 
v 1376.02 -389.924 1028.18 
v 1376.04 -389.845 1028.32 
v 1376.1 -389.909 1028.31 
v 1376.14 -389.979 1028.3 
v 1376.07 -389.767 1028.36 
v 1376.13 -389.831 1028.3 
v 1376.41 -389.53 1028.57 
v 1376.3 -389.624 1028.34 
v 1376.5 -389.559 1028.54 
v 1376.21 -389.874 1028.25 
v 1376.38 -389.656 1028.31 
v 1376.57 -389.594 1028.52 
v 1376.64 -389.632 1028.49 
v 1376.46 -389.687 1028.3 
v 1376.54 -389.719 1028.29 
v 1376.46 -389.935 1028.2 
v 1376.38 -389.919 1028.21 
v 1376.3 -389.901 1028.22 
v 1376.58 -390.077 1028.49 
v 1376.48 -390.084 1028.47 
v 1376.37 -390.095 1028.53 
v 1376.43 -390.3 1028.52 
v 1376.36 -390.18 1028.54 
v 1376.32 -390.103 1028.65 
v 1376.3 -390.174 1028.65 
v 1376.35 -390.105 1028.75 
v 1376.34 -390.25 1028.54 
v 1376.28 -390.229 1028.65 
v 1376.38 -390.369 1028.53 
v 1376.3 -390.292 1028.55 
v 1376.33 -390.413 1028.54 
v 1376.24 -390.257 1028.65 
v 1376.27 -390.316 1028.55 
v 1376.2 -390.272 1028.65 
v 1376.28 -390.441 1028.54 
v 1376.23 -390.335 1028.54 
v 1376.17 -390.294 1028.78 
v 1376.17 -390.29 1028.64 
v 1376.15 -390.317 1028.62 
v 1375.47 -389.906 1028.54 
v 1375.49 -389.814 1028.62 
v 1375.49 -389.794 1028.54 
v 1375.56 -389.75 1028.8 
v 1375.53 -389.745 1028.67 
v 1375.52 -389.805 1028.74 
v 1375.56 -389.827 1028.86 
v 1375.5 -389.852 1028.7 
v 1375.47 -389.894 1028.62 
v 1375.48 -390.051 1028.64 
v 1375.49 -390.095 1028.59 
v 1375.52 -390.157 1028.78 
v 1375.53 -389.879 1028.81 
v 1375.51 -389.918 1028.78 
v 1375.55 -389.955 1028.88 
v 1375.59 -389.895 1028.93 
v 1375.58 -390.022 1028.93 
v 1375.52 -389.997 1028.84 
v 1375.54 -390.079 1028.87 
v 1375.48 -389.894 1028.68 
v 1375.49 -389.953 1028.74 
v 1375.49 -390 1028.7 
v 1375.51 -390.015 1028.8 
v 1375.51 -390.08 1028.79 
v 1376.01 -389.413 1028.75 
v 1375.97 -389.586 1029.03 
v 1375.87 -389.835 1029.17 
v 1375.86 -389.607 1029.03 
v 1375.8 -389.461 1028.82 
v 1376.09 -390.378 1028.7 
v 1376.08 -390.46 1028.71 
v 1376.1 -390.447 1028.76 
v 1376.22 -390.376 1028.84 
v 1376.29 -390.468 1028.83 
v 1376.08 -390.41 1028.68 
v 1376.12 -390.356 1028.62 
v 1376.1 -390.51 1028.72 
v 1376.12 -390.522 1028.76 
v 1376.17 -390.521 1028.8 
v 1376.11 -390.529 1028.67 
v 1376.09 -390.471 1028.64 
v 1376.09 -390.407 1028.62 
v 1376.15 -390.389 1028.55 
v 1376.18 -390.471 1028.55 
v 1376.42 -390.197 1028.79 
v 1376.37 -390.281 1028.82 
v 1376.29 -390.242 1028.76 
v 1376.23 -390.275 1028.78 
v 1375.71 -389.494 1028.63 
v 1375.75 -389.492 1028.83 
v 1375.67 -389.522 1028.66 
v 1375.71 -389.53 1028.84 
v 1375.81 -389.624 1029.03 
v 1375.82 -389.833 1029.15 
v 1375.82 -390.031 1029.14 
v 1375.77 -389.832 1029.12 
v 1375.76 -389.647 1029.01 
v 1375.77 -390.013 1029.12 
v 1375.66 -390.309 1028.88 
v 1375.74 -390.383 1028.86 
v 1375.66 -390.395 1028.67 
v 1375.59 -390.318 1028.72 
v 1375.62 -389.771 1028.28 
v 1375.51 -389.944 1028.37 
v 1375.55 -389.771 1028.38 
v 1375.53 -390.162 1028.51 
v 1375.49 -389.932 1028.42 
v 1375.52 -389.776 1028.42 
v 1375.59 -389.646 1028.53 
v 1375.56 -390.273 1028.74 
v 1375.51 -390.131 1028.55 
v 1375.48 -389.92 1028.47 
v 1375.51 -389.783 1028.48 
v 1375.62 -390.266 1028.88 
v 1375.54 -390.222 1028.76 
v 1375.7 -390.157 1029.01 
v 1375.59 -390.217 1028.89 
v 1375.72 -389.993 1029.1 
v 1375.66 -390.121 1028.99 
v 1375.56 -390.155 1028.88 
v 1375.71 -389.833 1029.08 
v 1375.68 -389.969 1029.06 
v 1375.62 -390.077 1028.97 
v 1375.63 -389.939 1029 
v 1375.66 -389.836 1029.02 
v 1375.61 -389.837 1028.97 
v 1375.7 -389.679 1028.99 
v 1375.65 -389.722 1028.96 
v 1375.6 -389.771 1028.91 
v 1375.66 -389.582 1028.84 
v 1375.62 -389.651 1028.85 
v 1375.59 -389.715 1028.85 
v 1375.64 -389.559 1028.69 
v 1375.6 -389.608 1028.72 
v 1375.57 -389.668 1028.57 
v 1375.57 -389.674 1028.75 
v 1375.54 -389.7 1028.62 
v 1376.07 -390.006 1028.56 
v 1376.07 -389.767 1028.36 
v 1376.09 -390.046 1028.52 
v 1376.16 -390.218 1028.78 
v 1376.46 -390.098 1028.77 
v 1376.37 -390.095 1028.53 
v 1376.36 -390.18 1028.54 
v 1376.32 -390.103 1028.65 
v 1376.3 -390.174 1028.65 
v 1376.35 -390.105 1028.75 
v 1376.34 -390.25 1028.54 
v 1376.32 -390.182 1028.76 
v 1376.28 -390.229 1028.65 
v 1376.3 -390.292 1028.55 
v 1376.24 -390.257 1028.65 
v 1376.2 -390.272 1028.65 
v 1376.17 -390.294 1028.78 
v 1376.14 -390.317 1028.76 
v 1376.17 -390.29 1028.64 
v 1376.15 -390.317 1028.62 
v 1376.12 -390.345 1028.73 
v 1376.13 -390.429 1028.8 
v 1376.17 -390.406 1028.83 
v 1376.01 -389.413 1028.75 
v 1375.96 -389.411 1028.77 
v 1376.06 -389.421 1028.73 
v 1376.09 -389.589 1029 
v 1376.14 -389.599 1028.98 
v 1376.12 -389.431 1028.7 
v 1376.18 -389.447 1028.68 
v 1376.24 -389.473 1028.64 
v 1376.19 -389.609 1028.96 
v 1376.25 -389.621 1028.93 
v 1376.32 -389.638 1028.9 
v 1376.33 -389.502 1028.6 
v 1376.33 -389.914 1029.06 
v 1376.26 -389.895 1029.1 
v 1376.21 -389.881 1029.13 
v 1376.15 -389.872 1029.15 
v 1376.1 -389.862 1029.17 
v 1376.05 -389.853 1029.18 
v 1376.03 -389.584 1029.02 
v 1375.99 -389.845 1029.19 
v 1375.9 -389.419 1028.79 
v 1375.97 -389.586 1029.03 
v 1375.93 -389.839 1029.18 
v 1375.87 -389.835 1029.17 
v 1375.91 -389.595 1029.04 
v 1375.85 -389.437 1028.81 
v 1375.86 -389.607 1029.03 
v 1375.8 -389.461 1028.82 
v 1376.22 -390.376 1028.84 
v 1376.29 -390.468 1028.83 
v 1376.38 -390.41 1028.81 
v 1376.44 -390.438 1028.6 
v 1376.47 -390.325 1028.79 
v 1376.53 -390.214 1028.75 
v 1376.42 -390.197 1028.79 
v 1376.37 -390.281 1028.82 
v 1376.29 -390.242 1028.76 
v 1376.29 -390.338 1028.84 
v 1376.23 -390.275 1028.78 
v 1375.71 -389.494 1028.63 
v 1375.75 -389.492 1028.83 
v 1375.81 -389.624 1029.03 
v 1375.82 -389.833 1029.15 
v 1375.76 -389.647 1029.01 
v 1375.71 -389.833 1029.08 
v 1376.02 -389.924 1028.18 
v 1376.04 -389.845 1028.32 
v 1376.1 -389.909 1028.31 
v 1376.14 -389.979 1028.3 
v 1376.19 -390.237 1028.48 
v 1376.2 -390.094 1028.44 
v 1376.2 -390.252 1028.55 
v 1376.17 -390.053 1028.49 
v 1376.17 -390.256 1028.63 
v 1376.11 -390.018 1028.54 
v 1376.13 -390.255 1028.71 
v 1376.07 -390.006 1028.56 
v 1376.41 -389.933 1029.01 
v 1376.41 -389.656 1028.86 
v 1376.5 -389.946 1028.96 
v 1376.41 -389.53 1028.57 
v 1376.49 -389.673 1028.83 
v 1376.58 -389.955 1028.91 
v 1376.5 -389.559 1028.54 
v 1376.58 -389.693 1028.79 
v 1376.65 -389.965 1028.86 
v 1376.57 -389.594 1028.52 
v 1376.65 -389.719 1028.75 
v 1376.71 -389.977 1028.81 
v 1376.71 -389.748 1028.7 
v 1376.64 -389.632 1028.49 
v 1376.46 -390.098 1028.77 
v 1376.58 -390.088 1028.71 
v 1376.58 -390.077 1028.49 
v 1376.35 -390.105 1028.75 
v 1376.32 -390.182 1028.76 
v 1376.17 -390.294 1028.78 
v 1376.33 -389.914 1029.06 
v 1376.26 -389.895 1029.1 
v 1376.21 -389.881 1029.13 
v 1376.2 -390.123 1029.06 
v 1376.15 -390.112 1029.09 
v 1376.15 -389.872 1029.15 
v 1376.1 -389.862 1029.17 
v 1376.09 -390.105 1029.12 
v 1376.05 -390.294 1028.94 
v 1376.04 -390.095 1029.14 
v 1375.99 -390.292 1028.97 
v 1376.05 -389.853 1029.18 
v 1375.94 -390.283 1028.99 
v 1375.99 -390.083 1029.15 
v 1375.99 -389.845 1029.19 
v 1375.93 -390.067 1029.16 
v 1375.93 -389.839 1029.18 
v 1375.89 -390.268 1029 
v 1375.87 -390.049 1029.15 
v 1375.83 -390.245 1029.01 
v 1375.87 -389.835 1029.17 
v 1376.22 -390.376 1028.84 
v 1376.22 -390.504 1028.82 
v 1376.29 -390.468 1028.83 
v 1376.12 -390.522 1028.76 
v 1376.17 -390.521 1028.8 
v 1376.16 -390.561 1028.69 
v 1376.18 -390.471 1028.55 
v 1376.21 -390.57 1028.72 
v 1376.24 -390.55 1028.61 
v 1376.3 -390.536 1028.61 
v 1376.27 -390.557 1028.73 
v 1376.35 -390.518 1028.73 
v 1376.38 -390.41 1028.81 
v 1376.44 -390.45 1028.71 
v 1376.44 -390.438 1028.6 
v 1376.52 -390.352 1028.68 
v 1376.47 -390.325 1028.79 
v 1376.53 -390.214 1028.75 
v 1376.37 -390.281 1028.82 
v 1376.29 -390.338 1028.84 
v 1375.82 -390.031 1029.14 
v 1375.78 -390.218 1029.02 
v 1375.77 -390.013 1029.12 
v 1375.74 -390.189 1029.01 
v 1375.69 -390.347 1028.87 
v 1375.66 -390.309 1028.88 
v 1375.74 -390.383 1028.86 
v 1375.79 -390.411 1028.84 
v 1375.62 -390.357 1028.7 
v 1375.66 -390.395 1028.67 
v 1375.59 -390.318 1028.72 
v 1375.84 -390.429 1028.82 
v 1375.71 -390.424 1028.65 
v 1375.76 -390.442 1028.63 
v 1375.9 -390.438 1028.8 
v 1375.82 -390.452 1028.6 
v 1375.96 -390.441 1028.77 
v 1375.88 -390.459 1028.57 
v 1376.1 -390.256 1028.84 
v 1375.94 -390.458 1028.54 
v 1376.02 -390.436 1028.73 
v 1375.98 -390.443 1028.52 
v 1375.62 -390.266 1028.88 
v 1375.7 -390.157 1029.01 
v 1375.59 -390.217 1028.89 
v 1375.66 -390.121 1028.99 
v 1375.71 -389.833 1029.08 
v 1376.11 -390.399 1028.62 
v 1376.17 -390.256 1028.63 
v 1376.07 -390.423 1028.68 
v 1376.13 -390.255 1028.71 
v 1376.16 -390.218 1028.78 
v 1376.22 -390.262 1028.7 
v 1376.26 -390.147 1029 
v 1376.33 -390.178 1028.93 
v 1376.41 -389.933 1029.01 
v 1376.5 -389.946 1028.96 
v 1376.41 -390.196 1028.87 
v 1376.29 -390.29 1028.64 
v 1376.58 -389.955 1028.91 
v 1376.49 -390.2 1028.82 
v 1376.65 -389.965 1028.86 
v 1376.71 -389.977 1028.81 
v 1376.57 -390.197 1028.78 
v 1376.63 -390.192 1028.73 
v 1376.53 -390.279 1028.53 
v 1376.45 -390.29 1028.56 
v 1376.38 -390.296 1028.6 
v 1376.58 -390.088 1028.71 
v 1376.5 -390.345 1028.57 
v 1376.36 -390.501 1028.61 
v 1376.13 -390.429 1028.8 
v 1376.17 -390.406 1028.83 
v 1375.92 -389.631 1028.32 
v 1375.83 -389.808 1028.18 
v 1376.08 -389.493 1028.46 
v 1375.99 -389.715 1028.34 
v 1376.2 -390.123 1029.06 
v 1376.05 -390.294 1028.94 
v 1376.18 -390.546 1028.61 
v 1376.3 -390.536 1028.61 
v 1376.27 -390.557 1028.73 
v 1376.35 -390.518 1028.73 
v 1376.44 -390.45 1028.71 
v 1376.44 -390.438 1028.6 
v 1376.52 -390.352 1028.68 
v 1376.47 -390.325 1028.79 
v 1376.53 -390.214 1028.75 
v 1375.96 -390.441 1028.77 
v 1376.1 -390.256 1028.84 
v 1376.02 -390.436 1028.73 
v 1375.98 -390.443 1028.52 
v 1375.9 -389.834 1028.17 
v 1375.92 -390.283 1028.3 
v 1375.91 -390.051 1028.15 
v 1376.02 -390.414 1028.49 
v 1375.95 -390.069 1028.17 
v 1376.02 -389.924 1028.18 
v 1376.04 -389.845 1028.32 
v 1376.1 -389.909 1028.31 
v 1375.96 -390.271 1028.31 
v 1376.06 -389.987 1028.2 
v 1376 -390.096 1028.2 
v 1376.05 -390.368 1028.46 
v 1376 -390.254 1028.32 
v 1376.04 -390.126 1028.25 
v 1376.06 -390.227 1028.33 
v 1376.1 -390.073 1028.26 
v 1376.14 -389.979 1028.3 
v 1376.13 -390.186 1028.36 
v 1376.08 -390.313 1028.43 
v 1376.15 -390.05 1028.31 
v 1376.14 -390.293 1028.47 
v 1376.14 -390.361 1028.56 
v 1376.18 -390.139 1028.4 
v 1376.11 -390.399 1028.62 
v 1376.19 -390.237 1028.48 
v 1376.2 -390.094 1028.44 
v 1376.2 -390.252 1028.55 
v 1376.17 -390.256 1028.63 
v 1376.13 -390.255 1028.71 
v 1376.07 -390.006 1028.56 
v 1376.58 -390.088 1028.71 
v 1376.58 -390.224 1028.64 
v 1376.62 -390.079 1028.59 
v 1376.55 -390.22 1028.54 
v 1376.58 -390.077 1028.49 
v 1376.46 -390.2 1028.49 
v 1376.5 -390.345 1028.57 
v 1376.43 -390.3 1028.52 
v 1376.38 -390.369 1028.53 
v 1376.36 -390.501 1028.61 
v 1375.49 -389.814 1028.62 
v 1375.48 -390.051 1028.64 
v 1375.92 -389.631 1028.32 
v 1375.99 -389.715 1028.34 
v 1376.08 -390.46 1028.71 
v 1376.1 -390.51 1028.72 
v 1376.12 -390.522 1028.76 
v 1376.11 -390.529 1028.67 
v 1376.09 -390.471 1028.64 
v 1376.09 -390.407 1028.62 
v 1376.16 -390.561 1028.69 
v 1376.14 -390.526 1028.61 
v 1376.13 -390.476 1028.58 
v 1376.12 -390.419 1028.57 
v 1376.15 -390.389 1028.55 
v 1376.19 -390.358 1028.54 
v 1376.18 -390.471 1028.55 
v 1376.23 -390.458 1028.54 
v 1376.18 -390.546 1028.61 
v 1376.21 -390.57 1028.72 
v 1376.24 -390.55 1028.61 
v 1376.3 -390.536 1028.61 
v 1376.27 -390.557 1028.73 
v 1376.44 -390.438 1028.6 
v 1375.62 -390.357 1028.7 
v 1375.66 -390.395 1028.67 
v 1375.59 -390.318 1028.72 
v 1375.71 -390.424 1028.65 
v 1375.76 -390.442 1028.63 
v 1375.82 -390.452 1028.6 
v 1375.69 -390.256 1028.38 
v 1375.64 -390.241 1028.41 
v 1375.96 -390.441 1028.77 
v 1375.88 -390.459 1028.57 
v 1375.75 -390.268 1028.35 
v 1376.1 -390.256 1028.84 
v 1375.94 -390.458 1028.54 
v 1375.81 -390.28 1028.33 
v 1375.87 -390.287 1028.31 
v 1375.98 -390.443 1028.52 
v 1375.85 -390.036 1028.15 
v 1375.79 -390.021 1028.16 
v 1375.73 -390.006 1028.18 
v 1375.67 -389.993 1028.2 
v 1375.62 -389.982 1028.23 
v 1375.57 -389.969 1028.27 
v 1375.62 -389.771 1028.28 
v 1375.6 -390.218 1028.44 
v 1375.54 -389.956 1028.32 
v 1375.56 -390.191 1028.48 
v 1375.51 -389.944 1028.37 
v 1375.53 -390.162 1028.51 
v 1375.49 -389.932 1028.42 
v 1375.56 -390.273 1028.74 
v 1375.51 -390.131 1028.55 
v 1375.54 -390.222 1028.76 
v 1375.92 -390.283 1028.3 
v 1375.91 -390.051 1028.15 
v 1376.02 -390.414 1028.49 
v 1375.95 -390.069 1028.17 
v 1375.96 -390.271 1028.31 
v 1376 -390.096 1028.2 
v 1376.05 -390.368 1028.46 
v 1376.04 -390.126 1028.25 
v 1376.14 -389.979 1028.3 
v 1376.08 -390.313 1028.43 
v 1376.11 -390.399 1028.62 
v 1376.19 -390.237 1028.48 
v 1376.13 -390.255 1028.71 
v 1376.07 -390.006 1028.56 
v 1376.07 -389.767 1028.36 
v 1376.09 -390.046 1028.52 
v 1376.16 -390.218 1028.78 
v 1376.13 -389.831 1028.3 
v 1376.22 -390.262 1028.7 
v 1376.14 -390.108 1028.44 
v 1376.29 -390.29 1028.64 
v 1376.21 -389.874 1028.25 
v 1376.53 -390.279 1028.53 
v 1376.46 -389.935 1028.2 
v 1376.45 -390.29 1028.56 
v 1376.38 -390.166 1028.33 
v 1376.46 -390.164 1028.31 
v 1376.38 -389.919 1028.21 
v 1376.38 -390.296 1028.6 
v 1376.3 -390.162 1028.35 
v 1376.3 -389.901 1028.22 
v 1376.21 -390.146 1028.38 
v 1376.58 -390.077 1028.49 
v 1376.46 -390.2 1028.49 
v 1376.48 -390.084 1028.47 
v 1376.37 -390.095 1028.53 
v 1376.5 -390.345 1028.57 
v 1376.43 -390.3 1028.52 
v 1376.36 -390.18 1028.54 
v 1376.34 -390.25 1028.54 
v 1376.38 -390.369 1028.53 
v 1376.33 -390.413 1028.54 
v 1376.28 -390.441 1028.54 
v 1376.36 -390.501 1028.61 

vn -0.204724 0.724409 -0.653543 
vn -0.0787402 0.913386 -0.401575 
vn -0.102362 0.708661 -0.700787 
vn 0 0.897638 -0.440945 
vn -0.204724 0.92126 -0.338583 
vn 0.165354 0.606299 -0.771654 
vn 0.165354 0.968504 0.165354 
vn 0 0.377953 -0.929134 
vn 0.0314961 0.976378 0.220472 
vn 0.15748 0.84252 -0.511811 
vn 0.228346 0.96063 0.141732 
vn 0.283465 0.952756 0.11811 
vn 0.267717 0.740157 -0.614173 
vn 0.354331 0.937008 0.0629921 
vn 0.385827 0.433071 -0.811024 
vn 0.362205 0.929134 0.00787402 
vn 0.102362 0.700787 -0.708661 
vn 0.322835 0.944882 -0.0314961 
vn -0.0944882 0.685039 -0.724409 
vn -0.125984 0.952756 0.275591 
vn -0.267717 0.913386 0.314961 
vn -0.346457 0.905512 -0.259843 
vn -0.393701 0.850394 0.346457 
vn -0.464567 0.866142 -0.181102 
vn -0.76378 0.535433 -0.346457 
vn -0.92126 0.149606 -0.362205 
vn -0.740157 0 -0.669291 
vn -0.527559 0.204724 -0.826772 
vn -0.307087 0.354331 -0.88189 
vn -0.283465 -0.377953 -0.88189 
vn 0 -0.330709 -0.944882 
vn -0.503937 0.661417 0.559055 
vn -0.314961 0.795276 0.519685 
vn -0.330709 0.740157 -0.590551 
vn -0.456693 0.732283 -0.503937 
vn -0.566929 0.716535 -0.409449 
vn -0.566929 0.811024 -0.110236 
vn -0.661417 0.685039 -0.314961 
vn -0.661417 0.748031 -0.0314961 
vn -0.125984 -0.228346 -0.968504 
vn -0.291339 -0.212598 -0.937008 
vn -0.377953 -0.212598 -0.905512 
vn -0.472441 -0.19685 -0.858268 
vn -0.606299 -0.165354 -0.779528 
vn -0.330709 0.425197 -0.84252 
vn -0.220472 0.401575 -0.889764 
vn -0.472441 0.440945 -0.76378 
vn 0.283465 0.330709 -0.897638 
vn -0.732283 -0.125984 -0.661417 
vn -0.606299 0.448819 -0.653543 
vn -0.826772 -0.0866142 -0.551181 
vn -0.708661 0.448819 -0.543307 
vn -0.897638 -0.0551181 -0.433071 
vn -0.787402 0.433071 -0.433071 
vn -0.850394 0.417323 -0.314961 
vn -0.740157 0.637795 -0.220472 
vn -0.897638 0.385827 -0.19685 
vn -0.80315 0.582677 -0.11811 
vn 0.0944882 -0.251969 -0.96063 
vn 0.425197 0.322835 -0.84252 
vn 0.535433 0.275591 -0.80315 
vn 0.779528 0.606299 -0.15748 
vn 0.779528 0.606299 -0.181102 
vn 0.889764 0.267717 -0.370079 
vn -0.543307 -0.0314961 -0.834646 
vn -0.614173 0.015748 -0.787402 
vn 0.299213 0.952756 -0.0393701 
vn -0.0314961 0.677165 -0.732283 
vn 0.346457 0.937008 -0.0708661 
vn -0.409449 -0.015748 -0.913386 
vn 0.0551181 0.661417 -0.748031 
vn 0.433071 0.897638 -0.11811 
vn 0.464567 0.874016 -0.133858 
vn 0.125984 0.637795 -0.755906 
vn 0.149606 0.629921 -0.76378 
vn -0.0787402 -0.0472441 -0.992126 
vn -0.125984 -0.0393701 -0.992126 
vn -0.228346 -0.0314961 -0.976378 
vn 0.653543 -0.330709 -0.685039 
vn -0.015748 -0.204724 -0.976378 
vn -0.677165 0.0314961 -0.740157 
vn 0.0708661 -0.23622 -0.968504 
vn -0.661417 0.0787402 -0.740157 
vn -0.976378 0.19685 -0.110236 
vn -0.944882 0.299213 -0.149606 
vn -0.653543 0.275591 0.708661 
vn -0.543307 0.19685 -0.818898 
vn -0.771654 0.598425 -0.220472 
vn 0.11811 -0.275591 -0.952756 
vn -0.377953 0.362205 -0.850394 
vn 0.149606 -0.275591 -0.952756 
vn -0.480315 0.850394 -0.212598 
vn -0.228346 0.472441 -0.850394 
vn -0.433071 0.88189 -0.204724 
vn 0.141732 -0.291339 -0.944882 
vn -0.19685 0.456693 -0.866142 
vn -0.456693 0.732283 0.511811 
vn -0.551181 0.787402 -0.283465 
vn -0.637795 0.692913 -0.338583 
vn -1 0.0551181 -0.0393701 
vn -0.952756 0.291339 0.102362 
vn -0.937008 0.346457 -0.0472441 
vn -0.897638 0.307087 0.314961 
vn -0.905512 0.385827 0.15748 
vn -0.92126 0.275591 0.283465 
vn -0.889764 0.204724 0.409449 
vn -0.944882 0.220472 0.244094 
vn -0.992126 0.0866142 0.0944882 
vn -0.984252 -0.149606 0.0472441 
vn -0.96063 -0.251969 -0.0629921 
vn -0.937008 -0.251969 0.244094 
vn -0.905512 0.173228 0.377953 
vn -0.929134 0.133858 0.338583 
vn -0.874016 0.0708661 0.472441 
vn -0.858268 0.110236 0.503937 
vn -0.818898 -0.0472441 0.566929 
vn -0.905512 0.0314961 0.417323 
vn -0.874016 -0.102362 0.480315 
vn -0.976378 0.102362 0.19685 
vn -0.968504 0.0393701 0.251969 
vn -0.984252 -0.0551181 0.149606 
vn -0.952756 -0.015748 0.307087 
vn -0.952756 -0.11811 0.291339 
vn 0.165354 0.968504 0.165354 
vn 0.0314961 0.685039 0.724409 
vn -0.267717 0.220472 0.937008 
vn -0.251969 0.637795 0.732283 
vn -0.393701 0.850394 0.346457 
vn -0.889764 0.425197 0.15748 
vn -0.984252 -0.141732 0.102362 
vn -0.866142 -0.015748 0.503937 
vn -0.15748 0.181102 0.968504 
vn 0.267717 -0.448819 0.850394 
vn -0.984252 0.181102 -0.0314961 
vn -0.76378 0.535433 -0.346457 
vn -0.850394 -0.511811 0.141732 
vn -0.645669 -0.606299 0.464567 
vn -0.338583 -0.629921 0.700787 
vn -0.724409 -0.669291 -0.181102 
vn -0.905512 -0.283465 -0.314961 
vn -0.92126 0.149606 -0.362205 
vn -0.527559 0.204724 -0.826772 
vn -0.283465 -0.377953 -0.88189 
vn 0.0708661 0.204724 0.976378 
vn 0.0551181 0.244094 0.968504 
vn -0.503937 0.661417 0.559055 
vn -0.314961 0.795276 0.519685 
vn -0.566929 0.811024 -0.110236 
vn -0.503937 0.779528 0.370079 
vn -0.661417 0.748031 -0.0314961 
vn -0.606299 0.692913 0.385827 
vn -0.377953 0.590551 0.708661 
vn -0.393701 0.228346 0.889764 
vn -0.354331 -0.251969 0.897638 
vn -0.511811 0.220472 0.826772 
vn -0.496063 0.535433 0.677165 
vn -0.464567 -0.19685 0.858268 
vn -0.582677 -0.606299 0.543307 
vn -0.362205 -0.779528 0.511811 
vn -0.598425 -0.795276 -0.0314961 
vn -0.787402 -0.606299 0.0866142 
vn -0.606299 0.448819 -0.653543 
vn -0.897638 -0.0551181 -0.433071 
vn -0.787402 0.433071 -0.433071 
vn -0.874016 -0.417323 -0.259843 
vn -0.944882 -0.023622 -0.314961 
vn -0.850394 0.417323 -0.314961 
vn -0.740157 0.637795 -0.220472 
vn -0.850394 -0.503937 0.141732 
vn -0.92126 -0.338583 -0.165354 
vn -0.984252 0.015748 -0.188976 
vn -0.897638 0.385827 -0.19685 
vn -0.669291 -0.503937 0.551181 
vn -0.897638 -0.393701 0.188976 
vn -0.527559 -0.393701 0.748031 
vn -0.748031 -0.393701 0.535433 
vn -0.574803 -0.141732 0.80315 
vn -0.629921 -0.299213 0.716535 
vn -0.818898 -0.251969 0.511811 
vn -0.637795 0.212598 0.740157 
vn -0.692913 -0.0629921 0.716535 
vn -0.732283 -0.181102 0.653543 
vn -0.787402 0.023622 0.614173 
vn -0.748031 0.204724 0.629921 
vn -0.818898 0.19685 0.535433 
vn -0.629921 0.464567 0.622047 
vn -0.740157 0.377953 0.559055 
vn -0.834646 0.283465 0.480315 
vn -0.708661 0.582677 0.393701 
vn -0.795276 0.456693 0.393701 
vn -0.850394 0.346457 0.393701 
vn -0.740157 0.669291 0.0393701 
vn -0.818898 0.559055 0.133858 
vn -0.80315 0.582677 -0.11811 
vn -0.874016 0.433071 0.220472 
vn -0.866142 0.496063 0.023622 
vn 0.629921 -0.456693 -0.622047 
vn -0.543307 -0.0314961 -0.834646 
vn -0.755906 -0.519685 -0.393701 
vn -0.362205 -0.929134 0.00787402 
vn 0.173228 0.173228 0.968504 
vn -0.677165 0.0314961 -0.740157 
vn -0.661417 0.0787402 -0.740157 
vn -0.976378 0.19685 -0.110236 
vn -0.944882 0.299213 -0.149606 
vn -0.653543 0.275591 0.708661 
vn -0.543307 0.19685 -0.818898 
vn -0.669291 0.393701 0.629921 
vn -0.771654 0.598425 -0.220472 
vn -0.377953 0.362205 -0.850394 
vn -0.480315 0.850394 -0.212598 
vn -0.433071 0.88189 -0.204724 
vn -0.456693 0.732283 0.511811 
vn -0.716535 0.582677 0.385827 
vn -0.551181 0.787402 -0.283465 
vn -0.637795 0.692913 -0.338583 
vn -0.834646 0.496063 0.244094 
vn -0.700787 -0.00787402 0.708661 
vn -0.464567 0.0472441 0.88189 
vn 0.165354 0.968504 0.165354 
vn 0.0314961 0.976378 0.220472 
vn 0.228346 0.96063 0.141732 
vn 0.322835 0.685039 0.653543 
vn 0.377953 0.669291 0.637795 
vn 0.283465 0.952756 0.11811 
vn 0.354331 0.937008 0.0629921 
vn 0.362205 0.929134 0.00787402 
vn 0.409449 0.669291 0.622047 
vn 0.456693 0.653543 0.598425 
vn 0.480315 0.653543 0.590551 
vn 0.322835 0.944882 -0.0314961 
vn 0.543307 0.0472441 0.834646 
vn 0.519685 0.102362 0.850394 
vn 0.448819 0.133858 0.88189 
vn 0.393701 0.149606 0.905512 
vn 0.330709 0.15748 0.929134 
vn 0.188976 0.181102 0.968504 
vn 0.188976 0.692913 0.692913 
vn 0.023622 0.204724 0.976378 
vn -0.125984 0.952756 0.275591 
vn 0.0314961 0.685039 0.724409 
vn -0.125984 0.212598 0.968504 
vn -0.267717 0.220472 0.937008 
vn -0.11811 0.669291 0.732283 
vn -0.267717 0.913386 0.314961 
vn -0.251969 0.637795 0.732283 
vn -0.393701 0.850394 0.346457 
vn -0.15748 0.181102 0.968504 
vn 0.267717 -0.448819 0.850394 
vn 0.456693 -0.338583 0.826772 
vn 0.582677 -0.661417 -0.464567 
vn 0.606299 -0.212598 0.771654 
vn 0.700787 -0.0866142 0.708661 
vn 0.0708661 0.204724 0.976378 
vn 0.0551181 0.244094 0.968504 
vn -0.503937 0.661417 0.559055 
vn 0.023622 0.259843 0.968504 
vn -0.314961 0.795276 0.519685 
vn -0.566929 0.811024 -0.110236 
vn -0.503937 0.779528 0.370079 
vn -0.377953 0.590551 0.708661 
vn -0.393701 0.228346 0.889764 
vn -0.496063 0.535433 0.677165 
vn -0.637795 0.212598 0.740157 
vn 0.535433 0.275591 -0.80315 
vn 0.779528 0.606299 -0.15748 
vn 0.779528 0.606299 -0.181102 
vn 0.889764 0.267717 -0.370079 
vn 0.88189 -0.338583 -0.330709 
vn 0.984252 0.188976 -0.00787402 
vn 0.976378 -0.188976 0.0551181 
vn 0.826772 0.464567 0.314961 
vn 0.905512 -0.0393701 0.425197 
vn 0.80315 0.488189 0.346457 
vn 0.905512 -0.015748 0.425197 
vn 0.629921 -0.456693 -0.622047 
vn 0.511811 0 0.858268 
vn 0.448819 0.661417 0.606299 
vn 0.488189 -0.015748 0.874016 
vn 0.299213 0.952756 -0.0393701 
vn 0.440945 0.661417 0.606299 
vn 0.543307 -0.0314961 0.834646 
vn 0.346457 0.937008 -0.0708661 
vn 0.511811 0.637795 0.574803 
vn 0.622047 -0.0551181 0.779528 
vn 0.433071 0.897638 -0.11811 
vn 0.606299 0.606299 0.511811 
vn 0.653543 -0.0708661 0.755906 
vn 0.645669 0.582677 0.488189 
vn 0.464567 0.874016 -0.133858 
vn 0.173228 0.173228 0.968504 
vn 0.80315 -0.0787402 0.590551 
vn 0.653543 -0.330709 -0.685039 
vn -0.653543 0.275591 0.708661 
vn -0.669291 0.393701 0.629921 
vn -0.456693 0.732283 0.511811 
vn 0.543307 0.0472441 0.834646 
vn 0.519685 0.102362 0.850394 
vn 0.448819 0.133858 0.88189 
vn 0.535433 -0.574803 0.622047 
vn 0.425197 -0.496063 0.755906 
vn 0.393701 0.149606 0.905512 
vn 0.330709 0.15748 0.929134 
vn 0.275591 -0.464567 0.84252 
vn 0.440945 -0.748031 0.503937 
vn 0.19685 -0.448819 0.874016 
vn 0.188976 -0.732283 0.653543 
vn 0.188976 0.181102 0.968504 
vn 0.0866142 -0.708661 0.700787 
vn 0.0629921 -0.409449 0.913386 
vn 0.023622 0.204724 0.976378 
vn -0.0944882 -0.362205 0.929134 
vn -0.125984 0.212598 0.968504 
vn -0.0472441 -0.669291 0.740157 
vn -0.228346 -0.307087 0.92126 
vn -0.188976 -0.614173 0.76378 
vn -0.267717 0.220472 0.937008 
vn -0.15748 0.181102 0.968504 
vn 0 -0.559055 0.826772 
vn 0.267717 -0.448819 0.850394 
vn -0.645669 -0.606299 0.464567 
vn -0.338583 -0.629921 0.700787 
vn -0.362205 -0.929134 0.023622 
vn -0.283465 -0.377953 -0.88189 
vn -0.00787402 -0.984252 0.173228 
vn 0.0944882 -0.858268 -0.496063 
vn 0.330709 -0.826772 -0.456693 
vn 0.299213 -0.913386 0.267717 
vn 0.519685 -0.80315 0.283465 
vn 0.456693 -0.338583 0.826772 
vn 0.692913 -0.677165 0.251969 
vn 0.582677 -0.661417 -0.464567 
vn 0.858268 -0.488189 0.173228 
vn 0.606299 -0.212598 0.771654 
vn 0.700787 -0.0866142 0.708661 
vn 0.0551181 0.244094 0.968504 
vn 0.023622 0.259843 0.968504 
vn -0.354331 -0.251969 0.897638 
vn -0.314961 -0.543307 0.779528 
vn -0.464567 -0.19685 0.858268 
vn -0.425197 -0.472441 0.771654 
vn -0.480315 -0.700787 0.535433 
vn -0.582677 -0.606299 0.543307 
vn -0.362205 -0.779528 0.511811 
vn -0.212598 -0.858268 0.464567 
vn -0.708661 -0.708661 0.0314961 
vn -0.598425 -0.795276 -0.0314961 
vn -0.787402 -0.606299 0.0866142 
vn -0.0629921 -0.905512 0.409449 
vn -0.464567 -0.88189 -0.102362 
vn -0.322835 -0.929134 -0.165354 
vn 0.0472441 -0.929134 0.370079 
vn -0.228346 -0.952756 -0.204724 
vn 0.259843 -0.92126 0.299213 
vn -0.141732 -0.96063 -0.228346 
vn 0.622047 -0.732283 0.283465 
vn 0.015748 -0.96063 -0.275591 
vn 0.511811 -0.834646 0.19685 
vn 0.228346 -0.913386 -0.346457 
vn -0.669291 -0.503937 0.551181 
vn -0.527559 -0.393701 0.748031 
vn -0.748031 -0.393701 0.535433 
vn -0.629921 -0.299213 0.716535 
vn -0.637795 0.212598 0.740157 
vn 0.724409 -0.685039 0.0944882 
vn 0.905512 -0.0393701 0.425197 
vn 0.637795 -0.748031 0.165354 
vn 0.905512 -0.015748 0.425197 
vn -0.362205 -0.929134 0.00787402 
vn -0.433071 -0.897638 0.0708661 
vn 0.377953 -0.700787 0.606299 
vn 0.19685 -0.748031 0.629921 
vn 0.511811 0 0.858268 
vn 0.488189 -0.015748 0.874016 
vn 0.259843 -0.748031 0.606299 
vn -0.220472 -0.976378 -0.00787402 
vn 0.543307 -0.0314961 0.834646 
vn 0.338583 -0.740157 0.574803 
vn 0.622047 -0.0551181 0.779528 
vn 0.653543 -0.0708661 0.755906 
vn 0.401575 -0.740157 0.535433 
vn 0.425197 -0.740157 0.519685 
vn 0.110236 -0.984252 -0.110236 
vn 0.0708661 -0.992126 -0.0944882 
vn -0.0393701 -1 -0.0629921 
vn 0.80315 -0.0787402 0.590551 
vn 0.677165 -0.503937 -0.535433 
vn 0.480315 -0.76378 -0.440945 
vn -0.700787 -0.00787402 0.708661 
vn -0.464567 0.0472441 0.88189 
vn 0.165354 0.606299 -0.771654 
vn 0 0.377953 -0.929134 
vn 0.267717 0.740157 -0.614173 
vn 0.385827 0.433071 -0.811024 
vn 0.535433 -0.574803 0.622047 
vn 0.440945 -0.748031 0.503937 
vn -0.228346 -0.818898 -0.527559 
vn 0.330709 -0.826772 -0.456693 
vn 0.299213 -0.913386 0.267717 
vn 0.519685 -0.80315 0.283465 
vn 0.692913 -0.677165 0.251969 
vn 0.582677 -0.661417 -0.464567 
vn 0.858268 -0.488189 0.173228 
vn 0.606299 -0.212598 0.771654 
vn 0.700787 -0.0866142 0.708661 
vn 0.259843 -0.92126 0.299213 
vn 0.622047 -0.732283 0.283465 
vn 0.511811 -0.834646 0.19685 
vn 0.228346 -0.913386 -0.346457 
vn 0.283465 0.330709 -0.897638 
vn 0.0708661 -0.677165 -0.732283 
vn 0.0944882 -0.251969 -0.96063 
vn 0.393701 -0.80315 -0.440945 
vn 0.299213 -0.314961 -0.897638 
vn 0.535433 0.275591 -0.80315 
vn 0.779528 0.606299 -0.15748 
vn 0.779528 0.606299 -0.181102 
vn 0.275591 -0.629921 -0.724409 
vn 0.629921 0 -0.779528 
vn 0.425197 -0.393701 -0.811024 
vn 0.488189 -0.692913 -0.535433 
vn 0.393701 -0.582677 -0.708661 
vn 0.511811 -0.448819 -0.732283 
vn 0.511811 -0.527559 -0.677165 
vn 0.645669 -0.299213 -0.700787 
vn 0.889764 0.267717 -0.370079 
vn 0.645669 -0.448819 -0.614173 
vn 0.543307 -0.590551 -0.598425 
vn 0.834646 -0.133858 -0.527559 
vn 0.692913 -0.543307 -0.472441 
vn 0.755906 -0.629921 -0.181102 
vn 0.88189 -0.220472 -0.417323 
vn 0.724409 -0.685039 0.0944882 
vn 0.88189 -0.338583 -0.330709 
vn 0.984252 0.188976 -0.00787402 
vn 0.976378 -0.188976 0.0551181 
vn 0.905512 -0.0393701 0.425197 
vn 0.905512 -0.015748 0.425197 
vn 0.629921 -0.456693 -0.622047 
vn 0.80315 -0.0787402 0.590551 
vn 0.944882 -0.314961 0.0708661 
vn 0.96063 -0.283465 -0.0629921 
vn 0.677165 -0.370079 -0.629921 
vn 0.653543 -0.330709 -0.685039 
vn -0.023622 -0.19685 -0.976378 
vn 0.677165 -0.503937 -0.535433 
vn 0.0708661 -0.23622 -0.968504 
vn 0.11811 -0.275591 -0.952756 
vn 0.480315 -0.76378 -0.440945 
vn -0.952756 0.291339 0.102362 
vn -0.984252 -0.149606 0.0472441 
vn 0.165354 0.606299 -0.771654 
vn 0.385827 0.433071 -0.811024 
vn -0.984252 -0.141732 0.102362 
vn -0.850394 -0.511811 0.141732 
vn -0.645669 -0.606299 0.464567 
vn -0.724409 -0.669291 -0.181102 
vn -0.905512 -0.283465 -0.314961 
vn -0.92126 0.149606 -0.362205 
vn -0.362205 -0.929134 0.023622 
vn -0.574803 -0.661417 -0.488189 
vn -0.661417 -0.370079 -0.653543 
vn -0.740157 0 -0.669291 
vn -0.527559 0.204724 -0.826772 
vn -0.307087 0.354331 -0.88189 
vn -0.283465 -0.377953 -0.88189 
vn 0 -0.330709 -0.944882 
vn -0.228346 -0.818898 -0.527559 
vn -0.00787402 -0.984252 0.173228 
vn 0.0944882 -0.858268 -0.496063 
vn 0.330709 -0.826772 -0.456693 
vn 0.299213 -0.913386 0.267717 
vn 0.582677 -0.661417 -0.464567 
vn -0.708661 -0.708661 0.0314961 
vn -0.598425 -0.795276 -0.0314961 
vn -0.787402 -0.606299 0.0866142 
vn -0.464567 -0.88189 -0.102362 
vn -0.322835 -0.929134 -0.165354 
vn -0.228346 -0.952756 -0.204724 
vn -0.456693 -0.653543 -0.598425 
vn -0.582677 -0.614173 -0.527559 
vn 0.259843 -0.92126 0.299213 
vn -0.141732 -0.96063 -0.228346 
vn -0.385827 -0.669291 -0.629921 
vn 0.622047 -0.732283 0.283465 
vn 0.015748 -0.96063 -0.275591 
vn -0.322835 -0.685039 -0.653543 
vn -0.173228 -0.692913 -0.700787 
vn 0.228346 -0.913386 -0.346457 
vn -0.125984 -0.228346 -0.968504 
vn -0.291339 -0.212598 -0.937008 
vn -0.377953 -0.212598 -0.905512 
vn -0.472441 -0.19685 -0.858268 
vn -0.606299 -0.165354 -0.779528 
vn -0.732283 -0.125984 -0.661417 
vn -0.606299 0.448819 -0.653543 
vn -0.700787 -0.559055 -0.440945 
vn -0.826772 -0.0866142 -0.551181 
vn -0.795276 -0.488189 -0.354331 
vn -0.897638 -0.0551181 -0.433071 
vn -0.874016 -0.417323 -0.259843 
vn -0.944882 -0.023622 -0.314961 
vn -0.850394 -0.503937 0.141732 
vn -0.92126 -0.338583 -0.165354 
vn -0.897638 -0.393701 0.188976 
vn 0.0708661 -0.677165 -0.732283 
vn 0.0944882 -0.251969 -0.96063 
vn 0.393701 -0.80315 -0.440945 
vn 0.299213 -0.314961 -0.897638 
vn 0.275591 -0.629921 -0.724409 
vn 0.425197 -0.393701 -0.811024 
vn 0.488189 -0.692913 -0.535433 
vn 0.511811 -0.448819 -0.732283 
vn 0.889764 0.267717 -0.370079 
vn 0.543307 -0.590551 -0.598425 
vn 0.724409 -0.685039 0.0944882 
vn 0.88189 -0.338583 -0.330709 
vn 0.905512 -0.015748 0.425197 
vn 0.629921 -0.456693 -0.622047 
vn -0.543307 -0.0314961 -0.834646 
vn -0.755906 -0.519685 -0.393701 
vn -0.362205 -0.929134 0.00787402 
vn -0.614173 0.015748 -0.787402 
vn -0.433071 -0.897638 0.0708661 
vn -0.732283 -0.535433 -0.417323 
vn -0.220472 -0.976378 -0.00787402 
vn -0.409449 -0.015748 -0.913386 
vn 0.110236 -0.984252 -0.110236 
vn -0.0787402 -0.0472441 -0.992126 
vn 0.0708661 -0.992126 -0.0944882 
vn -0.15748 -0.692913 -0.700787 
vn -0.110236 -0.692913 -0.716535 
vn -0.125984 -0.0393701 -0.992126 
vn -0.0393701 -1 -0.0629921 
vn -0.283465 -0.685039 -0.669291 
vn -0.228346 -0.0314961 -0.976378 
vn -0.503937 -0.645669 -0.574803 
vn 0.653543 -0.330709 -0.685039 
vn -0.023622 -0.19685 -0.976378 
vn -0.015748 -0.204724 -0.976378 
vn -0.677165 0.0314961 -0.740157 
vn 0.677165 -0.503937 -0.535433 
vn 0.0708661 -0.23622 -0.968504 
vn -0.661417 0.0787402 -0.740157 
vn -0.543307 0.19685 -0.818898 
vn 0.11811 -0.275591 -0.952756 
vn 0.149606 -0.275591 -0.952756 
vn 0.141732 -0.291339 -0.944882 
vn 0.480315 -0.76378 -0.440945 

vt 42.0354 -26.8251 
vt 41.776 -26.8249 
vt 42.0326 -26.8827 
vt 41.7734 -26.8815 
vt 41.78 -26.7676 
vt 42.0282 -26.9434 
vt 41.5745 -26.8249 
vt 42.2679 -26.9506 
vt 41.5811 -26.7676 
vt 41.7709 -26.9396 
vt 41.5728 -26.8813 
vt 41.572 -26.939 
vt 41.7801 -27.0065 
vt 41.576 -27.0055 
vt 42.042 -27.0207 
vt 41.5879 -27.087 
vt 41.8093 -27.0873 
vt 41.5995 -27.1801 
vt 41.8445 -27.1801 
vt 41.5972 -26.7095 
vt 41.6204 -26.6559 
vt 41.7893 -26.7095 
vt 41.6473 -26.6111 
vt 41.8026 -26.6559 
vt 42.2475 -27.1377 
vt 42.2882 -27.1234 
vt 42.3154 -27.1684 
vt 42.2979 -27.2005 
vt 42.2667 -27.2382 
vt 42.3418 -27.2376 
vt 42.3199 -27.2892 
vt 42.0101 -27.2148 
vt 42.0475 -27.1634 
vt 42.0358 -26.7676 
vt 42.0358 -26.7095 
vt 42.0358 -26.6559 
vt 41.8181 -26.6111 
vt 42.0358 -26.6111 
vt 41.8361 -26.572 
vt 42.4315 -27.0226 
vt 42.438 -26.9578 
vt 42.4404 -26.8883 
vt 42.4401 -26.8258 
vt 42.4337 -26.7676 
vt 42.2737 -26.8254 
vt 42.2723 -26.8855 
vt 42.2703 -26.7676 
vt 42.2657 -27.0178 
vt 42.4176 -26.7095 
vt 42.261 -26.7095 
vt 42.3944 -26.6559 
vt 42.2477 -26.6559 
vt 42.3675 -26.6111 
vt 42.2322 -26.6111 
vt 42.2142 -26.572 
vt 42.0358 -26.572 
vt 42.1924 -26.5348 
vt 42.0358 -26.5348 
vt 42.4184 -27.0716 
vt 42.27 -27.0821 
vt 42.2736 -27.1384 
vt 42.119 -27.0936 
vt 42.1472 -27.167 
vt 42.1833 -27.2172 
vt 42.0335 -27.0891 
vt 42.0895 -27.1801 
vt 41.6033 -27.2781 
vt 41.86 -27.2781 
vt 41.6068 -27.372 
vt 42.1167 -27.2781 
vt 41.8616 -27.372 
vt 41.6184 -27.4548 
vt 41.6354 -27.5307 
vt 41.8612 -27.4548 
vt 41.8612 -27.5307 
vt 42.0869 -27.5307 
vt 42.1041 -27.4548 
vt 42.1163 -27.372 
vt 41.9525 -27.5542 
vt 42.0118 -27.4719 
vt 42.0245 -27.3548 
vt 42.1486 -27.4498 
vt 42.0835 -27.3565 
vt 41.9782 -27.2627 
vt 42.0322 -27.2633 
vt 41.9036 -27.2499 
vt 42.1348 -27.3479 
vt 42.0775 -27.2503 
vt 42.2043 -27.4149 
vt 42.1735 -27.323 
vt 42.2506 -27.3721 
vt 42.1088 -27.2169 
vt 42.2046 -27.2924 
vt 42.1346 -27.183 
vt 42.2888 -27.332 
vt 42.235 -27.2666 
vt 42.0804 -27.115 
vt 42.1651 -27.1671 
vt 42.2033 -27.1566 
vt 41.7826 -27.2493 
vt 41.7729 -27.13 
vt 41.7064 -27.1643 
vt 41.8563 -26.9491 
vt 41.7652 -27.0358 
vt 41.8531 -27.0358 
vt 41.9568 -26.9575 
vt 41.8563 -27.1025 
vt 41.8279 -27.1899 
vt 41.9568 -27.2785 
vt 41.9568 -27.3349 
vt 42.131 -27.2493 
vt 41.9568 -27.0358 
vt 41.9568 -27.0935 
vt 42.0605 -27.0358 
vt 42.0574 -26.9491 
vt 42.1485 -27.0358 
vt 42.0574 -27.1025 
vt 42.1408 -27.13 
vt 41.8725 -27.1454 
vt 41.9568 -27.1448 
vt 41.9568 -27.2089 
vt 42.0411 -27.1454 
vt 42.0858 -27.1899 
vt 41.6452 -26.5745 
vt 41.9568 -26.5286 
vt 42.2161 -26.6473 
vt 41.9568 -26.5862 
vt 41.6976 -26.6473 
vt 42.3227 -27.2159 
vt 42.3812 -27.2756 
vt 42.4104 -27.226 
vt 42.4351 -27.0769 
vt 42.499 -27.1207 
vt 42.3266 -27.2587 
vt 42.2504 -27.2475 
vt 42.4283 -27.294 
vt 42.4679 -27.2665 
vt 42.4997 -27.2238 
vt 42.4102 -27.3311 
vt 42.3467 -27.3186 
vt 42.2871 -27.2882 
vt 42.2341 -27.2979 
vt 42.2973 -27.3418 
vt 42.3017 -26.9069 
vt 42.37 -26.9694 
vt 42.2938 -27.0101 
vt 42.3177 -27.0475 
vt 41.5841 -26.8181 
vt 41.7201 -26.6786 
vt 41.6165 -26.8361 
vt 41.7474 -26.7165 
vt 41.9568 -26.6221 
vt 42.1936 -26.6786 
vt 42.3296 -26.8181 
vt 42.1663 -26.7165 
vt 41.9568 -26.6657 
vt 42.2972 -26.8361 
vt 42.3296 -27.2322 
vt 42.3814 -27.261 
vt 42.2522 -27.4176 
vt 42.2161 -27.3675 
vt 41.5323 -27.261 
vt 41.6976 -27.3675 
vt 41.5841 -27.2322 
vt 41.9568 -27.4144 
vt 41.7201 -27.3362 
vt 41.6165 -27.2142 
vt 41.6017 -27.0358 
vt 42.1936 -27.3362 
vt 41.9568 -27.3784 
vt 41.7474 -27.2983 
vt 41.6557 -27.1924 
vt 42.2972 -27.2142 
vt 42.1663 -27.2983 
vt 42.312 -27.0358 
vt 42.258 -27.1924 
vt 42.258 -26.8579 
vt 42.2711 -27.0358 
vt 42.2072 -27.1643 
vt 42.131 -26.7655 
vt 42.2072 -26.886 
vt 42.2181 -27.0358 
vt 42.1408 -26.9206 
vt 42.0858 -26.8265 
vt 42.0411 -26.8789 
vt 41.9568 -26.7221 
vt 41.9568 -26.7938 
vt 41.9568 -26.8733 
vt 41.7826 -26.7655 
vt 41.8279 -26.8265 
vt 41.8725 -26.8789 
vt 41.6557 -26.8579 
vt 41.7064 -26.886 
vt 41.6426 -27.0358 
vt 41.7729 -26.9206 
vt 41.6956 -27.0358 
vt 41.9568 -27.0638 
vt 41.6436 -27.0335 
vt 41.9568 -27.1133 
vt 42.2701 -27.0335 
vt 42.2192 -26.8409 
vt 42.0413 -27.0245 
vt 42.1048 -27.0835 
vt 42.1186 -26.9782 
vt 42.1672 -27.0322 
vt 42.1935 -26.9036 
vt 42.1555 -27.1348 
vt 42.2496 -26.9606 
vt 42.2045 -27.0775 
vt 42.1843 -27.1735 
vt 42.2225 -27.1088 
vt 42.2272 -27.1346 
vt 42.326 -27.0804 
vt 42.3265 -27.1181 
vt 42.2278 -27.1651 
vt 42.2329 -27.2033 
vt 42.3239 -27.1636 
vt 42.4314 -27.1738 
vt 42.4404 -27.1248 
vt 42.3548 -26.8249 
vt 42.3501 -26.7676 
vt 42.3555 -26.8813 
vt 42.0432 -26.8249 
vt 42.0432 -26.8813 
vt 42.3554 -26.939 
vt 42.3539 -27.0055 
vt 42.3496 -27.087 
vt 42.0432 -26.939 
vt 42.0432 -27.0054 
vt 42.0432 -27.087 
vt 42.3422 -27.1801 
vt 41.7367 -27.087 
vt 41.7324 -27.0055 
vt 41.7309 -26.939 
vt 41.7308 -26.8813 
vt 41.7315 -26.8249 
vt 41.7362 -26.7676 
vt 42.0432 -26.7676 
vt 41.7478 -26.7095 
vt 42.3385 -26.7095 
vt 42.0432 -26.7095 
vt 41.7645 -26.6559 
vt 41.7839 -26.6111 
vt 42.0432 -26.6559 
vt 42.3218 -26.6559 
vt 42.0432 -26.6111 
vt 42.3024 -26.6111 
vt 41.5649 -27.1459 
vt 41.501 -27.2385 
vt 41.5378 -27.3151 
vt 41.6563 -27.4513 
vt 41.6037 -27.3894 
vt 41.6996 -27.4394 
vt 41.6983 -27.3203 
vt 41.63 -27.2788 
vt 41.7062 -27.2148 
vt 41.5865 -27.2115 
vt 41.6823 -27.1634 
vt 42.4159 -26.6111 
vt 42.2799 -26.572 
vt 42.0432 -26.572 
vt 41.8064 -26.572 
vt 42.0432 -26.5348 
vt 41.869 -26.5007 
vt 42.3727 -27.1384 
vt 42.3276 -27.0936 
vt 42.2837 -27.167 
vt 42.2324 -27.2172 
vt 41.9133 -27.2328 
vt 42.0432 -27.2314 
vt 41.8539 -27.2172 
vt 42.0432 -27.1778 
vt 41.8027 -27.167 
vt 42.0432 -27.1005 
vt 41.7587 -27.0936 
vt 42.0432 -27.0518 
vt 41.7441 -27.1801 
vt 42.0432 -27.1801 
vt 41.7547 -27.2781 
vt 42.3316 -27.2781 
vt 42.0432 -27.2781 
vt 41.7686 -27.372 
vt 42.3177 -27.372 
vt 42.0432 -27.372 
vt 41.7856 -27.4548 
vt 42.3007 -27.4548 
vt 42.0432 -27.4548 
vt 41.8043 -27.5307 
vt 42.0432 -27.5307 
vt 42.282 -27.5307 
vt 41.7808 -27.3443 
vt 41.8123 -27.4736 
vt 41.9658 -27.5542 
vt 41.8065 -27.2499 
vt 41.7504 -27.241 
vt 41.674 -27.115 
vt 42.4121 -27.087 
vt 42.424 -27.0055 
vt 42.428 -26.939 
vt 42.2199 -27.0065 
vt 42.2291 -26.9396 
vt 42.4272 -26.8813 
vt 42.4255 -26.8249 
vt 42.2266 -26.8815 
vt 41.9718 -26.9434 
vt 42.224 -26.8249 
vt 41.9674 -26.8827 
vt 42.4189 -26.7676 
vt 41.9646 -26.8251 
vt 42.22 -26.7676 
vt 42.4028 -26.7095 
vt 42.2107 -26.7095 
vt 42.3796 -26.6559 
vt 41.9642 -26.7676 
vt 42.1974 -26.6559 
vt 41.9642 -26.7095 
vt 42.3527 -26.6111 
vt 41.9231 -27.1459 
vt 41.8237 -27.1826 
vt 41.8793 -27.2385 
vt 41.7335 -27.1177 
vt 41.7762 -27.1442 
vt 41.6797 -27.1809 
vt 41.6582 -27.2376 
vt 41.7096 -27.2246 
vt 41.6668 -27.2864 
vt 41.702 -27.3366 
vt 41.7515 -27.2742 
vt 41.8071 -27.335 
vt 41.9472 -27.3151 
vt 41.8786 -27.4095 
vt 41.8135 -27.4513 
vt 41.9595 -27.4784 
vt 42.0224 -27.3894 
vt 42.0988 -27.4394 
vt 42.0306 -27.2788 
vt 41.9742 -27.2115 
vt 42.1819 -26.6111 
vt 41.9642 -26.6559 
vt 42.1639 -26.572 
vt 41.9642 -26.6111 
vt 41.7523 -26.6559 
vt 41.7678 -26.6111 
vt 41.739 -26.7095 
vt 41.7297 -26.7676 
vt 41.6056 -26.6559 
vt 41.5824 -26.7095 
vt 41.6325 -26.6111 
vt 41.7263 -26.8254 
vt 41.5663 -26.7676 
vt 41.5599 -26.8258 
vt 41.7277 -26.8855 
vt 41.5596 -26.8883 
vt 41.7321 -26.9506 
vt 41.562 -26.9578 
vt 41.958 -27.0207 
vt 41.5685 -27.0226 
vt 41.7343 -27.0178 
vt 41.5816 -27.0716 
vt 41.7858 -26.572 
vt 41.9642 -26.572 
vt 41.8076 -26.5348 
vt 41.9642 -26.5348 
vt 42.2345 -26.5007 
vt 41.7264 -27.1384 
vt 41.8528 -27.167 
vt 41.73 -27.0821 
vt 41.881 -27.0936 
vt 41.9665 -27.0891 
vt 41.9105 -27.1801 
vt 42.1907 -27.0873 
vt 42.1555 -27.1801 
vt 42.4005 -27.1801 
vt 42.3967 -27.2781 
vt 42.14 -27.2781 
vt 41.8833 -27.2781 
vt 42.3932 -27.372 
vt 42.1384 -27.372 
vt 42.3816 -27.4548 
vt 42.3646 -27.5307 
vt 42.1388 -27.4548 
vt 42.1388 -27.5307 
vt 41.9131 -27.5307 
vt 41.8959 -27.4548 
vt 41.8837 -27.372 
vt 42.1752 -27.4736 
vt 41.8865 -27.5051 
vt 41.7509 -27.3901 
vt 41.8262 -27.092 
vt 41.8752 -27.1094 
vt 42.503 -27.0282 
vt 42.4826 -27.2679 
vt 42.4804 -26.7801 
vt 42.4183 -27.042 
vt 41.6059 -26.7801 
vt 41.5833 -27.0282 
vt 41.6088 -27.3536 
vt 41.5954 -27.298 
vt 41.506 -27.2485 
vt 41.5228 -27.1929 
vt 41.5686 -27.1214 
vt 41.6563 -27.1865 
vt 41.6474 -27.0405 
vt 41.6037 -26.9776 
vt 41.6996 -26.9012 
vt 41.6037 -27.2679 
vt 41.668 -27.042 
vt 41.6257 -27.2657 
vt 41.7714 -27.4184 
vt 42.4606 -27.2657 
vt 42.0432 -27.4735 
vt 42.3149 -27.4184 
vt 41.8043 -27.4 
vt 42.282 -27.4 
vt 42.3727 -27.2736 
vt 42.3276 -27.119 
vt 42.2837 -27.1472 
vt 42.0432 -27.4474 
vt 42.3022 -27.2802 
vt 42.2322 -27.3769 
vt 41.8541 -27.3769 
vt 42.0432 -27.4126 
vt 42.1731 -27.3504 
vt 42.0432 -27.3622 
vt 42.1956 -27.2868 
vt 42.2324 -27.1833 
vt 42.0432 -27.2892 
vt 41.9133 -27.3504 
vt 42.1731 -27.2208 
vt 41.8907 -27.2868 
vt 41.7841 -27.2802 
vt 42.0432 -27.2113 
vt 41.7136 -27.2736 
vt 41.9133 -27.2208 
vt 42.0432 -27.1478 
vt 41.8539 -27.1833 
vt 41.8027 -27.1472 
vt 41.7587 -27.119 
vt 42.0432 -27.0638 
vt 41.8123 -26.8248 
vt 41.7595 -26.9576 
vt 41.8902 -26.8745 
vt 41.8394 -27.0345 
vt 41.9658 -26.9525 
vt 41.894 -27.083 
vt 41.7314 -27.1135 
vt 41.8129 -27.1486 
vt 41.7596 -27.2043 
vt 41.6128 -27.2491 
vt 41.7729 -26.4721 
vt 41.9568 -26.5007 
vt 41.497 -26.9434 
vt 41.5817 -27.0207 
vt 42.3812 -27.0889 
vt 42.4283 -27.1098 
vt 42.4679 -27.1177 
vt 42.4102 -27.1475 
vt 42.3467 -27.127 
vt 42.2871 -27.1234 
vt 42.4573 -27.1809 
vt 42.3755 -27.1898 
vt 42.3161 -27.182 
vt 42.2678 -27.1684 
vt 42.2341 -27.2005 
vt 42.211 -27.2382 
vt 42.2973 -27.2376 
vt 42.2876 -27.2892 
vt 42.3912 -27.2332 
vt 42.4861 -27.2246 
vt 42.4034 -27.2864 
vt 42.4046 -27.3366 
vt 42.494 -27.2742 
vt 42.3437 -27.4513 
vt 42.2355 -26.6559 
vt 42.2522 -26.7095 
vt 42.2161 -26.6111 
vt 42.2638 -26.7676 
vt 42.2682 -26.8258 
vt 42.2667 -26.8883 
vt 41.9568 -26.8259 
vt 41.9568 -26.7676 
vt 42.3963 -26.9506 
vt 42.2608 -26.9578 
vt 41.9568 -26.8893 
vt 42.332 -27.0207 
vt 42.249 -27.0226 
vt 41.9568 -26.9605 
vt 41.9568 -27.0245 
vt 42.2286 -27.0716 
vt 41.6647 -27.0226 
vt 41.6529 -26.9578 
vt 41.647 -26.8883 
vt 41.6455 -26.8258 
vt 41.6499 -26.7676 
vt 41.6615 -26.7095 
vt 41.5323 -26.7095 
vt 41.9568 -26.7095 
vt 41.6782 -26.6559 
vt 41.9568 -26.6559 
vt 41.6976 -26.6111 
vt 41.9568 -26.6111 
vt 41.7201 -26.572 
vt 42.1936 -26.572 
vt 41.9568 -26.572 
vt 42.1663 -26.5348 
vt 41.9568 -27.0677 
vt 41.6851 -27.0716 
vt 42.1957 -27.1097 
vt 41.718 -27.1097 
vt 41.9568 -27.0989 
vt 41.7678 -27.1442 
vt 42.1459 -27.1442 
vt 41.8269 -27.172 
vt 41.7676 -27.2172 
vt 42.0867 -27.172 
vt 42.2864 -27.1384 
vt 42.0867 -27.2328 
vt 42.2413 -27.0936 
vt 41.9568 -27.0518 
vt 41.6436 -27.0891 
vt 41.9568 -27.092 
vt 42.2701 -27.0891 
vt 41.6578 -27.1801 
vt 42.2559 -27.1801 
vt 41.9568 -27.1801 
vt 42.2453 -27.2781 
vt 41.6684 -27.2781 
vt 42.1957 -27.5307 
vt 41.718 -27.5307 
vt 42.2144 -27.4548 
vt 41.9568 -27.4548 
vt 41.9568 -27.5307 
vt 41.6993 -27.4548 
vt 42.2314 -27.372 
vt 41.9568 -27.372 
vt 41.6823 -27.372 
vt 41.9568 -27.2781 
vt 42.0342 -27.5542 
vt 42.106 -27.4665 
vt 42.0091 -27.4719 
vt 42.0413 -27.3548 
vt 42.2686 -27.5051 
vt 42.1871 -27.4498 
vt 42.1048 -27.3565 
vt 42.1555 -27.3479 
vt 42.2404 -27.4149 
vt 42.2692 -27.3721 
vt 42.2815 -27.332 
vt 42.3872 -27.3901 

usemtl Meshpart1Mtl

f 1/1/1 2/2/2 3/3/3 
f 3/3/3 2/2/2 4/4/4 
f 1/1/1 5/5/5 2/2/2 
f 4/4/4 6/6/6 3/3/3 
f 2/2/2 7/7/7 4/4/4 
f 8/8/8 3/3/3 6/6/6 
f 5/5/5 9/9/9 2/2/2 
f 2/2/2 9/9/9 7/7/7 
f 6/6/6 4/4/4 10/10/10 
f 4/4/4 7/7/7 11/11/11 
f 11/11/11 10/10/10 4/4/4 
f 10/10/10 11/11/11 12/12/12 
f 6/6/6 10/10/10 13/13/13 
f 10/10/10 12/12/12 14/14/14 
f 14/14/14 13/13/13 10/10/10 
f 13/13/13 14/14/14 16/16/16 
f 16/16/16 17/17/17 13/13/13 
f 15/15/15 13/13/13 17/17/17 
f 17/17/17 16/16/16 18/18/18 
f 18/18/18 19/19/19 17/17/17 
f 5/5/5 20/20/20 9/9/9 
f 22/22/22 21/21/21 20/20/20 
f 20/20/20 5/5/5 22/22/22 
f 21/21/21 22/22/22 24/24/24 
f 24/24/24 23/23/23 21/21/21 
f 26/26/26 25/25/25 27/27/27 
f 25/25/25 28/28/28 27/27/27 
f 25/25/25 29/29/29 28/28/28 
f 34/34/34 22/22/22 5/5/5 
f 35/35/35 24/24/24 22/22/22 
f 22/22/22 34/34/34 35/35/35 
f 34/34/34 5/5/5 1/1/1 
f 24/24/24 35/35/35 36/36/36 
f 23/23/23 24/24/24 37/37/37 
f 36/36/36 37/37/37 24/24/24 
f 37/37/37 36/36/36 38/38/38 
f 38/38/38 39/39/39 37/37/37 
f 45/45/45 42/42/42 43/43/43 
f 44/44/44 45/45/45 43/43/43 
f 46/46/46 41/41/41 42/42/42 
f 42/42/42 45/45/45 46/46/46 
f 41/41/41 46/46/46 8/8/8 
f 8/8/8 40/40/40 41/41/41 
f 3/3/3 8/8/8 46/46/46 
f 46/46/46 1/1/1 3/3/3 
f 45/45/45 1/1/1 46/46/46 
f 47/47/47 1/1/1 45/45/45 
f 45/45/45 44/44/44 47/47/47 
f 1/1/1 47/47/47 34/34/34 
f 40/40/40 8/8/8 48/48/48 
f 49/49/49 47/47/47 44/44/44 
f 50/50/50 34/34/34 47/47/47 
f 47/47/47 49/49/49 50/50/50 
f 34/34/34 50/50/50 35/35/35 
f 51/51/51 50/50/50 49/49/49 
f 50/50/50 51/51/51 52/52/52 
f 52/52/52 35/35/35 50/50/50 
f 35/35/35 52/52/52 36/36/36 
f 53/53/53 52/52/52 51/51/51 
f 54/54/54 36/36/36 52/52/52 
f 53/53/53 54/54/54 52/52/52 
f 36/36/36 54/54/54 38/38/38 
f 55/55/55 38/38/38 54/54/54 
f 38/38/38 55/55/55 56/56/56 
f 39/39/39 38/38/38 56/56/56 
f 48/48/48 59/59/59 40/40/40 
f 59/59/59 48/48/48 60/60/60 
f 59/59/59 60/60/60 61/61/61 
f 48/48/48 62/62/62 60/60/60 
f 60/60/60 63/63/63 61/61/61 
f 60/60/60 62/62/62 63/63/63 
f 15/15/15 48/48/48 8/8/8 
f 17/17/17 65/65/65 15/15/15 
f 65/65/65 17/17/17 19/19/19 
f 19/19/19 66/66/66 65/65/65 
f 19/19/19 18/18/18 67/67/67 
f 67/67/67 68/68/68 19/19/19 
f 66/66/66 19/19/19 68/68/68 
f 68/68/68 67/67/67 69/69/69 
f 68/68/68 70/70/70 66/66/66 
f 69/69/69 71/71/71 68/68/68 
f 70/70/70 68/68/68 71/71/71 
f 71/71/71 69/69/69 72/72/72 
f 74/74/74 72/72/72 73/73/73 
f 72/72/72 74/74/74 71/71/71 
f 73/73/73 75/75/75 74/74/74 
f 76/76/76 74/74/74 75/75/75 
f 74/74/74 76/76/76 77/77/77 
f 77/77/77 71/71/71 74/74/74 
f 71/71/71 77/77/77 78/78/78 
f 71/71/71 78/78/78 70/70/70 
f 85/85/85 83/83/83 88/88/88 
f 87/87/87 88/88/88 83/83/83 
f 87/87/87 89/89/89 90/90/90 
f 88/88/88 87/87/87 90/90/90 
f 90/90/90 89/89/89 91/91/91 
f 90/90/90 92/92/92 88/88/88 
f 92/92/92 90/90/90 93/93/93 
f 91/91/91 93/93/93 90/90/90 
f 93/93/93 94/94/94 92/92/92 
f 33/33/33 92/92/92 94/94/94 
f 93/93/93 91/91/91 95/95/95 
f 93/93/93 95/95/95 96/96/96 
f 94/94/94 93/93/93 96/96/96 
f 33/33/33 94/94/94 97/97/97 
f 96/96/96 95/95/95 31/31/31 
f 96/96/96 98/98/98 94/94/94 
f 96/96/96 31/31/31 29/29/29 
f 96/96/96 99/99/99 98/98/98 
f 99/99/99 96/96/96 29/29/29 
f 29/29/29 25/25/25 99/99/99 
f 100/100/100 101/101/101 102/102/102 
f 103/103/103 104/104/104 105/105/105 
f 105/105/105 106/106/106 103/103/103 
f 107/107/107 104/104/104 101/101/101 
f 104/104/104 107/107/107 105/105/105 
f 101/101/101 100/100/100 108/108/108 
f 108/108/108 107/107/107 101/101/101 
f 109/109/109 108/108/108 100/100/100 
f 100/100/100 110/110/110 109/109/109 
f 110/110/110 111/111/111 109/109/109 
f 105/105/105 112/112/112 106/106/106 
f 113/113/113 105/105/105 107/107/107 
f 105/105/105 113/113/113 112/112/112 
f 114/114/114 106/106/106 112/112/112 
f 113/113/113 114/114/114 112/112/112 
f 106/106/106 114/114/114 115/115/115 
f 114/114/114 116/116/116 115/115/115 
f 117/117/117 116/116/116 114/114/114 
f 113/113/113 117/117/117 114/114/114 
f 116/116/116 117/117/117 118/118/118 
f 113/113/113 107/107/107 119/119/119 
f 107/107/107 108/108/108 119/119/119 
f 119/119/119 120/120/120 113/113/113 
f 121/121/121 119/119/119 108/108/108 
f 119/119/119 121/121/121 120/120/120 
f 108/108/108 109/109/109 121/121/121 
f 122/122/122 113/113/113 120/120/120 
f 113/113/113 122/122/122 117/117/117 
f 121/121/121 122/122/122 120/120/120 
f 123/123/123 117/117/117 122/122/122 
f 122/122/122 121/121/121 123/123/123 
f 109/109/109 123/123/123 121/121/121 
f 123/123/123 118/118/118 117/117/117 
f 123/123/123 109/109/109 111/111/111 
f 111/111/111 118/118/118 123/123/123 
f 129/129/129 130/130/130 131/131/131 
f 130/130/130 129/129/129 134/134/134 
f 135/135/135 134/134/134 129/129/129 
f 136/136/136 131/131/131 130/130/130 
f 131/131/131 136/136/136 137/137/137 
f 138/138/138 131/131/131 137/137/137 
f 134/134/134 140/140/140 130/130/130 
f 139/139/139 130/130/130 140/140/140 
f 134/134/134 135/135/135 141/141/141 
f 140/140/140 134/134/134 141/141/141 
f 145/145/145 144/144/144 146/146/146 
f 148/148/148 149/149/149 128/128/128 
f 149/149/149 148/148/148 150/150/150 
f 150/150/150 151/151/151 149/149/149 
f 152/152/152 149/149/149 151/151/151 
f 153/153/153 154/154/154 126/126/126 
f 152/152/152 155/155/155 153/153/153 
f 151/151/151 156/156/156 152/152/152 
f 155/155/155 152/152/152 156/156/156 
f 154/154/154 153/153/153 157/157/157 
f 155/155/155 157/157/157 153/153/153 
f 164/164/164 163/163/163 166/166/166 
f 166/166/166 167/167/167 164/164/164 
f 158/158/158 169/169/169 161/161/161 
f 167/167/167 166/166/166 171/171/171 
f 170/170/170 171/171/171 166/166/166 
f 171/171/171 172/172/172 167/167/167 
f 172/172/172 168/168/168 167/167/167 
f 169/169/169 158/158/158 173/173/173 
f 174/174/174 170/170/170 169/169/169 
f 173/173/173 174/174/174 169/169/169 
f 171/171/171 170/170/170 110/110/110 
f 170/170/170 174/174/174 110/110/110 
f 172/172/172 171/171/171 100/100/100 
f 110/110/110 100/100/100 171/171/171 
f 174/174/174 173/173/173 176/176/176 
f 175/175/175 176/176/176 173/173/173 
f 111/111/111 110/110/110 174/174/174 
f 176/176/176 111/111/111 174/174/174 
f 175/175/175 157/157/157 177/177/177 
f 157/157/157 155/155/155 177/177/177 
f 176/176/176 175/175/175 178/178/178 
f 177/177/177 178/178/178 175/175/175 
f 178/178/178 179/179/179 176/176/176 
f 111/111/111 176/176/176 179/179/179 
f 180/180/180 177/177/177 155/155/155 
f 156/156/156 180/180/180 155/155/155 
f 178/178/178 177/177/177 181/181/181 
f 177/177/177 180/180/180 181/181/181 
f 179/179/179 178/178/178 182/182/182 
f 181/181/181 182/182/182 178/178/178 
f 118/118/118 111/111/111 179/179/179 
f 182/182/182 118/118/118 179/179/179 
f 182/182/182 181/181/181 183/183/183 
f 118/118/118 182/182/182 116/116/116 
f 116/116/116 182/182/182 183/183/183 
f 181/181/181 184/184/184 183/183/183 
f 184/184/184 181/181/181 180/180/180 
f 116/116/116 183/183/183 115/115/115 
f 185/185/185 183/183/183 184/184/184 
f 183/183/183 185/185/185 115/115/115 
f 186/186/186 184/184/184 180/180/180 
f 180/180/180 156/156/156 186/186/186 
f 187/187/187 185/185/185 184/184/184 
f 184/184/184 186/186/186 187/187/187 
f 185/185/185 187/187/187 188/188/188 
f 189/189/189 186/186/186 156/156/156 
f 156/156/156 151/151/151 189/189/189 
f 190/190/190 187/187/187 186/186/186 
f 186/186/186 189/189/189 190/190/190 
f 191/191/191 188/188/188 187/187/187 
f 187/187/187 190/190/190 191/191/191 
f 106/106/106 185/185/185 188/188/188 
f 191/191/191 106/106/106 188/188/188 
f 106/106/106 115/115/115 185/185/185 
f 192/192/192 189/189/189 151/151/151 
f 151/151/151 150/150/150 192/192/192 
f 168/168/168 192/192/192 150/150/150 
f 189/189/189 192/192/192 193/193/193 
f 193/193/193 190/190/190 189/189/189 
f 192/192/192 168/168/168 194/194/194 
f 194/194/194 193/193/193 192/192/192 
f 168/168/168 172/172/172 194/194/194 
f 190/190/190 193/193/193 195/195/195 
f 195/195/195 191/191/191 190/190/190 
f 193/193/193 194/194/194 196/196/196 
f 196/196/196 195/195/195 193/193/193 
f 102/102/102 194/194/194 172/172/172 
f 194/194/194 102/102/102 196/196/196 
f 100/100/100 102/102/102 172/172/172 
f 191/191/191 195/195/195 103/103/103 
f 106/106/106 191/191/191 103/103/103 
f 195/195/195 196/196/196 104/104/104 
f 104/104/104 103/103/103 195/195/195 
f 101/101/101 196/196/196 102/102/102 
f 196/196/196 101/101/101 104/104/104 
f 197/197/197 198/198/198 199/199/199 
f 200/200/200 197/197/197 199/199/199 
f 203/203/203 204/204/204 202/202/202 
f 204/204/204 203/203/203 205/205/205 
f 205/205/205 206/206/206 204/204/204 
f 206/206/206 205/205/205 208/208/208 
f 209/209/209 208/208/208 205/205/205 
f 208/208/208 144/144/144 201/201/201 
f 208/208/208 209/209/209 146/146/146 
f 144/144/144 208/208/208 146/146/146 
f 209/209/209 147/147/147 146/146/146 
f 147/147/147 209/209/209 211/211/211 
f 212/212/212 214/214/214 213/213/213 
f 214/214/214 132/132/132 213/213/213 
f 214/214/214 212/212/212 215/215/215 
f 217/217/217 215/215/215 216/216/216 
f 215/215/215 217/217/217 214/214/214 
f 216/216/216 129/129/129 217/217/217 
f 129/129/129 216/216/216 135/135/135 
f 131/131/131 217/217/217 129/129/129 
f 218/218/218 214/214/214 217/217/217 
f 217/217/217 131/131/131 218/218/218 
f 214/214/214 218/218/218 219/219/219 
f 214/214/214 219/219/219 132/132/132 
f 131/131/131 138/138/138 218/218/218 
f 221/221/221 223/223/223 220/220/220 
f 220/220/220 224/224/224 222/222/222 
f 224/224/224 220/220/220 223/223/223 
f 224/224/224 225/225/225 222/222/222 
f 228/228/228 226/226/226 225/225/225 
f 225/225/225 224/224/224 228/228/228 
f 226/226/226 228/228/228 229/229/229 
f 229/229/229 227/227/227 226/226/226 
f 227/227/227 229/229/229 230/230/230 
f 230/230/230 231/231/231 227/227/227 
f 232/232/232 230/230/230 229/229/229 
f 233/233/233 229/229/229 228/228/228 
f 232/232/232 229/229/229 233/233/233 
f 233/233/233 228/228/228 234/234/234 
f 234/234/234 228/228/228 224/224/224 
f 234/234/234 224/224/224 235/235/235 
f 235/235/235 224/224/224 236/236/236 
f 223/223/223 236/236/236 224/224/224 
f 236/236/236 223/223/223 237/237/237 
f 238/238/238 237/237/237 223/223/223 
f 223/223/223 221/221/221 238/238/238 
f 238/238/238 239/239/239 237/237/237 
f 238/238/238 221/221/221 240/240/240 
f 239/239/239 238/238/238 241/241/241 
f 238/238/238 240/240/240 241/241/241 
f 241/241/241 242/242/242 239/239/239 
f 242/242/242 241/241/241 244/244/244 
f 244/244/244 243/243/243 242/242/242 
f 241/241/241 245/245/245 244/244/244 
f 241/241/241 240/240/240 245/245/245 
f 243/243/243 244/244/244 246/246/246 
f 247/247/247 244/244/244 245/245/245 
f 244/244/244 247/247/247 246/246/246 
f 254/254/254 252/252/252 253/253/253 
f 252/252/252 254/254/254 255/255/255 
f 255/255/255 250/250/250 252/252/252 
f 250/250/250 255/255/255 257/257/257 
f 256/256/256 257/257/257 255/255/255 
f 257/257/257 256/256/256 258/258/258 
f 258/258/258 248/248/248 257/257/257 
f 246/246/246 247/247/247 260/260/260 
f 246/246/246 260/260/260 261/261/261 
f 262/262/262 246/246/246 261/261/261 
f 246/246/246 262/262/262 243/243/243 
f 268/268/268 272/272/272 270/270/270 
f 271/271/271 270/270/270 272/272/272 
f 272/272/272 268/268/268 267/267/267 
f 272/272/272 273/273/273 271/271/271 
f 267/267/267 274/274/274 272/272/272 
f 273/273/273 272/272/272 274/274/274 
f 274/274/274 267/267/267 266/266/266 
f 274/274/274 275/275/275 273/273/273 
f 266/266/266 276/276/276 274/274/274 
f 275/275/275 274/274/274 276/276/276 
f 277/277/277 230/230/230 232/232/232 
f 277/277/277 278/278/278 230/230/230 
f 231/231/231 230/230/230 278/278/278 
f 279/279/279 278/278/278 277/277/277 
f 278/278/278 280/280/280 231/231/231 
f 279/279/279 281/281/281 278/278/278 
f 280/280/280 278/278/278 281/281/281 
f 282/282/282 281/281/281 279/279/279 
f 281/281/281 283/283/283 280/280/280 
f 282/282/282 284/284/284 281/281/281 
f 283/283/283 281/281/281 284/284/284 
f 285/285/285 284/284/284 282/282/282 
f 284/284/284 286/286/286 283/283/283 
f 285/285/285 287/287/287 284/284/284 
f 286/286/286 284/284/284 287/287/287 
f 287/287/287 285/285/285 288/288/288 
f 288/288/288 289/289/289 287/287/287 
f 290/290/290 287/287/287 289/289/289 
f 287/287/287 290/290/290 286/286/286 
f 253/253/253 291/291/291 254/254/254 
f 291/291/291 253/253/253 292/292/292 
f 291/291/291 294/294/294 295/295/295 
f 248/248/248 258/258/258 296/296/296 
f 300/300/300 297/297/297 298/298/298 
f 301/301/301 298/298/298 299/299/299 
f 298/298/298 301/301/301 300/300/300 
f 302/302/302 301/301/301 299/299/299 
f 301/301/301 302/302/302 304/304/304 
f 303/303/303 304/304/304 302/302/302 
f 305/305/305 300/300/300 301/301/301 
f 304/304/304 305/305/305 301/301/301 
f 304/304/304 303/303/303 306/306/306 
f 305/305/305 304/304/304 307/307/307 
f 306/306/306 307/307/307 304/304/304 
f 308/308/308 306/306/306 303/303/303 
f 307/307/307 306/306/306 309/309/309 
f 306/306/306 308/308/308 310/310/310 
f 310/310/310 309/309/309 306/306/306 
f 310/310/310 308/308/308 311/311/311 
f 311/311/311 312/312/312 310/310/310 
f 312/312/312 311/311/311 313/313/313 
f 314/314/314 310/310/310 312/312/312 
f 309/309/309 310/310/310 314/314/314 
f 313/313/313 315/315/315 312/312/312 
f 312/312/312 316/316/316 314/314/314 
f 316/316/316 312/312/312 315/315/315 
f 315/315/315 313/313/313 317/317/317 
f 318/318/318 319/319/319 320/320/320 
f 323/323/323 322/322/322 321/321/321 
f 322/322/322 323/323/323 325/325/325 
f 325/325/325 319/319/319 322/322/322 
f 319/319/319 325/325/325 328/328/328 
f 326/326/326 328/328/328 325/325/325 
f 328/328/328 326/326/326 327/327/327 
f 328/328/328 320/320/320 319/319/319 
f 327/327/327 329/329/329 328/328/328 
f 320/320/320 328/328/328 329/329/329 
f 329/329/329 330/330/330 320/320/320 
f 330/330/330 329/329/329 331/331/331 
f 334/334/334 331/331/331 333/333/333 
f 331/331/331 334/334/334 330/330/330 
f 335/335/335 334/334/334 333/333/333 
f 337/337/337 320/320/320 330/330/330 
f 320/320/320 337/337/337 318/318/318 
f 317/317/317 338/338/338 315/315/315 
f 339/339/339 315/315/315 338/338/338 
f 315/315/315 339/339/339 316/316/316 
f 338/338/338 341/341/341 339/339/339 
f 341/341/341 338/338/338 340/340/340 
f 342/342/342 316/316/316 339/339/339 
f 343/343/343 339/339/339 341/341/341 
f 339/339/339 343/343/343 342/342/342 
f 316/316/316 342/342/342 344/344/344 
f 344/344/344 314/314/314 316/316/316 
f 314/314/314 344/344/344 345/345/345 
f 345/345/345 309/309/309 314/314/314 
f 346/346/346 344/344/344 342/342/342 
f 347/347/347 345/345/345 344/344/344 
f 344/344/344 346/346/346 347/347/347 
f 348/348/348 342/342/342 343/343/343 
f 342/342/342 348/348/348 346/346/346 
f 349/349/349 309/309/309 345/345/345 
f 345/345/345 347/347/347 350/350/350 
f 350/350/350 349/349/349 345/345/345 
f 351/351/351 349/349/349 350/350/350 
f 352/352/352 309/309/309 349/349/349 
f 309/309/309 352/352/352 307/307/307 
f 353/353/353 349/349/349 351/351/351 
f 349/349/349 353/353/353 352/352/352 
f 354/354/354 307/307/307 352/352/352 
f 307/307/307 354/354/354 305/305/305 
f 355/355/355 352/352/352 353/353/353 
f 352/352/352 355/355/355 354/354/354 
f 357/357/357 354/354/354 355/355/355 
f 354/354/354 357/357/357 358/358/358 
f 356/356/356 354/354/354 358/358/358 
f 359/359/359 358/358/358 357/357/357 
f 341/341/341 360/360/360 343/343/343 
f 360/360/360 341/341/341 361/361/361 
f 340/340/340 361/361/361 341/341/341 
f 366/366/366 367/367/367 365/365/365 
f 359/359/359 365/365/365 367/367/367 
f 358/358/358 359/359/359 367/367/367 
f 367/367/367 366/366/366 368/368/368 
f 368/368/368 358/358/358 367/367/367 
f 371/371/371 356/356/356 369/369/369 
f 356/356/356 371/371/371 300/300/300 
f 297/297/297 300/300/300 371/371/371 
f 369/369/369 372/372/372 371/371/371 
f 372/372/372 369/369/369 370/370/370 
f 371/371/371 373/373/373 297/297/297 
f 373/373/373 371/371/371 372/372/372 
f 372/372/372 374/374/374 373/373/373 
f 370/370/370 375/375/375 372/372/372 
f 374/374/374 372/372/372 375/375/375 
f 375/375/375 370/370/370 376/376/376 
f 375/375/375 377/377/377 374/374/374 
f 376/376/376 378/378/378 375/375/375 
f 377/377/377 375/375/375 378/378/378 
f 378/378/378 379/379/379 377/377/377 
f 381/381/381 380/380/380 379/379/379 
f 379/379/379 378/378/378 381/381/381 
f 380/380/380 381/381/381 382/382/382 
f 381/381/381 383/383/383 382/382/382 
f 383/383/383 381/381/381 384/384/384 
f 378/378/378 384/384/384 381/381/381 
f 384/384/384 378/378/378 385/385/385 
f 378/378/378 376/376/376 385/385/385 
f 329/329/329 327/327/327 388/388/388 
f 389/389/389 319/319/319 390/390/390 
f 319/319/319 318/318/318 390/390/390 
f 319/319/319 389/389/389 322/322/322 
f 393/393/393 394/394/394 391/391/391 
f 392/392/392 391/391/391 394/394/394 
f 400/400/400 402/402/402 401/401/401 
f 402/402/402 403/403/403 401/401/401 
f 406/406/406 407/407/407 396/396/396 
f 395/395/395 396/396/396 407/407/407 
f 415/415/415 414/414/414 412/412/412 
f 410/410/410 394/394/394 416/416/416 
f 414/414/414 415/415/415 419/419/419 
f 417/417/417 419/419/419 415/415/415 
f 419/419/419 420/420/420 414/414/414 
f 418/418/418 420/420/420 422/422/422 
f 421/421/421 418/418/418 422/422/422 
f 423/423/423 422/422/422 420/420/420 
f 422/422/422 423/423/423 424/424/424 
f 420/420/420 419/419/419 425/425/425 
f 425/425/425 423/423/423 420/420/420 
f 426/426/426 425/425/425 419/419/419 
f 419/419/419 417/417/417 426/426/426 
f 427/427/427 423/423/423 425/425/425 
f 423/423/423 427/427/427 424/424/424 
f 428/428/428 422/422/422 424/424/424 
f 422/422/422 428/428/428 421/421/421 
f 428/428/428 424/424/424 427/427/427 
f 425/425/425 426/426/426 429/429/429 
f 427/427/427 425/425/425 429/429/429 
f 430/430/430 421/421/421 428/428/428 
f 427/427/427 430/430/430 428/428/428 
f 421/421/421 430/430/430 431/431/431 
f 431/431/431 413/413/413 421/421/421 
f 427/427/427 429/429/429 432/432/432 
f 413/413/413 431/431/431 433/433/433 
f 433/433/433 409/409/409 413/413/413 
f 427/427/427 434/434/434 430/430/430 
f 434/434/434 427/427/427 432/432/432 
f 429/429/429 435/435/435 432/432/432 
f 434/434/434 432/432/432 435/435/435 
f 435/435/435 429/429/429 426/426/426 
f 436/436/436 430/430/430 434/434/434 
f 435/435/435 436/436/436 434/434/434 
f 431/431/431 430/430/430 436/436/436 
f 437/437/437 431/431/431 436/436/436 
f 437/437/437 433/433/433 431/431/431 
f 408/408/408 438/438/438 407/407/407 
f 439/439/439 407/407/407 438/438/438 
f 439/439/439 416/416/416 394/394/394 
f 440/440/440 405/405/405 441/441/441 
f 442/442/442 440/440/440 441/441/441 
f 442/442/442 441/441/441 443/443/443 
f 444/444/444 442/442/442 443/443/443 
f 405/405/405 403/403/403 441/441/441 
f 445/445/445 444/444/444 443/443/443 
f 443/443/443 441/441/441 446/446/446 
f 441/441/441 403/403/403 446/446/446 
f 443/443/443 447/447/447 445/445/445 
f 447/447/447 443/443/443 446/446/446 
f 446/446/446 448/448/448 447/447/447 
f 448/448/448 446/446/446 402/402/402 
f 403/403/403 402/402/402 446/446/446 
f 402/402/402 400/400/400 449/449/449 
f 454/454/454 457/457/457 455/455/455 
f 457/457/457 456/456/456 455/455/455 
f 456/456/456 457/457/457 460/460/460 
f 458/458/458 461/461/461 457/457/457 
f 461/461/461 460/460/460 457/457/457 
f 459/459/459 462/462/462 458/458/458 
f 461/461/461 458/458/458 462/462/462 
f 462/462/462 459/459/459 463/463/463 
f 463/463/463 466/466/466 462/462/462 
f 466/466/466 463/463/463 464/464/464 
f 465/465/465 466/466/466 464/464/464 
f 466/466/466 461/461/461 462/462/462 
f 466/466/466 465/465/465 467/467/467 
f 460/460/460 461/461/461 468/468/468 
f 466/466/466 468/468/468 461/461/461 
f 468/468/468 469/469/469 460/460/460 
f 466/466/466 470/470/470 468/468/468 
f 470/470/470 466/466/466 467/467/467 
f 469/469/469 468/468/468 470/470/470 
f 467/467/467 471/471/471 470/470/470 
f 477/477/477 480/480/480 478/478/478 
f 480/480/480 479/479/479 478/478/478 
f 475/475/475 481/481/481 477/477/477 
f 480/480/480 477/477/477 481/481/481 
f 484/484/484 483/483/483 479/479/479 
f 479/479/479 480/480/480 484/484/484 
f 483/483/483 484/484/484 487/487/487 
f 487/487/487 486/486/486 483/483/483 
f 486/486/486 487/487/487 488/488/488 
f 488/488/488 489/489/489 486/486/486 
f 487/487/487 490/490/490 488/488/488 
f 484/484/484 491/491/491 487/487/487 
f 487/487/487 491/491/491 490/490/490 
f 484/484/484 492/492/492 491/491/491 
f 480/480/480 492/492/492 484/484/484 
f 492/492/492 480/480/480 493/493/493 
f 480/480/480 494/494/494 493/493/493 
f 494/494/494 480/480/480 481/481/481 
f 481/481/481 495/495/495 494/494/494 
f 495/495/495 481/481/481 497/497/497 
f 475/475/475 497/497/497 481/481/481 
f 497/497/497 475/475/475 474/474/474 
f 497/497/497 498/498/498 495/495/495 
f 474/474/474 499/499/499 497/497/497 
f 498/498/498 497/497/497 499/499/499 
f 499/499/499 474/474/474 476/476/476 
f 499/499/499 500/500/500 498/498/498 
f 500/500/500 499/499/499 501/501/501 
f 476/476/476 501/501/501 499/499/499 
f 501/501/501 502/502/502 500/500/500 
f 501/501/501 476/476/476 503/503/503 
f 502/502/502 501/501/501 504/504/504 
f 503/503/503 504/504/504 501/501/501 
f 489/489/489 488/488/488 506/506/506 
f 488/488/488 507/507/507 506/506/506 
f 488/488/488 490/490/490 507/507/507 
f 506/506/506 508/508/508 489/489/489 
f 509/509/509 506/506/506 507/507/507 
f 506/506/506 509/509/509 510/510/510 
f 508/508/508 506/506/506 510/510/510 
f 511/511/511 510/510/510 509/509/509 
f 510/510/510 512/512/512 508/508/508 
f 519/519/519 453/453/453 520/520/520 
f 519/519/519 522/522/522 485/485/485 
f 521/521/521 520/520/520 523/523/523 
f 521/521/521 524/524/524 522/522/522 
f 524/524/524 521/521/521 525/525/525 
f 521/521/521 523/523/523 525/525/525 
f 525/525/525 526/526/526 524/524/524 
f 525/525/525 523/523/523 527/527/527 
f 531/531/531 528/528/528 530/530/530 
f 528/528/528 531/531/531 532/532/532 
f 531/531/531 529/529/529 532/532/532 
f 529/529/529 531/531/531 533/533/533 
f 530/530/530 535/535/535 531/531/531 
f 535/535/535 533/533/533 531/531/531 
f 535/535/535 530/530/530 534/534/534 
f 533/533/533 535/535/535 536/536/536 
f 537/537/537 534/534/534 526/526/526 
f 534/534/534 537/537/537 535/535/535 
f 537/537/537 536/536/536 535/535/535 
f 537/537/537 527/527/527 536/536/536 
f 526/526/526 525/525/525 537/537/537 
f 525/525/525 527/527/527 537/537/537 
f 538/538/538 539/539/539 540/540/540 
f 539/539/539 541/541/541 540/540/540 
f 541/541/541 539/539/539 544/544/544 
f 543/543/543 544/544/544 539/539/539 
f 544/544/544 543/543/543 545/545/545 
f 545/545/545 543/543/543 546/546/546 
f 473/473/473 547/547/547 546/546/546 
f 547/547/547 473/473/473 549/549/549 
f 549/549/549 548/548/548 547/547/547 
f 548/548/548 549/549/549 471/471/471 
f 471/471/471 467/467/467 548/548/548 

g Meshpart2

v 1376.44 -389.924 1028.18 
v 1376.62 -389.959 1028.11 
v 1376.52 -389.94 1028.13 
v 1376.6 -389.696 1028.22 
v 1376.7 -389.729 1028.19 
v 1376.52 -389.69 1028.26 
v 1376.81 -389.64 1028.41 
v 1376.63 -389.599 1028.48 
v 1376.72 -389.602 1028.45 
v 1376.52 -389.69 1028.26 
v 1376.7 -389.73 1028.72 
v 1376.63 -389.599 1028.48 
v 1376.44 -390.177 1028.3 
v 1376.44 -389.924 1028.18 
v 1376.62 -390.217 1028.76 
v 1376.71 -389.983 1028.85 
v 1376.51 -390.308 1028.54 
v 1376.71 -389.983 1028.85 
v 1376.88 -390.018 1028.77 
v 1376.8 -390.002 1028.82 
v 1376.81 -389.64 1028.41 
v 1376.63 -389.599 1028.48 
v 1376.72 -389.602 1028.45 
v 1376.8 -389.738 1028.69 
v 1376.88 -389.769 1028.64 
v 1376.7 -389.73 1028.72 
v 1376.51 -390.308 1028.54 
v 1376.6 -390.34 1028.51 
v 1376.72 -390.246 1028.73 
v 1376.62 -390.217 1028.76 
v 1376.69 -390.338 1028.47 
v 1376.8 -390.249 1028.68 
v 1376.71 -389.983 1028.85 
v 1376.88 -390.018 1028.77 
v 1376.8 -390.002 1028.82 
v 1376.62 -390.208 1028.23 
v 1376.7 -389.729 1028.19 
v 1376.88 -389.769 1028.64 
v 1376.81 -389.64 1028.41 
v 1376.62 -389.959 1028.11 
v 1376.8 -390.249 1028.68 
v 1376.69 -390.338 1028.47 
v 1376.88 -390.018 1028.77 
v 1376.51 -390.308 1028.54 
v 1376.44 -390.177 1028.3 
v 1376.52 -390.204 1028.26 
v 1376.44 -389.924 1028.18 
v 1376.6 -390.34 1028.51 
v 1376.69 -390.338 1028.47 
v 1376.62 -390.208 1028.23 
v 1376.62 -389.959 1028.11 
v 1376.52 -389.94 1028.13 

vn -0.519685 0.0314961 -0.850394 
vn -0.19685 -0.0393701 -0.976378 
vn -0.362205 0 -0.929134 
vn -0.11811 0.716535 -0.685039 
vn 0.0472441 0.669291 -0.740157 
vn -0.283465 0.740157 -0.606299 
vn 0.377953 0.92126 -0.0787402 
vn 0.0472441 1 0.0551181 
vn 0.212598 0.976378 -0.023622 
vn -0.905512 0.181102 0.385827 
vn -0.905512 0.181102 0.385827 
vn -0.905512 0.181102 0.385827 
vn -0.905512 0.181102 0.385827 
vn -0.905512 0.181102 0.385827 
vn -0.905512 0.181102 0.385827 
vn -0.905512 0.181102 0.385827 
vn -0.905512 0.181102 0.385827 
vn 0.244094 0.023622 0.968504 
vn 0.566929 -0.0393701 0.818898 
vn 0.409449 -0.015748 0.913386 
vn 0.377953 0.92126 -0.0787402 
vn 0.0472441 1 0.0551181 
vn 0.212598 0.976378 -0.023622 
vn 0.417323 0.661417 0.614173 
vn 0.559055 0.622047 0.543307 
vn 0.267717 0.685039 0.677165 
vn -0.330709 -0.944882 0.0629921 
vn -0.165354 -0.984252 0 
vn 0.165354 -0.724409 0.669291 
vn 0 -0.685039 0.732283 
vn 0 -1 -0.0787402 
vn 0.330709 -0.740157 0.582677 
vn 0.244094 0.023622 0.968504 
vn 0.566929 -0.0393701 0.818898 
vn 0.409449 -0.015748 0.913386 
vn 0.905512 -0.181102 -0.385827 
vn 0.905512 -0.181102 -0.385827 
vn 0.905512 -0.181102 -0.385827 
vn 0.905512 -0.181102 -0.385827 
vn 0.905512 -0.181102 -0.385827 
vn 0.905512 -0.181102 -0.385827 
vn 0.905512 -0.181102 -0.385827 
vn 0.905512 -0.181102 -0.385827 
vn -0.330709 -0.944882 0.0629921 
vn -0.519685 -0.637795 -0.566929 
vn -0.377953 -0.677165 -0.637795 
vn -0.519685 0.0314961 -0.850394 
vn -0.165354 -0.984252 0 
vn 0 -1 -0.0787402 
vn -0.220472 -0.692913 -0.685039 
vn -0.19685 -0.0393701 -0.976378 
vn -0.362205 0 -0.929134 

vt 8.24232 -14.9016 
vt 8.23865 -15.0984 
vt 8.25259 -15 
vt 8 -15 
vt 8 -15.0984 
vt 8 -14.9016 
vt 7.76135 -15.0984 
vt 7.75768 -14.9016 
vt 7.74741 -15 
vt 7.63376 -15 
vt 8 -14.6668 
vt 7.73364 -14.7577 
vt 8 -15.3332 
vt 7.73364 -15.2423 
vt 8.36624 -15 
vt 8.26636 -14.7577 
vt 8.26636 -15.2423 
vt 7.73364 -14.9016 
vt 7.73768 -15.0984 
vt 7.72236 -15 
vt 8.26232 -15.0984 
vt 8.26636 -14.9016 
vt 8.27764 -15 
vt 8 -15 
vt 8 -15.0984 
vt 8 -14.9016 
vt 7.75768 -14.9016 
vt 7.74741 -15 
vt 8 -15 
vt 8 -14.9016 
vt 7.76135 -15.0984 
vt 8 -15.0984 
vt 8.24232 -14.9016 
vt 8.23865 -15.0984 
vt 8.25259 -15 
vt 8 -15.3281 
vt 8.36069 -15 
vt 8 -14.6719 
vt 8.26232 -14.7613 
vt 8.26232 -15.2387 
vt 7.63931 -15 
vt 7.73768 -15.2387 
vt 7.73768 -14.7613 
vt 8.26636 -14.9016 
vt 8 -14.9016 
vt 8 -15 
vt 7.73364 -14.9016 
vt 8.27764 -15 
vt 8.26232 -15.0984 
vt 8 -15.0984 
vt 7.73768 -15.0984 
vt 7.72236 -15 

usemtl Meshpart2Mtl

f 553/553/553 551/551/551 552/552/552 
f 553/553/553 552/552/552 550/550/550 
f 551/551/551 553/553/553 554/554/554 
f 550/550/550 555/555/555 553/553/553 
f 556/556/556 554/554/554 553/553/553 
f 557/557/557 553/553/553 555/555/555 
f 553/553/553 558/558/558 556/556/556 
f 553/553/553 557/557/557 558/558/558 
f 559/559/559 560/560/560 561/561/561 
f 560/560/560 559/559/559 562/562/562 
f 562/562/562 559/559/559 563/563/563 
f 564/564/564 560/560/560 562/562/562 
f 560/560/560 564/564/564 565/565/565 
f 564/564/564 562/562/562 566/566/566 
f 573/573/573 570/570/570 572/572/572 
f 573/573/573 572/572/572 571/571/571 
f 570/570/570 573/573/573 574/574/574 
f 568/568/568 574/574/574 573/573/573 
f 568/568/568 573/573/573 569/569/569 
f 573/573/573 567/567/567 569/569/569 
f 573/573/573 571/571/571 575/575/575 
f 567/567/567 573/573/573 575/575/575 
f 578/578/578 576/576/576 577/577/577 
f 576/576/576 578/578/578 579/579/579 
f 580/580/580 578/578/578 577/577/577 
f 578/578/578 580/580/580 581/581/581 
f 578/578/578 582/582/582 579/579/579 
f 583/583/583 578/578/578 581/581/581 
f 582/582/582 578/578/578 584/584/584 
f 578/578/578 583/583/583 584/584/584 
f 585/585/585 586/586/586 587/587/587 
f 587/587/587 586/586/586 588/588/588 
f 586/586/586 585/585/585 589/589/589 
f 587/587/587 590/590/590 585/585/585 
f 585/585/585 590/590/590 591/591/591 
f 590/590/590 587/587/587 592/592/592 
f 593/593/593 594/594/594 595/595/595 
f 596/596/596 595/595/595 594/594/594 
f 593/593/593 595/595/595 597/597/597 
f 595/595/595 598/598/598 597/597/597 
f 598/598/598 595/595/595 599/599/599 
f 595/595/595 600/600/600 599/599/599 
f 600/600/600 595/595/595 601/601/601 
f 595/595/595 596/596/596 601/601/601 

